<svg version="1.1" id="Capa_1" xmlns="http://www.w3.org/2000/svg" x="0px" y="0px" viewBox="0 0 1463.4 665.5" style="enable-background:new 0 0 1463.4 665.5;" xml:space="preserve">

			
			<style type="text/css">
				#Capa_1 {
					padding:2.5rem;
					transform: translateY(-70px);
					z-index:2;
				}

				.st0 {
					fill-rule: evenodd;
					clip-rule: evenodd;
					fill: #cfb4b4;
					filter: brightness(80%)
				}

				.st1 {
					fill-rule: evenodd;
					clip-rule: evenodd;
					fill: #333333;
				}

				.st2 {
					fill-rule: evenodd;
					clip-rule: evenodd;
					fill: #66CC99;
					filter: brightness(80%)
				}

				.st3 {
					fill: none;
					stroke: #ffffff;
					stroke-width: 1;
					stroke-linecap: square;
					stroke-miterlimit: 10;
				}

				.st4 {
					fill: none;
					stroke: #000000;
					stroke-width: 5;
					stroke-miterlimit: 10;
				}

				.st5 {
					font-family: 'Heebo';
					font-size: 25.1934px;
					text-align: center;
					width: 4rem;
					fill:white;
					text-shadow: 2px 0px 1px rgba(0, 0, 0, 0.5);
				}

				.st7 {
					font-size: 25.1934px;
					font-family: 'Heebo';
					text-align: center;
					font-weight: bold;
					fill:white;
					text-shadow: 2px 0px 1px rgba(0, 0, 0, 0.5);
				}

				.st8 {
					font-size: 25.1934px;
					color: #00bcd4;
					font-family: 'Heebo';
				}
			</style>
			<rect x="1.1" y="45.5" class="st0" width="562.1" height="201.9" style="fill: rgb(195, 22, 50);"></rect>
			<rect x="901.3" y="45.5" class="st2" width="562.1" height="201.9" style="fill: rgb(0, 149, 76);"></rect>
			<rect x="1.1" y="254.4" class="st0" width="562.1" height="201.9" style="fill: rgb(195, 22, 50);"></rect>
			<rect x="901.3" y="254.4" class="st2" width="562.1" height="201.9" style="fill: rgb(0, 149, 76);"></rect>
			<rect x="1.1" y="463.3" class="st0" width="562.1" height="201.9" style="fill: rgb(195, 22, 50);"></rect>
			<rect x="901.3" y="463.3" class="st2" width="562.1" height="201.9" style="fill: rgb(0, 149, 76);"></rect>
			<line class="st3" x1="1.1" y1="113.4" x2="563.1" y2="113.4"></line>
			<line class="st3" x1="901.3" y1="113.4" x2="1463.2" y2="113.4"></line>
			<line class="st3" x1="1.1" y1="179.5" x2="563.1" y2="179.5"></line>
			<line class="st3" x1="901.3" y1="179.5" x2="1463.2" y2="179.5"></line>
			<line class="st3" x1="1.1" y1="322.4" x2="563.1" y2="322.4"></line>
			<line class="st3" x1="901.3" y1="322.4" x2="1463.2" y2="322.4"></line>
			<line class="st3" x1="1.1" y1="388.5" x2="563.1" y2="388.5"></line>
			<line class="st3" x1="901.3" y1="388.5" x2="1463.2" y2="388.5"></line>
			<line class="st3" x1="1.1" y1="529.6" x2="563.1" y2="529.6"></line>
			<line class="st3" x1="901.3" y1="529.6" x2="1463.2" y2="529.6"></line>
			<line class="st3" x1="1.1" y1="597.6" x2="563.1" y2="597.6"></line>
			<line class="st3" x1="901.3" y1="597.6" x2="1463.2" y2="597.6"></line>
			<line class="st4" x1="443" y1="44.9" x2="443" y2="664.6"></line>
			<line class="st4" x1="1019.9" y1="45.7" x2="1019.9" y2="665.5"></line>
			<g>
				<text class="st7" transform="matrix(0.9994 0 0 1 339.7364 90.1907)">Goles</text>
			</g>
			<text transform="matrix(0.9994 0 0 1 478.0697 90.1907)" class="st5" id="Goles_1">1,5</text>
			<text transform="matrix(0.9994 0 0 1 971.7869 90.1907)" class="st5" id="Goles_2">1</text>
			<g>
				<text transform="matrix(0.9994 0 0 1 1060.4702 90.1907)" class="st7">Goles</text>
			</g>
			<g>
				<text transform="matrix(0.9994 0 0 1 218.2236 157.4993)" class="st7">Goles esperados</text>
			</g>
			<text transform="matrix(0.9994 0 0 1 478.0697 157.4993)" class="st5" id="Goles_esperados_1">1</text>
			<text transform="matrix(0.9994 0 0 1 972.7869 157.4993)" class="st5" id="Goles_esperados_2">1</text>
			<g>
				<text transform="matrix(0.9994 0 0 1 1058.0576 157.4993)" class="st7">Goles esperados</text>
			</g>
			<g>
				<text transform="matrix(0.9994 0 0 1 304.601 224.8079)" class="st7">Remates</text>
			</g>
			<text transform="matrix(0.9994 0 0 1 478.0697 224.8079)" class="st5" id="Remates_1">8,8</text>
			<text transform="matrix(0.9994 0 0 1 940.7869 224.8079)" class="st5" id="Remates_2">13,5</text>
			<g>
				<text transform="matrix(0.9994 0 0 1 1059.4351 224.8079)" class="st7">Remates</text>
			</g>
			<g>
				<text transform="matrix(0.9994 0 0 1 228.8146 299.1145)" class="st7">Goles recibidos</text>
			</g>
			<text transform="matrix(0.9994 0 0 1 478.0697 299.1145)" class="st5" id="Goles_recibidos_1">2,8</text>
			<text transform="matrix(0.9994 0 0 1 952.7869 299.1145)" class="st5" id="Goles_recibidos_2">1,8</text>
			<g>
				<text transform="matrix(0.9994 0 0 1 1059.6484 299.1145)" class="st7">Goles recibidos</text>
			</g>
			<g>
				<text transform="matrix(0.9994 0 0 1 194.7919 366.4036)" class="st7">Remates recibidos</text>
			</g>
			<text transform="matrix(0.9994 0 0 1 478.0697 366.4036)" class="st5" id="Remates_recibidos_1">13,2</text>
			<text transform="matrix(0.9994 0 0 1 939.7869 366.4036)" class="st5" id="Remates_recibidos_2">12,3</text>
			<g>
				<text transform="matrix(0.9994 0 0 1 1059.6255 366.4036)" class="st7">Remates recibidos</text>
			</g>
			<g>
				<text transform="matrix(0.9994 0 0 1 224.4413 433.6927)" class="st7">Recuperaciones</text>
			</g>
			<text transform="matrix(0.9994 0 0 1 478.0697 433.6927)" class="st5" id="Recuperaciones_en_campo_rival_1">8,7</text>
			<text transform="matrix(0.9994 0 0 1 940.7869 433.6927)" class="st5" id="Recuperaciones_en_campo_rival_2">10,5</text>
			<g>
				<text transform="matrix(0.9994 0 0 1 1060.2749 433.6927)" class="st7">Recuperaciones</text>
			</g>
			<g>
				<text transform="matrix(0.9994 0 0 1 259.3935 507.9993)" class="st7">Posesi贸n (%)</text>
			</g>
			<text transform="matrix(0.9994 0 0 1 478.0697 507.9993)" class="st5" id="__posesion_de_balon_1">47%</text>
			<text transform="matrix(0.9994 0 0 1 943.7869 507.9993)" class="st5" id="__posesion_de_balon_2">49%</text>
			<g>
				<text transform="matrix(0.9994 0 0 1 1060.2271 507.9993)" class="st7">Posesi贸n (%)</text>
			</g>
			<g>
				<text transform="matrix(0.9994 0 0 1 175.9064 575.2883)" class="st7">Acierto en pases (%)</text>
			</g>
			<text transform="matrix(0.9994 0 0 1 478.0697 575.2883)" class="st5" id="__acierto_en_pases_1">77%</text>
			<text transform="matrix(0.9994 0 0 1 943.7869 575.2883)" class="st5" id="__acierto_en_pases_2">85%</text>
			<g>
				<text transform="matrix(0.9994 0 0 1 1055.7397 575.2883)" class="st7">Acierto en pases (%)</text>
			</g>
			<text transform="matrix(0.9994 0 0 1 952.7869 640.5969)" class="st5" id="Pases_por_posesion_1">2,7</text>
			<g>
				<text transform="matrix(0.9994 0 0 1 188.3933 639.6836)" class="st7">Pases por posesi贸n</text>
			</g>
			<text transform="matrix(0.9994 0 0 1 478.0697 640.6836)" class="st5" id="Pases_por_posesion_2">3,9</text>
			<g>
				<text transform="matrix(0.9994 0 0 1 1054.2273 639.6836)" class="st7">Pases por posesi贸n</text>
			</g>
		</svg>