<?xml version="1.0" encoding="utf-8"?>
<!-- Generator: Adobe Illustrator 26.2.1, SVG Export Plug-In . SVG Version: 6.00 Build 0)  -->
<svg version="1.1"
	 id="svg70" xmlns:cc="http://creativecommons.org/ns#" xmlns:dc="http://purl.org/dc/elements/1.1/" xmlns:rdf="http://www.w3.org/1999/02/22-rdf-syntax-ns#" xmlns:svg="http://www.w3.org/2000/svg"
	 xmlns="http://www.w3.org/2000/svg" xmlns:xlink="http://www.w3.org/1999/xlink" x="0px" y="0px" viewBox="0 0 111.2 110.9"
	 style="enable-background:new 0 0 111.2 110.9;" xml:space="preserve">
<style type="text/css">
	.st0{fill:#0232A0;}
	.st1{fill:#FFFFFF;}
	.st2{fill:#D9E0E7;}
	.st3{fill:#082E86;}
</style>
<g>
	<path class="st0" d="M55.6,11.1C31,11.1,11.1,31,11.1,55.5S31,99.8,55.6,99.8s44.5-19.9,44.5-44.4S80.1,11.1,55.6,11.1z M55.6,98.6
		c-23.9,0-43.3-19.3-43.3-43.2s19.4-43.2,43.3-43.2s43.3,19.3,43.3,43.2S79.5,98.6,55.6,98.6z"/>
	<path class="st1" d="M55.6,12.3c-23.9,0-43.3,19.3-43.3,43.2s19.4,43.2,43.3,43.2s43.3-19.3,43.3-43.2S79.5,12.3,55.6,12.3z
		 M55.6,97.4c-23.2,0-42-18.8-42-42s18.8-42,42-42s42,18.8,42,42S78.8,97.4,55.6,97.4z"/>
	<path class="st0" d="M31.1,32c0.7-0.7,0.7-1.8-0.1-2.5c-0.7-0.7-1.8-0.7-2.5,0l-0.7,0.7l2.6,2.5L31.1,32z"/>
	<path class="st0" d="M21.3,54c-0.5,0-0.8,0.3-0.8,0.8c0,0.4,0.4,0.7,0.8,0.7c0.5,0,0.8-0.3,0.8-0.7C22.2,54.3,21.9,54,21.3,54z"/>
	<polygon class="st0" points="38.9,87.3 39.1,85.4 37.6,86.6 	"/>
	<polygon class="st0" points="51.6,91.3 53.1,91.5 52.5,89.6 	"/>
	<path class="st0" d="M42,22.4c0.6-0.3,0.9-0.7,0.7-1.2c-0.2-0.6-0.7-0.6-1.3-0.4l-0.9,0.4l0.7,1.6L42,22.4z"/>
	<path class="st0" d="M82.5,31.3c0.8-0.7,0.9-1.8,0.3-2.6c-0.7-0.8-1.8-0.8-2.6-0.2c-0.8,0.7-0.9,1.8-0.3,2.6
		C80.6,31.9,81.7,32,82.5,31.3z"/>
	<path class="st0" d="M49.7,22c1-0.2,1.5-1.2,1.3-2.2c-0.2-1-1.2-1.6-2.2-1.4c-1,0.2-1.5,1.2-1.3,2.2C47.8,21.6,48.7,22.3,49.7,22z"
		/>
	<path class="st0" d="M58.5,18.8c0-0.7-0.5-0.9-1.2-0.9l-1.1,0l-0.1,1.7l1.1,0C57.9,19.6,58.5,19.5,58.5,18.8z"/>
	<path class="st0" d="M55.6,13.4c-23.2,0-42,18.8-42,42s18.8,42,42,42s42-18.8,42-42S78.8,13.4,55.6,13.4z M83.7,27.9
		c1.2,1.4,1,3.4-0.3,4.5c-1.3,1.1-3.3,0.9-4.5-0.4c-1.2-1.4-1-3.4,0.3-4.5C80.5,26.3,82.5,26.5,83.7,27.9z M73.9,20.8l1.3,0.8
		l-0.9,4.4l3.5-2.8l1.3,0.8l-5.3,3.9l-1.1-0.6L73.9,20.8z M70.1,19.2l1.3,0.5l-2.3,5.6l-1.3-0.5L70.1,19.2z M62.6,17.1l4.9,1.2
		l-0.3,1.2L65.4,19l-1.1,4.7l-1.4-0.3l1.1-4.7l-1.8-0.4L62.6,17.1z M54.9,16.5l2.4,0.1c0.8,0,1.6,0.2,2,0.6c0.4,0.3,0.6,0.8,0.6,1.5
		c0,0.9-0.6,1.6-1.4,1.8l1.4,2.2l-1.6-0.1l-1.2-1.9l-1,0l-0.1,1.9l-1.4,0L54.9,16.5z M48.6,17.2c1.8-0.4,3.5,0.6,3.9,2.3
		c0.4,1.7-0.6,3.4-2.4,3.8c-1.8,0.4-3.5-0.6-3.9-2.3C45.7,19.3,46.8,17.6,48.6,17.2z M40.7,19.7c0.8-0.3,1.4-0.5,2-0.3
		c0.5,0.1,1,0.5,1.2,1.2c0.2,0.6,0.3,1.1,0.1,1.6c-0.2,0.5-0.6,1-1.7,1.4l-0.7,0.3l0.7,1.7l-1.3,0.5l-2.3-5.6L40.7,19.7z M36,21.9
		l0.7,1l-2.7,1.8l0.6,1l2.4-1.6l0.7,1l-2.4,1.6l0.7,1l2.7-1.8l0.7,1l-3.9,2.6l-3.4-5L36,21.9z M27.5,28.7c0.5-0.6,1.1-1,1.9-1.1
		c0.9-0.2,1.8,0.1,2.6,0.8c0.8,0.8,1,1.9,0.8,2.8c-0.2,0.7-0.6,1.2-1.1,1.7l-1.5,1.5L26,30.3L27.5,28.7z M18.6,57.6h-0.8v-3.4
		L17,54.3l-0.2-0.7l1-0.3h0.7V57.6z M22.5,57.1c-0.3,0.3-0.7,0.6-1.2,0.6c-0.6,0-0.9-0.2-1.4-0.5l0.4-0.6c0.3,0.3,0.6,0.4,1,0.4
		c0.6,0,0.9-0.5,0.9-1.2c-0.2,0.2-0.5,0.4-0.9,0.4c-0.8,0-1.5-0.5-1.5-1.3c0-0.9,0.7-1.5,1.6-1.5c0.6,0,1.1,0.2,1.3,0.6
		c0.3,0.4,0.4,0.9,0.4,1.5C23,55.9,22.9,56.6,22.5,57.1z M39.8,90.8l-1.3-0.7l0.2-1.4l-2.2-1.2l-1.1,0.9l-1.2-0.7l5.3-4l1.1,0.6
		L39.8,90.8z M46.6,93.1l-4.2-1.3l1.8-5.8l1.3,0.4L44.1,91l2.9,0.9L46.6,93.1z M53.9,94.1l-0.4-1.4L51,92.5l-0.7,1.3l-1.4-0.1
		l3.2-5.8l1.2,0.1l2,6.3L53.9,94.1z M61.3,93.8l-1.2,0.2L57,88.2l1.5-0.2l2,4l1-4.3l1.5-0.2L61.3,93.8z M66.5,92.8l-2-5.7l4.3-1.5
		l0.4,1.2l-3,1.1l0.4,1.1l2.7-0.9l0.4,1.2L67,90l0.4,1.1l3.1-1.1l0.4,1.2L66.5,92.8z M66,86.1l0.5-1.7l1.3,0.1L67,85.7L66,86.1z
		 M76.7,87.5c-0.1,0.5-0.5,0.9-1,1.3c-0.6,0.4-1.7,0.8-2.9,0.5l0.2-1.2c0.6,0.1,1.4,0.1,2-0.3c0.3-0.2,0.6-0.5,0.4-0.8
		c-0.3-0.5-1.3,0-1.8,0.1c-0.4,0.1-0.7,0.2-1.1,0.1c-0.4-0.1-0.8-0.3-1.1-0.7c-0.3-0.5-0.4-0.9-0.3-1.3c0.1-0.6,0.5-1,1-1.4
		c0.6-0.4,1.6-0.7,2.5-0.5l-0.1,1.2c-0.7-0.1-1.2,0-1.7,0.3c-0.2,0.2-0.5,0.4-0.4,0.7c0.2,0.5,0.9,0.3,1.2,0.2
		c0.5-0.1,1-0.3,1.5-0.3c0.5,0,1.1,0.2,1.4,0.7C76.8,86.6,76.8,87.1,76.7,87.5z M85.3,55.5c-0.1,0.2-0.2,0.4-0.4,0.6
		c-0.4,15.8-13.4,28.6-29.3,28.6c-4.9,0-9.5-1.2-13.6-3.3l-1.2,1.7l-1.2-3.2c-8-5.2-13.3-14.3-13.3-24.5c0-2.4,0.3-4.8,0.8-7
		L23.4,39l1.4-0.4c2.6-0.8,5.3-1.3,8.1-1.6c5.4-6.6,13.6-10.8,22.8-10.8c11.9,0,22.2,7.1,26.8,17.4c0.4-0.3,0.8-0.6,1.1-1
		c1-1.1,1.7-2.3,2.3-4.4c1.2,2.4,1.8,4.9,1.9,7.7C87.8,49.2,86.9,52.7,85.3,55.5z M91.7,57.6h-3.1v-0.6l1.7-1.5
		c0.2-0.2,0.5-0.5,0.5-0.8c0-0.4-0.3-0.6-0.6-0.6c-0.4,0-0.7,0.3-0.9,0.6l-0.6-0.4c0.2-0.3,0.4-0.5,0.7-0.7c0.2-0.1,0.6-0.3,0.8-0.3
		c0.3,0,0.6,0,0.8,0.2c0.4,0.2,0.7,0.7,0.7,1.2c0,0.2-0.1,0.5-0.2,0.7c-0.4,0.6-1.1,1-1.6,1.5h1.9V57.6z M93.2,57.6v-3.4l-0.7,0.2
		l-0.2-0.7l1-0.3H94v4.2H93.2z"/>
	<path class="st0" d="M55.6,28.5c11.1,0,20.6,6.6,24.7,16.1c0.4-0.1,0.7-0.3,1-0.4C77,34.3,67.1,27.4,55.6,27.4h0
		c-8.4,0-15.9,3.7-21.1,9.5c0.5,0,1-0.1,1.6-0.1C41,31.7,47.9,28.5,55.6,28.5z"/>
	<path class="st0" d="M55.6,82.3c-4.4,0-8.5-1-12.2-2.9c-0.2,0.3-0.4,0.6-0.7,0.9c3.8,2,8.2,3.1,12.8,3.1c14.6,0,26.6-11.1,28-25.2
		c-0.4,0.5-0.9,1.1-1.3,1.6C80.1,72.6,69,82.3,55.6,82.3z"/>
	<path class="st0" d="M28.6,55.4c0-1,0.1-2,0.2-2.9l-0.8-2.1c-0.3,1.6-0.4,3.3-0.4,5c0,9.2,4.5,17.4,11.3,22.5L38,75.8
		C32.2,70.9,28.6,63.6,28.6,55.4z"/>
	<path class="st1" d="M85.8,38.1c-0.6,2.1-1.3,3.3-2.3,4.4c-0.4,0.4-0.7,0.7-1.1,1c-4.6-10.2-14.9-17.4-26.8-17.4
		c-9.2,0-17.4,4.2-22.8,10.8c-2.7,0.3-5.4,0.8-8.1,1.6L23.4,39l3.7,9.4c-0.6,2.2-0.8,4.6-0.8,7c0,10.3,5.3,19.3,13.3,24.5l1.2,3.2
		l1.2-1.7c4.1,2.1,8.7,3.3,13.6,3.3c16,0,29-12.7,29.3-28.6c0.1-0.2,0.2-0.4,0.4-0.6c1.6-2.8,2.5-6.3,2.4-9.7
		C87.6,43,87,40.5,85.8,38.1z M55.6,27.4L55.6,27.4c11.5,0,21.4,6.9,25.7,16.8c-0.3,0.2-0.7,0.3-1,0.4c-4.2-9.5-13.7-16.1-24.7-16.1
		c-7.7,0-14.6,3.2-19.5,8.3c-0.5,0-1,0-1.6,0.1C39.7,31,47.2,27.4,55.6,27.4z M27.5,55.4c0-1.7,0.2-3.4,0.4-5l0.8,2.1
		c-0.1,1-0.2,1.9-0.2,2.9c0,8.2,3.6,15.5,9.4,20.4l0.8,2.1C31.9,72.8,27.5,64.6,27.5,55.4z M55.6,83.4c-4.6,0-9-1.1-12.8-3.1
		c0.2-0.3,0.4-0.6,0.7-0.9c3.7,1.9,7.8,2.9,12.2,2.9c13.4,0,24.5-9.8,26.6-22.6c0.5-0.5,0.9-1,1.3-1.6
		C82.1,72.4,70.1,83.4,55.6,83.4z M84.2,54.9c-1.6,2.9-3.9,5.3-6.8,7.4c-3.6,2.6-8.3,4.6-13.7,6.2l-1-2.5c-4.3,1.3-8.2,3-11.5,5.1
		c-4,2.5-7.2,5.2-9.9,9.3l-16-40.5c5.9-1.8,12.1-2.1,18-1.4c4.3,0.5,8.5,1.5,12.8,3.1l0.7,1.7c6.4,2.1,12.6,3.4,17.7,3.5
		c5.4,0.1,9.5-1.3,11.3-5.1C87.1,45.9,86.2,51.2,84.2,54.9z"/>
	<path class="st0" d="M74.4,46.6c-5.1-0.1-11.3-1.4-17.7-3.5l-0.7-1.7c-4.2-1.6-8.5-2.6-12.8-3.1c-5.9-0.7-12.2-0.3-18,1.4l16,40.5
		c2.8-4.1,6-6.8,9.9-9.3c3.4-2.1,7.2-3.8,11.5-5.1l1,2.5c5.5-1.6,10.1-3.6,13.7-6.2c2.9-2.1,5.2-4.5,6.8-7.4
		c2.1-3.7,2.9-8.9,1.5-13.3C83.9,45.3,79.8,46.7,74.4,46.6z M83.1,54.2c-1.6,2.8-4,5.2-6.6,7c-2.8,2-5.9,3.3-9.1,4.4l0,0
		c0,0-0.1,0-0.1,0c-0.4,0.1-0.9,0.3-1.3,0.4c0,0-0.1,0-0.1,0c-0.5,0.1-0.9,0.3-1.4,0.4l-0.9-2.3c-4.1,0.9-9.2,2.9-13.4,5.5
		c-3.7,2.3-6,4.3-8.4,7.2L36.5,64c2.8-2,6.9-3.5,10.7-4.3c4.4-1,8.5-1.4,13.9-1.3l0.7,1.8h0l-4.3-10.9v0c0,0,0,0,0,0v0c0,0,0,0,0,0
		L57,47.8l-0.1-0.2c-6.4-0.8-11.9-1-16.6-0.6c-3.8,0.3-7,0.9-9.8,1.9l-3.2-8c4.6-1.3,10.3-1.8,15.7-1.2c4.1,0.5,7.9,1.1,11.8,2.6
		l0.8,2c0.3,0.1,0.5,0.2,0.7,0.2c0.1,0,0.2,0,0.2,0.1c0.2,0,0.3,0.1,0.5,0.1c0.1,0,0.2,0.1,0.3,0.1c0.2,0,0.3,0.1,0.5,0.1
		c0.1,0,0.2,0,0.3,0.1c0.2,0,0.3,0.1,0.5,0.1c2.4,0.6,4.6,1.1,7,1.6c2.8,0.6,5.9,0.9,8.8,1c1.9,0,3.8-0.1,5.4-0.5
		c1.4-0.3,2.5-0.8,3.4-1.6c-1.5,1.8-4.7,3-8.1,3.6c-3.9,0.8-8.8,0.8-14.5,0.3l0,0l4.3,10.2c3.9-0.6,7.5-1.7,10.8-3.2
		c3.3-1.5,6.5-3.5,9-6.3C84.3,51.7,83.7,53,83.1,54.2z M46.4,51.2l-0.1,3.3c0,1.2-1,2.1-2,2.4l-3.3,1L39.9,55l1.5-0.4l0.7,1.7
		l1.7-0.5c0.7-0.2,1.1-0.6,1.2-1.1c0.3-1.1-0.4-2.4-1.3-3c-0.3-0.2-0.8-0.4-1.3-0.5c-0.5-0.1-1,0-1.4,0.1l-0.9,0.2l0.6,1.5l-1.5,0.4
		l-1-2.6c1.8-0.4,3.6-0.7,5-0.4c0.9,0.2,1.6,0.6,2.2,1.3l0.1-1.7l1.1-0.1l5.1,5.7l-1.1,0.2l-1-1.2l-1.7,0.2v-1.1l0.9-0.1L46.4,51.2z
		"/>
	<path class="st1" d="M75.7,56.6c-3.3,1.5-7,2.5-10.8,3.2l0,0l2.5,5.8c3.3-1,6.3-2.4,9.1-4.4c2.6-1.9,5-4.2,6.6-7
		c0.7-1.2,1.2-2.5,1.6-3.9C82.1,53.1,79,55.1,75.7,56.6z"/>
	<polygon class="st1" points="57.6,49.3 57.6,49.3 57,47.8 	"/>
	<path class="st1" d="M56.4,44.6c0.1,0,0.2,0,0.2,0.1C56.5,44.6,56.5,44.6,56.4,44.6z"/>
	<path class="st1" d="M57.1,44.8c0.1,0,0.2,0.1,0.3,0.1C57.3,44.9,57.2,44.8,57.1,44.8z"/>
	<path class="st1" d="M61.9,60.2L61.9,60.2L61.9,60.2l-0.7-1.8c-5.5-0.1-9.5,0.3-13.9,1.3c-3.8,0.9-7.9,2.3-10.7,4.3l5.1,12.9
		c2.4-2.9,4.7-4.9,8.4-7.2c4.2-2.7,9.3-4.6,13.4-5.5l0.9,2.3L61.9,60.2C61.9,60.2,61.9,60.2,61.9,60.2z"/>
	<path class="st1" d="M54.8,42.4c-3.9-1.4-7.7-2.1-11.8-2.6C37.6,39.2,32,39.7,27.3,41l3.2,8c2.7-1,6-1.6,9.8-1.9
		c4.7-0.4,10.3-0.2,16.6,0.6l-1.3-3.2L54.8,42.4z"/>
	<path class="st1" d="M57.8,45c0.1,0,0.2,0,0.3,0.1C58,45.1,57.9,45,57.8,45z"/>
	<path class="st1" d="M60.6,49.6c5.6,0.5,10.6,0.4,14.5-0.3c3.5-0.7,6.6-1.8,8.1-3.6c-0.9,0.8-2,1.3-3.4,1.6
		c-1.6,0.4-3.6,0.5-5.4,0.5c-2.9,0-6-0.4-8.8-1c-2.4-0.5-4.6-1-7-1.6c0.1,0,0.1,0,0.2,0L60.6,49.6z"/>
	<path class="st1" d="M67.2,65.6c-0.4,0.1-0.9,0.3-1.3,0.4C66.4,65.9,66.8,65.8,67.2,65.6z"/>
	<path class="st1" d="M65.8,66.1c-0.5,0.1-0.9,0.3-1.4,0.4C64.9,66.3,65.3,66.2,65.8,66.1z"/>
	<path class="st2" d="M61.9,60.2l2.5,6.2c0.5-0.1,0.9-0.2,1.4-0.4c0,0,0.1,0,0.1,0c0.4-0.1,0.9-0.3,1.3-0.4c0,0,0.1,0,0.1,0l0,0
		l-2.5-5.8C63.9,59.9,62.9,60.1,61.9,60.2z"/>
	<path class="st2" d="M60.6,49.6L60.6,49.6l-1.8-4.4c-0.1,0-0.1,0-0.2,0c-0.1,0-0.3-0.1-0.5-0.1c-0.1,0-0.2,0-0.3-0.1
		c-0.1,0-0.3-0.1-0.5-0.1c-0.1,0-0.2-0.1-0.3-0.1c-0.2,0-0.3-0.1-0.5-0.1c-0.1,0-0.2,0-0.2-0.1c-0.2-0.1-0.5-0.1-0.7-0.2l1.3,3.2
		l0.1,0.2l0.6,1.5v0C58.6,49.5,59.6,49.5,60.6,49.6z"/>
	<path class="st3" d="M61.9,60.2c1-0.1,2-0.3,3-0.4l0,0l-4.3-10.2c-1-0.1-2-0.2-3-0.3c0,0,0,0,0,0v0L61.9,60.2L61.9,60.2
		C61.9,60.2,61.9,60.2,61.9,60.2z"/>
	<polygon class="st1" points="93.4,53.4 92.3,53.7 92.5,54.4 93.2,54.2 93.2,57.6 94,57.6 94,53.4 	"/>
	<polygon class="st1" points="16.9,53.7 17,54.3 17.8,54.1 17.8,57.6 18.6,57.6 18.6,53.3 17.9,53.3 	"/>
	<path class="st1" d="M21.3,53.2c-0.8,0-1.6,0.6-1.6,1.5c0,0.9,0.7,1.3,1.5,1.3c0.4,0,0.7-0.2,0.9-0.4c0,0.6-0.4,1.1-0.9,1.2
		c-0.4,0-0.7-0.1-1-0.4l-0.4,0.6c0.5,0.3,0.8,0.5,1.4,0.5c0.5,0,0.9-0.2,1.2-0.6c0.4-0.4,0.6-1.1,0.6-1.7c0-0.6-0.1-1.1-0.4-1.5
		C22.4,53.5,21.9,53.2,21.3,53.2z M21.4,55.4c-0.4,0-0.8-0.2-0.8-0.7c0-0.5,0.3-0.8,0.8-0.8c0.6,0,0.9,0.3,0.8,0.7
		C22.1,55.1,21.8,55.4,21.4,55.4z"/>
	<path class="st1" d="M91.5,55.4c0.1-0.2,0.2-0.5,0.2-0.7c0-0.5-0.3-0.9-0.7-1.2c-0.2-0.1-0.5-0.2-0.8-0.2c-0.3,0-0.6,0.1-0.8,0.3
		c-0.3,0.2-0.5,0.4-0.7,0.7l0.6,0.4c0.2-0.3,0.5-0.7,0.9-0.6c0.4,0,0.6,0.3,0.6,0.6c0,0.3-0.2,0.6-0.5,0.8l-1.7,1.5v0.6h3.1v-0.7
		h-1.9C90.4,56.4,91.1,55.9,91.5,55.4z"/>
	<path class="st1" d="M56.2,20.8l1,0l1.2,1.9l1.6,0.1l-1.4-2.2c0.8-0.2,1.3-0.9,1.4-1.8c0-0.7-0.2-1.2-0.6-1.5
		c-0.5-0.4-1.2-0.6-2-0.6l-2.4-0.1l-0.2,6.1l1.4,0L56.2,20.8z M56.3,17.8l1.1,0c0.6,0,1.2,0.2,1.2,0.9c0,0.7-0.6,0.8-1.2,0.8l-1.1,0
		L56.3,17.8z"/>
	<path class="st1" d="M42.4,25.6l-0.7-1.7l0.7-0.3c1.1-0.5,1.5-0.9,1.7-1.4c0.2-0.5,0.2-1-0.1-1.6c-0.3-0.7-0.8-1-1.2-1.2
		c-0.6-0.2-1.3,0-2,0.3l-2,0.8l2.3,5.6L42.4,25.6z M41.4,20.8c0.6-0.2,1.1-0.2,1.3,0.4c0.2,0.6,0,1-0.7,1.2l-0.9,0.4l-0.7-1.6
		L41.4,20.8z"/>
	<path class="st1" d="M31.8,33c0.5-0.5,0.9-1,1.1-1.7c0.2-1,0-2-0.8-2.8c-0.8-0.8-1.7-1-2.6-0.8c-0.8,0.1-1.4,0.6-1.9,1.1L26,30.3
		l4.3,4.2L31.8,33z M28.5,29.5c0.7-0.7,1.8-0.7,2.5,0c0.7,0.7,0.8,1.8,0.1,2.5l-0.7,0.7l-2.6-2.5L28.5,29.5z"/>
	<path class="st1" d="M50,23.3c1.8-0.4,2.8-2.1,2.4-3.8c-0.4-1.7-2.1-2.7-3.9-2.3c-1.8,0.4-2.8,2.1-2.4,3.8
		C46.6,22.7,48.3,23.7,50,23.3z M48.9,18.4c1-0.2,1.9,0.4,2.2,1.4c0.2,1-0.3,2-1.3,2.2c-1,0.2-1.9-0.4-2.2-1.4
		C47.3,19.7,47.9,18.7,48.9,18.4z"/>
	<path class="st1" d="M78.9,32c1.2,1.4,3.2,1.6,4.5,0.4c1.3-1.1,1.5-3.1,0.3-4.5s-3.2-1.6-4.5-0.4C77.9,28.6,77.7,30.6,78.9,32z
		 M80.2,28.6c0.8-0.7,1.9-0.6,2.6,0.2c0.7,0.8,0.5,1.9-0.3,2.6c-0.8,0.7-1.9,0.6-2.6-0.2C79.2,30.3,79.4,29.2,80.2,28.6z"/>
	<polygon class="st1" points="62.9,23.4 64.3,23.7 65.4,19 67.2,19.5 67.5,18.2 62.6,17.1 62.3,18.3 64,18.7 	"/>
	<rect x="66.6" y="21.6" transform="matrix(0.378 -0.9258 0.9258 0.378 22.6767 78.3128)" class="st1" width="6.1" height="1.4"/>
	<polygon class="st1" points="39.5,26.9 38.8,25.9 36,27.7 35.4,26.7 37.7,25.1 37.1,24.1 34.7,25.7 34.1,24.7 36.7,22.9 36,21.9 
		32.2,24.5 35.6,29.5 	"/>
	<polygon class="st1" points="79.1,24 77.8,23.2 74.3,25.9 75.2,21.6 73.9,20.8 72.8,27.2 73.8,27.9 	"/>
	<path class="st1" d="M75,85.3c-0.5,0-1,0.2-1.5,0.3c-0.3,0.1-1,0.3-1.2-0.2c-0.1-0.3,0.1-0.6,0.4-0.7c0.5-0.3,1.1-0.4,1.7-0.3
		l0.1-1.2c-0.9-0.1-1.8,0.1-2.5,0.5c-0.5,0.3-0.9,0.8-1,1.4c-0.1,0.4,0,0.9,0.3,1.3c0.3,0.4,0.7,0.6,1.1,0.7c0.4,0.1,0.7,0,1.1-0.1
		c0.5-0.1,1.5-0.6,1.8-0.1c0.2,0.3-0.1,0.7-0.4,0.8c-0.6,0.4-1.4,0.4-2,0.3l-0.2,1.2c1.2,0.2,2.3-0.1,2.9-0.5c0.5-0.3,0.9-0.7,1-1.3
		c0.1-0.4,0.1-1-0.3-1.5C76.1,85.5,75.6,85.3,75,85.3z"/>
	<polygon class="st1" points="67.4,91.1 67,90 69.7,89.1 69.3,87.9 66.6,88.8 66.2,87.7 69.3,86.7 68.9,85.5 64.5,87 66.5,92.8 
		70.9,91.2 70.5,90.1 	"/>
	<polygon class="st1" points="66.6,84.4 66,86.1 67,85.7 67.9,84.5 	"/>
	<polygon class="st1" points="60.5,92 58.5,88 57,88.2 60.1,93.9 61.3,93.8 63,87.5 61.5,87.6 	"/>
	<path class="st1" d="M52.1,87.8l-3.2,5.8l1.4,0.1l0.7-1.3l2.5,0.2l0.4,1.4l1.5,0.1l-2-6.3L52.1,87.8z M51.6,91.3l0.9-1.7l0.6,1.9
		L51.6,91.3z"/>
	<path class="st1" d="M34.2,87.6l1.2,0.7l1.1-0.9l2.2,1.2l-0.2,1.4l1.3,0.7l0.7-6.6l-1.1-0.6L34.2,87.6z M38.9,87.3l-1.3-0.7
		l1.6-1.2L38.9,87.3z"/>
	<polygon class="st1" points="45.6,86.4 44.3,86 42.4,91.8 46.6,93.1 47,91.9 44.1,91 	"/>
	<path class="st1" d="M47.6,54.7l1.7-0.2l1,1.2l1.1-0.2l-5.1-5.7l-1.1,0.1l-0.1,1.7c-0.5-0.8-1.3-1.2-2.2-1.3c-1.4-0.3-3.1,0-5,0.4
		l1,2.6l1.5-0.4l-0.6-1.5l0.9-0.2c0.4-0.1,1-0.1,1.4-0.1c0.5,0.1,0.9,0.2,1.3,0.5c0.9,0.6,1.6,1.9,1.3,3c-0.2,0.5-0.5,0.9-1.2,1.1
		L42,56.2l-0.7-1.7L39.9,55l1.1,2.9l3.3-1c1.1-0.3,2-1.2,2-2.4l0.1-3.3l2.1,2.3l-0.9,0.1V54.7z"/>
</g>
</svg>
