<?xml version="1.0" encoding="utf-8"?>
<!-- Generator: Adobe Illustrator 26.2.1, SVG Export Plug-In . SVG Version: 6.00 Build 0)  -->
<svg version="1.1" id="Capa_1" xmlns="http://www.w3.org/2000/svg" xmlns:xlink="http://www.w3.org/1999/xlink" x="0px" y="0px"
	 viewBox="0 0 122.5 140.1" style="enable-background:new 0 0 122.5 140.1;" xml:space="preserve">
<style type="text/css">
	.st0{fill:none;}
	.st1{fill:#FFFFFF;}
	.st2{fill:#E2231A;}
</style>
<g>
	<path class="st0" d="M107.5,81.3c-3.1,6.4-6.4,12.3-9.9,17.8C101.4,93.3,104.7,87.4,107.5,81.3z"/>
	<path class="st1" d="M39.2,105v3.4l2,2.3c0.8,0.9,1.3,0.9,1.3-0.4c0-1.1-0.6-2.2-1.2-2.9L39.2,105z"/>
	<path class="st1" d="M42.3,105c0-1.1-0.5-1.9-1.2-2.7l-1.9-2.2v2.8l2,2.2C41.8,105.8,42.3,106,42.3,105z"/>
	<path class="st1" d="M52.8,54.8l5.9-4.4c-0.6-1-1.5-2.1-2.4-2.1C54.4,48.4,52.9,51.6,52.8,54.8z"/>
	<path class="st1" d="M36.6,33.3h7.3v11.5l6.5-4.2l13.1,3v-3.4l-0.7,0.1l-0.5,1.6l-0.5,0l0.2-1.9c0,0-1.4,0.9-2.1,1.2l-0.9,0
		l2.6-1.7l-0.1-1.1l-1.3,0.2L59.7,38l1.6-1l0.4-0.5l0.1,0.4l0.5,0.1L62,37.2l0.9,1l0.6,0v-4.2l-0.7,0.1l-0.5,1.6l-0.5,0l0.2-1.9
		c0,0-1.4,0.9-2.1,1.2l-0.9,0l2.6-1.7l-0.1-1.1l-1.3,0.2l-0.5-0.5l1.6-1l0.4-0.5l0.1,0.4l0.5,0.1L62,31l0.9,1l0.6,0v-1.7
		c-1.6-0.3-2.8-1.7-3-3.3h-1.8v-2.2h1.7c0.3-1.4,1.7-2.2,3-2.6v-0.9h2.1v0.9c1.5,0.5,2.5,0.9,3,2.6h1.7v2.2h-1.8
		c-0.1,1.6-1.3,3-2.9,3.3l0,1.6l1-0.1l2.2,0.5l1.6-0.1L68.6,33l-1-0.3l1.1,1.6l-0.2,1.3l-0.4,0l-0.1-1.2l-1-0.8l0.3,1.1
		c0,0-0.3,0.6-0.6,0.9l-0.6,0c0.1-0.2,0.5-0.9,0.5-0.9l-1-1.3l-0.3,0.1l0,4.5l1-0.1l2.2,0.5l1.6-0.1l-1.7,0.8l-1-0.3l1.1,1.6
		l-0.2,1.3l-0.4,0l-0.1-1.2l-1-0.8l0.3,1.1c0,0-0.3,0.6-0.6,0.9l-0.6,0c0.1-0.2,0.5-0.9,0.5-0.9l-1-1.3l-0.4,0.1l0,4.3l1.4,0.5l0,0
		L98.6,21h-77c0.1,1.5,0.3,4.2,0.4,5.5c0,0.3,0.1,0.7,0.1,1.1c0.2,2.5,0.5,7.7,1.5,14.3h13V33.3z M39.2,22.7l0.4-0.2l0.5-0.2v-1
		l0.3,1h0.9v0.3h-0.9v2.2l3.5,7.3h-7.3l3.5-7.3v-2.2H39.2z M26.6,41.3c0.5-1.3,1.9-2.2,3.6-2.2s3.2,0.9,3.7,2.2L26.6,41.3z"/>
	<path class="st1" d="M112.2,12.1c0-0.7-0.4-1.2-1.5-1.2h-3.3v2.3h3.3C111.8,13.3,112.2,12.9,112.2,12.1z"/>
	<path class="st1" d="M32,69.2l1,0.3l1.6-1.2l-0.8-0.2c-0.4,0.4-0.9,0.9-1.4,0.2c-0.8,0.3-1.4,0-1.2-0.4c0.3-0.6,1.2-0.9,1.7-0.3
		c0.9-0.5,1.3-0.5,1.7-0.3l0.8,0.4l1.8-1.3L36.2,66c-0.4,0.4-0.9,0.9-1.4,0.2c-0.8,0.3-1.5,0-1.2-0.4c0.3-0.6,1.2-0.9,1.7-0.3
		c0.9-0.5,1.3-0.5,1.7-0.3l1.3,0.4l0,0l0.8-0.6l8.6-6.4c-1.2,0.2-1.7,0.1-2-0.1l-1-0.3c-0.8,0.6-1.2,0.5-1.4,0.2
		c-0.8,0.3-1.4,0-1.2-0.4c0.3-0.6,1.2-0.8,1.6-0.3c0.9-0.5,1.3-0.5,1.7-0.3l1,0.2c0.6-0.6,1.4-0.2,1.8,0.5l3.4-2.5
		c-0.7-9.5-7-10.1-7.8,0.5H26.4c0.1,0.4,0.2,0.8,0.3,1.2c0.3,0.1,0.5,0.3,0.6,0.7c0.1,0.3-0.1,0.5-0.3,0.5c0.1,0.3,0.2,0.7,0.3,1
		l0.4,0.3c1.2-0.8,2.1-0.5,2.5,0.3c0.2,0.4-0.4,0.7-0.6,0.3c-1.2,0.2-1.6,0.3-2,0.1c0.1,0.3,0.2,0.6,0.3,0.9c0.1,0,0.3,0.1,0.3,0.3
		c0.9-0.5,1.3-0.5,1.7-0.3c1.7-0.4,2.6-0.2,3,0.7c0.2,0.4-0.5,0.7-0.6,0.3c-1.3,0.2-1.7,0.3-2,0.1l-1-0.3c-0.4,0.3-0.7,0.5-1,0.4
		c0.1,0.2,0.2,0.5,0.2,0.7c0.5-0.1,1.1,0.1,1.3,0.7c0.2,0.4-0.4,0.7-0.6,0.3l-0.4-0.1c0.1,0.3,0.2,0.6,0.3,0.9l0.7,0.2
		c0.6-0.7,1.5-0.4,1.9,0.4c0.2,0.4-0.4,0.7-0.6,0.3c-0.9,0.1-1.3,0.2-1.6,0.2c0.1,0.3,0.2,0.5,0.3,0.8c0.4,0,0.8,0.3,1.1,0.8
		c0.2,0.4-0.4,0.7-0.6,0.3c0.1,0.3,0.3,0.7,0.4,1C31.3,69,31.7,69,32,69.2z M44.7,55.4c0.3-0.6,1.2-0.9,1.6-0.3
		c0.9-0.5,1.3-0.5,1.7-0.3c1.7-0.4,2.6-0.2,3,0.7c0.2,0.4-0.4,0.7-0.6,0.3c-1.3,0.2-1.7,0.3-2,0.1l-1-0.3c-0.8,0.6-1.2,0.5-1.4,0.2
		C45.1,56.2,44.5,55.8,44.7,55.4z M36.9,62.3c-0.4,0.4-0.9,0.9-1.4,0.2c-0.8,0.3-1.4,0-1.2-0.4c0.3-0.6,1.2-0.9,1.7-0.3
		c0.9-0.5,1.3-0.5,1.7-0.3c1.7-0.4,2.6-0.2,3,0.7c0.2,0.4-0.4,0.7-0.6,0.3c-1.3,0.2-1.7,0.3-2,0.1L36.9,62.3z M39.1,65
		c-0.3-0.7-0.7-0.7-0.8-0.6c-0.2,0.4-0.8,0.1-0.6-0.3c0.3-0.6,1.2-0.9,1.7-0.3c0.8-0.4,1.3-0.4,1.7-0.2L39.1,65z M42.2,62.7
		c-0.6,0.1-1.2-0.2-1-0.6c0.3-0.6,1.2-0.9,1.7-0.3l0.6-0.1L42.2,62.7z M41.3,59.6c1.7-0.4,2.6-0.2,3,0.7c0.2,0.4-0.4,0.7-0.6,0.3
		c-1.3,0.2-1.7,0.3-2,0.1l-1-0.3c-0.8,0.6-1.2,0.5-1.4,0.2c-0.8,0.3-1.4,0-1.2-0.4c0.3-0.6,1.2-0.8,1.7-0.3
		C40.5,59.4,40.9,59.3,41.3,59.6z M34.4,58c0.3-0.6,1.2-0.8,1.7-0.3c0.9-0.5,1.3-0.5,1.7-0.3l1,0.2c0.6-0.7,1.5-0.4,1.9,0.4
		c0.2,0.4-0.4,0.7-0.6,0.3c-1.3,0.2-1.7,0.3-2,0.1l-1-0.3c-0.4,0.4-0.9,0.9-1.4,0.2C34.8,58.8,34.2,58.4,34.4,58z M28.9,58.4
		c-0.8,0.3-1.4,0-1.2-0.4c0.3-0.6,1.2-0.8,1.6-0.3c0.9-0.5,1.3-0.5,1.7-0.3c1.7-0.4,2.6-0.2,3,0.7c0.2,0.4-0.5,0.7-0.6,0.3
		c-1.3,0.2-1.7,0.3-2,0.1l-1-0.3C29.5,58.8,29.1,58.7,28.9,58.4z M32.1,60.6c-0.8,0.3-1.4,0-1.2-0.4c0.3-0.6,1.2-0.8,1.6-0.3
		c0.9-0.5,1.3-0.5,1.7-0.3l1,0.2c0.6-0.7,1.5-0.4,1.9,0.4c0.2,0.4-0.4,0.7-0.6,0.3c-1.3,0.2-1.7,0.3-2,0.1l-1-0.3
		C33.2,60.7,32.6,61.2,32.1,60.6z M31.3,64.5c-0.8,0.3-1.4,0-1.2-0.4c0.3-0.6,1.2-0.8,1.7-0.3c0.9-0.5,1.3-0.5,1.7-0.3l1,0.2
		c0.6-0.7,1.5-0.4,1.9,0.4c0.2,0.4-0.4,0.7-0.6,0.3c-1.3,0.2-1.7,0.3-2,0.1l-1-0.3C31.9,64.9,31.5,64.8,31.3,64.5z"/>
	<polygon class="st1" points="13.4,7.9 12.1,10.7 14.6,10.7 	"/>
	<path class="st1" d="M62.9,138.8c-0.5,0.4-0.8,0.6-0.8,0.6C62.2,139.4,62.4,139.2,62.9,138.8z"/>
	<path class="st1" d="M111.9,8.7c0-0.6-0.4-1-1.2-1h-3.3v2.2h3.3C111.5,9.8,111.9,9.4,111.9,8.7z"/>
	<path class="st1" d="M82.3,98.8c-0.9,0.9-2,3-1.3,6.2c0.7,3.2,2.1,2.7,3,1.8c0.9-0.9,2-3,1.3-6.2C84.6,97.5,83.2,97.9,82.3,98.8z"
		/>
	<path class="st1" d="M100.7,27.7c-0.2,2.4-0.5,7.3-1.4,13.6C100.2,35.1,100.5,30.1,100.7,27.7c0-0.5,0.1-0.9,0.1-1.2
		c0.1-0.8,0.2-2.2,0.2-3.4c-0.1,1.2-0.2,2.6-0.2,3.4C100.7,26.8,100.7,27.2,100.7,27.7z"/>
	<path class="st1" d="M73.4,99.9c0.6-0.7,1.1-1.3,1.7-2c3.5-4.2,6.7-8.7,9.5-13.4c2.4-3.9,4.5-8,6.2-12c0.8-1.8,1.5-3.6,2.2-5.4
		l0.1-39.3l-8.5,6.3v50.4c-2.8,4.7-6,9.2-9.5,13.4V41.1l-9,6.7v59.9c-2.1,2.1-3.9,3.8-4.8,4.7c-1-0.9-2.8-2.7-4.9-4.9V54.9l-8.7,6.5
		v36.5c-3.6-4.3-6.9-9-9.8-13.9V68.6l-5.8,4.3c1.7,3.8,3.6,7.5,5.8,11.2c2.9,4.9,6.2,9.5,9.8,13.9c0.6,0.7,1.1,1.3,1.7,2
		c2.4,2.7,4.9,5.4,7.1,7.6c2.1,2.2,3.9,3.9,4.9,4.9c0.9-0.9,2.7-2.6,4.8-4.7C68.3,105.4,71,102.7,73.4,99.9z"/>
	<path class="st1" d="M81.4,119c6.3-6.6,11.6-13.2,16.1-19.9c3.5-5.4,6.9-11.4,9.9-17.8c3.5-7.8,6.2-16,8.1-24.7
		c2.9-13.4,4.6-29,4.7-45.1c0-0.4,0-0.7,0-0.9c0-0.9,0-6.1,0-8.4L2.2,2.2c0,2.7,0,7.3,0,8.2c0,0.1,0,0.4,0,0.8
		C2.4,27.3,4,42.9,6.9,56.3c5.2,23.8,15.7,43,34.1,62.4c7.9,8.3,17.9,16.6,20.2,18.5C63.7,135.4,73.6,127.3,81.4,119z M84.4,108.8
		c-1.1,1.1-4,3.2-5.2-2.1c-1.2-5.3,1.5-8.8,2.6-9.8c1.1-1.1,4-3.2,5.2,2.1C88.2,104.3,85.5,107.7,84.4,108.8z M106.3,6.5h4.4
		c1.2,0,2.3,0.7,2.3,2.1c0,0.9-0.4,1.3-0.7,1.6c0.4,0.2,1.1,0.9,1.1,1.9c0,1.5-1.1,2.3-2.7,2.3h-4.4V6.5z M103.5,37h2.7l3.4,4.2
		L113,37h2.7l-4.6,5.9l4.6,6H113l-3.4-4.2l-3.4,4.2h-2.7l4.6-6L103.5,37z M96.4,6.5h1.1v4.9c0,1.2,0.5,2,2.3,2c1.8,0,2.3-0.9,2.3-2
		V6.5h1.1v4.9c0,1.5-0.6,3.1-3.4,3.1c-2.9,0-3.4-1.6-3.4-3.1V6.5z M88.8,6.5h1.1v6.7h4.7v1.1h-5.9V6.5z M82.5,6.4
		c2.1,0,3.4,1.2,3.8,1.6l-0.8,0.7c-0.4-0.3-1.3-1.2-2.9-1.2c-1.5,0-3,1.1-3,3c0,1.4,1.1,2.9,3.3,2.9c1.7,0,2.5-0.9,2.9-1.3l0.7,0.8
		c-0.7,0.8-1.7,1.6-3.9,1.6c-2.1,0-4.1-1.6-4.1-4C78.4,8.2,80.2,6.4,82.5,6.4z M69,6.4c2.1,0,3.4,1.2,3.8,1.6L72,8.7
		c-0.4-0.3-1.3-1.2-2.9-1.2c-1.5,0-3,1.1-3,3c0,1.4,1.1,2.9,3.3,2.9c1.7,0,2.5-0.9,2.9-1.3l0.7,0.8c-0.7,0.8-1.7,1.6-3.9,1.6
		c-2.1,0-4.1-1.6-4.1-4C64.9,8.2,66.7,6.4,69,6.4z M61.5,6.5h1.1h0v7.9h-1.1V6.5z M52.8,6.5h6.6v1.1h-2.7v6.7h-1.1V7.7h-2.7V6.5z
		 M44.6,6.5H51v1.1h-5.3v2.1h2.6v1.1h-2.6v2.4h5.5v1.1h-6.6V6.5z M37.2,6.5h1.1v6.7h4.7v1.1h-5.9V6.5z M27.2,6.5h1.1v3.2h4.6V6.5H34
		v7.9h-1.1v-3.6h-4.6v3.6h-1.1V6.5z M18.3,6.5h6.6v1.1h-2.7v6.7h-1.1V7.7h-2.7V6.5z M12.8,6.5H14l3.5,7.9h-1.3l-1.1-2.6h-3.5
		l-1.2,2.6H9.2L12.8,6.5z M18.9,48.9h-2.7l-3.4-4.2l-3.4,4.2H6.7l4.6-6L6.7,37h2.7l3.4,4.2l3.4-4.2h2.7l-4.6,5.9L18.9,48.9z
		 M43.5,114.4c-0.5,0.2-0.9,0.2-2.5-1.7l-3.4-3.8V96.1l3.9,4.4c2,2.2,2.5,4.7,2.5,6c0,1.8-0.6,1.6-1,1.5c1,1.7,1.2,3.2,1.2,4.5
		C44.2,113.5,43.9,114.2,43.5,114.4z M48.3,121l-1.7-1.9v-12.8l1.7,1.9V121z M58.9,131l-6.3-5.9v-12.8l1.9,1.8h0v10.3l4.4,4.2V131z
		 M61.3,115.4l-0.7-0.7c-0.1-0.1-6.9-6.5-12.8-13.3C40.5,93.1,34.4,83.4,30,73.7c-0.2-0.4-0.4-0.8-0.5-1.2c0-0.1-0.1-0.2-0.1-0.3
		c-1.3-3-2.4-6-3.3-9c-4.8-15.7-5.8-30.4-6.2-35.3c0-0.5-0.1-0.8-0.1-1.1c-0.2-2-0.4-6.5-0.4-6.7l-0.1-1.2h84.2l0,0v0h0l0,0.7l0,0.5
		c0,0,0,0.1,0,0.2c-0.1,0.9-0.3,4.8-0.4,6.5c0,0.3-0.1,0.7-0.1,1.1c-0.3,4.8-1.4,19.6-6.2,35.3c-0.9,3.1-2.1,6.2-3.4,9.3
		c-4.4,10.2-10.7,20.4-18.2,28.9c-5.9,6.8-13,13.3-13,13.3L61.3,115.4z M68.2,125.2c-0.5,1.2-1,2.1-2.8,3.8l-3.8,3.5v-12.8l4.3-4.1
		c2.2-2.1,2.7-0.6,2.7,0.7c0,1.8-0.7,3-1.1,3.6c1.1-0.4,1.4,0.5,1.4,1.8C69,122.9,68.7,124.1,68.2,125.2z M76.6,115.8l-3.3,3.1
		l-0.6,3.2l-2,1.8l3.2-15.8l2.1-2l3.1,9.9l-2,1.9L76.6,115.8z"/>
	<polygon class="st1" points="73.8,116.2 76.1,114.1 75,110 	"/>
	<path class="st1" d="M65.8,123l-2.4,2.2v3.4l2.3-2.1c0.9-0.8,1.4-1.9,1.4-3.2C67.1,122.2,66.5,122.4,65.8,123z"/>
	<path class="st1" d="M31.3,69.9l-0.2,0.6c0,0.1,0.1,0.2,0.1,0.3l0.9-0.7L31.3,69.9z"/>
	<path class="st1" d="M66.9,118.4c0-1.1-0.5-0.9-1.4-0.1l-2.1,2v2.8l2.2-2.1C66.4,120.3,66.9,119.4,66.9,118.4z"/>
	<path class="st2" d="M84.6,84.4V34.1l-9.5,7v56.8C78.6,93.7,81.8,89.2,84.6,84.4z"/>
	<path class="st2" d="M93.4,65.9c0.3-0.8,0.6-1.6,0.8-2.4c0.1-0.3,0.2-0.7,0.3-1c2.3-7.6,3.8-15,4.7-21.2c0.9-6.3,1.3-11.2,1.4-13.6
		c0-0.5,0.1-0.9,0.1-1.2c0.1-0.8,0.2-2.2,0.2-3.4c0-0.2,0-0.4,0-0.7c0-0.2,0-0.4,0-0.6l-7.9,5.9L93.1,67
		C93.2,66.7,93.3,66.3,93.4,65.9z"/>
	<path class="st2" d="M61.3,112.4c0.9-0.9,2.7-2.6,4.8-4.7V47.8l-9.7,7.2v52.5C58.5,109.7,60.3,111.4,61.3,112.4z"/>
	<path class="st2" d="M47.7,97.9V61.4l-9.8,7.2v15.5C40.8,88.9,44.1,93.6,47.7,97.9z"/>
	<path d="M113.4,12.1c0-1-0.6-1.7-1.1-1.9c0.3-0.3,0.7-0.7,0.7-1.6c0-1.5-1.1-2.1-2.3-2.1h-4.4v7.9h4.4
		C112.2,14.4,113.4,13.6,113.4,12.1z M107.4,7.7h3.3c0.8,0,1.2,0.4,1.2,1c0,0.7-0.4,1.2-1.2,1.2h-3.3V7.7z M107.4,11h3.3
		c1.2,0,1.5,0.5,1.5,1.2c0,0.8-0.5,1.2-1.5,1.2h-3.3V11z"/>
	<path d="M82.5,14.6c2.2,0,3.2-0.8,3.9-1.6l-0.7-0.8c-0.3,0.4-1.2,1.3-2.9,1.3c-2.1,0-3.3-1.5-3.3-2.9c0-2,1.5-3,3-3
		c1.6,0,2.6,0.9,2.9,1.2L86.3,8c-0.4-0.4-1.7-1.6-3.8-1.6c-2.3,0-4.1,1.8-4.1,4.2C78.4,13,80.4,14.6,82.5,14.6z"/>
	<path d="M99.9,14.6c2.9,0,3.4-1.6,3.4-3.1V6.5h-1.1v4.9c0,1.2-0.5,2-2.3,2c-1.8,0-2.3-0.9-2.3-2V6.5h-1.1v4.9
		C96.4,12.9,97,14.6,99.9,14.6z"/>
	<polygon points="94.6,13.3 89.9,13.3 89.9,6.5 88.8,6.5 88.8,14.4 94.6,14.4 	"/>
	<path d="M69,14.6c2.2,0,3.2-0.8,3.9-1.6l-0.7-0.8c-0.3,0.4-1.2,1.3-2.9,1.3c-2.1,0-3.3-1.5-3.3-2.9c0-2,1.5-3,3-3
		c1.6,0,2.6,0.9,2.9,1.2L72.8,8c-0.4-0.4-1.7-1.6-3.8-1.6c-2.3,0-4.1,1.8-4.1,4.2C64.9,13,66.9,14.6,69,14.6z"/>
	<polygon points="62.6,6.5 62.6,6.5 61.5,6.5 61.5,14.4 62.6,14.4 	"/>
	<path d="M33.5,60.3l1,0.3c0.3,0.2,0.7,0.1,2-0.1c0.2,0.4,0.8,0.1,0.6-0.3c-0.4-0.8-1.3-1.1-1.9-0.4l-1-0.2
		c-0.4-0.2-0.8-0.2-1.7,0.3c-0.4-0.6-1.3-0.3-1.6,0.3c-0.2,0.4,0.4,0.8,1.2,0.4C32.6,61.2,33.2,60.7,33.5,60.3z"/>
	<polygon points="36.6,32.2 43.9,32.2 40.4,24.9 40.4,22.7 41.3,22.7 41.3,22.4 40.4,22.4 40.1,21.4 40.1,22.4 39.6,22.6 39.2,22.7 
		40.1,22.7 40.1,24.9 	"/>
	<path d="M75.1,101.3c7.5-8.5,13.8-18.7,18.2-28.9c1.3-3.1,2.5-6.2,3.4-9.3c4.8-15.7,5.8-30.4,6.2-35.3c0-0.5,0.1-0.9,0.1-1.1
		c0.1-1.8,0.4-5.6,0.4-6.5c0-0.1,0-0.2,0-0.2l0-0.5l0-0.7H19.3l0.1,1.2c0,0.2,0.3,4.8,0.4,6.7c0,0.3,0,0.6,0.1,1.1
		c0.3,4.8,1.4,19.6,6.2,35.3c0.9,3,2,6,3.3,9c0,0.1,0.1,0.2,0.1,0.3c0.2,0.4,0.4,0.8,0.5,1.2c4.4,9.8,10.5,19.5,17.7,27.7
		c5.9,6.8,12.8,13.3,12.8,13.3l0.7,0.7l0.8-0.7C62.1,114.6,69.1,108.1,75.1,101.3z M23.6,42c-1-6.6-1.4-11.8-1.5-14.3
		c0-0.5-0.1-0.9-0.1-1.1c-0.1-1.3-0.3-4-0.4-5.5h77L66.8,44.5l0,0L65.4,44l0-4.3l0.4-0.1l1,1.3c0,0-0.4,0.7-0.5,0.9l0.6,0
		c0.2-0.3,0.6-0.9,0.6-0.9l-0.3-1.1l1,0.8l0.1,1.2l0.4,0l0.2-1.3l-1.1-1.6l1,0.3l1.7-0.8l-1.6,0.1L66.5,38l-1,0.1l0-4.5l0.3-0.1
		l1,1.3c0,0-0.4,0.7-0.5,0.9l0.6,0c0.2-0.3,0.6-0.9,0.6-0.9l-0.3-1.1l1,0.8l0.1,1.2l0.4,0l0.2-1.3l-1.1-1.6l1,0.3l1.7-0.8l-1.6,0.1
		l-2.2-0.5l-1,0.1l0-1.6c1.6-0.3,2.8-1.7,2.9-3.3h1.8v-2.2h-1.7c-0.5-1.7-1.5-2.1-3-2.6v-0.9h-2.1v0.9c-1.4,0.4-2.7,1.2-3,2.6h-1.7
		v2.2h1.8c0.1,1.6,1.4,3,3,3.3V32l-0.6,0L62,31l0.3-0.2l-0.5-0.1l-0.1-0.4l-0.4,0.5l-1.6,1l0.5,0.5l1.3-0.2l0.1,1.1L59,34.9l0.9,0
		c0.7-0.3,2.1-1.2,2.1-1.2l-0.2,1.9l0.5,0l0.5-1.6l0.7-0.1v4.2l-0.6,0l-0.9-1l0.3-0.2l-0.5-0.1l-0.1-0.4L61.3,37l-1.6,1l0.5,0.5
		l1.3-0.2l0.1,1.1L59,41.1l0.9,0c0.7-0.3,2.1-1.2,2.1-1.2l-0.2,1.9l0.5,0l0.5-1.6l0.7-0.1v3.4l-13.1-3l-6.5,4.2V33.3h-7.3V42H23.6z
		 M58.8,50.5l-5.9,4.4c0-3.2,1.6-6.5,3.6-6.5C57.3,48.4,58.1,49.4,58.8,50.5z M30.2,68.3c0.2,0.4,0.8,0.1,0.6-0.3
		c-0.2-0.5-0.6-0.8-1.1-0.8c-0.1-0.3-0.2-0.5-0.3-0.8c0.3,0,0.7-0.1,1.6-0.2c0.2,0.4,0.8,0.1,0.6-0.3c-0.4-0.8-1.3-1.1-1.9-0.4
		l-0.7-0.2c-0.1-0.3-0.2-0.6-0.3-0.9l0.4,0.1c0.2,0.4,0.8,0.1,0.6-0.3c-0.3-0.6-0.8-0.9-1.3-0.7c-0.1-0.2-0.2-0.5-0.2-0.7
		c0.2,0,0.5-0.1,1-0.4l1,0.3c0.3,0.2,0.7,0.1,2-0.1c0.2,0.4,0.8,0.1,0.6-0.3c-0.4-0.8-1.3-1.1-3-0.7c-0.4-0.2-0.8-0.2-1.7,0.3
		c-0.1-0.1-0.2-0.2-0.3-0.3c-0.1-0.3-0.2-0.6-0.3-0.9c0.3,0.1,0.8,0.1,2-0.1c0.2,0.4,0.8,0.1,0.6-0.3c-0.4-0.8-1.3-1.1-2.5-0.3
		l-0.4-0.3c-0.1-0.3-0.2-0.7-0.3-1c0.2,0,0.5-0.2,0.3-0.5c-0.1-0.3-0.4-0.5-0.6-0.7c-0.1-0.4-0.2-0.8-0.3-1.2h17.5
		c0.8-10.6,7.1-10.1,7.8-0.5l-3.4,2.5c-0.4-0.7-1.3-1.1-1.8-0.5l-1-0.2c-0.4-0.2-0.8-0.2-1.7,0.3c-0.4-0.6-1.3-0.3-1.6,0.3
		c-0.2,0.4,0.4,0.8,1.2,0.4c0.2,0.3,0.6,0.4,1.4-0.2l1,0.3c0.3,0.2,0.8,0.3,2,0.1L39.1,65l-0.8,0.6l0,0l-1.3-0.4
		c-0.4-0.2-0.8-0.2-1.7,0.3c-0.4-0.6-1.3-0.3-1.7,0.3c-0.2,0.4,0.4,0.7,1.2,0.4c0.4,0.6,1,0.2,1.4-0.2l1.1,0.4l-1.8,1.3l-0.8-0.4
		c-0.4-0.2-0.8-0.2-1.7,0.3c-0.4-0.6-1.3-0.3-1.7,0.3c-0.2,0.4,0.4,0.8,1.2,0.4c0.4,0.6,1,0.2,1.4-0.2l0.8,0.2L33,69.5l-1-0.3
		c-0.3-0.2-0.7-0.2-1.4,0.2C30.4,69,30.3,68.7,30.2,68.3z M31.1,70.6l0.2-0.6l0.8,0.2l-0.9,0.7C31.2,70.7,31.1,70.6,31.1,70.6z
		 M56.4,107.5c-2.2-2.2-4.7-4.9-7.1-7.6c-0.6-0.6-1.1-1.3-1.7-2c-3.6-4.3-6.9-9-9.8-13.9c-2.2-3.7-4.1-7.4-5.8-11.2l5.8-4.3l9.8-7.2
		l8.7-6.5l9.7-7.2l9-6.7l9.5-7l8.5-6.3l7.9-5.9c0,0.2,0,0.4,0,0.6c0,0.2,0,0.4,0,0.7c-0.1,1.2-0.2,2.6-0.2,3.4
		c0,0.3-0.1,0.7-0.1,1.2c-0.2,2.4-0.5,7.3-1.4,13.6c-0.9,6.1-2.3,13.5-4.7,21.2c-0.1,0.3-0.2,0.7-0.3,1c-0.3,0.8-0.5,1.6-0.8,2.4
		c-0.1,0.4-0.3,0.7-0.4,1.1c-0.7,1.8-1.4,3.6-2.2,5.4c-1.8,4-3.9,8.1-6.2,12c-2.8,4.7-6,9.2-9.5,13.4c-0.6,0.7-1.1,1.3-1.7,2
		c-2.4,2.8-5.1,5.5-7.3,7.8c-2.1,2.1-3.9,3.8-4.8,4.7C60.3,111.4,58.5,109.7,56.4,107.5z"/>
	<path d="M30.2,39.1c-1.7,0-3.1,0.9-3.6,2.2l7.3,0C33.3,40,31.9,39.1,30.2,39.1z"/>
	<path d="M32.7,64.3l1,0.3c0.3,0.2,0.7,0.1,2-0.1c0.2,0.4,0.8,0.1,0.6-0.3c-0.4-0.8-1.3-1.1-1.9-0.4l-1-0.2
		c-0.4-0.2-0.8-0.2-1.7,0.3c-0.4-0.6-1.3-0.3-1.7,0.3c-0.2,0.4,0.4,0.8,1.2,0.4C31.5,64.8,31.9,64.9,32.7,64.3z"/>
	<path d="M11.6,11.8h3.5l1.1,2.6h1.3L14,6.5h-1.2l-3.5,7.9h1.2L11.6,11.8z M13.4,7.9l1.2,2.7h-2.5L13.4,7.9z"/>
	<polygon points="55.5,14.4 56.6,14.4 56.6,7.7 59.4,7.7 59.4,6.5 52.8,6.5 52.8,7.7 55.5,7.7 	"/>
	<path d="M122.5,1.1l0-1.1L0,0v1.1c0,2.5,0,8.3,0,9.3c0,0.1,0,0.4,0,0.8c0.1,16.2,1.8,32,4.8,45.6c5.3,24.2,16,43.8,34.7,63.5
		c9,9.5,20.9,19,21,19.1l0.9,0.7l0.8-0.7c0,0,0.3-0.2,0.8-0.6c2.8-2.2,12.4-10.2,20.1-18.3c18.7-19.7,29.4-39.3,34.7-63.5
		c3-13.6,4.6-29.3,4.8-45.6c0-0.4,0-0.7,0-0.8h0C122.5,9.4,122.5,1.4,122.5,1.1z M61.3,137.3c-2.4-1.9-12.4-10.2-20.2-18.5
		C22.7,99.4,12.1,80.1,6.9,56.3C4,42.9,2.4,27.3,2.2,11.2c0-0.4,0-0.7,0-0.8c0-0.8,0-5.5,0-8.2l118.1,0c0,2.3,0,7.5,0,8.4
		c0,0.1,0,0.4,0,0.9c-0.1,16.1-1.8,31.7-4.7,45.1c-1.9,8.8-4.6,17-8.1,24.7c-2.8,6.1-6.1,12-9.9,17.8c-4.5,6.7-9.9,13.3-16.1,19.9
		C73.6,127.3,63.7,135.4,61.3,137.3z"/>
	<polygon points="21.1,14.4 22.2,14.4 22.2,7.7 24.9,7.7 24.9,6.5 18.3,6.5 18.3,7.7 21.1,7.7 	"/>
	<polygon points="16.2,37 12.8,41.1 9.4,37 6.7,37 11.3,42.9 6.7,48.9 9.4,48.9 12.8,44.7 16.2,48.9 18.9,48.9 14.4,42.9 18.9,37 	
		"/>
	<polygon points="51.2,13.3 45.8,13.3 45.8,10.9 48.4,10.9 48.4,9.7 45.8,9.7 45.8,7.7 51,7.7 51,6.5 44.6,6.5 44.6,14.4 51.2,14.4 
			"/>
	<polygon points="28.3,10.9 32.9,10.9 32.9,14.4 34,14.4 34,6.5 32.9,6.5 32.9,9.7 28.3,9.7 28.3,6.5 27.2,6.5 27.2,14.4 28.3,14.4 
			"/>
	<polygon points="43.1,13.3 38.3,13.3 38.3,6.5 37.2,6.5 37.2,14.4 43.1,14.4 	"/>
	<path d="M35.7,58.4c0.4,0.6,1,0.2,1.4-0.2l1,0.3c0.3,0.2,0.7,0.1,2-0.1c0.2,0.4,0.8,0.1,0.6-0.3c-0.4-0.8-1.3-1.1-1.9-0.4l-1-0.2
		c-0.4-0.2-0.8-0.2-1.7,0.3c-0.4-0.6-1.3-0.3-1.7,0.3C34.2,58.4,34.8,58.8,35.7,58.4z"/>
	<path d="M76.1,106.1l-2.1,2l-3.2,15.8l2-1.8l0.6-3.2l3.3-3.1l0.6,2.1l2-1.9L76.1,106.1z M73.8,116.2L75,110l1.1,4L73.8,116.2z"/>
	<path d="M67.6,120c0.4-0.6,1.1-1.8,1.1-3.6c0-1.3-0.6-2.8-2.7-0.7l-4.3,4.1v12.8l3.8-3.5c1.8-1.7,2.3-2.6,2.8-3.8
		c0.5-1.1,0.8-2.3,0.8-3.4C69,120.6,68.7,119.6,67.6,120z M63.4,120.3l2.1-2c0.8-0.8,1.4-1,1.4,0.1c0,1-0.6,2-1.3,2.7l-2.2,2.1
		V120.3z M65.7,126.5l-2.3,2.1v-3.4l2.4-2.2c0.7-0.6,1.3-0.8,1.3,0.3C67.1,124.6,66.6,125.7,65.7,126.5z"/>
	<path d="M81.8,96.8c-1.1,1.1-3.7,4.5-2.6,9.8c1.2,5.3,4.1,3.2,5.2,2.1c1.1-1.1,3.7-4.5,2.6-9.8C85.8,93.6,82.9,95.8,81.8,96.8z
		 M84,106.8c-0.9,0.9-2.4,1.4-3-1.8c-0.7-3.2,0.4-5.2,1.3-6.2c0.9-0.9,2.4-1.4,3,1.8C86,103.8,84.9,105.9,84,106.8z"/>
	<polygon points="106.3,48.9 109.7,44.7 113,48.9 115.8,48.9 111.2,42.9 115.8,37 113,37 109.7,41.1 106.3,37 103.5,37 108.1,42.9 
		103.5,48.9 	"/>
	<path d="M43.9,106.5c0-1.3-0.5-3.8-2.5-6l-3.9-4.4v12.8l3.4,3.8c1.6,1.8,2.1,1.9,2.5,1.7c0.4-0.2,0.7-0.8,0.7-1.9
		c0-1.3-0.3-2.8-1.2-4.5C43.3,108.1,43.9,108.3,43.9,106.5z M39.2,100.1l1.9,2.2c0.8,0.8,1.2,1.7,1.2,2.7c0,1-0.5,0.8-1.2,0.1
		l-2-2.2V100.1z M41.2,110.8l-2-2.3V105l2.1,2.4c0.6,0.7,1.2,1.8,1.2,2.9C42.5,111.6,42,111.7,41.2,110.8z"/>
	<polygon points="46.6,119.1 48.3,121 48.3,108.2 46.6,106.3 	"/>
	<polygon points="54.5,114.1 54.4,114.1 52.5,112.3 52.5,125.1 58.9,131 58.9,128.5 54.5,124.4 	"/>
	<path d="M33.3,58.4c0.2,0.4,0.8,0.1,0.6-0.3c-0.4-0.8-1.3-1.1-3-0.7c-0.4-0.2-0.8-0.2-1.7,0.3c-0.4-0.6-1.3-0.3-1.6,0.3
		c-0.2,0.4,0.4,0.8,1.2,0.4c0.2,0.3,0.6,0.4,1.4-0.2l1,0.3C31.6,58.7,32,58.7,33.3,58.4z"/>
	<path d="M39.3,63.8c-0.4-0.6-1.3-0.3-1.7,0.3c-0.2,0.4,0.4,0.7,0.6,0.3c0.1-0.2,0.5-0.1,0.8,0.6l1.9-1.4
		C40.6,63.4,40.1,63.4,39.3,63.8z"/>
	<path d="M40,62.5c0.2,0.4,0.8,0.1,0.6-0.3c-0.4-0.8-1.3-1.1-3-0.7c-0.4-0.2-0.8-0.2-1.7,0.3c-0.4-0.6-1.3-0.3-1.7,0.3
		c-0.2,0.4,0.4,0.8,1.2,0.4c0.4,0.6,1,0.2,1.4-0.2l1,0.3C38.3,62.7,38.7,62.7,40,62.5z"/>
	<path d="M41.3,62.1c-0.2,0.4,0.4,0.7,1,0.6l1.3-0.9l-0.6,0.1C42.5,61.2,41.6,61.5,41.3,62.1z"/>
	<path d="M37.9,60.1c-0.2,0.4,0.4,0.8,1.2,0.4c0.2,0.3,0.6,0.4,1.4-0.2l1,0.3c0.3,0.2,0.7,0.1,2-0.1c0.2,0.4,0.8,0.1,0.6-0.3
		c-0.4-0.8-1.3-1.1-3-0.7c-0.4-0.2-0.8-0.2-1.7,0.3C39.2,59.3,38.2,59.5,37.9,60.1z"/>
	<polygon points="103.5,18.8 103.5,18.8 103.5,18.8 	"/>
	<path d="M45.9,55.8c0.2,0.3,0.6,0.4,1.4-0.2l1,0.3c0.3,0.2,0.7,0.1,2-0.1c0.2,0.4,0.8,0.1,0.6-0.3c-0.4-0.8-1.3-1.1-3-0.7
		c-0.4-0.2-0.8-0.2-1.7,0.3c-0.4-0.6-1.3-0.3-1.6,0.3C44.5,55.8,45.1,56.2,45.9,55.8z"/>
</g>
</svg>
