<?xml version="1.0" encoding="utf-8"?>
<!-- Generator: Adobe Illustrator 26.2.1, SVG Export Plug-In . SVG Version: 6.00 Build 0)  -->
<svg version="1.1" id="Layer_1" xmlns="http://www.w3.org/2000/svg" xmlns:xlink="http://www.w3.org/1999/xlink" x="0px" y="0px"
	 viewBox="0 0 102.9 137.5" style="enable-background:new 0 0 102.9 137.5;" xml:space="preserve">
<style type="text/css">
	.st0{fill:#FDFDFD;}
	.st1{fill:#2E3260;}
	.st2{fill:#FDFCFC;}
	.st3{fill:#AF382B;}
	.st4{fill:#AF382A;}
	.st5{fill:#FAFAFB;}
	.st6{fill:#F8F8F9;}
	.st7{fill:#AE382A;}
	.st8{fill:#EBECF0;}
	.st9{fill:#EFEFF2;}
	.st10{fill:#F2F3F5;}
	.st11{fill:#F4F4F6;}
	.st12{fill:#242858;}
</style>
<g>
	<path class="st0" d="M102.9,52c0-12.6,0-25.3,0-37.9c0-3.8-1.7-6.2-5.1-7.5c-0.8-0.3-1.7-0.7-2.6-0.9C84.9,2.9,74.3,1.2,63.6,0.4
		C52.5-0.4,41.4-0.1,30.3,1.3c-8,1-16,2.4-23.8,4.7C1.5,7.5,0,9.6,0,14.9c0,24.3,0,48.7,0,73c0,7.4,2.8,13.2,8.7,17.7
		C22.5,116,36.3,126.4,50,136.9c1.1,0.9,1.8,0.8,2.9,0c13.9-10.6,27.8-21.1,41.7-31.7c5.5-4.2,8.3-9.8,8.3-16.7
		C102.8,76.3,102.9,64.1,102.9,52z"/>
	<path class="st1" d="M102.9,52c0,12.2,0,24.3,0,36.5c0,7-2.7,12.5-8.3,16.7c-13.9,10.6-27.8,21.1-41.7,31.7c-1.1,0.9-1.8,0.9-2.9,0
		C36.3,126.4,22.5,116,8.7,105.6C2.8,101.1,0,95.3,0,87.9c0.1-24.3,0-48.7,0-73C0,9.6,1.5,7.5,6.5,6c7.8-2.4,15.7-3.7,23.8-4.7
		c11.1-1.4,22.2-1.6,33.3-0.9c10.7,0.8,21.3,2.4,31.6,5.2c0.9,0.2,1.7,0.6,2.6,0.9c3.4,1.3,5.1,3.8,5.1,7.5
		C102.8,26.7,102.9,39.3,102.9,52z M40.1,63.3c0,0.1,0,0.2,0,0.3c0.1,0,0.1,0,0.2-0.1C40.2,63.4,40.1,63.3,40.1,63.3
		c-0.7-2.1-0.9-4,1.6-5c0.1,0,0.1-0.2,0.2-0.6c-2.9,0.9-4.1-0.7-4.7-3.3c-0.2,3.2-2,3.9-4.8,3.6c2.7,1.2,3.4,2.9,1.9,5.7
		c2.1-2.3,3.9-1.9,5.7-0.3C39.9,63.3,40,63.3,40.1,63.3z M16.1,86.4c-2.8,2.1-5.5,4.1-8.3,6.2C5,94.7,5,95,7.1,98
		c0.1,0.1,0.2,0.2,0.2,0.3c2.3,3.2,5.8,5,8.8,7.4c4.7,3.5,9.4,7.1,14.1,10.6c4.6,3.7,9.3,7.3,14.1,10.7c2.1,1.6,4.2,3.3,6.3,4.9
		c0.6,0.5,1.1,0.5,1.7,0c2.1-1.7,4.2-3.3,6.3-4.9c4.8-3.4,9.5-7,14.1-10.7c4.7-3.5,9.4-7.1,14.1-10.6c1.7-1.3,3.5-2.6,5.2-3.8
		c4.5-3.3,6.6-7.7,6.6-13.3c0-21,0-42.1,0-63.1c0-0.6,0.2-1.3-0.3-2.1c-3.9,3-7.7,6-11.6,9c-4.8,3.5-9.5,7.1-14.1,10.8
		c-4.8,3.4-9.5,7-14.1,10.8c-4.8,3.5-9.5,7.1-14.1,10.8c-4.8,3.4-9.5,7.1-14.1,10.8C25.4,79,20.7,82.6,16.1,86.4z M46.9,25.1
		c-0.5-1-1.1-0.2-1.6-0.1c-3.5,0.9-6.9,0.9-9.6-1.9c-0.8-0.8-1.4-1-2.5-0.9c-4.1,0.6-7.4-1.1-8.9-4.7c-0.3-0.8-0.7-0.9-1.4-0.7
		c-2.1,0.5-4.2,1-6.3,1.3c-1.6,0.2-2,0.9-1.9,2.4c0.1,14.8,0,29.7,0,44.5c0,0.6,0,1.2,0,2.3c2-1.5,3.7-2.8,5.4-4.1
		c0.2-0.2,0.4-0.4,0.5-0.6c0.6-3,0.8-6.2-1.3-8.4c-1.6-1.7-1-2.5-0.2-4.1c3.3-6.8,6.4-13.7,2.7-21.4c-0.3-0.6-0.3-1.3,0.7-1.5
		c2.7-0.6,5.2-2,7.7-3.1c0.6-0.3,1-1,1.7-0.5c0.6,0.4,0.7,1.2,0.7,2c0,0.7-0.1,1.3-0.6,1.8c-1.3,1.5-0.9,3.1-0.5,4.8
		c0.3,1.4,1.5,2.1,2.5,2.5c1.1,0.4,1.5-0.9,2-1.7c0.7-1.1,1.4-2.2,2.1-3.3c0.6-0.9,1.4-1.6,2.4-1.9c0.9-0.3,1.4-0.1,1,1
		c-0.9,2.9-1.7,5.8-2.5,8.7c-0.7,2.5-2,4.5-4,6.1c-0.2,0.2-0.6,0.1-0.5,0.6c0.6,3.9-1.1,6.8-3.8,9.2c-0.7,0.6-0.8,1.2-0.5,2.1
		c5.4-4.1,10.7-8.2,16-12.2c0.6-0.4,0.7-0.9,0.7-1.5c0.8-0.3,0.6-1.1,0.6-1.7c0-4.4,0-8.9,0-13.3C47.5,26.2,47.7,25.5,46.9,25.1z
		 M53.9,37.4c9.1-6.9,17.8-13.5,27-20.5c-2-0.3-3.4-0.5-4.9-0.8c-1.4-0.3-2.4-0.6-2.3,1.6c0.1,1.6-1.1,2.7-2.4,3.6
		c-1.5,0.9-3.2,1.1-4.9,0.9C65.6,22,65,22,64.5,22.8c-1.8,2.6-4.3,3-7.1,2.2c-1.2-0.3-2.3-0.9-3.5-1.3
		C53.9,28.1,53.9,32.5,53.9,37.4z M50.3,4.3c-0.4,2.3-1.5,3.4-3.8,3c-0.4-0.1-0.8,0.2-0.9,0.6c-0.1,0.5,0.4,0.6,0.7,0.8
		c1.6,0.8,2.1,1.9,1.2,3.6c-0.1,0.2-0.3,0.6,0.3,1c1.7-2.2,3.5-1.3,5.4,0.4c-1.5-2.6-0.9-4.5,1.9-5.8C52.3,8.2,50.7,7.3,50.3,4.3z
		 M4.5,18.6c2-1.4,3.8-2,5.6,0.1c0.5-1.4-0.8-2.4-0.3-3.3c0.5-0.9,1.8-1.1,2.6-2.5c-3,0.9-4.3-0.5-4.9-3.3c-0.2,3.2-2.1,3.7-4.7,3.6
		C4.7,14.6,6.4,15.9,4.5,18.6z M95.3,18.4c-1.9-2.6-0.1-3.8,1.7-5.2c-3,0.7-4.2-0.8-4.9-3.4c-0.3,3.1-2.1,3.7-4.7,3.6
		c2.2,1.3,3.7,2.6,1.6,5.1c1.4,0.2,2-0.9,2.9-1.2C93.2,16.8,93.6,18.5,95.3,18.4z M68,43.6c-1.7-2.7-0.6-4.4,1.8-5.8
		c-3.1,0.8-4.4-0.7-5-3.6c0,3.4-2,4-4.9,3.7c3.3,1.1,3,3.2,2.1,5.7C64.1,41.3,65.9,41.5,68,43.6z M5.1,84.9c2.8-1.7,2.8-1.7,6.2,0.2
		c-1.7-2.6-1.2-4.5,1.6-5.6c-1.5-0.5-2.9,0.3-3.6-0.6c-0.7-0.7-0.8-2-1.1-3c-0.5,2.6-2,3.9-5.1,3.2C5.8,81.5,5.8,81.5,5.1,84.9z
		 M6.7,40.6c-0.1,3-1.5,4-4.1,3.6c2.6,1.1,2.8,2.8,1.4,5c2.9-1.5,2.9-1.5,5.8,0c-1.6-2.4-0.7-3.9,1.8-5.1C8.3,44,8.3,44,6.7,40.6z"
		/>
	<path class="st2" d="M86.7,105.7c-4.7,3.5-9.4,7.1-14.1,10.6c0-0.8-0.1-1.7-0.1-2.5c0-22.2,0-44.5,0-66.7c0-1.3,0-2.6-0.1-3.9
		c4.6-3.8,9.3-7.3,14.1-10.8c0,14.9,0,29.8,0,44.7C86.7,86.6,86.7,96.1,86.7,105.7z"/>
	<path class="st3" d="M72.5,43.2c0,1.3,0.1,2.6,0.1,3.9c0,22.2,0,44.5,0,66.7c0,0.8,0,1.7,0.1,2.5c-4.6,3.7-9.3,7.3-14.1,10.7
		c0-0.8-0.1-1.7-0.1-2.5c0-23.5,0-47,0-70.5C63,50.2,67.7,46.6,72.5,43.2z"/>
	<path class="st2" d="M58.4,53.9c0,23.5,0,47,0,70.5c0,0.8,0,1.7,0.1,2.5c-2.1,1.6-4.2,3.3-6.3,4.9c-0.6,0.5-1.1,0.5-1.7,0
		c-2.1-1.7-4.2-3.3-6.3-4.9c0-16.2,0.1-32.5,0.1-48.7c0-4.5,0-9-0.1-13.5C48.9,61,53.6,57.4,58.4,53.9z"/>
	<path class="st4" d="M86.7,105.7c0-9.5,0-19.1-0.1-28.6c0-14.9,0-29.8,0-44.7c3.8-3,7.7-6,11.6-9c0.5,0.9,0.3,1.5,0.3,2.1
		c0,21,0,42.1,0,63.1c0,5.6-2.1,10-6.6,13.3C90.2,103.1,88.5,104.4,86.7,105.7z"/>
	<path class="st3" d="M44.3,64.8c0,4.5,0.1,9,0.1,13.5c0,16.2,0,32.5-0.1,48.7c-4.8-3.4-9.5-7-14.1-10.7c0-13.6,0-27.2,0-40.8
		C34.8,71.8,39.5,68.2,44.3,64.8z"/>
	<path class="st5" d="M46.9,41.8c-0.1,0.6-0.2,1.1-0.7,1.5c-5.3,4-10.6,8-16,12.2c-0.3-0.9-0.1-1.5,0.5-2.1c2.7-2.5,4.4-5.4,3.8-9.2
		c-0.1-0.5,0.3-0.5,0.5-0.6c2.1-1.6,3.3-3.7,4-6.1c0.8-2.9,1.6-5.8,2.5-8.7c0.3-1.1-0.1-1.3-1-1c-1,0.3-1.9,0.9-2.4,1.9
		c-0.7,1.1-1.4,2.2-2.1,3.3c-0.5,0.8-1,2.1-2,1.7c-1-0.4-2.2-1.1-2.5-2.5c-0.4-1.7-0.8-3.3,0.5-4.8c0.4-0.5,0.6-1.2,0.6-1.8
		c0-0.7-0.1-1.5-0.7-2c-0.7-0.5-1.2,0.3-1.7,0.5c-2.5,1.1-5,2.5-7.7,3.1c-1,0.2-0.9,0.9-0.7,1.5c3.7,7.7,0.6,14.6-2.7,21.4
		c-0.7,1.5-1.3,2.3,0.2,4.1c2,2.2,1.9,5.5,1.3,8.4c0,0.2-0.3,0.5-0.5,0.6c-1.7,1.3-3.4,2.6-5.4,4.1c0-1,0-1.7,0-2.3
		c0-14.8,0-29.7,0-44.5c0-1.5,0.3-2.2,1.9-2.4c2.1-0.3,4.2-0.8,6.3-1.3c0.8-0.2,1.1-0.1,1.4,0.7c1.5,3.6,4.8,5.4,8.9,4.7
		c1.1-0.2,1.7,0,2.5,0.9c2.7,2.8,6.1,2.8,9.6,1.9c0.5-0.1,1.2-0.9,1.6,0.1C46.9,30.7,46.9,36.2,46.9,41.8z"/>
	<path class="st2" d="M30.2,75.5c0,13.6,0,27.2,0,40.8c-4.7-3.5-9.4-7.1-14.1-10.6c0-6.4,0-12.9,0-19.3C20.7,82.6,25.4,79,30.2,75.5
		z"/>
	<path class="st6" d="M53.9,37.4c0-4.9,0-9.2,0-13.8c1.2,0.5,2.3,1,3.5,1.3c2.8,0.8,5.3,0.4,7.1-2.2c0.5-0.8,1.1-0.8,1.8-0.7
		c1.7,0.2,3.4,0,4.9-0.9c1.4-0.8,2.5-2,2.4-3.6c-0.1-2.2,0.9-1.9,2.3-1.6c1.5,0.3,2.9,0.5,4.9,0.8C71.7,23.8,62.9,30.5,53.9,37.4z"
		/>
	<path class="st7" d="M16.1,86.4c0,6.4,0,12.9,0,19.3c-3-2.4-6.5-4.2-8.8-7.4c-0.1-0.1-0.2-0.2-0.2-0.3C5,95,5,94.7,7.8,92.6
		C10.6,90.5,13.3,88.4,16.1,86.4z"/>
	<path class="st8" d="M50.3,4.3c0.3,3.1,2,3.9,4.9,3.5c-2.8,1.3-3.4,3.2-1.9,5.8c-1.9-1.8-3.7-2.7-5.4-0.4c-0.6-0.4-0.5-0.7-0.3-1
		c1-1.6,0.4-2.7-1.2-3.6c-0.3-0.2-0.8-0.3-0.7-0.8c0.1-0.4,0.5-0.6,0.9-0.6C48.8,7.7,49.9,6.6,50.3,4.3z"/>
	<path class="st9" d="M4.5,18.6c2-2.7,0.3-4-1.8-5.3c2.6,0.1,4.5-0.4,4.7-3.6c0.6,2.8,1.9,4.2,4.9,3.3c-0.7,1.4-2.1,1.5-2.6,2.5
		c-0.5,1,0.7,1.9,0.3,3.3C8.3,16.6,6.5,17.3,4.5,18.6z"/>
	<path class="st9" d="M95.3,18.4c-1.7,0.1-2.1-1.6-3.3-1.2c-0.9,0.3-1.5,1.4-2.9,1.2c2.1-2.5,0.6-3.9-1.6-5.1
		c2.6,0.1,4.5-0.5,4.7-3.6c0.6,2.6,1.9,4.1,4.9,3.4C95.2,14.6,93.4,15.9,95.3,18.4z"/>
	<path class="st10" d="M68,43.6c-2.1-2-3.9-2.3-6,0c1-2.5,1.3-4.6-2.1-5.7c2.9,0.2,4.8-0.4,4.9-3.7c0.6,2.8,1.8,4.3,5,3.6
		C67.4,39.2,66.3,40.9,68,43.6z"/>
	<path class="st10" d="M40.1,63.3c-0.1,0-0.2,0.1-0.2,0.1c-1.8-1.6-3.6-2-5.7,0.3c1.5-2.7,0.8-4.4-1.9-5.7c2.8,0.3,4.6-0.4,4.8-3.6
		c0.6,2.7,1.8,4.3,4.7,3.3c-0.1,0.4-0.1,0.6-0.2,0.6C39.2,59.3,39.3,61.2,40.1,63.3L40.1,63.3z"/>
	<path class="st11" d="M5.1,84.9c0.7-3.4,0.7-3.4-2.1-5.8c3.2,0.7,4.6-0.6,5.1-3.2c0.4,1,0.5,2.2,1.1,3c0.8,0.9,2.1,0.1,3.6,0.6
		c-2.8,1.2-3.3,3-1.6,5.6C8,83.2,8,83.2,5.1,84.9z"/>
	<path class="st11" d="M6.7,40.6c1.6,3.4,1.6,3.4,4.9,3.5c-2.4,1.2-3.4,2.7-1.8,5.1c-2.9-1.5-2.9-1.5-5.8,0c1.4-2.3,1.2-3.9-1.4-5
		C5.3,44.6,6.7,43.6,6.7,40.6z"/>
	<path class="st12" d="M46.9,41.8c0-5.6,0-11.1,0-16.7c0.8,0.3,0.6,1.1,0.6,1.7c0,4.4,0,8.9,0,13.3C47.5,40.7,47.6,41.4,46.9,41.8z"
		/>
	<path class="st10" d="M40,63.3c0.1,0.1,0.2,0.1,0.2,0.2c-0.1,0-0.1,0-0.2,0.1C40.1,63.4,40.1,63.3,40,63.3
		C40.1,63.3,40,63.3,40,63.3z"/>
</g>
</svg>
