<?xml version="1.0" encoding="utf-8"?>
<!-- Generator: Adobe Illustrator 26.2.1, SVG Export Plug-In . SVG Version: 6.00 Build 0)  -->
<svg version="1.1"
	 id="svg2" inkscape:version="0.48.2 r9819" xmlns:cc="http://creativecommons.org/ns#" xmlns:dc="http://purl.org/dc/elements/1.1/" xmlns:inkscape="http://www.inkscape.org/namespaces/inkscape" xmlns:rdf="http://www.w3.org/1999/02/22-rdf-syntax-ns#" xmlns:sodipodi="http://sodipodi.sourceforge.net/DTD/sodipodi-0.dtd" xmlns:svg="http://www.w3.org/2000/svg"
	 xmlns="http://www.w3.org/2000/svg" xmlns:xlink="http://www.w3.org/1999/xlink" x="0px" y="0px" viewBox="0 0 129.4 131"
	 style="enable-background:new 0 0 129.4 131;" xml:space="preserve">
<style type="text/css">
	.st0{fill-rule:evenodd;clip-rule:evenodd;stroke:#000000;stroke-width:0.1893;stroke-miterlimit:10;}
	.st1{fill-rule:evenodd;clip-rule:evenodd;fill:#004D98;}
	.st2{fill:#A50044;}
	.st3{fill-rule:evenodd;clip-rule:evenodd;fill:#FFFFFF;}
	.st4{fill-rule:evenodd;clip-rule:evenodd;fill:#FFED02;}
	.st5{fill:#DB0030;}
	.st6{fill-rule:evenodd;clip-rule:evenodd;fill:#EDBB00;stroke:#DEB405;stroke-width:0.1775;stroke-miterlimit:10;}
	.st7{fill:none;stroke:#000000;stroke-width:0.7571;stroke-miterlimit:10;}
	.st8{fill:#EDBB00;stroke:#000000;stroke-width:0.7609;stroke-miterlimit:1.0145;}
	.st9{fill:none;stroke:#000000;stroke-width:0.6625;stroke-miterlimit:10;}
	.st10{fill-rule:evenodd;clip-rule:evenodd;stroke:#000000;stroke-width:3.785448e-02;stroke-miterlimit:10;}
</style>
<sodipodi:namedview  bordercolor="#666666" borderopacity="1" gridtolerance="10" guidetolerance="10" id="namedview42" inkscape:current-layer="svg2" inkscape:cx="71" inkscape:cy="72" inkscape:pageopacity="0" inkscape:pageshadow="2" inkscape:window-height="962" inkscape:window-maximized="1" inkscape:window-width="1280" inkscape:window-x="-8" inkscape:window-y="-8" inkscape:zoom="1.6388889" objecttolerance="10" pagecolor="#ffffff" showgrid="false">
	</sodipodi:namedview>
<g id="layer1" transform="translate(-111.77088,-91.029934)">
	<g id="g2427" transform="matrix(0.1892724,0,0,0.1892724,111.6987,62.603897)">
		<g id="g2263" transform="translate(2.485175,13.595533)">
			<g id="g2279">
				<path id="path2239" class="st0" d="M59,158.2c47.2,20.7,124.6,18.3,176.5-20.9c72.6,53.2,142.5,47.7,209.2,0
					c44.4,32.1,112.8,45.8,177,21.6l28.8,40c-75,100.3-47.3,196.1,30.1,280.5l-32.5,33c7.4,216.3-160.1,267.9-256.3,273.3
					l-51.7,42.3l-51.3-41.7C117.1,771.3,26.4,680.7,32,512.8L-1.4,479c65.3-70.6,114.3-167.1,30.5-280.2L59,158.2z"/>
				<path id="path5105" inkscape:connector-curvature="0" class="st1" d="M62.9,508.4h552.6C630,661.3,532.9,743.9,385.1,752
					l-93.9,0.2C149.9,742.1,44.6,667.5,62.9,508.4z"/>
				<rect id="rect6076" x="301.1" y="510.3" class="st2" width="78.3" height="244.3"/>
				<g id="g6100" transform="translate(-0.132,0)">
					<rect id="rect6088" x="145.5" y="510.3" class="st2" width="78.3" height="218.4"/>
					<rect id="rect6092" x="172.8" y="717.4" class="st2" width="51" height="22.5"/>
				</g>
				<g id="g6096" transform="translate(-0.132,0)">
					<rect id="rect6090" x="456.2" y="510.3" class="st2" width="78.3" height="218.4"/>
					<rect id="rect6094" x="456.2" y="717.4" class="st2" width="51" height="22.5"/>
				</g>
				<path id="path4130" class="st3" d="M337.7,208.7v217L74,427.6l27.2-104.5l-33.9-125l166.9-21.5L337.7,208.7z"/>
				<path id="path2187" inkscape:connector-curvature="0" class="st4" d="M341.5,208.7v217l263.8,1.9l-27.2-104.5l33.9-125
					L445,176.7L341.5,208.7z"/>
				<rect id="rect2169" x="185.3" y="182.9" class="st5" width="75.6" height="241.5"/>
				<rect id="rect3143" x="102.4" y="273" class="st5" width="235.3" height="75.6"/>
				<g id="g2174" transform="translate(-0.132,0)">
					<rect id="rect4118" x="365.3" y="200" class="st5" width="28" height="222.8"/>
					<rect id="rect4120" x="418.4" y="184.1" class="st5" width="28" height="239.2"/>
					<rect id="rect4122" x="471.9" y="197.5" class="st5" width="28" height="226.3"/>
					<rect id="rect4124" x="524.8" y="205.8" class="st5" width="28" height="217.8"/>
				</g>
				<path id="path4181" inkscape:connector-curvature="0" class="st6" d="M235.1,154.4c-48.7,35.7-125.8,39.5-170,21.6l-17.7,22.8
					c76,107,32.3,214.6-27.9,280.5l27.8,29.4C35.9,670,130,763.2,295.4,772.8l44.8,37.4l44.7-38c96.3-1.7,265.3-55.7,247.1-263.7
					l27.9-28.9c-70.8-78.5-95.2-186.1-26.8-280.8l-16.6-22.7c-60.5,19.9-129.8,8.9-171.5-21.3C382.6,199.7,303.2,204.3,235.1,154.4z
					 M445.7,185.1c37.6,23.3,79.1,30,150.7,23.7c-35.8,62-39.7,135.9-8,207.3l-496.8-0.3c26.7-63.7,32.9-137.1-9-208.4
					c51.6,7.5,102.1,5.7,152.4-21.7C303.1,225.7,373.3,226.5,445.7,185.1z M73.9,510.9h532.8c14,147.4-79.7,227-222.1,234.9
					l-90.5,0.2C157.8,736.2,56.3,664.2,73.9,510.9z"/>
				<path id="path7096" class="st7" d="M82,208.1c41.9,71.3,35.8,144.6,9,208.4l496.8,0.3c-31.7-71.3-27.9-145.2,8-207.3
					c-71.6,6.3-113.1-0.4-150.7-23.7c-72.3,41.4-142.6,40.7-210.8,0.6C184,213.8,133.6,215.6,82,208.1z"/>
				<path id="path4112" class="st7" d="M73.9,510.9h532.7c14,147.4-79.7,227-222.1,234.9l-90.5,0.2
					C157.8,736.2,56.3,664.2,73.9,510.9z"/>
				<path id="path4134" class="st7" d="M339.8,215.6v201.3"/>
				<g id="g6097">
					<path id="path2185" inkscape:connector-curvature="0" class="st8" d="M413.3,625.7c0,40-32.4,72.4-72.4,72.5
						c-40,0-72.4-32.4-72.5-72.4c0,0,0,0,0-0.1c0-40,32.4-72.4,72.4-72.5C380.8,553.3,413.3,585.7,413.3,625.7
						C413.3,625.7,413.3,625.7,413.3,625.7z"/>
					<g id="g4131">
						<path id="path3158" class="st9" d="M299.1,566.7c-8.5,30.8-13.7,61.2,10.7,75.7c17,10.2,28.6-10.6,31.8-18.6"/>
						<path id="path3160" class="st9" d="M273.8,654.9c14.3-0.7,21.7-1.8,30.9-15.7"/>
					</g>
					<path id="path4141" class="st9" d="M340.9,624.4c14.3-8.8,27.1-4.5,33,17.5c13.9-5.6,27.4,5.2,30.9,16"/>
					<path id="path4143" class="st9" d="M374.2,641.9c-10.6,25.6-38.4,37.4-77.5,41.3"/>
					<path id="path2191" class="st9" d="M340.9,625.4c-8.8-8.1-22.3-17.3-2.6-40.9c-8.4-10.6-10.6-21,0.3-30.8"/>
					<path id="path2193" class="st9" d="M412.9,630.1c-12.9-22.7-42.8-54.2-74.6-45.9"/>
				</g>
			</g>
			<path id="rect2194" d="M239.6,428.9v0.3h-13.2v25.6v14.5v28.4h14.2v-28.4h20.3v-14.5h-20.3v-11.1h35v-14.7H239.6z"/>
			<path id="path3176" class="st10" d="M347.2,450.4l12.8-6.7c-8.1-18-41.2-23.1-52,0c-11.2,27.6,0.7,53.2,22.4,55.7
				c13.8,2,24.7-4.7,29.4-16.7l-12.6-7.2c-3.4,8.4-16.2,14.1-26,0.1c-3-6.3-3.8-15.9-0.4-25.2C328.7,439.4,340.4,440.5,347.2,450.4z
				"/>
			<path id="path5116" class="st0" d="M396,429.1l0.3,69.1l37.6-0.1c12.2-1.7,28.3-21.7,9.5-37.3c9.9-8.8,8.7-27.5-11.2-31.5
				L396,429.1z M410.5,442.7h18.7c8.2,2.4,5.8,10.3,0.3,11.6h-19V442.7z M410.6,467.8l19.7,0.3c9.7,2.9,7.5,14,0.3,15.9l-19.8-0.1
				L410.6,467.8z"/>
		</g>
	</g>
</g>
</svg>
