<?xml version="1.0" encoding="UTF-8" standalone="no"?>
<!-- Created with Inkscape (http://www.inkscape.org/) -->

<svg
   version="1.1"
   id="svg132"
   width="750"
   height="750"
   viewBox="0 0 750 749.99998"
   sodipodi:docname="Logo Girona FC - 2022.svg"
   inkscape:version="1.2 (dc2aeda, 2022-05-15)"
   xmlns:inkscape="http://www.inkscape.org/namespaces/inkscape"
   xmlns:sodipodi="http://sodipodi.sourceforge.net/DTD/sodipodi-0.dtd"
   xmlns="http://www.w3.org/2000/svg"
   xmlns:svg="http://www.w3.org/2000/svg">
  <defs
     id="defs136" />
  <sodipodi:namedview
     id="namedview134"
     pagecolor="#ffffff"
     bordercolor="#666666"
     borderopacity="1.0"
     inkscape:showpageshadow="2"
     inkscape:pageopacity="0.0"
     inkscape:pagecheckerboard="0"
     inkscape:deskcolor="#d1d1d1"
     showgrid="false"
     inkscape:zoom="0.59465227"
     inkscape:cx="345.58012"
     inkscape:cy="221.97847"
     inkscape:window-width="1440"
     inkscape:window-height="900"
     inkscape:window-x="0"
     inkscape:window-y="0"
     inkscape:window-maximized="0"
     inkscape:current-layer="g140">
    <inkscape:page
       x="0"
       y="0"
       id="page138"
       width="750"
       height="750" />
  </sodipodi:namedview>
  <g
     id="g140"
     inkscape:groupmode="layer"
     inkscape:label="Page 1"
     transform="matrix(1.3333333,0,0,-1.3333333,-26.044919,930.95472)">
    <g
       id="g3435">
      <path
         d="m 582.0337,416.96668 c 0,-155.32765 -125.91987,-281.25063 -281.249,-281.25063 -155.33113,0 -281.25101,125.92298 -281.25101,281.25063 0,155.33064 125.91988,281.24938 281.25101,281.24938 155.32913,0 281.249,-125.91874 281.249,-281.24938 z"
         style="fill:#d0162d;fill-opacity:1;fill-rule:nonzero;stroke:none;stroke-width:1.02324"
         id="path142" />
      <path
         d="M 108.43296,224.61649 C 57.05434,275.99542 28.758687,344.3068 28.758687,416.96693 c 0,72.66065 28.295653,140.97252 79.674273,192.35043 51.37864,51.37868 119.69028,79.6737 192.35173,79.6737 72.66044,0 140.9716,-28.29502 192.34973,-79.6737 51.37913,-51.37791 79.67428,-119.68978 79.67428,-192.35043 0,-72.65964 -28.29515,-140.97151 -79.67428,-192.35044 -51.37863,-51.37941 -119.68979,-79.67544 -192.34973,-79.67544 -72.66045,0 -140.97309,28.29603 -192.35173,79.67544 z"
         style="fill:#ffffff;fill-opacity:1;fill-rule:nonzero;stroke:none;stroke-width:1.02324"
         id="path144" />
      <path
         d="m 300.78394,154.16605 c -70.19675,10e-4 -136.1911,27.33684 -185.8275,76.97276 -49.636653,49.63689 -76.972753,115.63124 -76.972753,185.82799 5.02e-4,70.19624 27.336345,136.1906 76.973253,185.82751 49.6359,49.63615 115.63025,76.97175 185.82599,76.97175 70.19676,0 136.19111,-27.33611 185.82802,-76.97225 49.6359,-49.63641 76.97225,-115.63077 76.97275,-185.82751 5.1e-4,-70.19725 -27.33535,-136.19209 -76.97076,-185.82799 -49.6369,-49.63642 -115.63174,-76.97226 -185.829,-76.97226 z"
         style="fill:#d0162d;fill-opacity:1;fill-rule:nonzero;stroke:none;stroke-width:1.02324"
         id="path146" />
      <path
         d="m 477.50052,416.96668 c 0,-97.59703 -79.1195,-176.71726 -176.71633,-176.71726 -97.59781,0 -176.7173,79.12023 -176.7173,176.71726 0,97.59801 79.11949,176.71626 176.7173,176.71626 97.59683,0 176.71633,-79.11825 176.71633,-176.71626 z"
         style="fill:#ffffff;fill-opacity:1;fill-rule:nonzero;stroke:none;stroke-width:1.02324"
         id="path148" />
    </g>
    <g
       id="g2590"
       transform="matrix(1.0232412,0,0,1.0232412,-0.4539869,-16.227397)">
      <path
         d="m 148.74707,284.48584 16.70459,-15.78516 -4.14551,-4.38769 -11.8789,11.22461 -4.4126,-4.67041 10.46826,-9.89112 -4.146,-4.38769 -10.46826,9.8916 -8.02588,-8.49414 -4.82666,4.56104 z"
         style="fill:#ffffff;fill-opacity:1;fill-rule:nonzero;stroke:none"
         id="path150" />
      <path
         d="m 160.85596,250.26025 9.70605,14.25782 5.48926,-3.73682 -9.6084,-14.11523 c -2.76611,-4.06348 -2.1665,-7.5503 1.18408,-9.83057 3.35059,-2.28174 6.76563,-1.63281 9.45899,2.32422 l 9.72998,14.29346 5.48974,-3.73682 -9.58447,-14.07959 c -5.14404,-7.55664 -11.90967,-8.37647 -18.61133,-3.81494 -6.70117,4.56201 -8.25244,11.09521 -3.2539,18.43847 z"
         style="fill:#ffffff;fill-opacity:1;fill-rule:nonzero;stroke:none"
         id="path152" />
      <path
         d="m 203.57227,237.1665 -8.31543,3.89893 2.59912,5.54346 22.64453,-10.61621 -2.59961,-5.54395 -8.31592,3.89893 -10.21387,-21.78614 -6.01269,2.81885 z"
         style="fill:#ffffff;fill-opacity:1;fill-rule:nonzero;stroke:none"
         id="path154" />
      <path
         d="m 226.95605,233.60791 13.46143,-3.89648 c 3.31397,-0.9585 5.65967,-2.625 6.83691,-4.76123 0.9419,-1.70899 1.13721,-3.51661 0.53809,-5.58741 -0.94775,-3.27197 -3.21435,-4.59131 -5.62109,-5.15185 2.9834,-2.2544 4.49121,-4.80078 3.34033,-8.77783 -1.53467,-5.30127 -6.60986,-6.70557 -13.15381,-4.81202 l -13.79346,3.99219 8.3916,28.99463 m 7.02002,-27.39453 c 2.8169,-0.81494 4.80323,-0.3125 5.44971,1.92432 0.56348,1.94677 -0.53857,3.56738 -3.81055,4.51464 l -7.37304,2.1333 -1.84571,-6.37841 7.57959,-2.19385 m 1.68262,12.17236 c 2.81592,-0.81543 4.86133,-0.41992 5.50879,1.8169 0.55127,1.90527 -0.62842,3.41406 -3.3208,4.19336 l -6.29541,1.82226 -1.77441,-6.13086 z"
         style="fill:#ffffff;fill-opacity:1;fill-rule:nonzero;stroke:none"
         id="path156" />
      <path
         d="m 255.63818,210.16309 c 0.896,8.53369 8.36377,14.81591 17.62647,13.84277 9.26318,-0.97315 15.18457,-8.57617 14.27881,-17.1958 -0.89649,-8.53418 -8.36426,-14.8169 -17.62696,-13.84326 -9.26318,0.97363 -15.18408,8.57617 -14.27832,17.19629 m 25.00147,-2.62793 c 0.54004,5.14648 -2.7832,9.83105 -8.10059,10.39013 -5.31738,0.55909 -9.44726,-3.25634 -9.99707,-8.48779 -0.54053,-5.14648 2.78272,-9.83105 8.10059,-10.39014 5.31738,-0.55908 9.44678,3.25635 9.99707,8.4878 z"
         style="fill:#ffffff;fill-opacity:1;fill-rule:nonzero;stroke:none"
         id="path158" />
      <path
         d="m 296.76025,222.16797 6.62891,0.39307 1.43018,-24.1045 15.02197,0.89112 0.35791,-6.02686 -21.65186,-1.28418 z"
         style="fill:#ffffff;fill-opacity:1;fill-rule:nonzero;stroke:none"
         id="path160" />
      <path
         d="m 344.16162,212.61768 c -2.49121,8.21142 1.65772,16.81494 10.5293,19.50683 5.44678,1.65235 9.12597,0.51514 12.60986,-1.31201 l -2.46973,-5.52539 c -2.84179,1.34619 -5.10253,1.96631 -8.4038,0.96533 -4.86866,-1.47754 -7.14942,-6.58545 -5.62207,-11.61914 1.50244,-4.95166 6.17871,-8.03857 11.13037,-6.53662 3.30127,1.00146 4.92236,2.93506 6.56591,5.68701 l 5.3584,-3.10596 c -2.00683,-4.07861 -4.78222,-6.81298 -10.35302,-8.50293 -8.5,-2.5791 -16.80323,2.06641 -19.34522,10.44288 z"
         style="fill:#ffffff;fill-opacity:1;fill-rule:nonzero;stroke:none"
         id="path162" />
      <path
         d="m 372.9873,238.0835 5.97852,2.88916 10.50732,-21.74073 13.54981,6.54786 2.62695,-5.43555 -19.52832,-9.43799 z"
         style="fill:#ffffff;fill-opacity:1;fill-rule:nonzero;stroke:none"
         id="path164" />
      <path
         d="m 407.1792,236.05127 -9.78076,14.20703 5.46924,3.76514 9.68359,-14.06446 c 2.78711,-4.04931 6.25439,-4.75048 9.59326,-2.45214 3.33789,2.29882 3.96924,5.71679 1.25488,9.65869 l -9.80517,14.24267 5.46924,3.76514 9.65869,-14.02832 c 5.18408,-7.53027 3.5,-14.13379 -3.17676,-18.73047 -6.67725,-4.59668 -13.3291,-3.67969 -18.36621,3.63672 z"
         style="fill:#ffffff;fill-opacity:1;fill-rule:nonzero;stroke:none"
         id="path166" />
      <path
         d="m 425.54395,270.60986 10.07128,9.74512 c 2.47901,2.39893 5.09082,3.60596 7.52979,3.56592 1.95068,-0.0322 3.61621,-0.76123 5.11523,-2.31055 2.36914,-2.44775 2.38672,-5.07129 1.67676,-7.43799 3.43945,1.46827 6.39844,1.51075 9.27686,-1.46386 3.83789,-3.9668 2.53418,-9.06836 -2.36182,-13.80616 l -10.31934,-9.98437 -20.98876,21.69189 m 17.53418,-0.0142 c 2.10742,2.03858 2.77978,4.00977 1.16064,5.68311 -1.37891,1.42578 -3.27441,1.15185 -5.28906,-0.79736 l -4.70996,-4.55762 4.43847,-4.58594 4.39991,4.25781 m 9.72558,-7.50927 c 2.10742,2.03857 2.65869,4.01171 1.03955,5.68505 -1.40918,1.45655 -3.36377,1.30518 -5.81152,-1.06298 l -5.51611,-5.33789 4.61767,-4.77149 z"
         style="fill:#ffffff;fill-opacity:1;fill-rule:nonzero;stroke:none"
         id="path168" />
      <g
         id="g2571">
        <path
           d="m 131.20557,566.14355 c -10.88037,12.32764 -10.66114,31.09424 2.61035,42.80762 7.67334,6.77246 14.27734,8.79688 22.19189,8.95703 l 0.25684,-10.17871 c -5.94971,-0.10498 -10.89307,-1.22265 -16.49024,-6.16357 -8.11377,-7.16065 -8.00488,-19.70752 -0.45556,-28.26123 7.99316,-9.05713 19.85254,-10.45069 28.84668,-2.51221 4.15088,3.66357 6.75879,8.31494 7.6875,12.71436 l -7.27198,8.23974 -11.25878,-9.93652 -5.93946,6.72949 18.74268,16.54248 16.32031,-18.4917 c -1.06494,-7.54053 -4.51562,-16.18066 -12.31396,-23.06445 -13.77491,-12.15674 -31.49121,-10.33887 -42.92627,2.61767 z"
           style="fill:#ffffff;fill-opacity:1;fill-rule:nonzero;stroke:none"
           id="path170" />
        <path
           d="m 176.16602,637.35742 9.13232,4.80371 27.33838,-51.96924 -9.13184,-4.80371 z"
           style="fill:#ffffff;fill-opacity:1;fill-rule:nonzero;stroke:none"
           id="path172" />
        <path
           d="m 210.5542,654.11206 25.32666,6.60425 c 13.3125,3.47168 22.96777,-1.63965 25.82519,-12.5979 2.43458,-9.33521 -1.70556,-16.39673 -9.06835,-20.7439 l 20.95117,-17.51025 -11.77002,-3.06934 -19.28906,16.12305 -12.33887,-3.21729 5.16553,-19.80664 -9.98487,-2.60351 -14.81738,56.82153 m 31.94092,-21.75366 c 7.14355,1.86328 10.71533,6.78223 9.17041,12.70825 -1.58789,6.08789 -6.83887,8.27271 -14.22559,6.34668 l -14.53027,-3.78906 4.97461,-19.07544 z"
           style="fill:#ffffff;fill-opacity:1;fill-rule:nonzero;stroke:none"
           id="path174" />
        <path
           d="m 275.52783,639.73633 c 0.89307,16.50195 14.37403,29.63379 32.38379,28.65845 18.00928,-0.97535 29.83496,-15.30957 28.93262,-31.97876 -0.89404,-16.50147 -14.37451,-29.63379 -32.38428,-28.65821 -18.00976,0.9751 -29.83545,15.30957 -28.93213,31.97852 m 50.51026,-2.73535 c 0.61718,11.39233 -7.16309,21.30688 -18.80664,21.93725 -11.64307,0.63062 -20.27198,-8.22729 -20.89795,-19.78686 -0.61719,-11.39209 7.16308,-21.30664 18.80615,-21.9375 11.64355,-0.63037 20.27246,8.22802 20.89844,19.78711 z"
           style="fill:#ffffff;fill-opacity:1;fill-rule:nonzero;stroke:none"
           id="path176" />
        <path
           d="m 361.11377,659.91748 8.8833,-3.54175 14.18311,-49.36548 15.03759,37.71436 9.42871,-3.75928 -21.74853,-54.54541 -8.02637,3.19971 -14.60498,50.79834 -15.47314,-38.80518 -9.42871,3.75879 z"
           style="fill:#ffffff;fill-opacity:1;fill-rule:nonzero;stroke:none"
           id="path178" />
        <path
           d="m 452.69922,610.17432 7.17187,-6.32569 -19.74218,-61.44482 -8.17871,7.21338 4.91064,14.57275 -20.82471,18.3667 -13.90771,-6.63769 -7.92725,6.99218 58.49805,27.26319 m -12.62158,-36.63037 7.9248,24.33007 -23.08642,-10.95654 z"
           style="fill:#ffffff;fill-opacity:1;fill-rule:nonzero;stroke:none"
           id="path180" />
      </g>
    </g>
    <g
       id="g3523">
      <g
         id="g3331"
         transform="matrix(1.0232412,0,0,1.0232412,-0.4539869,-16.227397)">
        <path
           style="fill:#d0162d;fill-opacity:1;fill-rule:evenodd;stroke:none;stroke-width:0.75"
           d="m 24.547083,-622.63449 v 230.2192 c 14.122468,-14.1978 25.079205,-30.3477 32.903254,-47.57641 v -135.06638 c -7.824009,-17.2284 -18.781157,-33.37874 -32.903254,-47.57641 z"
           transform="matrix(0.70710678,-0.70710678,-0.70710678,-0.70710678,0,0)"
           id="path3324" />
        <path
           style="fill:#d0162d;fill-opacity:1;fill-rule:evenodd;stroke:none;stroke-width:0.75"
           d="m -41.66753,-663.06387 v 311.07796 c 11.356441,-3.60497 22.403132,-8.45077 32.9032539,-14.60065 v -281.87666 c -10.5000869,-6.15003 -21.5468689,-10.99555 -32.9032539,-14.60065 z"
           transform="matrix(0.70710678,-0.70710678,-0.70710678,-0.70710678,0,0)"
           id="path3322" />
        <path
           style="fill:#d0162d;fill-opacity:1;fill-rule:evenodd;stroke:none;stroke-width:0.75"
           d="m -107.69777,-669.9188 -10e-4,324.78679 c 10.938528,1.1056 21.96512,1.11113 32.904293,0.0135 v -324.81268 c -10.939366,-1.09778 -21.96454,-1.09316 -32.903253,0.0124 z"
           transform="matrix(0.70710678,-0.70710678,-0.70710678,-0.70710678,0,0)"
           id="path3320" />
        <path
           style="fill:#d0162d;fill-opacity:1;fill-rule:evenodd;stroke:none;stroke-width:0.75"
           d="m -173.69487,-648.41764 0.001,281.7824 c 10.49925,6.15776 21.54621,11.00946 32.90325,14.62137 v -311.02411 c -11.35722,3.61194 -22.40487,8.46244 -32.90429,14.62034 z"
           transform="matrix(0.70710678,-0.70710678,-0.70710678,-0.70710678,0,0)"
           id="path3318" />
        <path
           style="fill:#d0162d;fill-opacity:1;fill-rule:evenodd;stroke:none;stroke-width:0.75"
           d="m -206.7856,-622.78053 c -14.105,14.14642 -25.06346,30.23876 -32.90429,47.40757 v 135.69407 c 7.84059,17.16843 18.79868,33.26029 32.90325,47.40654 z"
           transform="matrix(0.70710678,-0.70710678,-0.70710678,-0.70710678,0,0)"
           id="rect2946" />
      </g>
      <g
         id="g2842"
         transform="matrix(1.0232412,0,0,1.0232412,-0.4539869,-16.227397)">
        <path
           d="M 294.39555,586.27184 C 307.38555,573.28185 444.32235,436.3445 457.31182,423.35451 444.32235,410.36452 307.38555,273.42718 294.39555,260.43666 281.40556,273.42718 144.46821,410.36452 131.47822,423.35451 144.46821,436.3445 281.40556,573.28185 294.39555,586.27184 Z"
           style="fill:#ffffff;fill-opacity:1;fill-rule:nonzero;stroke:none;stroke-width:1.08848"
           id="path2833" />
        <path
           d="M 294.39551,573.02881 C 306.32959,561.09473 432.13525,435.28857 444.06885,423.35449 432.13525,411.42041 306.32959,285.61426 294.39551,273.67969 c -11.93408,11.93457 -137.74024,137.74072 -149.67432,149.6748 11.93408,11.93408 137.74024,137.74024 149.67432,149.67432 z"
           style="fill:#ffb607;fill-opacity:1;fill-rule:nonzero;stroke:none"
           id="path198" />
        <g
           id="g2711"
           style="stroke:none">
          <path
             style="fill:#d0162d;fill-opacity:1;fill-rule:nonzero;stroke:none"
             d="m 211.21192,489.84477 -33.27393,-33.27393 v -66.4336 c 11.39547,-11.39547 18.121,-18.12098 33.27393,-33.27392 z"
             id="path2705" />
          <path
             style="fill:#d0162d;fill-opacity:1;fill-rule:nonzero;stroke:none"
             d="M 377.57716,489.84623 V 356.86185 c 15.15298,15.15309 21.8782,21.8781 33.27392,33.27393 v 66.43652 c -11.39572,11.39583 -18.12094,18.12086 -33.27392,33.27393 z"
             id="path2703" />
          <path
             style="fill:#d0162d;fill-opacity:1;fill-rule:nonzero;stroke:none"
             d="m 277.75831,556.39115 -33.27246,-33.27246 v -199.5293 c 13.90793,-13.90798 25.6235,-25.62341 33.27832,-33.27832 z"
             id="path2701" />
          <path
             style="fill:#d0162d;fill-opacity:1;fill-rule:nonzero;stroke:none"
             d="m 311.03077,556.39408 c -5.4e-4,-80.45705 -1.3e-4,-185.654 0,-266.08008 7.65428,7.65439 19.36728,19.36717 33.27246,33.27246 0.005,60.42857 0.002,139.11066 0,199.53516 -13.90518,13.90525 -25.61818,25.61816 -33.27246,33.27246 z"
             id="path202" />
        </g>
      </g>
      <g
         id="g2825"
         transform="matrix(1.0232412,0,0,1.0232412,-0.4539869,-16.227397)">
        <path
           d="M 223.6377,487.80029 V 379.2168 c 0.062,-8.38575 0.13134,-17.84034 7.58886,-25.11573 5.54444,-5.40869 10.90479,-7.29882 20.48584,-7.22461 h 25.95606 c 4.14355,0 6.39355,-0.31005 12.20947,-7.2915 l 4.51758,-5.42236 4.51562,5.42236 c 5.81641,6.98145 8.06592,7.2915 12.20948,7.2915 h 26.00244 c 9.53466,-0.0742 14.8955,1.81592 20.43945,7.22461 7.45752,7.27539 7.52734,16.72998 7.58887,25.07227 v 108.62695 z"
           style="fill:#ffffff;fill-opacity:1;fill-rule:nonzero;stroke:none"
           id="path200" />
        <path
           d="m 294.39551,343.34912 c -6.36865,7.64404 -10.09571,9.40772 -16.72705,9.40772 H 251.6665 c -8.36279,-0.0659 -12.09326,1.41601 -16.33349,5.55322 -5.35791,5.22656 -5.74951,12.02099 -5.81494,20.90674 V 481.92041 H 359.271 V 379.2168 c -0.065,-8.88575 -0.45704,-15.68018 -5.81495,-20.90674 -4.24072,-4.13721 -7.97021,-5.61914 -16.333,-5.55322 h -26.00244 c -6.63184,0 -10.3584,-1.76368 -16.72706,-9.40772 h 0.002 z"
           style="fill:#d0162d;fill-opacity:1;fill-rule:nonzero;stroke:none"
           id="path214" />
        <g
           id="g2817">
          <path
             d="m 353.11768,471.18359 c -1.09229,0.49317 -2.26905,0.73291 -3.45215,0.73291 h 0.002 c -4.50684,0 -8.91943,-3.47558 -8.91943,-11.21826 V 449.771 c 9.7e-4,-3.28272 -0.13233,-4.38526 -1.33936,-6.11231 -1.27637,-1.63086 -3.84375,-2.36426 -8.16699,-2.36426 h 0.002 c -4.32373,0 -6.89111,0.7334 -8.16748,2.36426 -1.20703,1.72705 -1.34033,2.82959 -1.33935,6.11231 v 10.92724 c 0,7.74268 -4.4126,11.21826 -8.91944,11.21826 h 0.002 c -4.50635,0 -8.91944,-3.47558 -8.91944,-11.21826 V 449.771 c 0.001,-3.28272 -0.13232,-4.38526 -1.33935,-6.11231 -1.27588,-1.63086 -3.84375,-2.36426 -8.167,-2.36426 h 0.002 c -4.32324,0 -6.89112,0.7334 -8.16699,2.36426 -1.20752,1.72705 -1.34082,2.82959 -1.33985,6.11231 v 10.92724 c 0,7.74268 -4.4126,11.21826 -8.91943,11.21826 h 0.002 c -4.50635,0 -8.91943,-3.47558 -8.91943,-11.21826 V 449.771 c 0.001,-3.28272 -0.13233,-4.38526 -1.33936,-6.11231 -1.27588,-1.63086 -3.84375,-2.36426 -8.16699,-2.36426 h 0.002 c -4.32324,0 -6.89111,0.7334 -8.16699,2.36426 -1.20703,1.72705 -1.34082,2.82959 -1.33935,6.11231 v 10.92724 c 0,7.74268 -4.41309,11.21826 -8.91944,11.21826 h 0.002 c -1.22315,0 -2.43946,-0.25634 -3.5625,-0.78418 l -0.16309,-0.0903 c 0,2.27588 0,3.99024 0,4.99854 h 117.99316 c 0,-1.0083 0,-2.72266 0,-4.99854 l -0.27343,0.1416 z"
             style="fill:#ffffff;fill-opacity:1;fill-rule:nonzero;stroke:none"
             id="path216" />
          <path
             d="m 352.96045,418.58252 c -1.04736,0.44678 -2.16846,0.66406 -3.29492,0.66406 h 0.002 c -4.50684,4.9e-4 -8.91943,-3.47607 -8.91943,-11.21777 v -10.92774 c 9.7e-4,-3.28271 -0.13233,-4.38476 -1.33936,-6.1123 -1.27637,-1.63135 -3.84375,-2.36426 -8.16699,-2.36426 h 0.002 c -4.32373,0 -6.89111,0.73291 -8.16748,2.36426 -1.20703,1.72754 -1.34033,2.82959 -1.33935,6.1123 v 10.92774 c 0,7.7417 -4.4126,11.21826 -8.91944,11.21777 h 0.002 c -4.50635,4.9e-4 -8.91944,-3.47607 -8.91944,-11.21777 v -10.92774 c 0.001,-3.28271 -0.13232,-4.38476 -1.33935,-6.1123 -1.27588,-1.63135 -3.84375,-2.36426 -8.167,-2.36426 h 0.002 c -4.32324,0 -6.89112,0.73291 -8.16699,2.36426 -1.20752,1.72754 -1.34082,2.82959 -1.33985,6.1123 v 10.92774 c 0,7.7417 -4.4126,11.21826 -8.91943,11.21777 h 0.002 c -4.50635,4.9e-4 -8.91943,-3.47607 -8.91943,-11.21777 v -10.92774 c 0.001,-3.28271 -0.13233,-4.38476 -1.33936,-6.1123 -1.27588,-1.63135 -3.84375,-2.36426 -8.16699,-2.36426 h 0.002 c -4.32324,0 -6.89111,0.73291 -8.16699,2.36426 -1.20703,1.72754 -1.34082,2.82959 -1.33935,6.1123 v 10.92774 c 0,7.7417 -4.41309,11.21826 -8.91944,11.21777 h 0.002 c -1.20215,0 -2.39795,-0.24756 -3.5044,-0.75732 l -0.22119,-0.0972 c 0,9.18018 0,18.83936 0,27.61084 l 0.1709,0.0225 c 1,0.12402 2.16553,0.16895 3.55469,0.16895 h -0.002 c 3.84668,0 5.97803,-0.34278 7.64453,-1.76368 1.26807,-1.07177 1.86182,-3.08886 1.86182,-6.81201 v -10.82812 c 0,-7.74219 4.4126,-11.21826 8.91943,-11.21826 h -0.002 c 4.50684,0 8.91943,3.47607 8.91943,11.21826 v 10.82812 c 0,3.72315 0.59473,5.74024 1.86231,6.81201 1.66601,1.4209 3.79736,1.76368 7.64404,1.76368 h -0.002 c 3.84717,0 5.97851,-0.34278 7.64502,-1.76368 1.26806,-1.07177 1.86181,-3.08886 1.86181,-6.81201 v -10.82812 c 0,-7.74219 4.4126,-11.21826 8.91944,-11.21826 h -0.002 c 4.50635,0 8.91944,3.47607 8.91944,11.21826 v 10.82812 c 0,3.72315 0.59375,5.74024 1.86181,6.81201 1.66651,1.4209 3.79786,1.76368 7.64454,1.76368 h -0.002 c 3.84668,0 5.97852,-0.34278 7.64453,-1.76368 1.26856,-1.07177 1.86231,-3.08886 1.86231,-6.81201 v -10.82812 c 0,-7.74219 4.4126,-11.21826 8.91943,-11.21826 h -0.002 c 4.50635,0 8.91943,3.47607 8.91943,11.21826 v 10.82812 c 0,3.72315 0.59375,5.74024 1.86182,6.81201 1.66601,1.4209 3.79785,1.76368 7.64453,1.76368 h -0.002 c 1.33105,0 2.45703,-0.041 3.4292,-0.15332 l 0.29638,-0.0215 c 0,-8.76855 0,-18.4248 0,-27.60351 z"
             style="fill:#ffffff;fill-opacity:1;fill-rule:nonzero;stroke:none"
             id="path218" />
          <path
             d="m 353.39111,393.06689 c 0,-8.34375 0,-13.80712 0,-13.80712 -0.0669,-9.09082 0.26172,-14.76026 -3.13623,-18.07569 -2.8125,-2.74365 -5.71924,-2.60547 -13.13183,-2.54736 h -26.00244 c -6.792,0 -11.55469,-1.81445 -16.72608,-6.68408 v 0 c -5.17139,4.86963 -9.93408,6.68408 -16.72607,6.68408 H 251.6665 c -7.41308,-0.0581 -10.32031,-0.19629 -13.13232,2.54736 -3.39795,3.31543 -3.06982,8.98487 -3.13623,18.07569 0,0 0,5.57763 0,14.06933 l 0.19482,0.0298 c 0.99512,0.12158 2.15284,0.16552 3.53077,0.16552 h -0.002 c 3.84668,0 5.97803,-0.34277 7.64453,-1.76416 1.26807,-1.07177 1.86182,-3.08789 1.86182,-6.81152 v -10.82812 c 0,-7.74219 4.4126,-11.21827 8.91943,-11.21778 h -0.002 c 4.50684,-4.9e-4 8.91943,3.47559 8.91943,11.21778 v 10.82812 c 0,3.72363 0.59473,5.73975 1.86231,6.81152 1.66601,1.42139 3.79736,1.76416 7.64404,1.76416 h -0.002 c 3.84717,0 5.97851,-0.34277 7.64502,-1.76416 1.26806,-1.07177 1.86181,-3.08789 1.86181,-6.81152 v -10.82812 c 0,-7.74219 4.4126,-11.21827 8.91944,-11.21778 h -0.002 c 4.50635,-4.9e-4 8.91944,3.47559 8.91944,11.21778 v 10.82812 c 0,3.72363 0.59375,5.73975 1.86181,6.81152 1.66651,1.42139 3.79786,1.76416 7.64454,1.76416 h -0.002 c 3.84668,0 5.97852,-0.34277 7.64453,-1.76416 1.26856,-1.07177 1.86231,-3.08789 1.86231,-6.81152 v -10.82812 c 0,-7.74219 4.4126,-11.21827 8.91943,-11.21778 h -0.002 c 4.50635,-4.9e-4 8.91943,3.47559 8.91943,11.21778 v 10.82812 c 0,3.72363 0.59375,5.73975 1.86182,6.81152 1.66601,1.42139 3.79785,1.76416 7.64453,1.76416 h -0.002 c 1.48388,0 2.7124,-0.0508 3.75732,-0.19531 l -0.0317,-0.26221 z"
             style="fill:#ffffff;fill-opacity:1;fill-rule:nonzero;stroke:none"
             id="path220" />
        </g>
      </g>
    </g>
  </g>
</svg>
