<?xml version="1.0" encoding="utf-8"?>
<!-- Generator: Adobe Illustrator 26.2.1, SVG Export Plug-In . SVG Version: 6.00 Build 0)  -->
<svg version="1.1" id="svg8" xmlns="http://www.w3.org/2000/svg" xmlns:xlink="http://www.w3.org/1999/xlink" x="0px" y="0px"
	 viewBox="0 0 63.6 142.4" style="enable-background:new 0 0 63.6 142.4;" xml:space="preserve">
<style type="text/css">
	.st0{fill:#FFFFFF;}
	.st1{opacity:0.5;}
	.st2{fill:#C31632;}
</style>
<g>
	<path class="st0" d="M22.5,23.5c0.5-0.4,0.9-0.7,1.5-0.9c-2.3-3.6-2.4-9.8-0.1-13.5c-0.5-0.3-1-0.6-1.4-0.9
		C18.8,12.6,18.8,19,22.5,23.5z"/>
	<path class="st0" d="M30.9,3.9c-2.6,0.2-5.1,1.2-7.1,2.9c1.5,1.1,4.1,1.8,7.1,1.9V3.9z"/>
	<path class="st0" d="M38,21.9L38,21.9c0.9-1.6,1.4-3.3,1.4-5.1H24.3c0.1,1.8,0.5,3.5,1.4,5.1c1.8-0.6,3.9-0.9,6-0.9
		C33.9,20.9,36.1,21.3,38,21.9z"/>
	<path class="st0" d="M32.9,3.9v4.9v0c3-0.1,5.5-0.9,6.9-1.9C37.9,5.2,35.5,4.1,32.9,3.9z"/>
	<path class="st0" d="M30.9,27.8v-4.9c-3.1,0.1-5.7,0.8-7.1,1.9C25.8,26.5,28.3,27.6,30.9,27.8z"/>
	<path class="st0" d="M25.7,9.8c-0.8,1.3-1.2,3.1-1.4,5.1h15.1c0-1.8-0.5-3.5-1.4-5.1C34.3,11.1,29.4,11.1,25.7,9.8z"/>
	<g>
		<g class="st1">
			<path d="M34.9,24.9v4.9c2.5-0.2,4.9-1.2,6.9-2.9C40.4,25.8,37.9,25.1,34.9,24.9z"/>
		</g>
		<g>
			<path class="st0" d="M32.9,22.9v4.9c2.5-0.2,4.9-1.2,6.9-2.9C38.4,23.8,35.9,23.1,32.9,22.9z"/>
		</g>
	</g>
	<g>
		<g class="st1">
			<path d="M5.8,111c4.4,23.8,28,29.6,28,29.6s23.6-5.8,28-29.6V22.2L5.8,96.3V111z M33.8,136.8c-3.6,0-6.5-3.1-6.5-6.9
				c0-2.5,1.3-4.8,3.4-6.1c0.1-0.1,1-0.7,1-1.3s-0.7-1.4-0.7-1.4s1,0.8,1.8,0.5c0.9-0.3,1-0.9,1-0.9s0.2,1.1,1.3,1.1
				c0.8,0,1.7-1.3,1.7-1.4c-0.4,1-0.6,2.1-0.4,3.1c0.1,0,0.1,0.1,0.2,0.1c2.3,1.2,3.7,3.6,3.7,6.2C40.3,133.7,37.4,136.8,33.8,136.8
				z M32,78.7V67.8L58,33.3l0.1,28.7h-3.8V44.5L35.7,69.1v9.6c3.8,0.5,7.3,2.2,10,4.9l-2.6,2.6c-2-2-4.6-3.3-7.4-3.8v7.6h18.5v3.8
				H35.7v15.3c2.8-0.4,5.5-1.8,7.5-3.8l2.6,2.6c-2.7,2.7-6.3,4.5-10.1,4.9v3.9H32v-3.8c-8.1-0.8-14.5-7.2-15.3-15.3
				C15.6,88.1,22.5,79.7,32,78.7z"/>
		</g>
		<g>
			<path class="st0" d="M3.8,109c4.4,23.8,28,29.6,28,29.6s23.6-5.8,28-29.6V20.2L3.8,94.3V109z M31.8,134.8c-3.6,0-6.5-3.1-6.5-6.9
				c0-2.5,1.3-4.8,3.4-6.1c0.1-0.1,1-0.7,1-1.3s-0.7-1.4-0.7-1.4s1,0.8,1.8,0.5c0.9-0.3,1-0.9,1-0.9s0.2,1.1,1.3,1.1
				c0.8,0,1.7-1.3,1.7-1.4c-0.4,1-0.6,2.1-0.4,3.1c0.1,0,0.1,0.1,0.2,0.1c2.3,1.2,3.7,3.6,3.7,6.2C38.3,131.7,35.4,134.8,31.8,134.8
				z M30,76.7V65.8L56,31.3l0.1,28.7h-3.8V42.5L33.7,67.1v9.6c3.8,0.5,7.3,2.2,10,4.9l-2.6,2.6c-2-2-4.6-3.3-7.4-3.8v7.6h18.5v3.8
				H33.7v15.3c2.8-0.4,5.5-1.8,7.5-3.8l2.6,2.6c-2.7,2.7-6.3,4.5-10.1,4.9v3.9H30v-3.8c-8.1-0.8-14.5-7.2-15.3-15.3
				C13.6,86.1,20.5,77.7,30,76.7z"/>
		</g>
	</g>
	<g>
		<g class="st1">
			<polygon points="17.1,45.1 17.1,48.8 32.1,48.8 9.7,78.6 9.6,37.5 45.4,37.5 48.3,33.7 5.8,33.7 5.8,90.1 39.7,45.1 			"/>
		</g>
		<g>
			<polygon class="st0" points="15.1,43.1 15.1,46.8 30.1,46.8 7.7,76.6 7.6,35.5 43.4,35.5 46.3,31.7 3.8,31.7 3.8,88.1 37.7,43.1 
							"/>
		</g>
	</g>
	<g>
		<g class="st1">
			<path d="M33.5,126.4c0-1.6,0.3-2,0.5-2.1c-0.4,0.1-2.4,1.1-2.4,2.7c0,1.8,2.9,2.6,2.9,4.4c0,1.8-0.1,2.7-1.2,3.6
				c0.3,0,3.3-1.5,3.3-4.2C36.6,128,33.5,128.5,33.5,126.4z"/>
		</g>
		<g>
			<path class="st0" d="M31.5,124.4c0-1.6,0.3-2,0.5-2.1c-0.4,0.1-2.4,1.1-2.4,2.7c0,1.8,2.9,2.6,2.9,4.4c0,1.8-0.1,2.7-1.2,3.6
				c0.3,0,3.3-1.5,3.3-4.2C34.6,126,31.5,126.5,31.5,124.4z"/>
		</g>
	</g>
	<g>
		<g class="st1">
			<path d="M32,109.2V82.4C25.9,83.2,21.1,88,20.3,94C19.4,101.4,24.6,108.2,32,109.2z"/>
		</g>
		<g>
			<path class="st0" d="M30,107.2V80.4C23.9,81.2,19.1,86,18.3,92C17.4,99.4,22.6,106.2,30,107.2z"/>
		</g>
	</g>
	<g>
		<g class="st1">
			<path d="M43.1,10.1c-0.4,0.3-0.9,0.6-1.4,0.9c2.3,3.7,2.3,9.9,0,13.6c0.5,0.3,0.9,0.6,1.4,0.9C46.8,21.1,46.9,14.6,43.1,10.1z"/>
		</g>
		<g>
			<path class="st0" d="M41.1,8.1c-0.4,0.3-0.9,0.6-1.4,0.9c2.3,3.7,2.3,9.9,0,13.6c0.5,0.3,0.9,0.6,1.4,0.9
				C44.8,19.1,44.9,12.6,41.1,8.1z"/>
		</g>
	</g>
	<path class="st2" d="M30,110.9v3.8h3.8v-3.9c3.8-0.5,7.4-2.2,10.1-4.9l-2.6-2.6c-2,2-4.7,3.4-7.5,3.8V91.8h18.6v-3.8H33.7v-7.6
		c2.8,0.4,5.4,1.8,7.4,3.8l2.6-2.6c-2.7-2.7-6.2-4.4-10-4.9v-9.6l18.6-24.6v17.4h3.8L56,31.3L30,65.8v10.8
		c-9.5,1-16.3,9.5-15.3,18.9C15.5,103.7,21.9,110.1,30,110.9z M18.3,92C19.1,86,23.9,81.2,30,80.4v26.8
		C22.6,106.2,17.4,99.4,18.3,92z"/>
	<path class="st2" d="M34.6,121.7c-0.1-0.1-0.1-0.1-0.2-0.1c-0.1-1.1,0-2.1,0.4-3.1c-0.1,0.1-0.9,1.4-1.7,1.4
		c-1.2,0-1.3-1.1-1.3-1.1s-0.1,0.7-1,0.9c-0.9,0.3-1.8-0.5-1.8-0.5s0.7,0.8,0.7,1.4s-0.8,1.3-1,1.3c-2.1,1.3-3.4,3.6-3.4,6.1
		c0,3.8,2.9,6.9,6.5,6.9c3.6,0,6.5-3.1,6.5-6.9C38.3,125.3,36.9,122.9,34.6,121.7z M31.3,133c1.1-0.8,1.2-1.8,1.2-3.6
		c0-1.8-2.9-2.6-2.9-4.4c0-1.6,2.1-2.5,2.4-2.7c-0.2,0.1-0.5,0.5-0.5,2.1c0,2.1,3.1,1.6,3.1,4.4C34.6,131.5,31.6,133,31.3,133z"/>
	<path class="st2" d="M48.5,14.9h-1c-0.4-8.1-7-14.5-15-14.9c-0.5,0-1.1,0-1.6,0c-8,0.4-14.4,6.9-14.9,14.9H0V109
		c6.2,27.8,31.8,33.5,31.8,33.5h0c0,0,0.2,0,0.5-0.1c3.5-0.9,25.6-7.7,31.3-33.3v-94v0H48.5z M25.7,21.8c-0.9-1.5-1.4-3.3-1.4-5.1
		h15.1c-0.1,1.8-0.6,3.6-1.4,5.1v0c-1.9-0.6-4.1-1-6.3-1C29.6,20.9,27.5,21.2,25.7,21.8z M30.9,22.9v4.9c-2.6-0.2-5.1-1.2-7.1-3
		C25.3,23.7,27.9,23,30.9,22.9z M32.9,22.9c2.9,0.2,5.5,0.9,6.9,1.9c-1.9,1.7-4.3,2.7-6.9,2.9V22.9z M39.7,22.7
		c2.4-3.7,2.4-9.9,0-13.6c0.5-0.3,1-0.6,1.4-0.9c3.7,4.5,3.7,11,0,15.4C40.6,23.2,40.2,22.9,39.7,22.7z M32.9,8.7V3.9
		c2.5,0.2,5,1.3,6.9,2.9C38.4,7.9,35.9,8.6,32.9,8.7L32.9,8.7z M38,9.8c0.9,1.6,1.4,3.3,1.4,5.1H24.3c0.1-2,0.6-3.8,1.4-5.1
		C29.4,11.1,34.3,11.1,38,9.8z M23.8,6.8c2-1.7,4.5-2.8,7.1-2.9v4.9C27.9,8.6,25.3,7.9,23.8,6.8z M23.9,9c-2.3,3.7-2.3,9.9,0.1,13.5
		c-0.5,0.3-1,0.6-1.5,0.9c-3.7-4.4-3.7-10.9,0-15.3C23,8.5,23.4,8.7,23.9,9z M3.8,31.7h42.5l-2.9,3.8H7.6l0.1,41.1l22.4-29.7h-15
		v-3.8h22.6l-33.9,45V31.7z M59.9,109c-4.4,23.8-28,29.6-28,29.6s-23.6-5.8-28-29.6V94.3l56.1-74.1V109z"/>
</g>
</svg>
