<?xml version="1.0" encoding="UTF-8" standalone="no"?>
<svg
   xmlns:dc="http://purl.org/dc/elements/1.1/"
   xmlns:cc="http://creativecommons.org/ns#"
   xmlns:rdf="http://www.w3.org/1999/02/22-rdf-syntax-ns#"
   xmlns:svg="http://www.w3.org/2000/svg"
   xmlns="http://www.w3.org/2000/svg"
   xmlns:sodipodi="http://sodipodi.sourceforge.net/DTD/sodipodi-0.dtd"
   xmlns:inkscape="http://www.inkscape.org/namespaces/inkscape"
   width="88.900002mm"
   height="78.945549mm"
   viewBox="0 0 336.00001 298.37688"
   version="1.1"
   id="svg114235"
   inkscape:version="1.0.1 (3bc2e813f5, 2020-09-07)"
   sodipodi:docname="Rayo Vallecano logo.svg">
  <defs
     id="defs114229" />
  <sodipodi:namedview
     id="base"
     pagecolor="#ffffff"
     bordercolor="#666666"
     borderopacity="1.0"
     inkscape:pageopacity="0.0"
     inkscape:pageshadow="2"
     inkscape:zoom="0.35"
     inkscape:cx="340.14285"
     inkscape:cy="194.90272"
     inkscape:document-units="px"
     inkscape:current-layer="layer1"
     inkscape:document-rotation="0"
     showgrid="false"
     inkscape:window-width="1267"
     inkscape:window-height="728"
     inkscape:window-x="83"
     inkscape:window-y="0"
     inkscape:window-maximized="0" />
  <metadata
     id="metadata114232">
    <rdf:RDF>
      <cc:Work
         rdf:about="">
        <dc:format>image/svg+xml</dc:format>
        <dc:type
           rdf:resource="http://purl.org/dc/dcmitype/StillImage" />
        <dc:title></dc:title>
      </cc:Work>
    </rdf:RDF>
  </metadata>
  <g
     inkscape:label="Layer 1"
     inkscape:groupmode="layer"
     id="layer1"
     transform="translate(-34.857148,-325.09728)">
    <path
       style="fill:#ffffff;fill-opacity:1;fill-rule:nonzero;stroke:none;stroke-width:14.2695"
       d="m 204.80628,354.58509 -1.95092,-1.505 v -0.50228 l -0.38956,0.2226 -0.27825,-0.16694 v 0.38954 l -1.95092,1.505 c -7.4692,6.46592 -59.69752,12.65302 -66.7208,12.65302 -21.40418,0 -41.19191,-4.18052 -57.356483,-11.31526 -13.321946,21.01405 -21.069693,46.20848 -21.069693,73.29817 0,62.70752 42.752559,116.21795 98.938506,130.32016 0,0 37.95901,16.4434 48.15939,32.32929 h 0.72489 c 10.14472,-15.83024 48.1036,-32.2735 48.1036,-32.2735 56.13029,-14.1022 98.93864,-67.55684 98.93864,-130.26451 0,-27.14534 -7.74788,-52.33977 -21.12548,-73.35381 -16.10894,7.13472 -35.89666,11.31524 -57.35648,11.31524 -7.02328,0 -59.19596,-6.18722 -66.66516,-12.653"
       id="path87378" />
    <path
       style="fill:#ffffff;fill-opacity:1;fill-rule:nonzero;stroke:none;stroke-width:14.2695"
       d="m 201.96352,592.20481 -0.11413,-0.16696 c -9.92168,-15.43998 -46.65439,-31.60455 -47.93635,-32.16191 -13.87933,-3.51172 -27.08969,-9.42012 -39.29679,-17.55813 -11.9284,-7.97078 -22.51889,-17.94825 -31.49309,-29.48653 -8.9742,-11.70538 -16.053133,-24.7485 -20.902466,-38.68347 -5.016707,-14.43669 -7.58064,-29.59799 -7.58064,-44.98231 0,-26.30929 7.301813,-51.72674 21.181133,-73.52105 l 0.16696,-0.33389 0.38956,0.16695 c 16.66628,7.35761 36.454013,11.25945 57.133583,11.25945 7.19052,0 59.08436,-6.13144 66.44212,-12.54143 l 1.83947,-1.33704 v -1.0588 l 0.66924,0.50087 0.78055,-0.61359 v 1.22575 l 1.83932,1.39412 c 7.35776,6.35433 59.25174,12.54141 66.44211,12.54141 20.67958,0 40.46731,-3.90169 57.1336,-11.31509 l 0.3339,-0.16696 0.22261,0.33391 c 13.82352,21.79443 21.12549,47.26754 21.12549,73.57685 0,15.32852 -2.50829,30.48981 -7.52485,44.92649 -4.84948,13.99077 -11.9284,26.97825 -20.95825,38.68363 -8.91842,11.59392 -19.50906,21.51561 -31.49311,29.48653 -12.15143,8.19365 -25.3618,14.04641 -39.24099,17.55798 -1.28281,0.55794 -38.07045,16.77787 -47.82505,32.10626 l -0.16694,0.16696 z M 76.325587,356.36877 c -13.60064,21.62707 -20.8468,46.76584 -20.8468,72.79645 0,15.32852 2.56408,30.32258 7.524854,44.70347 4.849466,13.87932 11.872599,26.81101 20.791012,38.46073 18.004037,23.24351 42.975577,39.85415 70.343957,46.71004 l 0.0571,0.0571 c 0.11413,0 9.64301,4.18052 20.28931,10.20037 14.2138,8.02656 23.63377,15.49576 27.92573,22.07312 h 0.27825 c 4.29198,-6.57736 13.6563,-13.99076 27.86995,-22.01733 10.64629,-6.01984 20.17786,-10.14472 20.23365,-10.20036 h 0.11413 c 27.36838,-6.91184 52.33991,-23.52234 70.28816,-46.76599 8.9742,-11.64957 15.99748,-24.58126 20.79102,-38.46058 5.01672,-14.3809 7.525,-29.37495 7.525,-44.64782 0,-26.03048 -7.19052,-51.22504 -20.84682,-72.79645 -16.72193,7.30196 -36.45401,11.2038 -57.13358,11.2038 -3.51158,0 -18.22694,-1.505 -33.27679,-3.90184 -13.09892,-2.06236 -29.59797,-5.29525 -33.72269,-8.86261 l -2.06237,-1.56079 -1.95091,1.505 c -4.12473,3.51156 -20.62379,6.74459 -33.72271,8.86262 -15.04985,2.34118 -29.76521,3.90182 -33.27678,3.90182 -20.67958,0 -40.41151,-3.90182 -57.189243,-11.25944"
       id="path87380" />
    <path
       style="fill:#e3351c;fill-opacity:1;fill-rule:nonzero;stroke:none;stroke-width:14.2695"
       d="m 251.6837,362.22153 21.01404,0.9475 -27.81429,49.3299 25.75179,-7.69208 -68.78316,120.45426 -7.4692,-24.35838 -23.52219,41.47058 8.08222,5.29526 -13.76774,4.68209 -0.27825,0.50228 -0.27825,-0.33391 -15.38432,5.2396 -1.39271,-30.65705 7.35761,4.90512 42.47387,-74.35709 7.4692,24.58127 28.03719,-49.83163 -25.69614,7.97092"
       id="path87382" />
    <path
       style="fill:#000000;fill-opacity:1;fill-rule:nonzero;stroke:none;stroke-width:14.2695"
       d="m 262.49724,526.87755 -4.12474,10.86932 c -0.72489,1.83934 -1.2814,3.12144 -1.72789,3.7346 l -1.44935,0.9475 -1.33704,-0.78054 c -0.27825,-0.3339 -0.83618,-1.50486 -1.78368,-3.56737 -0.89184,-2.06236 -1.61645,-3.90169 -2.2296,-5.46248 l -4.57065,-12.03985 c -0.61359,-1.67223 -1.2814,-2.50828 -1.95092,-2.50828 -0.72488,0 -1.11444,0.72489 -1.22575,2.11816 -0.16694,3.23288 -0.2226,6.13144 -0.2226,8.86261 0,2.78696 0.11414,4.68223 0.33391,5.68552 l 0.61359,1.33704 c 0.27825,0.27825 1.00313,0.72489 2.1738,1.44921 0.78054,0.4452 1.1701,1.28282 1.1701,2.39684 0,3.00999 -3.28868,4.51499 -9.92169,4.51499 -5.57408,0 -8.36104,-1.44935 -8.36104,-4.40355 0,-0.72489 0.16695,-1.2814 0.4452,-1.61644 0.27826,-0.3339 1.00315,-0.89184 2.2296,-1.56065 0.78055,-0.39099 1.2814,-0.94749 1.505,-1.61644 0.27826,-0.72489 0.5023,-2.11816 0.7249,-4.12487 0.16694,-2.17381 0.38954,-5.68538 0.55793,-10.64629 0.16695,-4.90513 0.27825,-9.14144 0.27825,-12.65301 0,-4.4592 -0.27825,-7.4134 -0.83618,-8.9742 l -0.7249,-1.22575 c -0.27825,-0.27825 -0.78053,-0.61358 -1.505,-1.05878 -1.61644,-0.89184 -2.45248,-2.11816 -2.45248,-3.56736 0,-0.9475 0.27826,-1.78368 0.89184,-2.61988 0.61359,-0.78054 1.4492,-1.33704 2.45248,-1.61644 1.00315,-0.38956 2.34106,-0.66924 4.06908,-0.89184 1.67209,-0.27826 3.12144,-0.38956 4.29196,-0.4452 2.95421,0 5.01657,0.27825 6.24289,0.89184 l 1.39412,1.05878 c 0.33391,0.50228 0.83619,1.39412 1.505,2.84276 l 7.19052,15.55142 c 0.78054,1.72802 1.2814,2.73132 1.61644,3.12144 l 1.22575,0.55794 1.22575,-0.61358 c 0.3339,-0.39099 0.78053,-1.17011 1.22574,-2.2854 l 4.90512,-11.14802 1.1701,-2.78696 c 1.11444,-2.67552 2.2296,-4.515 3.34448,-5.35104 0.89184,-0.78054 2.2296,-1.2814 4.06906,-1.5608 1.0588,1.22575 2.2296,2.34119 3.34434,3.95764 3.06565,4.34776 3.01,10.92498 5.51828,14.26944 -0.16695,2.4525 -0.2226,5.12802 -0.2226,8.13802 0,6.85604 0.27825,12.93169 0.83618,18.11549 0.11414,1.28282 0.33391,2.11816 0.61359,2.56408 0.27825,0.50228 1.0588,1.17009 2.2296,2.11816 0.8362,0.61358 1.22575,1.50498 1.22575,2.56393 0,1.89527 -1.05879,3.23303 -3.1771,4.01328 -1.11444,0.4452 -2.28538,0.72488 -3.5117,0.83619 -1.22575,0.16696 -3.06566,0.2226 -5.62974,0.2226 -3.90169,0 -6.74445,-0.33391 -8.69537,-0.9475 -2.11815,-0.72488 -3.17723,-2.0067 -3.17723,-3.7346 0,-0.66922 0.16695,-1.17009 0.4452,-1.61644 0.27826,-0.39097 0.9475,-1.17009 2.11816,-2.28538 0.61359,-0.55795 1.00315,-1.67224 1.22575,-3.28868 0.2226,-1.61646 0.33391,-4.40342 0.33391,-8.24945 0,-2.17396 -0.11414,-3.62316 -0.27826,-4.29198 -0.16696,-0.66924 -0.50086,-1.00313 -1.0588,-1.00313 -0.66922,0 -1.28138,0.50228 -1.83933,1.56079 -0.61359,1.05878 -1.50499,3.12144 -2.73131,6.24287"
       id="path87384" />
    <path
       style="fill:#ffffff;fill-opacity:1;fill-rule:nonzero;stroke:none;stroke-width:14.2695"
       d="m 276.15352,546.27501 c -4.12472,0 -7.13472,-0.38955 -9.25274,-1.11444 -3.7904,-1.28283 -4.34776,-3.90184 -4.34776,-5.35104 0,-1.00315 0.2226,-1.89514 0.66924,-2.56408 0.27826,-0.38956 0.78054,-1.05879 2.39684,-2.61974 0.0571,-0.0571 0.50228,-0.4452 0.72488,-2.2296 0.16696,-1.56078 0.33391,-4.29196 0.33391,-8.08235 0,-1.1701 -0.0571,-1.95091 -0.11413,-2.56407 -0.38956,0.78053 -1.17011,2.39684 -2.39684,5.7413 l -4.18052,10.92498 c -0.78055,2.00672 -1.39414,3.28868 -1.89514,4.06908 -1.00313,1.39269 -2.11816,1.67224 -2.89854,1.67224 -0.7249,0 -1.83934,-0.22262 -2.73118,-1.44935 -0.27825,-0.33391 -0.72489,-1.0588 -2.00672,-3.90171 -0.89184,-2.11814 -1.67222,-3.95762 -2.28525,-5.57406 l -4.34775,-11.59393 c -0.11413,2.61973 -0.16696,5.12815 -0.16696,7.41341 0,3.23288 0.11414,4.68222 0.27826,5.29538 l 0.16696,0.50087 c 0.16694,0.11413 0.55793,0.39097 1.83946,1.17009 0.89184,0.55794 1.95078,1.67223 1.95078,3.90184 0,1.56079 -0.61359,3.6788 -3.51156,5.01656 -1.89514,0.83619 -4.57066,1.28283 -8.13802,1.28283 -8.36103,0 -10.08893,-3.34448 -10.08893,-6.18724 0,-1.22575 0.27827,-2.11801 0.8362,-2.73117 0.27826,-0.39098 0.89184,-0.94748 2.67552,-1.95091 h 0.0571 l 0.72488,-0.72489 v -0.0571 c 0.11413,-0.2226 0.33391,-1.11444 0.55793,-3.62316 0.22262,-2.11801 0.38956,-5.62972 0.61359,-10.53484 0.16696,-4.90512 0.22261,-9.14129 0.22261,-12.59721 0,-5.1838 -0.38956,-7.41341 -0.72489,-8.36104 l -0.33391,-0.61359 c -0.0571,-0.0571 -0.2226,-0.2226 -1.11444,-0.78054 -2.73132,-1.56079 -3.28868,-3.62315 -3.28868,-5.07236 0,-1.33704 0.39099,-2.56407 1.22575,-3.6788 0.83619,-1.0588 1.95092,-1.83948 3.28868,-2.2296 1.11444,-0.39099 2.56408,-0.7249 4.34776,-0.9475 1.78368,-0.3339 3.28853,-0.44521 4.57064,-0.44521 3.23289,0 5.51828,0.33391 6.96749,1.00315 0.89184,0.39098 1.56064,0.94749 2.06236,1.61644 0.27825,0.39098 0.78053,1.11445 1.72788,3.17724 l 7.13473,15.55141 c 0.72488,1.505 1.05879,2.2296 1.2814,2.50828 0.11414,-0.16695 0.4452,-0.66923 0.89184,-1.67209 l 4.84932,-11.148 1.1701,-2.78711 c 1.22574,-3.00985 2.50829,-4.96077 3.84605,-6.07565 1.17009,-0.9475 2.73131,-1.56064 4.90512,-1.89512 l 0.94749,-0.16696 0.66924,0.78054 0.89184,1.00315 c 0.83619,0.89184 1.6721,1.83947 2.56394,3.06579 1.72802,2.50828 2.56408,5.57393 3.28868,8.30524 0.61358,2.34105 1.17009,4.57065 2.17394,5.85261 l 0.38956,0.55795 -0.0571,0.61358 c -0.11414,2.45263 -0.2226,5.12815 -0.2226,8.08236 0,6.80024 0.27825,12.82024 0.83618,17.94825 0.16695,1.28282 0.33391,1.72803 0.39099,1.83947 0.0571,0.11413 0.4452,0.55793 1.78368,1.61644 1.28139,0.94749 1.95077,2.34105 1.95077,3.95749 0,1.505 -0.55793,4.29211 -4.34761,5.68552 -1.22575,0.44522 -2.56408,0.78055 -3.90184,0.9475 -1.33705,0.11413 -3.23289,0.2226 -5.85276,0.2226 m -6.35433,-13.43326 c -0.27826,2.06236 -0.83619,3.45578 -1.72788,4.34762 -1.44935,1.39412 -1.78368,1.83948 -1.89527,1.95092 v 0.0571 l -0.11413,0.61359 c 0,0.4452 0,1.33704 2.00672,2.06236 1.67209,0.55793 4.4034,0.89184 8.08221,0.89184 2.45263,0 4.29196,-0.11413 5.46263,-0.2226 1.05878,-0.11413 2.06236,-0.38956 3.00985,-0.72489 l 0.0571,-0.0571 c 1.78368,-0.61359 2.06236,-1.56079 2.06236,-2.34119 l -0.61359,-1.22574 c -1.39269,-1.05879 -2.1738,-1.83947 -2.61972,-2.45263 v -0.0571 c -0.44521,-0.72489 -0.72489,-1.72802 -0.89184,-3.34448 -0.55795,-5.23958 -0.8362,-11.37089 -0.8362,-18.28271 0,-2.78698 0.0571,-5.35106 0.22261,-7.63644 -1.1701,-1.83934 -1.78368,-4.12474 -2.39684,-6.52158 -0.66924,-2.56393 -1.39413,-5.23945 -2.78697,-7.24616 -0.72488,-1.0588 -1.4492,-1.83948 -2.2296,-2.67553 l -0.33391,-0.33389 c -1.22574,0.2226 -1.95092,0.61358 -2.28538,0.94748 -0.61359,0.50229 -1.56066,1.67224 -2.84263,4.68209 l -1.17009,2.84276 -4.84932,11.14801 c -0.61359,1.28283 -1.11446,2.17395 -1.61646,2.73131 -0.83618,1.00315 -1.83946,1.22575 -2.50828,1.22575 -1.05878,0 -2.0067,-0.4452 -2.61986,-1.28282 -0.27826,-0.3339 -0.7249,-1.0588 -1.83934,-3.45578 l -7.19052,-15.55155 c -0.78053,-1.78369 -1.17009,-2.34105 -1.2814,-2.50829 l -0.72488,-0.55794 c -0.72489,-0.27825 -2.17396,-0.66924 -5.51828,-0.66924 -1.0588,0 -2.45264,0.11414 -4.01329,0.39099 h -0.0571 c -1.56065,0.2226 -2.78697,0.50085 -3.73459,0.78053 v 0.0571 c -0.66924,0.16696 -1.22575,0.55793 -1.61646,1.0588 l -0.50085,1.505 c 0,0.55793 0.16695,1.28139 1.50485,2.06236 h 0.0571 c 0.89184,0.50228 1.4492,0.94749 1.83948,1.33705 0.4452,0.4452 0.83619,1.05879 1.11444,1.78368 v 0.0571 c 0.66924,1.78369 1.00314,4.90513 1.00314,9.58723 0,3.51156 -0.11413,7.80366 -0.3339,12.76444 -0.16696,4.96091 -0.33391,8.47249 -0.55793,10.70209 -0.22262,2.2296 -0.44522,3.6788 -0.78055,4.51498 -0.4452,1.11446 -1.22575,2.00658 -2.34119,2.61974 -1.11444,0.61358 -1.56065,0.94749 -1.67209,1.11444 l -0.0571,0.50086 c 0,0.83619 0.33391,1.33704 1.11444,1.78368 0.8362,0.39098 2.39671,0.89184 5.46249,0.89184 7.07894,0 8.13802,-1.78368 8.13802,-2.78697 0,-0.72488 -0.22262,-0.83619 -0.27826,-0.89184 -1.72789,-1.00313 -2.22961,-1.4492 -2.50829,-1.72788 l -0.0571,-0.0571 c -0.4452,-0.44521 -0.78053,-1.11444 -1.00313,-2.00657 v -0.11413 c -0.27825,-1.11446 -0.44521,-3.06566 -0.44521,-6.07566 0,-2.73117 0.11413,-5.74117 0.27825,-8.91839 0.16696,-3.45592 2.11816,-3.84606 2.95421,-3.84606 2.2296,0 3.23288,2.67552 3.62315,3.67882 l 4.51485,12.03983 c 0.61359,1.5608 1.33706,3.34448 2.2296,5.35106 0.9475,2.17394 1.33706,2.89854 1.505,3.12144 0.22262,-0.27826 0.66924,-1.1701 1.5608,-3.34434 l 4.12472,-10.92512 c 1.22575,-3.23287 2.11816,-5.35103 2.78698,-6.46577 0.94749,-1.61644 2.06236,-2.45262 3.40012,-2.45262 1.61658,0 2.45264,1.22574 2.7871,2.34118 0.11414,0.55794 0.27826,1.61644 0.27826,4.6821 0,4.01327 -0.11414,6.80023 -0.33391,8.52827"
       id="path87386" />
    <path
       style="fill:#000000;fill-opacity:1;fill-rule:evenodd;stroke:none;stroke-width:14.2695"
       d="m 301.84966,421.52893 c -1.17009,0 -1.95078,0.4452 -2.28525,1.22575 -0.33391,0.83618 -0.44521,2.7313 -0.44521,5.7413 0,4.51486 0.2226,8.08222 0.72489,10.59051 0.16695,0.72488 0.38955,1.28281 0.66924,1.67223 0.33389,0.39098 0.89184,0.89184 1.78368,1.44921 1.11444,0.72488 1.89527,1.56079 2.34119,2.56408 l -1.33706,-0.27827 v 6.1871 c -0.55793,0.44521 -1.28282,0.89184 -2.11816,1.17009 -2.0067,0.78055 -5.1838,1.22575 -9.47576,1.39271 l 0.0571,-0.7249 c 0,-8.30524 -10.75775,-9.30853 -19.06299,-9.30853 h -0.66924 c 0.38956,-0.4452 1.00315,-1.00313 1.83948,-1.61644 1.33704,-1.00315 2.2296,-2.2296 2.73116,-3.62316 0.44522,-1.4492 0.78055,-3.84604 1.00315,-7.35775 0.16696,-2.50829 0.2226,-11.59393 0.2226,-27.20114 0,-4.96078 -0.2226,-8.30524 -0.66923,-10.08892 -0.39098,-1.78368 -1.33705,-3.12144 -2.73132,-3.9017 -1.39412,-0.78054 -2.2854,-1.44936 -2.73132,-2.0625 -0.50085,-0.61359 -0.72488,-1.44922 -0.72488,-2.4525 0,-1.33705 0.4452,-2.45264 1.28282,-3.40012 0.89185,-1.00314 2.17381,-1.72804 3.73446,-2.22961 1.33704,-0.39097 3.12144,-0.55793 5.46263,-0.55793 1.00315,0 3.56736,0.16696 7.63629,0.50086 0.7249,0.11414 1.95092,0.11414 3.62316,0.11414 2.78696,0 6.46578,-0.16695 11.09222,-0.61359 2.9542,-0.2226 5.0167,-0.39097 6.18722,-0.39097 6.57723,0 12.03986,1.83946 16.33182,5.51828 3.90184,3.28868 5.85261,7.91512 5.85261,13.82352 0,3.23289 -0.66923,6.24289 -2.00656,8.9742 -1.39413,2.67552 -3.23289,4.68209 -5.62973,6.01985 -1.00314,0.55793 -1.4492,1.22575 -1.4492,2.06236 0,1.00315 0.72488,1.83948 2.2296,2.50829 3.23288,1.33704 5.62972,3.40027 7.13472,6.13144 1.50485,2.73131 2.56393,6.96748 3.23289,12.59722 0.27825,2.39682 0.66923,3.90182 1.22575,4.62644 0.50085,0.66922 1.72788,1.33704 3.62301,1.9509 0.61359,0.22262 1.11444,0.7249 1.505,1.39414 0.38955,0.72488 0.61357,1.4492 0.61357,2.34104 0,1.0588 -0.38954,2.2296 -1.11444,3.34448 -0.78053,1.11444 -1.72788,2.00657 -2.89841,2.61972 -1.95092,1.0588 -4.51499,1.72789 -7.58064,1.95092 0.38956,-1.05879 0.61359,-2.17395 0.61359,-3.45591 0,-5.35105 -6.96748,-6.41013 -12.31854,-6.41013 -2.45262,0 -4.51498,0.27825 -6.4659,0.44521 -0.27826,-0.66924 -0.55795,-1.39269 -0.78055,-2.11816 -0.83619,-2.50828 -1.78368,-6.40997 -2.84261,-11.70537 -0.7249,-3.40012 -1.67224,-5.74116 -2.78711,-7.13472 -1.0588,-1.3927 -2.61973,-2.17382 -4.62644,-2.28526 m -2.67552,-27.25693 -0.55795,12.48577 v 0.4452 c 0,1.2814 0.16696,2.17382 0.5023,2.56408 0.3339,0.44522 1.00314,0.66924 1.95092,0.66924 2.73117,0 4.68209,-0.83618 5.9642,-2.39684 1.22574,-1.67209 1.83933,-4.23617 1.83933,-7.80353 0,-6.91184 -2.11816,-10.36761 -6.35433,-10.36761 -1.22575,0 -2.06236,0.3339 -2.56408,1.00314 -0.4452,0.61359 -0.72488,1.78368 -0.78054,3.40012"
       id="path87388" />
    <path
       style="fill:#ffffff;fill-opacity:1;fill-rule:nonzero;stroke:none;stroke-width:14.2695"
       d="m 328.38198,456.19912 1.00315,-2.61972 c 0.39099,-0.89184 0.55793,-1.83948 0.55793,-2.84276 0,-1.00315 -0.3339,-2.5083 -3.06565,-3.56736 -1.78368,-0.66924 -4.4034,-1.0588 -7.52484,-1.0588 -2.22961,0 -4.06908,0.16696 -5.85276,0.39098 l -1.72789,0.11414 -0.50228,-1.1701 c -0.27826,-0.72488 -0.55794,-1.44934 -0.83619,-2.28538 -0.8362,-2.56408 -1.78368,-6.52158 -2.89856,-11.81682 -0.83619,-3.90184 -1.78368,-5.62988 -2.39684,-6.46592 -0.78053,-0.94749 -1.83933,-1.505 -3.34433,-1.56065 l -0.61359,0.11413 c -0.0571,0.27826 -0.33389,1.3927 -0.33389,5.07236 0,4.40342 0.2226,7.85932 0.72488,10.25616 l 0.3339,0.89184 c 0.0571,0.11414 0.38956,0.44522 1.33706,1.0588 1.39412,0.89184 2.45262,2.00658 3.00998,3.34434 l 1.33706,2.9542 -2.50828,-0.38956 v 4.90513 l -0.66924,0.50085 c -0.66924,0.61359 -1.56066,1.11444 -2.61974,1.505 -2.2296,0.83619 -5.51828,1.33704 -10.03328,1.505 l -1.89512,0.0571 0.11414,-2.61988 c 0,-3.23288 -1.83934,-7.52485 -17.27931,-7.52485 l -4.84947,0.11413 2.89855,-3.06565 c 0.44521,-0.50228 1.11444,-1.05879 2.00657,-1.78368 1.11444,-0.83619 1.78368,-1.72788 2.17395,-2.78696 0.27825,-0.89184 0.66924,-2.78711 0.89184,-6.85604 0.16696,-2.5083 0.2226,-11.59394 0.2226,-27.1455 0,-5.96405 -0.27825,-8.58392 -0.55793,-9.69865 -0.33391,-1.28283 -0.9475,-2.17395 -1.95092,-2.78711 -1.61644,-0.89184 -2.61972,-1.67209 -3.23288,-2.45249 l -0.0571,-0.0571 c -0.66924,-0.94749 -1.00315,-2.11801 -1.00315,-3.51157 0,-1.72788 0.55794,-3.28867 1.7279,-4.57064 1.11444,-1.22575 2.61986,-2.17395 4.515,-2.73132 1.50498,-0.4452 3.4559,-0.66923 5.9642,-0.66923 1.05878,0 3.62301,0.16695 7.74788,0.55794 0.72488,0.0571 1.89512,0.11413 3.51157,0.11413 2.73131,0 6.41012,-0.2226 10.92497,-0.66923 3.00999,-0.22261 5.12815,-0.3339 6.35447,-0.3339 6.96748,0 12.87589,1.95092 17.50233,5.9084 4.29196,3.67881 6.46578,8.75117 6.46578,15.16129 0,3.51157 -0.78054,6.80025 -2.2296,9.75445 -1.50486,2.95435 -3.67882,5.2396 -6.29854,6.80039 l -0.61358,0.50086 c 0,0.16695 0.38956,0.50228 1.22574,0.89184 3.56736,1.505 6.24288,3.79039 7.97078,6.91183 1.61644,2.95422 2.7313,7.30196 3.40012,13.26618 0.3339,2.78696 0.78053,3.56736 0.89184,3.73445 0.11413,0.11413 0.61358,0.66924 2.78696,1.39412 h 0.0571 c 1.00315,0.33391 1.78368,1.0588 2.39684,2.17381 0.55794,0.9475 0.83619,2.00671 0.83619,3.17723 0,1.44921 -0.4452,2.89856 -1.39269,4.29197 v 0.0571 c -0.89184,1.33704 -2.06236,2.39684 -3.51171,3.17709 -2.17381,1.1701 -4.96077,1.89527 -8.30525,2.17395 z m -9.02985,-13.6005 c 3.56737,0 6.57723,0.44522 8.80683,1.2814 2.39684,0.9475 5.29538,2.89855 5.29538,6.85604 l -0.11413,1.39412 c 1.78368,-0.27825 3.28853,-0.78053 4.4592,-1.44934 0.94749,-0.50086 1.67209,-1.1701 2.2296,-2.00658 0.55793,-0.83618 0.83619,-1.67222 0.83619,-2.39682 l -0.33391,-1.44922 h -0.0571 l -0.50228,-0.61358 c -2.34104,-0.78054 -3.7346,-1.56079 -4.4592,-2.56408 h -0.0571 c -0.7249,-1.00314 -1.1701,-2.67552 -1.505,-5.46248 -0.61359,-5.40684 -1.6721,-9.42012 -3.06566,-11.98406 -1.28138,-2.39684 -3.34432,-4.12486 -6.24288,-5.35104 -2.78696,-1.1701 -3.34433,-2.89856 -3.34433,-4.12488 0,-1.00313 0.38956,-2.45248 2.34105,-3.56736 2.11816,-1.22574 3.7346,-2.9542 4.90512,-5.35104 1.22575,-2.39684 1.83934,-5.18381 1.83934,-8.13801 0,-5.40684 -1.6721,-9.47577 -5.1838,-12.48576 -3.9575,-3.40013 -9.08566,-5.07236 -15.21695,-5.07236 -1.17009,0 -3.17724,0.11413 -6.02,0.33389 -4.62644,0.44522 -8.41668,0.66924 -11.25944,0.66924 -1.72789,0 -2.95421,-0.0571 -3.7904,-0.11413 -4.01328,-0.38956 -6.52156,-0.55795 -7.46905,-0.55795 -2.17396,0 -3.84606,0.16696 -4.96092,0.55795 -1.2814,0.33389 -2.2296,0.94748 -2.89842,1.67223 -0.55793,0.61358 -0.83618,1.33705 -0.83618,2.2296 l 0.3339,1.44921 c 0.16695,0.16695 0.66924,0.66924 2.1738,1.505 v 0.0571 c 1.89528,1.05879 3.0658,2.73116 3.62316,4.96078 0.44522,1.95092 0.7249,5.40682 0.7249,10.53483 0,15.83024 -0.11414,24.74865 -0.27826,27.31272 -0.16696,3.67881 -0.55793,6.24289 -1.11445,7.80355 -0.33391,1.11444 -0.89184,2.06236 -1.67209,3.00998 3.00985,0.11414 6.41012,0.55794 9.36433,1.505 3.23288,1.1701 7.02313,3.51158 7.52485,8.36104 3.17723,-0.2226 5.57407,-0.61358 7.13472,-1.17009 l 1.00315,-0.50085 v -5.90842 l -0.22254,-0.16694 c -1.05879,-0.66924 -1.78368,-1.28283 -2.17395,-1.83948 -0.50228,-0.61359 -0.83619,-1.39412 -1.05879,-2.34104 v -0.0571 c -0.50229,-2.67552 -0.78054,-6.24288 -0.78054,-10.92497 0,-4.23632 0.3339,-5.62974 0.61358,-6.35448 v -0.0571 c 0.33391,-0.8362 1.33706,-2.2854 3.9017,-2.2854 h 0.0571 c 2.56408,0.11413 4.57066,1.11444 5.9642,2.89856 1.2814,1.61644 2.2854,4.23616 3.06566,7.91497 1.11444,5.18395 2.06236,9.02999 2.84276,11.48248 l 0.27825,0.78054 c 1.61644,-0.16695 3.28868,-0.27826 5.29539,-0.27826"
       id="path87390" />
    <path
       style="fill:#ffffff;fill-opacity:1;fill-rule:nonzero;stroke:none;stroke-width:14.2695"
       d="m 301.06941,412.1646 c -1.505,0 -2.67553,-0.4452 -3.34448,-1.28282 l -0.0571,-0.0571 c -0.55793,-0.78054 -0.78053,-1.89526 -0.78053,-3.62316 v -0.55794 l 0.50228,-12.43012 c 0.0571,-2.06236 0.44521,-3.45578 1.22575,-4.4592 0.78054,-1.0588 2.11816,-1.61644 3.90184,-1.61644 3.6788,0 8.08236,2.06236 8.08236,12.09564 0,3.95748 -0.7249,6.85604 -2.17395,8.86261 -1.61645,2.06236 -4.06893,3.06579 -7.35761,3.06579 m -0.55795,-3.56736 0.55795,0.0571 c 2.1738,0 3.6788,-0.55795 4.57064,-1.7279 0.94749,-1.28282 1.44921,-3.56736 1.44921,-6.6888 0,-8.58393 -3.34433,-8.58393 -4.57065,-8.58393 -0.66924,0 -1.05879,0.16696 -1.1701,0.27825 -0.0571,0.0571 -0.38956,0.61359 -0.44521,2.39684 l -0.50228,12.42998 v 0.44521 c 0,0.78053 0.0571,1.22575 0.11413,1.39412"
       id="path87392" />
    <path
       style="fill:#171405;fill-opacity:1;fill-rule:nonzero;stroke:none;stroke-width:14.2695"
       d="m 320.24397,458.65176 -21.85009,41.19189 c -1.33704,2.56395 -2.61987,4.29197 -3.84604,5.29525 -1.1701,0.9475 -2.67552,1.39414 -4.515,1.39414 -1.56079,0 -2.89855,-0.27826 -4.12472,-0.89184 -0.9475,-0.5023 -1.67224,-1.0588 -2.17395,-1.67224 -0.50087,-0.61359 -1.17009,-1.78368 -1.95092,-3.45592 L 262.33,460.60324 c -1.11446,-2.28539 -2.06238,-3.79039 -2.95422,-4.57079 -0.89184,-0.83619 -2.11814,-1.39269 -3.7346,-1.67209 -1.89512,-0.33391 -2.84276,-1.39412 -2.84276,-3.28868 0,-2.28539 1.67224,-4.01328 5.01672,-5.2396 3.28868,-1.22575 8.08222,-1.83947 14.3251,-1.83947 6.46592,0 11.2038,0.4452 14.26945,1.39412 3.01,0.89184 4.51499,2.34105 4.51499,4.23632 0,1.22575 -0.78054,2.39669 -2.45263,3.45577 -1.2814,0.83619 -1.89512,1.56079 -1.89512,2.28539 0,0.61359 0.27825,1.56065 0.83619,2.78697 l 5.96405,12.48576 c 0.83619,1.83948 1.83948,2.73132 2.89856,2.73132 1.05879,0 2.00656,-0.4452 2.84276,-1.4492 0.78053,-0.94749 1.89512,-2.89856 3.28868,-5.74132 2.50828,-5.12801 3.95748,-8.1938 4.4034,-9.08564 0.38956,-0.94749 0.61359,-1.67209 0.61359,-2.17381 0,-1.00313 -0.72488,-1.89512 -2.2296,-2.56407 -1.67224,-0.8362 -2.50828,-1.83933 -2.50828,-3.06565 0,-3.51171 5.07236,-5.29539 15.21693,-5.29539 5.01672,0 8.58408,0.39098 10.64644,1.1701 2.06236,0.72488 3.12144,2.00656 3.12144,3.84604 0,2.17381 -1.33704,3.45577 -4.06907,3.79025 -1.95092,0.16695 -3.17709,0.50228 -3.79025,0.83619 -1.00315,0.72489 -2.17396,2.39669 -3.56736,5.01657"
       id="path87394" />
    <path
       style="fill:#ffffff;fill-opacity:1;fill-rule:nonzero;stroke:none;stroke-width:14.2695"
       d="m 290.03284,508.31614 c -1.83947,0 -3.45591,-0.39098 -4.90512,-1.11444 -1.1701,-0.61358 -2.06236,-1.2814 -2.73131,-2.06237 l -0.0571,-0.0571 c -0.61358,-0.78053 -1.28282,-2.00656 -2.17396,-3.79024 L 260.7121,461.32641 c -1.22575,-2.5083 -2.06236,-3.56736 -2.50828,-4.0133 l -0.0571,-0.0571 c -0.61358,-0.55795 -1.56064,-0.9475 -2.78696,-1.1701 -2.73117,-0.44521 -4.34776,-2.2854 -4.34776,-5.01657 0,-2.11816 1.11444,-5.01657 6.18723,-6.85604 3.51157,-1.33705 8.41669,-1.95092 14.93827,-1.95092 6.6888,0 11.53826,0.4452 14.77116,1.4492 2.61973,0.78055 5.79696,2.45264 5.79696,5.90856 0,1.89512 -1.11444,3.51156 -3.28868,4.96077 -0.72488,0.4452 -1.00314,0.78054 -1.05879,0.89184 0,0.2226 0.11413,0.78054 0.66924,1.89512 l 5.9642,12.48578 c 0.66923,1.44934 1.17009,1.78368 1.28139,1.78368 0.3339,0 0.8362,-0.11414 1.505,-0.83619 0.44521,-0.61359 1.39413,-2.00657 3.06565,-5.40684 2.45263,-5.07223 3.95763,-8.13801 4.34776,-9.02985 0.44863,-1.05723 0.44863,-1.44735 0.44863,-1.44735 0,-0.16696 -0.33391,-0.55793 -1.22575,-1.00315 -2.84276,-1.39412 -3.45592,-3.28868 -3.45592,-4.62644 0,-1.78368 0.8362,-4.18052 4.96092,-5.62972 2.73132,-0.94749 6.6888,-1.39413 11.98405,-1.39413 5.2954,0 8.9742,0.38956 11.2596,1.22575 1.61644,0.55793 4.29196,2.06236 4.29196,5.51828 0,1.56065 -0.55793,2.89841 -1.61644,3.84605 -0.94749,0.89184 -2.2854,1.4492 -4.01328,1.67223 -2.39684,0.27825 -2.95421,0.55793 -3.01,0.61358 -0.3339,0.22262 -1.33705,1.11446 -3.06565,4.34776 l -21.79444,41.19191 c -1.4492,2.78696 -2.84276,4.68223 -4.29196,5.79696 v 0.0571 c -1.505,1.17009 -3.45592,1.78368 -5.62973,1.78368 m -4.96091,-5.46263 c 0.39097,0.4452 0.94748,0.83619 1.61644,1.22575 1.00313,0.4452 2.06251,0.72488 3.34447,0.72488 1.39413,0 2.56408,-0.33391 3.45592,-1.05879 0.66924,-0.55793 1.83933,-1.83933 3.34433,-4.68209 l 21.85009,-41.19191 c 1.56079,-3.01 2.89855,-4.79368 4.18052,-5.68552 0.83619,-0.55793 2.2296,-0.89184 4.57064,-1.17009 2.5083,-0.27826 2.5083,-1.3927 2.5083,-2.00658 0,-0.72488 -0.27826,-1.61644 -2.00658,-2.2296 -1.2814,-0.4452 -4.06908,-1.05878 -10.03328,-1.05878 -8.41669,0.0571 -13.43325,1.33704 -13.43325,3.56736 0,0.50085 0.50228,1.00314 1.4492,1.4492 2.67552,1.2814 3.23289,2.95421 3.23289,4.18052 0,0.78054 -0.22261,1.67224 -0.72489,2.84276 v 0.0571 c -0.44521,0.89184 -1.89512,3.90184 -4.40341,9.14144 -1.505,3.01 -2.67552,5.01658 -3.56736,6.07564 -1.4492,1.7279 -3.06579,2.11816 -4.18052,2.11816 -1.78368,0 -3.28868,-1.28281 -4.4592,-3.7346 l -5.9642,-12.54156 c -0.7249,-1.4492 -1.00315,-2.61972 -1.00315,-3.51156 0,-2.06237 2.00657,-3.34448 2.67552,-3.7904 0.78055,-0.44521 1.67224,-1.22574 1.67224,-1.95077 0,-1.0588 -1.11444,-1.89527 -3.28868,-2.56408 -2.89855,-0.89184 -7.525,-1.33705 -13.76788,-1.33705 -6.01985,0 -10.59049,0.61358 -13.71193,1.78369 -3.84619,1.39269 -3.84619,3.06564 -3.84619,3.56736 0,0.89184 0.16695,1.39269 1.33704,1.56064 2.00672,0.33391 3.51171,1.0588 4.62644,2.11816 1.0588,0.94749 2.17395,2.61973 3.34448,5.07236 l 19.45325,39.9098 c 0.89184,1.89527 1.4492,2.73131 1.72788,3.12144"
       id="path87396" />
    <path
       style="fill:#bfae30;fill-opacity:1;fill-rule:nonzero;stroke:none;stroke-width:14.2695"
       d="m 204.80628,354.58509 -1.95092,-1.505 v -0.50228 l -0.38956,0.2226 -0.27825,-0.16694 v 0.38954 l -1.95092,1.505 c -7.4692,6.46592 -59.69752,12.65302 -66.7208,12.65302 -21.40418,0 -41.19191,-4.18052 -57.356483,-11.31526 -13.321946,21.01405 -21.069693,46.20848 -21.069693,73.29817 0,62.70752 42.752559,116.21795 98.938506,130.32016 0,0 37.95901,16.4434 48.15939,32.32929 h 0.72489 c 10.14472,-15.83024 48.1036,-32.2735 48.1036,-32.2735 56.13029,-14.1022 98.93864,-67.55684 98.93864,-130.26451 0,-27.14534 -7.74788,-52.33977 -21.12548,-73.35381 -16.10894,7.13472 -35.89666,11.31524 -57.35648,11.31524 -7.02328,0 -59.19596,-6.18722 -66.66516,-12.653 m -1.95092,-29.43073 c 13.82353,12.03984 38.07046,20.1222 65.66186,20.1222 25.91903,0 48.884,-7.13472 62.93042,-18.05984 24.58141,27.25693 39.40822,62.42884 39.40822,100.83377 0,75.52776 -55.96292,130.87753 -132.10385,159.52786 -15.16128,5.68552 -32.38493,30.8801 -35.61782,35.2835 v 0.61358 l -0.27826,-0.27825 -0.2226,0.27825 v -0.61358 c -3.23288,-4.4034 -20.45653,-29.59798 -35.61782,-35.2835 C 90.875867,558.92674 34.857148,503.57697 34.857148,428.04921 c 0,-38.40493 14.826813,-73.57684 39.463866,-100.83377 14.046559,10.92512 37.011386,18.05984 62.930556,18.05984 27.59127,0 51.8382,-8.08236 65.55028,-20.178 z m 0,0"
       id="path87398" />
    <path
       style="fill:#e3351c;fill-opacity:1;fill-rule:nonzero;stroke:none;stroke-width:14.2695"
       d="m 97.673973,399.90172 v 72.79645 l 3.455917,3.7904 8.36104,1.11444 9.53142,-1.39269 4.40356,1.61644 4.62644,3.01 4.90512,-3.45592 9.25273,-0.44522 6.24289,1.11446 7.4692,-2.28526 2.06236,-8.58408 v -67.27816"
       id="path87400" />
    <path
       style="fill:#bfae30;fill-opacity:1;fill-rule:nonzero;stroke:none;stroke-width:14.2695"
       d="M 127.71787,402.4658 H 99.847773 v 43.81164 l 0.05707,25.58469 c 0.613587,1.72788 0.947497,2.73131 2.508297,3.45591 7.30196,3.40013 16.44338,-4.12487 23.57811,1.72789 0.83619,0.66924 1.2814,1.11444 2.00658,1.83948 0.72488,-0.72489 1.17009,-1.17011 2.0067,-1.83948 7.13472,-5.85276 16.27602,1.67224 23.57799,-1.72789 1.56064,-0.72488 1.89512,-1.72803 2.50828,-3.45591 l 0.0571,-25.58469 V 402.4658 m -28.09299,-29.93246 v 0.11414 c 0.72489,0.55793 1.17009,0.89184 2.00657,1.39412 1.39412,0.89184 3.01,0.38956 3.90184,1.78368 0.78053,1.22574 1.17009,2.50829 0.33391,3.62316 -0.44522,0.61358 -0.89184,1.0588 -1.67224,1.0588 -0.9475,0 -0.83619,-1.505 -1.78368,-1.78368 -1.89512,-0.5023 -1.67224,3.17708 -0.89184,4.96077 0.89184,1.95091 4.40341,4.62644 4.96092,2.50828 0.2226,-0.89184 -0.55794,-1.39271 -0.39099,-2.34105 0.27825,-1.50499 1.22575,-2.84276 2.78696,-2.78696 0.72489,0.0571 1.17011,0.27825 1.67224,0.72489 l 0.78055,0.94748 0.27825,1.44921 c 0,1.00314 -0.27825,1.67224 -1.00315,2.34104 1.39412,0.61359 2.61974,0.55794 3.9575,-0.16694 1.17009,-0.61359 1.83946,-1.2814 2.17394,-2.56408 l 0.16695,-1.22575 -0.27825,-0.78053 -0.66923,-0.8362 -0.66924,-0.11414 c -1.00315,-0.11413 -1.83933,0.55794 -2.56393,-0.16696 -0.66924,-0.72488 -0.66924,-1.83933 0,-2.61972 1.11444,-1.2814 2.84261,-0.78054 4.62629,-1.44921 1.17009,-0.50228 1.78368,-0.78053 2.89855,-1.39412 0.72489,1.17009 0.66924,2.17395 1.95092,2.89855 1.39413,0.78054 2.89841,1.61645 3.06565,3.40013 0.0571,0.66924 0.11413,1.17009 -0.27825,1.72788 -0.44522,0.66924 -1.0588,1.11445 -1.83948,0.89184 l -0.94748,-0.94748 -0.33391,-0.50229 -0.72489,-0.66924 -0.83619,0.66924 -0.55793,1.0588 -0.27826,1.39269 c 0,0.78053 0.16695,1.28283 0.61359,1.95092 0.94748,1.505 2.34104,2.17395 4.01328,1.95092 -0.38956,-0.89184 -0.38956,-1.61644 0,-2.50828 0.33391,-0.66924 0.66924,-1.0588 1.33704,-1.33705 l 1.505,-0.11414 0.94749,0.38956 0.61359,0.89184 c 0.38956,0.78055 0.33391,1.33706 0.16695,2.17395 -0.2226,1.00315 -0.50086,1.61645 -1.22574,2.28525 1.3927,1.00315 2.8984,1.11446 4.4592,0.27826 1.61644,-0.89184 3.84604,-3.51156 2.1738,-4.23616 l -0.72488,-0.16696 c -0.83618,-0.16695 -1.5608,0.66924 -2.2296,0.0571 -0.72489,-0.61359 -0.22261,-1.56079 0.11414,-2.45264 0.89184,-2.50828 4.06908,-0.66923 6.57736,-1.50499 l 1.56065,-0.55795 -7.58064,16.16458 v 74.13421 c -0.50087,1.28282 -0.89184,2.00672 -1.61645,3.17724 -6.07564,9.81024 -21.12548,-2.4525 -29.04047,6.01998 -0.66924,0.66924 -1.00313,1.0588 -1.56079,1.7837 -0.55793,-0.7249 -0.94749,-1.11446 -1.56065,-1.7837 -7.91512,-8.47248 -22.96496,3.79026 -29.040614,-6.01998 -0.72488,-1.1701 -1.11444,-1.89514 -1.61644,-3.17724 v -74.13422 l -7.580639,-16.16457 1.56064,0.55795 c 2.508293,0.83618 5.685519,-1.00315 6.577359,1.50498 0.333907,0.89186 0.8362,1.83948 0.114134,2.45264 -0.66924,0.61359 -1.392694,-0.2226 -2.2296,-0.0571 l -0.66924,0.16696 c -1.728027,0.72488 0.502293,3.34432 2.11816,4.23616 1.560653,0.8362 3.065653,0.7249 4.4592,-0.27825 -0.72488,-0.66923 -1.003134,-1.28139 -1.225747,-2.28525 -0.166947,-0.83619 -0.2226,-1.39412 0.16696,-2.17395 l 0.613587,-0.89184 0.94749,-0.38956 1.50499,0.11413 c 0.66924,0.27826 1.00315,0.66924 1.33705,1.33706 0.38956,0.89184 0.38956,1.61644 0,2.50828 1.67224,0.2226 3.12144,-0.44522 4.01328,-1.95092 0.44522,-0.66924 0.61359,-1.1701 0.61359,-1.95092 l -0.27825,-1.39269 -0.55794,-1.0588 -0.83618,-0.66924 -0.7249,0.66924 -0.27825,0.50229 -1.00315,0.94748 c -0.78053,0.22261 -1.39412,-0.2226 -1.83946,-0.89184 -0.38956,-0.55793 -0.33391,-1.05879 -0.27826,-1.72788 0.16695,-1.78368 1.67223,-2.61988 3.06564,-3.40013 1.28283,-0.72488 1.22575,-1.72803 1.95092,-2.89855 1.11446,0.61359 1.72803,0.89184 2.89856,1.39412 1.78368,0.66924 3.51156,0.16696 4.62644,1.44921 0.66924,0.78054 0.72488,1.89512 0,2.61972 -0.72489,0.7249 -1.5608,0.0571 -2.56408,0.16696 l -0.66924,0.11414 -0.66924,0.8362 -0.2226,0.78053 0.11414,1.22575 c 0.3339,1.28282 1.00313,1.95091 2.1738,2.56407 1.39413,0.72488 2.56408,0.78054 3.95749,0.16695 -0.72489,-0.66924 -1.00315,-1.33704 -1.00315,-2.34104 l 0.27826,-1.44921 0.78054,-0.94748 c 0.55794,-0.44521 0.9475,-0.66924 1.67224,-0.72489 1.56064,-0.0571 2.50828,1.2814 2.78696,2.78696 0.16696,0.94749 -0.61358,1.44921 -0.38956,2.34105 0.55795,2.11816 4.06894,-0.55794 4.96078,-2.50828 0.8362,-1.78369 1.00314,-5.46249 -0.89184,-4.96077 -0.94748,0.27825 -0.83619,1.78368 -1.78368,1.78368 -0.78054,0 -1.22575,-0.44522 -1.67223,-1.0588 -0.8362,-1.11444 -0.44521,-2.39684 0.33389,-3.62316 0.89184,-1.39412 2.5083,-0.89184 3.90184,-1.78368 0.8362,-0.50228 1.2814,-0.83619 2.00658,-1.39412 v -0.11414 z m 0,0"
       id="path87402" />
    <path
       style="fill:#171405;fill-opacity:1;fill-rule:nonzero;stroke:none;stroke-width:14.2695"
       d="m 101.29713,399.00988 c 3.79024,-3.79024 14.3251,-6.52156 26.69942,-6.52156 12.37432,0 22.90917,2.73132 26.69942,6.52156 z m 0,0"
       id="path87404" />
    <path
       style="fill:#171405;fill-opacity:1;fill-rule:nonzero;stroke:none;stroke-width:14.2695"
       d="m 155.08624,399.17712 h -54.17939 l 0.27826,-0.27826 c 3.90184,-3.95762 14.65972,-6.57736 26.81101,-6.57736 12.15129,0 22.90917,2.61974 26.81101,6.57736 z m -53.34319,-0.33391 h 52.507 c -4.06893,-3.7346 -14.49233,-6.18708 -26.2535,-6.18708 -11.76116,0 -22.18456,2.45248 -26.2535,6.18708"
       id="path87406" />
    <path
       style="fill:#171405;fill-opacity:1;fill-rule:nonzero;stroke:none;stroke-width:14.2695"
       d="m 144.4956,409.54473 -0.72489,1.22575 c -0.94748,1.95092 -1.505,3.17724 -1.39412,5.29525 l 0.0571,0.94749 c 0.55794,1.89512 3.23288,-1.00314 4.57064,-2.34105 0.8362,-0.89184 1.44922,-1.28283 2.17396,-2.2296 -0.50229,1.22575 -0.89184,2.2296 -1.28282,3.23288 -0.83619,2.11816 -0.83619,1.89513 -1.33706,3.45592 -0.38954,1.2814 1.00315,1.2814 3.40014,0.11413 0.66922,-0.27825 2.9542,-1.72789 3.40012,-3.56736 0.78053,4.01328 -1.2814,7.69208 -5.12802,9.1413 -0.66924,0.2226 -1.11444,0.3339 -1.83948,0.39098 -1.33704,0.2226 -2.11801,0.11414 -3.45577,0 -0.94749,-0.0571 -1.44935,-0.11413 -2.39684,-0.22261 l -10.47919,15.04985 22.3518,29.65376 -1.33704,1.22575 -22.51905,-28.98481 -20.34509,29.59797 -1.56066,-1.05879 20.67958,-29.82086 -12.7088,-18.67286 c -1.39412,1.11444 -2.2296,1.6721 -3.7346,2.56394 -2.11816,1.28281 -3.34434,1.89526 -5.57394,2.84276 -1.33704,-1.17011 -2.0067,-2.11816 -2.56406,-3.7346 -0.27827,-0.89184 -0.38956,-1.44922 -0.38956,-2.39684 -0.0571,-0.66924 0,-1.11446 0.16694,-1.78368 l 0.9475,0.61358 c 0.89184,0.4452 1.4492,0.78054 2.45264,0.66923 l 0.38954,-0.11413 0.22262,-1.505 c 0.0571,-1.0588 0,-1.61646 -0.11414,-2.61988 0.66924,0.27825 1.00315,0.50229 1.67224,0.8362 l 0.83619,0.55793 1.22575,0.33391 0.61358,-0.89184 0.11414,-0.9475 c 0,-1.00314 -0.11414,-1.56065 -0.50086,-2.50829 1.33706,0.94749 3.2329,2.67553 3.9017,1.22575 l 0.16696,-0.89184 c 0.11413,-1.1701 0.0571,-1.83947 -0.27826,-2.9542 0.89184,0.61358 1.505,0.89184 2.56407,1.00314 0.66924,0.11414 1.17009,0.33391 1.78368,0.0571 1.2814,-0.61358 1.00315,-2.73117 -0.11413,-3.67881 1.33704,0.27825 2.06236,0.61359 3.23288,1.33705 1.505,0.89184 2.28525,1.61644 3.23289,3.12144 -0.72489,1.05879 -1.22575,1.61644 -2.11816,2.61987 -0.72489,0.78055 -1.17009,1.17009 -1.95092,1.89513 -1.56065,1.3927 -2.50828,2.1738 -4.18037,3.40012 l 12.15125,17.50233 10.20037,-14.77102 c -0.22261,-0.94748 -0.38956,-1.50499 -0.61358,-2.45263 -0.22262,-1.11444 -0.44522,-1.72789 -0.50087,-2.84276 -0.0571,-1.11444 0,-1.78368 0.33391,-2.89841 1.00314,-3.23303 3.01,-5.1838 6.29868,-6.01999"
       id="path87408" />
    <path
       style="fill:#171405;fill-opacity:1;fill-rule:nonzero;stroke:none;stroke-width:14.2695"
       d="m 108.26461,471.75068 -1.83948,-1.28283 20.67958,-29.82085 -12.54156,-18.39419 c -1.2814,1.00315 -2.11802,1.56065 -3.62302,2.45249 -2.06236,1.28283 -3.28868,1.89514 -5.57408,2.84276 h -0.11413 l -0.0571,-0.0571 c -1.39412,-1.1701 -2.00657,-2.11802 -2.61973,-3.79024 -0.27826,-0.89186 -0.38955,-1.44922 -0.4452,-2.45264 0,-0.7249 0.0571,-1.11444 0.2226,-1.83934 l 0.0571,-0.27825 0.2226,0.16696 0.89184,0.61357 0.27825,0.11414 c 0.72489,0.38956 1.22575,0.66924 2.06237,0.55793 l 0.3339,-0.0571 0.11413,-1.4492 c 0.0571,-1.00315 0.0571,-1.56065 -0.0571,-2.56408 l -0.0571,-0.33391 0.27827,0.16696 c 0.66922,0.27826 1.05878,0.50228 1.67222,0.83619 l 0.38956,0.27825 0.50228,0.27826 0.33391,0.16696 0.72489,0.16694 0.50228,-0.72488 v -0.0571 l 0.11414,-0.66924 v -0.2226 c 0,-0.94749 -0.11414,-1.56065 -0.50086,-2.39684 l -0.27826,-0.61358 0.50086,0.39097 0.55794,0.38956 c 0.89184,0.66924 2.0067,1.44921 2.67552,1.2814 l 0.38956,-0.44521 0.16694,-0.55794 0.0571,-0.2226 c 0.11414,-1.17009 0.0571,-1.83948 -0.27825,-2.89856 l -0.16695,-0.50085 0.4452,0.27825 c 0.83619,0.61359 1.44935,0.83619 2.50828,1.00315 l 0.38956,0.11413 1.2814,-0.0571 0.72488,-1.11445 c 0.11414,-0.83618 -0.27825,-1.72788 -0.89184,-2.2296 l 0.16696,-0.3339 c 1.33704,0.27825 2.11815,0.61358 3.28868,1.33705 1.505,0.94749 2.28539,1.72803 3.23288,3.17724 l 0.11414,0.11413 -0.11414,0.0571 c -0.72488,1.11444 -1.17009,1.67224 -2.06236,2.67552 -0.66924,0.66924 -1.11444,1.0588 -1.72789,1.61644 l -0.27825,0.27827 c -1.56079,1.39412 -2.45263,2.11814 -4.06907,3.34446 l 11.9284,17.1679 10.03314,-14.54812 c -0.2226,-0.89184 -0.38956,-1.39413 -0.61359,-2.34105 l -0.16695,-0.83619 c -0.16696,-0.66924 -0.3339,-1.22574 -0.3339,-2.06236 -0.0571,-1.22574 0.0571,-1.89513 0.3339,-2.95421 1.00314,-3.28868 3.06564,-5.29524 6.40998,-6.13143 l 0.4452,-0.11413 -0.2226,0.38956 -0.72488,1.22573 c -1.00315,2.00672 -1.505,3.17724 -1.39414,5.18382 v 0.27825 l 0.0571,0.61359 0.38956,0.50228 c 0.83619,0.16696 2.67552,-1.72788 3.6788,-2.73131 l 0.16696,-0.22261 0.89184,-0.83619 1.33704,-1.33704 0.27825,0.16695 c -0.50228,1.17009 -0.89184,2.11816 -1.28138,3.23302 -0.33391,0.7249 -0.5023,1.1701 -0.66924,1.50486 -0.2226,0.66924 -0.33391,0.94749 -0.66924,1.95092 l 0.0571,0.61358 c 0.11414,0.11414 0.72488,0.39099 3.12144,-0.72488 0.55794,-0.22261 2.78696,-1.61645 3.28868,-3.45592 h 0.33391 c 0.78053,4.06908 -1.33705,7.91512 -5.23945,9.30867 -0.7249,0.27827 -1.1701,0.38956 -1.89527,0.50087 -1.11445,0.16694 -1.83933,0.11413 -2.89841,0 h -0.61359 c -0.89184,-0.0571 -1.39413,-0.11414 -2.2296,-0.27826 l -10.36761,14.8826 22.35166,29.65378 -1.56065,1.4492 -22.51904,-28.92916 z m -1.39412,-1.33704 1.28282,0.83618 20.40074,-29.59797 22.5747,28.98481 1.00314,-1.00314 -22.29601,-29.59798 0.0571,-0.11413 10.59064,-15.16128 0.11413,0.0571 c 0.89184,0.11413 1.39412,0.16695 2.34119,0.2226 l 0.61358,0.0571 c 1.00315,0.11414 1.72803,0.11414 2.84276,-0.0571 0.66924,-0.11413 1.11444,-0.16696 1.78368,-0.38956 3.51171,-1.33704 5.51828,-4.62644 5.12816,-8.30539 -0.78054,1.61659 -2.73132,2.78711 -3.23289,3.06579 -1.28283,0.61359 -2.89855,1.17009 -3.51171,0.66924 l -0.16696,-1.00315 c 0.33391,-1.00313 0.44522,-1.28138 0.7249,-1.95092 0.11413,-0.33389 0.3339,-0.78053 0.61358,-1.56064 0.33391,-0.78054 0.61359,-1.505 0.89184,-2.2296 l -0.61358,0.61359 -0.89184,0.83619 -0.2226,0.16694 c -1.505,1.56066 -3.01,3.06566 -3.9575,2.84276 l -0.66924,-0.72488 -0.0571,-0.72489 v -0.27825 c -0.11414,-2.17382 0.44521,-3.45578 1.39413,-5.35104 l 0.50228,-0.89184 c -3.01,0.89184 -4.79368,2.7313 -5.74131,5.79696 -0.27825,1.00314 -0.3339,1.67224 -0.3339,2.84276 0.0571,0.78053 0.16694,1.33704 0.3339,2.0067 l 0.2226,0.8362 c 0.16695,0.94748 0.33391,1.4492 0.55794,2.39684 l 0.0571,0.0571 -10.4234,15.1055 -12.43012,-17.89261 0.16695,-0.11413 c 1.67224,-1.22575 2.61988,-1.95092 4.12487,-3.34434 l 0.3339,-0.3339 c 0.61359,-0.55794 1.0588,-0.89184 1.67224,-1.61644 0.83619,-0.89184 1.33706,-1.44935 2.00671,-2.45264 -0.89184,-1.3927 -1.67223,-2.11816 -3.12144,-3.01 -0.94749,-0.55794 -1.61659,-0.89184 -2.56407,-1.1701 0.38955,0.61359 0.66923,1.44935 0.55794,2.17396 -0.11414,0.61359 -0.38956,1.11444 -0.9475,1.33704 l -1.44921,0.11414 -0.38955,-0.11414 c -0.94749,-0.11413 -1.5608,-0.3339 -2.2854,-0.78053 0.2226,0.89184 0.27826,1.61644 0.16696,2.56407 l -0.0571,0.22261 -0.16696,0.72488 -0.66922,0.61359 c -0.78055,0.22261 -1.95092,-0.61359 -2.95422,-1.33704 l -0.0571,-0.0571 c 0.22262,0.66924 0.33391,1.22574 0.33391,2.00657 v 0.2226 l -0.11413,0.78053 v 0.0567 l -0.7249,0.9475 -1.00314,-0.2226 -0.89184,-0.44522 -0.33391,-0.2226 -1.33704,-0.72489 c 0.0571,0.8362 0.11413,1.39413 0.0571,2.2854 l -0.16696,1.61644 -0.0571,0.11413 h -0.11413 l -0.44522,0.11414 c -0.94749,0.11413 -1.56078,-0.16695 -2.28538,-0.61358 l -0.27826,-0.11413 -0.72489,-0.44521 -0.11413,1.50486 c 0,0.89184 0.11413,1.39412 0.44521,2.34119 0.50228,1.61644 1.11444,2.45248 2.34119,3.56736 2.17381,-0.89184 3.45577,-1.505 5.46249,-2.73132 1.50499,-0.94749 2.34104,-1.505 3.7346,-2.61972 l 0.11413,-0.11413 0.11414,0.16694 12.76445,18.78446 -0.0571,0.11413 z m 0,0"
       id="path87410" />
    <path
       style="fill:#008f42;fill-opacity:1;fill-rule:nonzero;stroke:none;stroke-width:14.2695"
       d="m 76.046907,380.05834 c 0.836187,-0.0571 1.392707,0.0571 2.2296,0.2226 2.898413,0.78055 4.236173,2.61974 5.629733,5.29526 0.836187,1.61658 1.003133,2.67552 1.225747,4.515 0.278253,2.61972 -0.05707,4.2363 -0.780547,6.80024 -0.557933,1.78368 -1.11444,2.73132 -1.839467,4.4592 -0.724893,1.67224 -1.281399,2.56408 -1.950919,4.23632 -0.333907,0.89184 -0.613587,1.39269 -0.780547,2.28525 -0.166947,0.72488 -0.2226,1.17009 -0.2226,1.95092 l 1.225747,-0.61359 c 1.504999,-0.78054 2.229599,-1.50485 3.400119,-2.73117 1.114454,-1.17009 1.727894,-1.89513 2.508294,-3.34448 0.557933,-1.11444 0.780533,-1.72788 1.11444,-2.9542 0.38956,-1.39269 0.557933,-2.2296 0.613586,-3.7346 l 0.947494,0.39099 c 1.225746,0.72488 1.56064,1.67209 1.89512,3.06564 0.50228,2.00672 0.557933,3.28868 0,5.29525 -0.278254,1.11444 -0.613587,1.72803 -1.225747,2.78711 -0.66924,1.17009 -1.170093,1.83933 -2.06236,2.89841 -0.66924,0.83619 -1.11444,1.33705 -1.895133,2.11816 -1.058787,1.11444 -1.72788,1.61644 -2.731307,2.67552 -0.836187,0.89184 -1.337053,1.33705 -2.118013,2.2296 -0.66924,0.78053 -1.003147,1.22575 -1.5608,2.06236 l 0.114133,4.45921 c 0.780534,-0.3339 1.2814,-0.55794 2.006707,-1.0588 2.062373,-1.22574 2.954213,-2.34104 4.403413,-4.23617 1.78368,-2.28539 1.95092,-4.06907 3.34448,-6.57736 l 0.89184,-1.56079 c 0.557933,0.61359 0.836187,1.05879 1.225747,1.83947 0.278253,0.61359 0.333906,1.00315 0.4452,1.67224 0.445213,2.06236 0.278253,3.40012 -0.4452,5.35104 -0.780547,2.00657 -1.72804,2.89841 -3.17724,4.40341 -0.89184,0.89184 -1.505,1.28283 -2.39684,2.11816 -1.505,1.4492 -2.2854,2.28539 -3.7346,3.79026 -0.500854,0.61358 -0.89184,0.89184 -1.337053,1.505 -0.72488,0.89184 -1.058787,1.44934 -1.504987,2.39684 l -0.05707,5.46248 c 0.836187,-0.61359 1.33704,-0.9475 2.118013,-1.6721 l 1.560787,-1.39412 c 0.89184,-0.94749 1.2814,-1.61645 2.006573,-2.73132 0.4452,-0.78053 0.66924,-1.22574 1.003147,-2.00657 0.836187,-1.89512 1.11444,-3.06564 1.170093,-5.12815 1.170094,0.4452 1.78368,0.9475 2.39684,1.95092 l 0.669227,1.56079 c 0.222613,0.61359 0.278267,1.00315 0.390987,1.61644 0.16696,1.0588 0.16696,1.67224 -0.05707,2.73132 -0.278253,1.50485 -0.72488,2.34104 -1.61644,3.62301 -0.613587,0.89184 -1.11444,1.28283 -1.839467,2.17395 -0.947493,1.11444 -1.505,1.72789 -2.452493,2.78697 -0.724893,0.83619 -1.114453,1.28139 -1.83948,2.06236 -0.66924,0.66924 -1.058787,1.00315 -1.67224,1.67224 -0.780533,0.89184 -1.392693,1.33704 -1.72788,2.45248 -0.38956,1.0588 -0.38956,1.78368 -0.114133,2.84276 0.66924,-0.66922 1.0588,-1.00313 1.78368,-1.61644 0.613586,-0.61358 1.003146,-0.94749 1.672093,-1.505 0.66924,-0.55793 1.003147,-0.83618 1.67224,-1.39412 1.170093,-1.00314 1.83948,-1.3927 2.9542,-2.45249 0.557947,-0.61359 0.947493,-0.94749 1.449347,-1.56079 0.500866,-0.61358 0.780546,-1.00314 1.170106,-1.67209 0.613587,-1.00315 0.780534,-1.67224 1.33704,-2.78712 l 0.500854,-1.00313 c 0.724893,1.11444 1.0588,1.83946 1.282826,3.17722 0.278254,1.2814 0.278254,2.00658 0.05707,3.28868 -0.05707,1.11446 -0.278253,1.7279 -0.724893,2.73118 -0.500854,1.00314 -1.003134,1.505 -1.72788,2.3412 -1.5608,1.67209 -2.89856,2.11801 -4.737894,3.40012 -1.058786,0.72488 -1.78368,1.00314 -2.787106,1.83933 -0.669227,0.61359 -1.058787,1.00313 -1.672094,1.78368 l -1.003133,1.39412 c -0.445213,0.72489 -0.724893,1.17009 -1.0588,1.95092 -0.333906,0.89184 -0.50228,1.44921 -0.613586,2.39684 -0.05707,1.00315 0.05707,1.56065 0.2226,2.56393 0.16696,0.7249 0.278253,1.11444 0.557946,1.78368 l 0.613587,1.00315 c 0.2226,-0.83619 0.390973,-1.28283 0.836187,-2.06236 0.669239,-1.11445 1.281386,-1.5608 2.118013,-2.56408 1.560786,-1.83948 2.39684,-2.89856 4.18052,-4.57065 l 1.560786,-1.505 c 2.173814,-2.2296 3.177094,-3.79039 4.18052,-6.74459 0.724894,1.11444 1.003147,1.83947 1.337054,3.12144 0.557933,2.2296 0.557933,3.7346 -0.16696,5.9084 -0.72488,2.17396 -1.61644,3.28868 -3.344467,4.79368 l -1.337053,0.94749 c -1.672094,1.1701 -2.84276,1.4492 -4.4592,2.67552 -0.780534,0.61359 -1.225747,0.9475 -1.89512,1.61644 l -1.225747,1.33706 v 0.89184 c 0.557933,2.28525 1.67224,3.12144 3.233027,4.68209 1.11444,1.11444 1.950773,1.61644 3.23288,2.56408 0.947493,0.66923 1.560653,1.05879 2.56408,1.67223 1.0588,0.66924 1.727893,1.00314 2.842626,1.56065 1.839467,0.89184 2.842747,1.39413 4.793667,2.00672 1.225743,0.33389 1.895133,0.50085 3.121453,0.72488 5.40683,1.0588 8.52827,0.61359 14.04656,0.55793 4.73788,0 7.35761,0.27826 12.03984,0.5023 4.62644,-0.22262 7.30196,-0.5023 11.98406,-0.5023 5.51828,0.0571 8.63972,0.5023 14.04656,-0.55793 1.22574,-0.2226 1.95077,-0.38955 3.12144,-0.72488 1.95077,-0.61359 2.95421,-1.11445 4.79353,-2.00672 1.11445,-0.55793 1.78369,-0.89184 2.84276,-1.56065 1.0588,-0.61359 1.61645,-1.00314 2.61988,-1.67223 1.28139,-0.94749 2.06236,-1.39413 3.17709,-2.56408 1.56079,-1.56065 2.67552,-2.39684 3.23288,-4.68209 l 0.0571,-0.89184 -1.2814,-1.33706 c -0.66924,-0.66922 -1.11444,-1.00313 -1.83947,-1.61644 -1.67224,-1.22574 -2.84276,-1.505 -4.515,-2.67552 l -1.2814,-0.94749 c -1.72788,-1.505 -2.61972,-2.61972 -3.34433,-4.79368 -0.72488,-2.1738 -0.72488,-3.6788 -0.16695,-5.9084 0.27826,-1.2814 0.61359,-2.00657 1.2814,-3.12144 1.00314,2.9542 2.00671,4.51499 4.18052,6.74459 l 1.61644,1.505 c 1.7279,1.67209 2.61974,2.73117 4.18052,4.57065 0.83619,1.00315 1.4492,1.4492 2.06236,2.56408 0.44522,0.78053 0.61359,1.22575 0.89184,2.06236 l 0.55794,-1.00315 c 0.3339,-0.66924 0.39098,-1.05878 0.55794,-1.78368 0.2226,-1.00314 0.27826,-1.56065 0.2226,-2.56393 -0.0571,-0.94749 -0.27825,-1.505 -0.61358,-2.39684 -0.33391,-0.78053 -0.61359,-1.22575 -1.0588,-1.95092 l -1.00314,-1.39412 c -0.55793,-0.78055 -0.94749,-1.17009 -1.67224,-1.78368 -1.00314,-0.83619 -1.67209,-1.11445 -2.73117,-1.83933 -1.89527,-1.28283 -3.23303,-1.72803 -4.73788,-3.40012 -0.78055,-0.8362 -1.28283,-1.33706 -1.72804,-2.3412 -0.50085,-1.00314 -0.66923,-1.61644 -0.78053,-2.73118 -0.2226,-1.28281 -0.16695,-2.0067 0.0571,-3.28868 0.27826,-1.33704 0.55794,-2.06236 1.2814,-3.17722 l 0.55794,1.00313 c 0.50085,1.11445 0.66924,1.78369 1.28138,2.78712 0.44522,0.66923 0.66924,1.05879 1.17011,1.67209 0.55793,0.61359 0.89184,0.9475 1.50499,1.56079 1.0588,1.0588 1.78369,1.4492 2.89856,2.45249 0.66924,0.55794 1.05878,0.83619 1.67209,1.39412 0.66924,0.61359 1.05879,0.89184 1.72803,1.505 0.66924,0.61359 1.11445,1.00315 1.78368,1.61644 0.22261,-1.05878 0.22261,-1.78368 -0.11414,-2.84276 -0.38956,-1.11444 -1.00314,-1.56064 -1.78368,-2.45248 -0.55794,-0.66924 -1.00314,-1.00314 -1.61645,-1.67224 -0.72488,-0.78054 -1.11444,-1.22574 -1.83933,-2.06236 -1.00314,-1.0588 -1.50499,-1.67224 -2.50828,-2.78697 -0.72488,-0.89184 -1.22575,-1.28283 -1.83947,-2.17395 -0.89184,-1.2814 -1.33705,-2.11816 -1.61645,-3.62301 -0.16695,-1.0588 -0.16695,-1.67224 -0.0571,-2.73132 0.11413,-0.61359 0.16695,-1.00313 0.39097,-1.61644 l 0.66924,-1.56079 c 0.66924,-1.00314 1.2814,-1.505 2.39684,-1.95092 0.11414,2.06251 0.33391,3.23303 1.1701,5.12815 0.3339,0.78055 0.61358,1.22575 1.0588,2.00657 0.66922,1.11444 1.05878,1.78368 2.00656,2.73132 l 1.505,1.39412 c 0.83618,0.7249 1.28282,1.0588 2.17396,1.6721 l -0.11414,-5.46248 c -0.44521,-0.9475 -0.78054,-1.505 -1.44921,-2.39684 -0.50085,-0.61359 -0.83619,-0.89184 -1.39269,-1.505 -1.39412,-1.50487 -2.2296,-2.34106 -3.67895,-3.79026 -0.94749,-0.83618 -1.56065,-1.22574 -2.39684,-2.11816 -1.50485,-1.505 -2.45249,-2.39684 -3.17709,-4.40341 -0.78054,-1.95092 -0.89184,-3.28868 -0.50228,-5.35104 0.11413,-0.66924 0.2226,-1.05879 0.50228,-1.67224 0.3339,-0.78053 0.61358,-1.17009 1.22574,-1.83947 l 0.83619,1.56079 c 1.39413,2.50829 1.61644,4.29197 3.34433,6.57736 1.44935,1.89513 2.39684,3.00985 4.40355,4.29197 0.78055,0.4452 1.22575,0.66923 2.06237,1.00314 l 0.0571,-4.4592 c -0.55793,-0.83619 -0.89184,-1.2814 -1.56079,-2.06236 -0.78053,-0.89184 -1.22574,-1.33706 -2.06236,-2.2296 -1.0588,-1.0588 -1.72789,-1.5608 -2.73132,-2.67552 -0.78053,-0.78055 -1.22574,-1.22575 -1.95092,-2.11816 -0.89184,-1.0588 -1.39412,-1.7279 -2.06236,-2.89842 -0.61358,-1.05878 -0.89184,-1.67224 -1.22574,-2.7871 -0.55794,-2.00658 -0.50228,-3.28854 0,-5.29526 0.3339,-1.39412 0.66924,-2.34104 1.89512,-3.06565 l 0.94749,-0.39097 c 0.11413,1.505 0.22261,2.34118 0.61359,3.7346 0.3339,1.22574 0.55793,1.89512 1.17009,2.9542 0.72489,1.44934 1.33705,2.17394 2.45264,3.34448 1.17009,1.22573 1.89512,1.95092 3.40012,2.73117 l 1.2814,0.61357 c -0.0571,-0.78053 -0.0571,-1.22573 -0.2226,-1.9509 -0.22261,-0.89184 -0.44521,-1.39271 -0.78055,-2.28526 -0.66924,-1.67224 -1.22574,-2.56408 -1.95092,-4.23632 -0.78053,-1.72788 -1.33704,-2.67552 -1.83933,-4.4592 -0.72488,-2.56393 -1.11444,-4.18052 -0.78053,-6.80025 0.16694,-1.83947 0.38956,-2.89841 1.22574,-4.51499 1.33704,-2.67553 2.67552,-4.51485 5.57394,-5.29525 0.83618,-0.16696 1.39412,-0.27825 2.28538,-0.2226 -0.11413,0.72488 -0.2226,1.11444 -0.38954,1.83932 -0.11414,0.66924 -0.22262,1.0588 -0.33391,1.78369 -0.27825,1.39412 -0.33391,2.17395 -0.44521,3.56736 -0.16695,1.67223 -0.33391,2.67552 -0.11414,4.40355 0.16695,0.89184 0.27826,1.33705 0.55794,2.2296 0.2226,0.94749 0.50085,1.50485 0.78053,2.45249 0.2226,1.22575 0.33391,1.89512 0.38956,3.12144 0.11413,1.22575 0.0571,1.89512 -0.11413,3.12144 -0.11414,1.11446 -0.2226,1.7279 -0.4452,2.84276 l -0.27826,1.1701 c -0.16696,0.89184 -0.16696,1.33705 -0.0571,2.2296 l 0.83618,-0.66923 0.89184,-0.78055 1.1701,-1.22574 c 1.00314,-1.28139 1.61644,-2.06236 2.17394,-3.62315 0.27827,-0.66924 0.33391,-1.0588 0.50087,-1.78368 0.39099,-1.72789 0.2226,-2.78697 0.55793,-4.57065 l 0.11414,-0.66924 c 0.78053,0.27825 1.22574,0.50086 1.78368,1.0588 1.56064,1.50485 1.89512,2.78696 2.1738,4.84932 0.11413,0.78054 0.16696,1.1701 0.11413,2.00657 -0.11413,1.5608 -0.44521,2.50843 -1.2814,3.90184 -0.4452,0.78053 -0.72488,1.17009 -1.33704,1.83948 l -1.83948,2.06236 -1.78368,1.89512 -2.11801,2.56408 -1.33706,2.11816 -0.61358,1.00313 -0.0571,3.84606 1.11444,-0.61359 c 1.67209,-1.00315 2.50828,-1.78368 3.6788,-3.28868 0.50229,-0.66924 0.72489,-1.0588 1.11445,-1.78368 0.89184,-1.72789 1.33704,-3.06565 1.505,-4.68209 l 0.2226,-1.22575 c 0.83619,0.27825 1.33704,0.55793 2.00658,1.11444 2.17394,1.95079 1.89526,4.79353 0.78053,7.52485 -0.38956,1.0588 -0.83619,1.56066 -1.505,2.50828 -0.78053,1.11446 -1.2814,1.67224 -2.2296,2.67554 l -1.4492,1.4492 c -0.61359,0.55793 -1.00315,0.89184 -1.67224,1.44934 l -1.0588,0.9475 c -0.94748,0.89184 -1.4492,1.39412 -2.28525,2.39684 l -0.11414,7.52485 c 1.00314,-0.61359 1.56079,-1.0588 2.39684,-1.89513 l 1.11444,-1.1701 c 1.11444,-1.33704 1.61644,-2.2296 2.2296,-3.84604 0.33391,-0.89184 0.38956,-1.44921 0.61359,-2.39684 0.33391,-1.2814 0.44521,-2.00657 0.61359,-3.28868 l 1.33705,0.83619 c 1.17009,1.4492 1.33704,2.11801 1.78368,3.62301 0.16695,0.66924 0.27825,1.0588 0.33391,1.72803 0.11413,1.0588 0.16694,1.67209 0,2.67552 -0.33391,1.95079 -0.9475,3.12145 -2.34106,4.45921 l -1.89512,1.89512 -1.83948,1.78368 -2.67552,2.9542 -1.39269,1.7279 -0.11413,3.34448 0.61358,-0.39099 c 0.66924,-0.44521 1.11444,-0.66924 1.78368,-1.17009 2.61987,-1.78368 4.23632,-2.78698 5.9642,-5.4625 1.00315,-1.61644 1.00315,-2.84276 1.95092,-4.515 l 0.7249,-1.28138 c 0.72488,0.94749 1.11444,1.56078 1.4492,2.67552 0.83618,2.28538 0.94749,4.01328 -0.11414,6.13144 -0.61358,1.28138 -1.22574,2.00656 -2.45248,2.84276 l -4.12488,3.00985 c -1.28138,0.78053 -1.95092,1.28283 -3.12144,2.28539 l -1.505,1.2814 c -0.50228,0.61358 -0.72488,1.0588 -1.00313,1.78368 l -0.33391,5.40684 0.89184,-0.38956 1.05879,-0.72488 c 1.0588,-0.7249 1.61645,-1.0588 2.61988,-1.78368 0.83619,-0.61359 1.28139,-0.89184 2.06236,-1.505 1.505,-1.28283 2.56408,-1.95092 3.51157,-3.62316 0.4452,-0.83619 0.61359,-1.39412 0.89184,-2.2854 l 0.89184,1.33705 c 0.4452,0.78053 0.61359,1.28283 0.72488,2.11816 0.39099,1.83947 0.11414,3.01 -0.66924,4.73788 -0.50228,1.11444 -0.94748,1.61644 -1.72802,2.56408 -1.50486,1.72788 -2.67552,2.50828 -4.73788,3.51157 -0.9475,0.50228 -1.56066,0.61359 -2.56394,1.00314 -0.78054,0.27825 -1.22574,0.44521 -1.95092,0.72489 l -1.17009,0.61359 -1.33705,1.22574 c -0.89184,1.505 -1.44935,2.34119 -2.56408,3.7346 -1.22575,1.61644 -2.00671,2.45263 -3.45592,3.90184 -2.8984,2.67552 -4.79367,3.95748 -8.30524,5.79696 -1.78368,0.9475 -2.84276,1.4492 -4.68224,2.11816 -1.61644,0.55794 -2.50828,0.78054 -4.12472,1.11444 -1.67224,0.39099 -2.67552,0.55794 -4.40342,0.61359 -5.79696,0.33391 -8.86274,0.61359 -14.43668,0 l 1.1701,0.94749 c 0.78053,0.66924 1.2814,1.00314 2.11816,1.67223 1.4492,0.94749 2.2296,1.56065 3.62301,2.73117 0.61359,0.55795 1.00313,0.78055 1.56079,1.39414 0.50228,0.66924 0.89184,1.05878 1.11444,1.83933 0.27825,0.89184 0.27825,1.505 0.0571,2.34119 -0.4452,1.61644 -1.39412,2.78696 -3.01,2.9542 -1.28138,0.2226 -2.28525,-0.16695 -3.06564,-1.1701 -1.0588,-1.22574 -1.2814,-2.0067 -2.17381,-3.17724 -1.00315,-1.39412 -1.61659,-2.1738 -2.78711,-3.40012 -0.61359,-0.66924 -0.94749,-1.05878 -1.61644,-1.67224 -1.11445,-0.94749 -1.72789,-1.4492 -2.95421,-2.1738 l -1.1701,-0.55793 -0.89184,-0.11413 h -0.27825 l -0.89184,0.11413 -1.11444,0.55793 c -1.2814,0.72488 -1.89513,1.22575 -2.9542,2.1738 -0.66924,0.61359 -1.0588,1.00315 -1.67224,1.67224 -1.17009,1.22575 -1.78368,2.00658 -2.78697,3.40012 -0.89184,1.1701 -1.11444,1.95092 -2.11815,3.17724 -0.8362,1.00315 -1.83933,1.3927 -3.12145,1.1701 -1.61644,-0.16695 -2.56394,-1.33704 -3.00986,-2.9542 -0.2226,-0.83619 -0.16694,-1.44935 0.0571,-2.34119 0.27826,-0.78055 0.61359,-1.17009 1.1701,-1.83933 0.50229,-0.61359 0.94749,-0.83619 1.5608,-1.39414 1.33704,-1.17009 2.11814,-1.78368 3.56736,-2.73117 0.83618,-0.66923 1.33704,-1.00313 2.1738,-1.67223 l 1.1701,-0.94749 c -5.62973,0.61359 -8.69538,0.33391 -14.43654,0 -1.78368,-0.0571 -2.73132,-0.2226 -4.4592,-0.61359 -1.61659,-0.3339 -2.50843,-0.55793 -4.069084,-1.11444 -1.895133,-0.66924 -2.954199,-1.17009 -4.682239,-2.11816 -3.51156,-1.83948 -5.46248,-3.12144 -8.30524,-5.85276 -1.505,-1.39269 -2.285254,-2.2296 -3.511573,-3.84604 -1.058787,-1.3927 -1.67224,-2.2296 -2.56408,-3.7346 l -1.33704,-1.22574 -1.114454,-0.61359 c -0.780533,-0.27825 -1.225733,-0.44521 -2.006706,-0.72489 -0.947494,-0.39098 -1.560654,-0.50228 -2.50828,-1.00314 -2.062374,-1.00314 -3.232893,-1.78369 -4.79368,-3.51157 -0.780547,-0.94749 -1.225747,-1.4492 -1.727893,-2.56408 -0.72488,-1.72788 -1.003134,-2.89841 -0.66924,-4.73788 0.16696,-0.83619 0.333906,-1.33705 0.724893,-2.11816 l 0.89184,-1.33705 c 0.278253,0.89184 0.500853,1.44936 0.947493,2.2854 0.947494,1.67224 1.95092,2.34104 3.45592,3.62316 0.780533,0.61358 1.225747,0.89184 2.06236,1.505 1.003147,0.72488 1.560787,1.05878 2.619733,1.78368 l 1.058787,0.72488 0.89184,0.38956 -0.333907,-5.40684 c -0.278253,-0.72488 -0.50228,-1.1701 -1.003133,-1.78368 l -1.449213,-1.2814 c -1.170094,-1.00314 -1.89512,-1.50499 -3.177227,-2.28539 l -4.124733,-3.00985 c -1.225747,-0.8362 -1.839333,-1.5608 -2.452493,-2.84276 -1.058787,-2.11816 -0.89184,-3.84606 -0.114134,-6.13144 0.389547,-1.11446 0.72488,-1.7279 1.449347,-2.67552 l 0.780533,1.28138 c 0.89184,1.67224 0.89184,2.89856 1.95092,4.515 1.67224,2.67552 3.34448,3.67882 5.9642,5.4625 0.66924,0.50228 1.0588,0.72488 1.78368,1.17009 l 0.557933,0.39099 -0.114133,-3.34448 -1.392707,-1.7279 -2.67552,-2.9542 -1.839466,-1.78368 -1.83948,-1.89512 c -1.4492,-1.33705 -2.06236,-2.50842 -2.39684,-4.45921 -0.166947,-1.00313 -0.114133,-1.61657 0,-2.67552 0.114133,-0.66923 0.16696,-1.05879 0.333907,-1.72803 0.445213,-1.505 0.66924,-2.17381 1.78368,-3.62301 l 1.394119,-0.83619 c 0.114134,1.28283 0.278267,2.00671 0.557947,3.28868 0.2226,0.9475 0.278253,1.505 0.669227,2.39684 0.613586,1.61644 1.114453,2.50828 2.229613,3.84604 l 1.058787,1.1701 c 0.836186,0.83618 1.39412,1.28282 2.39684,1.89513 l -0.114134,-7.52485 c -0.836186,-1.00315 -1.33704,-1.505 -2.2296,-2.39684 l -1.11444,-0.9475 c -0.613586,-0.55793 -1.003146,-0.89184 -1.616586,-1.44934 l -1.504854,-1.4492 c -0.947493,-1.00315 -1.449346,-1.56066 -2.229599,-2.67554 -0.613587,-0.94748 -1.114454,-1.4492 -1.505,-2.50828 -1.0588,-2.73132 -1.394134,-5.57406 0.836186,-7.52485 0.66924,-0.55793 1.11444,-0.83619 2.006707,-1.11444 l 0.16696,1.22575 c 0.166946,1.61644 0.613586,2.9542 1.505,4.62644 0.390973,0.78053 0.613586,1.17009 1.11444,1.83933 1.170093,1.505 2.06236,2.28539 3.678813,3.28868 l 1.11444,0.61359 -0.05707,-3.84606 -0.557933,-1.00313 -1.394133,-2.11816 -2.06236,-2.56408 -1.839467,-1.89512 -1.839333,-2.06236 c -0.557933,-0.66924 -0.89184,-1.0588 -1.337053,-1.83948 -0.780534,-1.39269 -1.170094,-2.34104 -1.282827,-3.90184 -0.05707,-0.83619 0,-1.22575 0.114133,-2.00657 0.278254,-2.06236 0.66924,-3.34447 2.173813,-4.84932 0.613587,-0.55794 1.058787,-0.78055 1.78368,-1.0588 l 0.114134,0.66924 c 0.333906,1.78368 0.222613,2.84276 0.557946,4.57065 0.166947,0.72488 0.278254,1.11444 0.50228,1.78368 0.557934,1.56079 1.170094,2.34119 2.2296,3.62315 l 1.11444,1.22574 0.89184,0.78055 0.8362,0.61359 c 0.114134,-0.8362 0.114134,-1.2814 0,-2.17382 l -0.333906,-1.17009 c -0.222614,-1.11444 -0.333907,-1.72789 -0.445214,-2.84276 -0.166946,-1.22575 -0.166946,-1.89512 -0.114133,-3.12144 0.05707,-1.22575 0.166947,-1.89513 0.4452,-3.12144 0.2226,-0.94749 0.50228,-1.505 0.780533,-2.45249 0.222614,-0.89184 0.38956,-1.33706 0.500867,-2.2296 0.278253,-1.72803 0.05707,-2.73132 -0.05707,-4.40356 -0.114133,-1.3927 -0.2226,-2.1738 -0.445213,-3.56736 -0.114133,-0.72488 -0.2226,-1.11444 -0.390973,-1.78368 -0.16696,-0.72488 -0.222614,-1.11444 -0.333907,-1.83934"
       id="path87412" />
  </g>
</svg>
