<?xml version="1.0" encoding="utf-8"?>
<!-- Generator: Adobe Illustrator 26.2.1, SVG Export Plug-In . SVG Version: 6.00 Build 0)  -->
<svg version="1.1" id="Capa_1" xmlns:v="https://vecta.io/nano"
	 xmlns="http://www.w3.org/2000/svg" xmlns:xlink="http://www.w3.org/1999/xlink" x="0px" y="0px" viewBox="0 0 106.2 142.8"
	 style="enable-background:new 0 0 106.2 142.8;" xml:space="preserve">
<style type="text/css">
	.st0{fill:none;}
	.st1{fill:#FFFFFF;}
	.st2{fill:#E62644;}
	.st3{fill:#FCBF00;}
	.st4{fill:#004996;}
</style>
<g>
	<path class="st0" d="M68.4,27.7c0.2,0.6,0.7,1,1.3,1.2C69.1,28.8,68.6,28.3,68.4,27.7z"/>
	<path class="st0" d="M72.2,27.6c-0.2,0.6-0.7,1.1-1.3,1.3C71.6,28.7,72,28.2,72.2,27.6c0-0.1,0.1-0.3,0.1-0.4
		c0-0.9-0.5-1.7-1.4-1.9C71.9,25.6,72.5,26.6,72.2,27.6z"/>
	<path class="st0" d="M73.7,22.5c0,0.6-0.5,1.1-1.1,1.1c0,0,0,0,0,0C73.2,23.6,73.7,23.1,73.7,22.5c0-0.6-0.5-1.1-1-1.1c0,0,0,0,0,0
		C73.2,21.4,73.7,21.9,73.7,22.5z"/>
	<path class="st0" d="M69.2,31.1C69.2,31.1,69.2,31.1,69.2,31.1c0.1,0.6,0.2,1.1,0.5,1.6C69.5,32.2,69.3,31.6,69.2,31.1z"/>
	<path class="st0" d="M62,31c0.1,0.2,0.3,0.3,0.4,0.5C62.3,31.4,62.1,31.2,62,31z"/>
	<path class="st0" d="M62.5,31.6C62.5,31.6,62.5,31.6,62.5,31.6l-0.3,0c0.1,0,0.1,0,0.2,0L62.5,31.6z"/>
	<path class="st0" d="M77.1,34.4L77.1,34.4c0.1,0.5,0.3,0.9,0.6,1.3l-2.8-1.1c0,0,0,0,0,0l2.9,1.1C77.4,35.3,77.2,34.9,77.1,34.4z"
		/>
	<path class="st0" d="M83.1,33.3C83.1,33.2,83.1,33.2,83.1,33.3C83.1,33.2,83.1,33.2,83.1,33.3z"/>
	<path class="st0" d="M86,32.1c-0.4-0.2-0.8-0.3-1.1-0.2c-0.2,0-0.4,0.1-0.6,0.2C84.8,31.8,85.4,31.8,86,32.1z"/>
	<path class="st0" d="M86.8,34.8c0.5-0.9,0.2-2-0.6-2.5c0,0-0.1-0.1-0.1-0.1C87,32.7,87.3,33.8,86.8,34.8z"/>
	<path class="st0" d="M86.6,28.8c0,0.6-0.5,1.1-1.1,1.1c0,0,0,0,0,0C86.1,29.9,86.6,29.4,86.6,28.8c0-0.6-0.5-1.1-1.1-1.1
		c0,0,0,0,0,0C86.1,27.7,86.6,28.2,86.6,28.8z"/>
	<path class="st0" d="M50.5,8.8c0,0-0.1,0.1-0.1,0.1C50.4,8.9,50.4,8.9,50.5,8.8z"/>
	<path class="st0" d="M83.1,34.4C83.1,34.4,83.1,34.3,83.1,34.4C83.1,34.3,83.1,34.4,83.1,34.4z"/>
	<path class="st0" d="M83.1,33.6c0,0,0-0.1,0-0.1C83.1,33.6,83.1,33.6,83.1,33.6z"/>
	<path class="st0" d="M61.6,30.4c0,0.1,0.1,0.2,0.1,0.2C61.7,30.6,61.7,30.5,61.6,30.4z"/>
	<path class="st0" d="M84.6,23.9C84.6,23.9,84.6,23.9,84.6,23.9c0.6,0,1.1,0.5,1.1,1.1c0,0.3-0.1,0.6-0.3,0.8
		c0.2-0.2,0.3-0.5,0.3-0.8C85.7,24.4,85.2,23.9,84.6,23.9z"/>
	<path class="st0" d="M33.7,23.6c-0.6,0-1.1-0.5-1.1-1.1c0,0,0,0,0,0C32.5,23.1,33,23.6,33.7,23.6z"/>
	<path class="st0" d="M33.7,23.6c0.6,0,1.1-0.5,1.1-1.1v0C34.8,23.1,34.2,23.6,33.7,23.6z"/>
	<path class="st0" d="M45.3,30C45.3,30,45.3,30,45.3,30c0,0.1,0.1,0.1,0.2,0.2C45.4,30.1,45.4,30,45.3,30z"/>
	<path class="st0" d="M33.9,27.2C33.9,27.2,33.9,27.2,33.9,27.2c0-0.1,0-0.2,0-0.4C33.9,26.9,33.9,27.1,33.9,27.2z"/>
	<path class="st0" d="M46.8,31.2c-0.1,0-0.1-0.1-0.2-0.1C46.7,31.1,46.7,31.2,46.8,31.2L46.8,31.2z"/>
	<path class="st0" d="M37.9,26.6c-0.3-1-1.4-1.7-2.5-1.4C36.5,25,37.6,25.6,37.9,26.6z"/>
	<path class="st0" d="M38,27C38,27,38,27,38,27c0-0.1,0-0.3-0.1-0.4C37.9,26.7,38,26.9,38,27z"/>
	<path class="st0" d="M53.1,23C53.1,23,53.1,23,53.1,23c0.5,0,1,0.2,1.4,0.6C54.2,23.3,53.7,23,53.1,23z"/>
	<path class="st0" d="M51.1,25c0,0.5,0.2,1,0.6,1.3C51.3,26,51.1,25.5,51.1,25z"/>
	<polygon class="st0" points="61.4,30 61.4,30 61.4,30 	"/>
	<path class="st0" d="M53.1,29.1c0.1,0.4,0.3,0.7,0.6,1C53.5,29.8,53.3,29.5,53.1,29.1z"/>
	<path class="st0" d="M59.4,31.2l0.2,0c0.1,0,0.1,0,0.2,0L59.4,31.2C59.4,31.2,59.4,31.2,59.4,31.2z"/>
	<path class="st0" d="M51.7,23.6c0.4-0.3,0.9-0.6,1.4-0.6C52.6,23,52.1,23.3,51.7,23.6z"/>
	<path class="st0" d="M51.1,25C51.1,25,51.1,25,51.1,25C51.1,25,51.1,25,51.1,25C51.1,25,51.1,25,51.1,25z"/>
	<path class="st0" d="M79,33.3c0.2-0.2,0.4-0.5,0.5-0.9c0.1-0.5,0-1.1-0.2-1.5c0.3,0.4,0.3,0.9,0.2,1.5C79.4,32.8,79.2,33,79,33.3
		c-0.1,0.3,0,0.6,0.1,0.9C79,33.9,79,33.6,79,33.3z"/>
	<path class="st0" d="M71.7,19.7C71.7,19.7,71.7,19.7,71.7,19.7c0.6,0,1.1-0.5,1.1-1.1c0-0.3-0.1-0.6-0.3-0.8
		c0.2,0.2,0.3,0.5,0.3,0.8C72.8,19.2,72.3,19.7,71.7,19.7z"/>
	<path class="st0" d="M69.9,14.2C69.9,14.2,69.9,14.2,69.9,14.2c0.6,0,1.1,0.5,1.1,1.1c0,0.1,0,0.3-0.1,0.4c0.1-0.1,0.1-0.3,0.1-0.4
		C71,14.7,70.5,14.2,69.9,14.2z"/>
	<path class="st0" d="M67.3,11.2C67.3,11.2,67.3,11.2,67.3,11.2c0.6,0,1.1,0.5,1.1,1.1c0,0.4-0.3,0.8-0.7,1c0.4-0.2,0.7-0.5,0.7-1
		C68.4,11.7,67.9,11.2,67.3,11.2z"/>
	<path class="st0" d="M73.5,13.9C73.5,13.9,73.5,13.9,73.5,13.9c0.6,0,1.1,0.5,1.1,1.1c0,0.3-0.1,0.6-0.3,0.8
		c0.2-0.2,0.3-0.5,0.3-0.8C74.6,14.3,74.1,13.9,73.5,13.9z"/>
	<path class="st0" d="M71.6,30.7c2.1,0.4,3-0.6,3.4-2c0.3-1.1,0.2-2.3-1.2-3c0-0.2-0.1-0.3-0.1-0.5c0,0.1,0,0.3,0,0.4
		c1.4,0.7,1.5,1.9,1.2,3C74.5,30.1,73.6,31.1,71.6,30.7c0,0.7,0.3,1.2,0.9,1.5C72,31.9,71.6,31.4,71.6,30.7z"/>
	<path class="st0" d="M73.7,18.4c0,0.1,0,0.1,0,0.2c0,0.9-0.5,1.3-1.2,1.8c0,0,0.1,0,0.1,0c0.6-0.5,1.2-0.9,1.2-1.8
		C73.8,18.7,73.8,18.6,73.7,18.4l0.5-0.1c1.9,0.9,3.4,1.9,4.6,2.9c-1.2-1.1-2.7-2-4.7-3L73.7,18.4z"/>
	<path class="st0" d="M73.4,13.9c-0.5,0-0.8,0.3-0.9,0.8C72.5,14.2,72.9,13.9,73.4,13.9z"/>
	<path class="st0" d="M79.5,33.8c0-0.1,0-0.2,0-0.2c0.2-0.3,0.4-0.6,0.5-0.9c0.3-1.2-0.3-2.3-1.4-2.8c1.1,0.5,1.6,1.6,1.3,2.8
		c-0.1,0.3-0.3,0.7-0.5,0.9c0,0.8,0.4,1.5,1,1.8C79.9,35,79.6,34.5,79.5,33.8z"/>
	<path class="st0" d="M53.1,18.3c-0.6,0-1.1,0.5-1.1,1.1C52,18.8,52.5,18.3,53.1,18.3z"/>
	<path class="st0" d="M63.9,9.1C63.9,9.1,63.9,9.1,63.9,9.1c0.6,0,1.1,0.5,1.1,1.1c0,0.1,0,0.3-0.1,0.4c0.1-0.1,0.1-0.3,0.1-0.4
		C65,9.5,64.5,9.1,63.9,9.1z"/>
	<path class="st0" d="M53.1,14.4c-0.6,0-1.1,0.5-1.1,1.1C52,14.9,52.5,14.4,53.1,14.4z"/>
	<path class="st0" d="M50.7,8.2c0,0.2,0,0.3-0.1,0.4C50.7,8.5,50.7,8.4,50.7,8.2z"/>
	<path class="st0" d="M60.3,7.8C60.3,7.8,60.3,7.8,60.3,7.8c0.6,0,1.1,0.5,1.1,1.1c0,0.1,0,0.3-0.1,0.4c0.1-0.1,0.1-0.3,0.1-0.4
		C61.4,8.3,60.9,7.8,60.3,7.8z"/>
	<path class="st0" d="M53.1,10.5c-0.6,0-1.1,0.5-1.1,1.1C52,11,52.5,10.5,53.1,10.5z"/>
	<path class="st0" d="M56.7,7.2C56.7,7.2,56.7,7.2,56.7,7.2c0.6,0,1.1,0.5,1.1,1.1c0,0.1,0,0.3-0.1,0.4c0.1-0.1,0.1-0.3,0.1-0.4
		C57.8,7.6,57.3,7.2,56.7,7.2z"/>
	<path class="st0" d="M71.1,30.2c1.8,0.4,2.9,0.2,3.4-1.5c0.2-0.8,0.2-1.4-0.2-1.9c0.3,0.5,0.4,1.1,0.2,1.8
		C73.9,30.4,72.8,30.6,71.1,30.2c-0.2,0.8,0.1,1.7,0.8,2.2C71.4,31.9,71,31.1,71.1,30.2z"/>
	<path class="st0" d="M72.9,24.5c1-0.3,1.7-0.9,1.7-1.9c0-0.7-0.3-1.1-0.7-1.5c0.4,0.3,0.6,0.8,0.6,1.4
		C74.6,23.6,73.8,24.2,72.9,24.5c0.2,0.5,0.3,0.8,0.2,1.5c0,0,0,0,0.1,0C73.3,25.5,73.2,25,72.9,24.5z"/>
	<path class="st0" d="M82.9,20.5C82.9,20.5,82.9,20.5,82.9,20.5c0.6,0,1.1,0.5,1.1,1.1c0,0.4-0.3,0.8-0.7,1c0.4-0.2,0.7-0.5,0.7-1
		C84,21,83.5,20.5,82.9,20.5z"/>
	<path class="st0" d="M79.3,34.7c0,0,0-0.1,0-0.1C79.3,34.7,79.3,34.7,79.3,34.7z"/>
	<path class="st0" d="M80.2,17.5C80.2,17.5,80.2,17.5,80.2,17.5c0.6,0,1.1,0.5,1.1,1.1c0,0.3-0.1,0.6-0.3,0.8
		c0.2-0.2,0.3-0.5,0.3-0.8C81.3,18,80.9,17.5,80.2,17.5z"/>
	<path class="st0" d="M82.8,35.7c-0.2-0.1-0.3-0.2-0.5-0.3C82.5,35.5,82.6,35.6,82.8,35.7C82.8,35.7,82.8,35.7,82.8,35.7z"/>
	<path class="st0" d="M73.6,24.7C73.6,24.7,73.6,24.8,73.6,24.7C73.6,24.8,73.6,24.7,73.6,24.7C73.6,24.7,73.6,24.7,73.6,24.7z"/>
	<path class="st0" d="M77,15.2C77,15.2,77,15.2,77,15.2c0.6,0,1.1,0.5,1.1,1.1c0,0.3-0.1,0.6-0.3,0.8c0.2-0.2,0.3-0.5,0.3-0.8
		C78.1,15.7,77.6,15.2,77,15.2z"/>
	<polygon class="st0" points="38.8,32.5 36.2,33.1 36.2,33.1 38.8,32.5 	"/>
	<path class="st0" d="M80.6,35.4c0,0-0.1,0-0.1,0C80.6,35.4,80.6,35.4,80.6,35.4z"/>
	<path class="st0" d="M79.9,24.6c-0.4-0.2-0.8-0.4-1.3-0.6c-0.1,0-0.3-0.1-0.4-0.1c0.1,0.1,0.3,0.1,0.4,0.2
		C79.1,24.1,79.5,24.3,79.9,24.6z"/>
	<path class="st0" d="M75.1,22.9c-0.2,0.8-0.7,1.5-1.5,1.8l0,0C74.3,24.4,74.9,23.7,75.1,22.9z"/>
	<path class="st0" d="M80.2,35.7C80.2,35.7,80.3,35.7,80.2,35.7L80.2,35.7c0.4,0.2,0.8,0.3,1.1,0.3C81,36,80.6,35.9,80.2,35.7
		C80.3,35.7,80.2,35.7,80.2,35.7z"/>
	<path class="st0" d="M79.7,35.3C79.7,35.3,79.7,35.3,79.7,35.3C79.7,35.3,79.7,35.3,79.7,35.3z"/>
	<path class="st0" d="M75.1,22.6c1.2,0.3,2.6,0.6,3.7,1c0.8,0.3,1.5,0.7,2.1,1.1c-1.2-2.5-3.2-4.2-6.7-6.1c0,0.6-0.3,1.1-0.7,1.5
		c1,0.3,1.6,1.2,1.6,2.2V22.6z"/>
	<path class="st0" d="M83.1,34C83,34,83.1,33.9,83.1,34C83.1,33.9,83,34,83.1,34z"/>
	<path class="st0" d="M59.2,36.7c0-0.3,0.1-0.6,0.3-0.8C59.3,36.2,59.2,36.4,59.2,36.7c0,0.1,0,0.2,0.1,0.4
		C59.2,37,59.2,36.9,59.2,36.7z"/>
	<path class="st0" d="M60.3,35.3c-0.6,0-1.1,0.3-1.3,0.8C59.2,35.7,59.7,35.4,60.3,35.3c0.8,0,1.4,0.6,1.4,1.4c0,0.2,0,0.4-0.1,0.5
		c0.1-0.2,0.1-0.3,0.1-0.5C61.7,36,61.1,35.3,60.3,35.3z"/>
	<polygon class="st0" points="67.7,36.7 63.4,37.1 63.4,37.1 67.7,36.7 71.2,39 71.2,39 	"/>
	<path class="st0" d="M59.8,37.7c0.1,0.1,0.3,0.1,0.4,0.1c0.2,0,0.3,0,0.4-0.1c-0.1,0.1-0.3,0.1-0.4,0.1
		C60.1,37.8,60,37.8,59.8,37.7z"/>
	<polygon class="st0" points="53.1,35.1 49.6,36.4 49.6,36.4 	"/>
	<rect x="50.6" y="1.9" class="st0" width="0.1" height="1.2"/>
	<polygon class="st0" points="53.1,34.7 57.6,36.4 57.6,36.3 	"/>
	<path class="st0" d="M74.1,38.9c-0.6,0-1.1,0.4-1.3,0.9C73,39.3,73.5,39,74.1,38.9c0.8,0,1.4,0.6,1.4,1.4c0,0.1,0,0.2,0,0.3
		c0-0.1,0-0.2,0-0.3C75.5,39.6,74.9,38.9,74.1,38.9z"/>
	<path class="st0" d="M20.1,23.8c0.2-0.3,0.6-0.5,1-0.6C20.7,23.3,20.3,23.5,20.1,23.8z"/>
	<path class="st0" d="M21.1,23.1c0.1,0,0.2-0.1,0.3-0.1C21.3,23.1,21.2,23.1,21.1,23.1z"/>
	<path class="st0" d="M26.7,16.7C26.7,16.7,26.7,16.7,26.7,16.7C26.7,16.7,26.7,16.7,26.7,16.7z"/>
	<path class="st0" d="M20,23.9c0-0.1,0.1-0.1,0.1-0.2C20,23.8,20,23.9,20,23.9z"/>
	<polygon class="st0" points="56.7,36.4 56.7,36.4 53.1,37.6 	"/>
	<path class="st0" d="M54,34.2c8.7,0.1,16.9,2,24.3,5.4c0.2,0.1,0.2,0.6-0.2,0.6c0,0,0,0,0,0c0.4,0,0.4-0.4,0.2-0.6
		C70.7,36.1,62.4,34.3,54,34.2z"/>
	<path class="st0" d="M74.1,41.4c0.2,0,0.4-0.1,0.5-0.2C74.5,41.3,74.3,41.4,74.1,41.4c-0.6,0-1.1-0.5-1.1-1.1c0-0.1,0-0.3,0.1-0.4
		C73,40,73,40.2,73,40.3C73,40.9,73.5,41.4,74.1,41.4z"/>
	<path class="st0" d="M59.3,37.2C59.3,37.2,59.3,37.2,59.3,37.2C59.3,37.2,59.3,37.2,59.3,37.2z"/>
	<path class="st0" d="M29.9,43.8c-0.1,0-0.2,0-0.2,0C29.7,43.9,29.8,43.9,29.9,43.8c7.1-3.2,14.9-5,23.2-5c0,0,0,0,0,0
		C44.8,38.8,36.9,40.6,29.9,43.8z"/>
	<polygon class="st0" points="28.5,40.2 28.5,40.3 30.2,40.8 28.5,40.3 	"/>
	<polygon class="st0" points="77.9,40.5 77.9,40.5 78,40.7 78.3,41.9 77.1,42.5 76.9,42.7 76.9,42.7 77.1,42.5 78.3,41.9 78,40.7 	
		"/>
	<path class="st0" d="M28,40.1C28,40.1,28,40.1,28,40.1c0.1,0,0.2,0,0.3-0.1l0,0C28.2,40.1,28.1,40.1,28,40.1z"/>
	<path class="st0" d="M38.1,32.1c-0.4-0.3-0.7-0.6-1-1c0,0,0,0,0,0C37.3,31.5,37.7,31.8,38.1,32.1z"/>
	<polygon class="st0" points="27.9,41.9 28.2,40.8 28.3,40.5 28.3,40.5 28.2,40.8 27.9,41.9 28.2,42.1 	"/>
	<path class="st0" d="M32.1,41.4c0.3,0,0.6-0.1,0.8-0.3C32.7,41.3,32.4,41.4,32.1,41.4c-0.6,0-1.1-0.5-1.1-1.1c0-0.4,0.3-0.8,0.7-1
		c-0.4,0.2-0.7,0.5-0.7,1C31,40.9,31.5,41.4,32.1,41.4z"/>
	<polygon class="st0" points="38.6,36.7 35,39 35,39 38.6,36.7 42.8,37.1 42.9,37.1 	"/>
	<path class="st0" d="M46,37.8c0.5,0,0.9-0.3,1-0.7C46.8,37.5,46.4,37.8,46,37.8c-0.6,0-1.1-0.5-1.1-1.1c0-0.4,0.3-0.8,0.7-1
		c-0.4,0.2-0.7,0.5-0.7,1C44.8,37.3,45.3,37.8,46,37.8z"/>
	<path class="st0" d="M46,35.3c-0.6,0-1.1,0.4-1.3,0.9C44.8,35.7,45.4,35.4,46,35.3c0.8,0,1.4,0.6,1.4,1.4c0,0.5-0.3,0.9-0.6,1.1
		c0.4-0.3,0.6-0.7,0.6-1.1C47.4,36,46.8,35.3,46,35.3z"/>
	<path class="st0" d="M32.1,38.9c-0.6,0-1.1,0.4-1.3,0.8C31,39.3,31.5,38.9,32.1,38.9c0.8,0,1.4,0.6,1.4,1.4c0,0.5-0.3,0.9-0.7,1.1
		c0.4-0.2,0.7-0.7,0.7-1.1C33.6,39.6,33,38.9,32.1,38.9z"/>
	<polygon class="st0" points="48.6,36.4 48.6,36.4 53.1,34.7 	"/>
	<path class="st0" d="M77.6,40.3L76,40.8l0.5,1.8L76.3,43c0.7,0.3,0.4,0.8,0.1,0.9c0.3,0,0.7-0.5,0-0.9l0.1-0.3L76,40.8L77.6,40.3
		l0.2-0.2c0,0,0,0,0,0L77.6,40.3z"/>
	<polygon class="st0" points="76.5,41.1 76.7,42.3 76.9,42.6 76.8,42.2 	"/>
	<path class="st0" d="M24,18.5c0-0.8,0.5-1.5,1.2-1.8C24.5,17.1,23.9,17.7,24,18.5c0,0.5,0.1,0.8,0.4,1.3c-0.1,0-0.2-0.1-0.3-0.1
		c0.1,0,0.3,0.1,0.4,0.1C24.2,19.4,24,19,24,18.5z"/>
	<path class="st0" d="M27.2,16.3c0-1,0.7-1.8,1.7-1.9C28,14.5,27.2,15.3,27.2,16.3c0,0.2,0,0.5,0.1,0.7c0,0,0,0,0.1,0
		C27.3,16.8,27.2,16.5,27.2,16.3z"/>
	<path class="st0" d="M21.3,21.6c0-0.8,0.5-1.5,1.2-1.8C21.8,20.1,21.3,20.8,21.3,21.6c0,0.6,0.2,0.9,0.5,1.4c0,0,0,0,0,0
		C21.6,22.5,21.3,22.1,21.3,21.6z"/>
	<path class="st0" d="M32.7,13c0.2,0,0.4,0,0.6,0.1C33.1,13,32.9,13,32.7,13c-1.3,0-1.9,0.8-2.1,1.8c0,0,0.1,0,0.1,0.1
		C31,13.8,31.5,13,32.7,13z"/>
	<path class="st0" d="M40.3,10.1c0-1.1,0.9-1.9,2-1.9c0.2,0,0.3,0,0.4,0c-0.2,0-0.3-0.1-0.5-0.1C41.1,8.2,40.2,9,40.3,10.1
		c-0.1,0.2,0,0.5,0,0.8c0,0,0.1,0,0.1,0.1C40.4,10.7,40.3,10.4,40.3,10.1z"/>
	<path class="st0" d="M36.3,13.3c0.3,0,0.6,0.1,0.9,0.1c-0.2-0.3-0.3-0.7-0.3-1.1c0-1.1,0.9-1.9,2-1.9c0.2,0,0.3,0,0.4,0
		c-0.2,0-0.3-0.1-0.5-0.1c-1.1,0-2,0.8-2,1.9c0,0,0,0,0,0c0,0.4,0.1,0.7,0.3,1.1C36.8,13.3,36.5,13.2,36.3,13.3
		c-0.8,0-1.3,0.3-1.7,0.8c0,0,0,0,0.1,0.1C35.1,13.6,35.5,13.3,36.3,13.3z"/>
	<path class="st0" d="M20.3,35.5C20.3,35.5,20.3,35.5,20.3,35.5C20.3,35.5,20.3,35.5,20.3,35.5z"/>
	<path class="st0" d="M19.9,35.3c-0.1-0.1-0.2-0.2-0.3-0.2C19.8,35.2,19.8,35.3,19.9,35.3z"/>
	<path class="st0" d="M30,34c0.4,0.3,0.9,0.5,1.4,0.6l0.1,0C31,34.5,30.5,34.3,30,34c-0.2,0.1-0.4,0.2-0.7,0.3l-0.1,0c0,0,0,0,0,0
		l0.1,0C29.6,34.3,29.8,34.2,30,34z"/>
	<path class="st0" d="M45.9,6.9c0.2,0,0.3,0,0.5,0.1C46.2,6.9,46,6.9,45.9,6.9c-1.3,0-1.9,0.8-2.2,1.8c0,0,0.1,0,0.1,0.1
		C44,7.7,44.6,6.9,45.9,6.9z"/>
	<path class="st0" d="M59,7.3c0.1,0,0.1-0.1,0.2-0.1C59.1,7.2,59.1,7.2,59,7.3z"/>
	<polygon class="st0" points="28.6,35.7 28.6,35.7 28.8,35.7 	"/>
	<path class="st0" d="M19.7,35.1c0,0-0.1-0.1-0.1-0.1C19.6,35,19.6,35.1,19.7,35.1z"/>
	<path class="st0" d="M22.9,32.9c-0.6-0.9-1.8-1.3-2.7-0.8C21.2,31.6,22.4,32,22.9,32.9z"/>
	<path class="st0" d="M23.2,34c0-0.1,0-0.1,0-0.2c0-0.3-0.1-0.6-0.2-0.9C23.1,33.2,23.2,33.6,23.2,34z"/>
	<path class="st0" d="M18.8,29.4c0.1,0.2,0.2,0.4,0.3,0.5c0,0,0,0,0,0C19,29.8,18.9,29.6,18.8,29.4z"/>
	<path class="st0" d="M18.2,32.3c0.1,0.3,0.3,0.6,0.5,0.9c0,0,0,0,0,0C18.5,32.9,18.3,32.6,18.2,32.3z"/>
	<path class="st0" d="M22.3,36.5c-1.8,1.1-3.7-0.1-4.1-1.5C18.6,36.4,20.5,37.7,22.3,36.5c1.4,1,2.6,1,4.1,0.6c0,0,0,0,0,0
		C24.8,37.5,23.6,37.5,22.3,36.5z"/>
	<path class="st0" d="M18.8,29.4c-0.1-0.2-0.1-0.4-0.1-0.6C18.7,29,18.8,29.2,18.8,29.4z"/>
	<path class="st0" d="M87.1,36.3C87.1,36.3,87.1,36.3,87.1,36.3c-0.1,0-0.1,0.1-0.2,0.1C86.9,36.4,87,36.4,87.1,36.3z"/>
	<path class="st0" d="M27.5,38.8c-0.5,0.2-1.1,0-1.3-0.5c0,0,0,0,0,0C26.4,38.9,27,39.1,27.5,38.8C27.5,38.9,27.5,38.8,27.5,38.8
		c7.8-3.5,16.5-5.5,25.6-5.5c9.2,0,17.9,2,25.6,5.5l0,0c-7.8-3.5-16.5-5.5-25.6-5.5S35.3,35.3,27.5,38.8z"/>
	<polygon class="st0" points="78.8,38.9 78.8,38.9 78.7,38.9 	"/>
	<path class="st0" d="M49.5,6.3c0.3,0,0.5,0.1,0.8,0.2c0.5-0.6,1.3-1.1,2.1-1.2V3.2h-0.1v2c-0.9,0.2-1.4,0.5-2.1,1.2
		C50,6.3,49.7,6.3,49.5,6.3c-1.1,0-1.7,0.6-2,1.4c0,0,0,0,0.1,0.1C47.9,6.9,48.5,6.3,49.5,6.3z"/>
	<rect x="53.7" y="1.9" class="st0" width="1.6" height="0"/>
	<rect x="53.7" y="3.1" class="st0" width="1.6" height="0.1"/>
	<path class="st0" d="M84,36.4c-1.4,1-2.6,1-4.1,0.6l0.1,0.1C81.4,37.5,82.6,37.5,84,36.4c0.9,0.7,1.8,0.7,2.8,0.1
		C85.9,37,85,37.1,84,36.4z"/>
	<rect x="52.3" y="0.5" class="st0" width="0.1" height="1.5"/>
	<path class="st0" d="M72.2,13.4c-0.3,0.2-0.5,0.4-0.7,0.7c0,0,0,0,0,0C71.8,13.8,72,13.6,72.2,13.4z"/>
	<path class="st0" d="M58.9,7.4c-0.1,0.1-0.2,0.2-0.4,0.3c0,0,0,0,0,0C58.7,7.6,58.8,7.4,58.9,7.4z"/>
	<path class="st0" d="M55.3,28.4c0.1,0.3,0.4,0.6,0.6,0.8C55.7,29,55.5,28.7,55.3,28.4z"/>
	<path class="st0" d="M57.1,23.3c0.4,0.3,0.6,0.7,0.8,1.2C57.8,24.1,57.5,23.6,57.1,23.3z"/>
	<path class="st0" d="M36.7,23.4c0.7,0.3,1,0.6,1.3,1.3c1.4-0.1,2,0.5,2.4,1.7c0.5,1.8-0.4,2.5-2.2,2.9c0.5,1,1.3,1.7,2.5,1.7
		c-1.1,0-2-0.7-2.4-1.7c1.8-0.4,2.6-1.1,2.2-2.9c-0.3-1.2-1-1.8-2.4-1.7C37.7,24,37.5,23.7,36.7,23.4c0.8-7.1,6-12.2,13.3-12.3
		C42.6,11.2,37.4,16.4,36.7,23.4z"/>
	<path class="st0" d="M55.3,28.2C55.3,28.2,55.3,28.2,55.3,28.2c0.8,0,1.4-0.2,1.8-0.5C56.6,28,56.1,28.2,55.3,28.2z"/>
	<path class="st0" d="M64.1,29.9c-0.2-0.3-0.3-0.6-0.4-0.9C63.8,29.3,63.9,29.6,64.1,29.9z"/>
	<path class="st0" d="M56.5,29.4c-0.1,0-0.2-0.1-0.2-0.1C56.4,29.4,56.4,29.4,56.5,29.4z"/>
	<path class="st0" d="M63.8,26.8C63.8,26.7,63.8,26.7,63.8,26.8C63.8,26.7,63.8,26.7,63.8,26.8z"/>
	<path class="st0" d="M51.2,17.7v-1c-0.2-0.3-0.3-0.7-0.3-1.1s0.1-0.8,0.3-1.1v-1.6c-0.2-0.3-0.3-0.7-0.3-1.1
		c-6.2-0.3-10.8,3.1-12.8,7.9C42,17.6,47,17.1,51.2,17.7z"/>
	<path class="st0" d="M49,29.5c-0.2,0-0.4,0-0.6-0.1C48.6,29.5,48.9,29.6,49,29.5c1,0,1.7-0.5,2-1.3c0,0-0.1,0-0.1,0
		C50.7,29,49.9,29.5,49,29.5z"/>
	<path class="st0" d="M58.9,27.6C58.9,27.6,59,27.6,58.9,27.6C59,27.6,58.9,27.6,58.9,27.6c0-0.7,0.3-1.3,0.7-1.7
		C59.2,26.3,58.9,26.9,58.9,27.6z"/>
	<path class="st0" d="M57.5,29.5c0.7-0.1,1.3-0.6,1.6-1.3c0,0,0,0,0,0c0,0,0,0,0,0C58.8,28.9,58.2,29.4,57.5,29.5z"/>
	<path class="st0" d="M37.9,12.2c0-0.1,0-0.2,0-0.2C37.9,12,37.9,12.1,37.9,12.2z"/>
	<path class="st0" d="M67.9,24.3c0.1-0.1,0.1-0.3,0.2-0.4C68.1,24,68,24.1,67.9,24.3C67.9,24.3,67.9,24.3,67.9,24.3z"/>
	<path class="st0" d="M63.2,28.6c0.2-0.3,0.3-0.7,0.3-1c0-1.1-0.9-2-2-2c0,0,0,0,0,0c1.1,0,2,0.9,2,2C63.5,27.9,63.4,28.3,63.2,28.6
		c0,1.1,0.6,2,1.8,2.3c0.2,0,0.4,0.1,0.6,0.1c-0.2,0-0.3,0-0.5-0.1C64,30.7,63.2,29.7,63.2,28.6z"/>
	<path class="st0" d="M54.7,27.7c1.8,0,2.8-0.4,2.8-2.3c0-1.3-0.5-2-1.9-2.2c-0.3-1.6-1.2-1.7-2.6-1.9c0,0,0,0,0,0
		c1.4,0.2,2.2,0.3,2.5,1.9c1.4,0.3,1.9,0.9,1.9,2.2C57.5,27.3,56.5,27.7,54.7,27.7c0.1,1.2,1,2.2,2.4,2.2c0,0,0,0,0,0
		C55.8,29.9,54.9,28.9,54.7,27.7z"/>
	<path class="st0" d="M54.8,19.4c0-0.3-0.1-0.7-0.3-0.9l0-2c0.2-0.3,0.3-0.6,0.3-1c0-0.4-0.1-0.7-0.3-1v-1.9c0.2-0.3,0.3-0.6,0.3-1
		c0-0.1,0-0.3,0-0.4c0.5,0,1,0,1.4,0c-0.5,0-1,0-1.5,0c0,0.1,0,0.3,0,0.4c0,0.4-0.1,0.7-0.3,1v1.9c0.2,0.3,0.3,0.6,0.3,1
		c0,0.4-0.1,0.7-0.3,1l0,2C54.6,18.7,54.8,19,54.8,19.4c-0.1,1.1-0.9,1.4-1.8,1.8c0,0,0.1,0,0.1,0C54,20.9,54.8,20.5,54.8,19.4z"/>
	<path class="st0" d="M38,11.8c0.1-0.1,0.1-0.2,0.2-0.2C38.1,11.7,38,11.7,38,11.8z"/>
	<path class="st0" d="M62.4,25.4c0.6,0.2,1.1,0.7,1.4,1.3C63.5,26.1,63,25.6,62.4,25.4z"/>
	<path class="st0" d="M55.2,18.8C55.2,18.8,55.2,18.8,55.2,18.8C55.2,18.8,55.2,18.8,55.2,18.8z"/>
	<path class="st0" d="M68.1,19.5L68.1,19.5c-2-4.8-6.6-8.2-12.7-7.9c0,0.4-0.1,0.8-0.3,1.1v1.6c0.2,0.3,0.3,0.7,0.3,1.1
		s-0.1,0.8-0.3,1.1v1C59.2,17.1,64.2,17.5,68.1,19.5z"/>
	<polygon class="st0" points="51.4,11.6 51.4,11.6 51.4,11.6 	"/>
	<path class="st0" d="M37.5,21.5C37.5,21.5,37.5,21.5,37.5,21.5C37.5,21.5,37.5,21.5,37.5,21.5z"/>
	<path class="st0" d="M8.1,91.5c0-0.8,0-1.7,0.1-2.5C8.2,89.8,8.1,90.7,8.1,91.5z"/>
	<path class="st0" d="M53.1,48.1c-23,0-42.1,16.8-44.7,38.5C11,65,30.1,48.1,53.1,48.1z"/>
	<polygon class="st0" points="54.5,21.1 54.5,21.1 54.5,21.1 	"/>
	<path class="st0" d="M65.1,18.6c-3.3-1-7-1.1-10.1-0.6l0,0C58,17.5,61.7,17.6,65.1,18.6z"/>
	<path class="st0" d="M98.1,91.5c0-23.9-20.2-43.4-45-43.4C77.9,48.1,98.1,67.6,98.1,91.5z"/>
	<path class="st0" d="M38.3,24.3c0.6,0,1,0.1,1.3,0.3C39.3,24.4,38.8,24.3,38.3,24.3C38.3,24.3,38.3,24.3,38.3,24.3z"/>
	<path class="st0" d="M37.5,21.5c0.1-0.5,0.3-1,0.5-1.5C37.8,20.4,37.6,21,37.5,21.5z"/>
	<path class="st0" d="M53.1,46.6c-25.6,0-46.5,20.1-46.5,44.9C6.6,66.7,27.5,46.6,53.1,46.6z"/>
	<path class="st0" d="M21.7,23.9c-0.6,0-1.1,0.5-1.1,1.1C20.6,24.4,21.1,23.9,21.7,23.9z"/>
	<path class="st0" d="M69,23.2C69,23.2,69,23.2,69,23.2c-0.1-1.1-0.4-2.2-0.8-3.3c-0.8-0.4-1.6-0.7-2.4-1c0.8,0.3,1.6,0.6,2.4,1
		C68.6,21,68.9,22,69,23.2z"/>
	<path class="st0" d="M85.9,129.9c-1.9,1.5-3.9,2.9-6.1,4.2C82,132.8,84,131.4,85.9,129.9z"/>
	<path class="st0" d="M51.2,18v0.3c-0.6,0.9-0.4,2.1,0.5,2.8c-0.8,0.2-1.3,0.8-1.6,1.8c-1.5,0.3-1.9,1.5-1.9,2.6
		c0,1.1,0.3,2,1.4,2.5c-1-0.5-1.3-1.4-1.3-2.4c0-1.2,0.4-2.3,1.9-2.6c0.2-0.8,0.8-1.5,1.6-1.8c-0.5-0.4-0.8-1-0.8-1.7
		c0-0.4,0.1-0.8,0.3-1.1L51.2,18c-4-0.6-9.3-0.2-13.3,1.9v0C42,17.8,47.2,17.4,51.2,18z"/>
	<path class="st0" d="M50.5,41.7C23.2,43.1,1.5,64.9,1.5,91.5C1.5,64.9,23.2,43.1,50.5,41.7z"/>
	<path class="st0" d="M65.4,26.3c-0.4,1.4-0.1,2.7,1.9,3.3c-0.3,0.5-0.9,0.9-1.5,0.9c0.6,0,1.2-0.4,1.5-0.9
		C65.3,29,65,27.7,65.4,26.3c0.3-1,0.8-1.9,2-2C66.2,24.5,65.7,25.3,65.4,26.3z"/>
	<path class="st0" d="M44.7,25.2c-1.4,0-2.5,1.1-2.5,2.4c0,0.4,0.1,0.8,0.3,1.1c-0.1,0.8-0.7,1.6-1.5,1.8c-0.4,0.1-0.8,0.1-1.2-0.1
		c0.4,0.2,0.8,0.2,1.3,0.1c0.9-0.2,1.5-0.9,1.5-1.8c-0.2-0.3-0.3-0.7-0.3-1.1C42.3,26.3,43.4,25.2,44.7,25.2c0.6,0,1,0.2,1.4,0.4
		C45.7,25.3,45.2,25.2,44.7,25.2z"/>
	<path class="st0" d="M8.1,91.5c0,23.9,20.2,43.4,45,43.4C28.4,134.9,8.1,115.4,8.1,91.5z"/>
	<path class="st0" d="M89.6,126.7c-1.2,1.1-2.4,2.2-3.7,3.2C87.2,128.9,88.4,127.8,89.6,126.7z"/>
	<path class="st0" d="M68.2,23.9c0.1-0.1,0.1-0.2,0.2-0.3C68.3,23.7,68.2,23.8,68.2,23.9z"/>
	<path class="st0" d="M53.1,136.4c-12.8,0-24.4-5.1-32.9-13.2C28.7,131.4,40.3,136.4,53.1,136.4z"/>
	<path class="st0" d="M20.8,26.8C20.8,26.8,20.8,26.8,20.8,26.8c-0.5-0.4-0.9-0.7-1.1-1.2C19.9,26.1,20.3,26.4,20.8,26.8z"/>
	<path class="st0" d="M34.6,19.7c-0.6,0-1.1-0.5-1.1-1.1c0,0,0,0,0,0C33.5,19.2,34,19.7,34.6,19.7z"/>
	<path class="st0" d="M34.6,19.7c0.6,0,1.1-0.5,1.1-1.1l0,0C35.7,19.2,35.2,19.7,34.6,19.7z"/>
	<path class="st0" d="M34.7,30.7C34.7,30.7,34.7,30.7,34.7,30.7c-0.5,0.1-0.9,0.1-1.3,0.1C33.7,30.8,34.2,30.8,34.7,30.7z"/>
	<path class="st0" d="M32.2,26.5c0.2-0.2,0.4-0.3,0.8-0.5c0,0,0,0,0,0C32.7,26.1,32.4,26.3,32.2,26.5z"/>
	<path class="st0" d="M33.7,20.5C33.7,20.5,33.7,20.5,33.7,20.5c-0.6,0.1-1.1,0.3-1.5,0.6C32.6,20.8,33.1,20.6,33.7,20.5z"/>
	<path class="st0" d="M50.2,9.1c-0.1,0-0.1,0.1-0.2,0.1C50.1,9.2,50.1,9.1,50.2,9.1z"/>
	<path class="st0" d="M44.9,8.7c0-0.1,0-0.2,0-0.2C44.9,8.5,44.9,8.6,44.9,8.7z"/>
	<path class="st0" d="M23.9,30.7C23.9,30.7,23.9,30.7,23.9,30.7c0-0.1,0-0.2,0-0.4C24,30.5,24,30.6,23.9,30.7z"/>
	<path class="st0" d="M27.5,24c1.1-0.4,2.5-0.8,3.7-1c0,0,0,0,0,0.1c0,0,0,0,0-0.1C30,23.2,28.6,23.5,27.5,24
		c-0.6,0.2-1.2,0.5-1.6,0.8C26.4,24.5,26.9,24.2,27.5,24L27.5,24z"/>
	<path class="st0" d="M45,8.3c0.1-0.1,0.1-0.2,0.2-0.2C45.1,8.2,45,8.2,45,8.3z"/>
	<path class="st0" d="M26.7,32.4c-0.2-0.8,0.2-1.7,0.9-2.1C26.9,30.8,26.5,31.6,26.7,32.4z"/>
	<path class="st0" d="M24.7,35.6c1.2-0.8,1.2-2,0.8-3.1c-0.3-0.6-0.7-1.2-1.3-1.6c0.6,0.4,1,1,1.3,1.6
		C25.9,33.6,25.9,34.7,24.7,35.6c0.3,0.1,0.7,0,1-0.2c0.2-0.1,0.3-0.2,0.5-0.3c-0.1,0.1-0.3,0.2-0.4,0.3
		C25.4,35.5,25,35.6,24.7,35.6z"/>
	<path class="st0" d="M23.5,31c0.2-2.5,0.6-4.5,1.3-6.1C24,26.6,23.6,28.6,23.5,31c0.6,0.2,1,0.6,1.3,1.1
		C24.5,31.6,24.1,31.2,23.5,31z"/>
	<path class="st0" d="M46.7,28.2c0.1-0.2,0.1-0.4,0.1-0.6c0-1.1-0.9-2-2-2c0,0,0,0,0,0c1.1,0,2,0.9,2,2C46.7,27.8,46.7,28,46.7,28.2
		c0.2,1.1,1.2,1.8,2.3,1.8c0,0,0,0,0,0C48,29.9,47,29.2,46.7,28.2z"/>
	<path class="st0" d="M49.6,9.3c-0.6,0-1.1-0.5-1.1-1.1C48.4,8.8,49,9.3,49.6,9.3z"/>
	<path class="st0" d="M52.5,21C52.5,21,52.5,21,52.5,21C52.5,21,52.5,21,52.5,21z"/>
	<path class="st0" d="M25.9,35.7c-0.9,0.5-1.6,0.3-2.5,0c0,0,0,0,0,0C24.3,36,25,36.2,25.9,35.7c0.9-0.4,1.4-1.4,1.2-2.4
		c0,0,0,0,0,0C27.3,34.3,26.8,35.2,25.9,35.7z"/>
	<path class="st0" d="M30.6,31.4c-0.1-0.4-0.3-0.7-0.6-1C30.3,30.8,30.5,31.1,30.6,31.4c0,0.2,0.1,0.4,0.1,0.5
		c0.1,0.2,0.3,0.3,0.5,0.4c-0.2-0.1-0.3-0.3-0.5-0.5C30.7,31.8,30.7,31.6,30.6,31.4z"/>
	<path class="st0" d="M32.1,18.8c-3.5,1.8-5.5,3.6-6.7,6c0.6-0.5,1.3-0.8,2.1-1.1c1.1-0.4,2.5-0.8,3.7-1v-0.2c0-1,0.7-1.9,1.6-2.2
		C32.3,19.8,32.1,19.3,32.1,18.8L32.1,18.8z"/>
	<path class="st0" d="M53.1,134.9c24.7,0,45-19.5,45-43.4C98.1,115.4,77.9,134.9,53.1,134.9z"/>
	<path class="st0" d="M33.1,32.9c-0.7,0.1-1.4-0.1-1.9-0.5c1.3,1,3.1,0.5,3.7-0.9C34.6,32.3,33.9,32.8,33.1,32.9z"/>
	<path class="st0" d="M31.2,31.8c0-0.1,0-0.3-0.1-0.4c-0.3-1.2-1.4-1.9-2.6-1.8c1.1,0,2.2,0.7,2.5,1.8
		C31.1,31.5,31.2,31.7,31.2,31.8c0.4,0.5,1,0.7,1.6,0.7C32.2,32.5,31.6,32.3,31.2,31.8z"/>
	<path class="st1" d="M20.7,29.9c0.6,0,1.1-0.5,1.1-1.1c0-0.6-0.5-1.1-1.1-1.1c-0.6,0-1.1,0.5-1.1,1.1
		C19.6,29.4,20.1,29.9,20.7,29.9z"/>
	<path class="st1" d="M20.2,32.1c-0.6,0.3-1,0.9-1,1.5c0,0,0,0.1,0,0.1c0,0.1,0,0.1,0,0.2c0,0.2,0.1,0.5,0.2,0.7
		c0,0.1,0.1,0.1,0.2,0.2c0,0,0.1,0.1,0.1,0.1c0,0,0,0,0,0c0.1,0.1,0.2,0.2,0.3,0.2c0.1,0.1,0.2,0.1,0.3,0.2c0,0,0,0,0,0
		c0.6,0.3,1.3,0.3,1.9,0c0.6-0.3,1-0.9,1-1.5c0-0.4,0-0.8-0.2-1.1C22.4,32,21.2,31.6,20.2,32.1z"/>
	<path class="st1" d="M65.1,75l-6.5,6.6l25.2,25.1c2.9-4.6,4.3-9.2,4.3-15.7c0-11.3-6.6-21.5-12.9-26.1l-3.8,3.8
		c2.9,2.2,5.3,4.9,7.2,8l-7,5.8C69.9,79.3,68.1,77.1,65.1,75z"/>
	<path class="st1" d="M98.1,91.5c0-23.9-20.2-43.4-45-43.4C30.1,48.1,11,65,8.4,86.6c-0.1,0.8-0.2,1.6-0.2,2.4
		c0,0.8-0.1,1.7-0.1,2.5c0,23.9,20.3,43.4,45,43.4C77.9,134.9,98.1,115.4,98.1,91.5z M70.8,130.2l-4.1-4l-7.6-7.5
		c-1.8,0.4-3.6,0.6-5.4,0.6v6.3h-8.7v-7.3C32,114.9,23,103.1,23.2,90.3c0-2.1,0.3-4.2,0.9-6.2l-4.3-4.2c-1.3,3.5-2,7.2-2.1,11.2
		c-0.2,7.9,3.4,16.6,9.3,22l-6.3,6.2c-7.4-8-11.4-17-11.4-27.9c0-15.8,9-29.6,23.1-37.3l10.1,10.2c3.4-1.2,7.2-1.8,10.6-1.8
		c3.8,0,7.2,0.7,10.3,1.8L73.6,54c14.2,7.6,23.2,21.5,23.2,37.4c0,8.1-2.2,15.4-6.4,22v0C85.9,120.8,79,126.6,70.8,130.2z"/>
	<path class="st1" d="M49.4,71.2L49.4,71.2l3.6,3.6l3.4-3.5C55.2,71.1,54,71,52.7,71C51.9,70.9,50.7,71,49.4,71.2z"/>
	<path class="st1" d="M81,112.9c5.2-6.1,8.6-12.2,8.6-21.9c0-10.4-5.6-22-14.6-28l0,0c9,6,14.6,17.6,14.6,28
		C89.5,100.7,86.1,106.8,81,112.9l4.6,4.5c0,0,0,0,0,0L81,112.9z"/>
	<path class="st1" d="M31,40.3c0,0.6,0.5,1.1,1.1,1.1c0.3,0,0.6-0.1,0.8-0.3c0.2-0.2,0.3-0.5,0.3-0.8c0-0.6-0.5-1.1-1.1-1.1
		c-0.1,0-0.3,0-0.4,0.1C31.3,39.5,31,39.9,31,40.3z"/>
	<path class="st1" d="M74.1,41.4c0.2,0,0.4-0.1,0.5-0.1c0.3-0.2,0.6-0.5,0.6-0.9c0-0.6-0.5-1.1-1.1-1.1c-0.5,0-0.9,0.3-1,0.7
		C73,40,73,40.2,73,40.3C73,40.9,73.5,41.4,74.1,41.4z"/>
	<path class="st1" d="M44.9,36.7c0,0.6,0.5,1.1,1.1,1.1c0.5,0,0.9-0.3,1-0.7c0.1-0.1,0.1-0.3,0.1-0.4c0-0.6-0.5-1.1-1.1-1.1
		c-0.2,0-0.3,0-0.4,0.1C45.1,35.9,44.9,36.3,44.9,36.7z"/>
	<path class="st1" d="M46.6,117.1c-12.8-3.1-22.1-13.9-21.9-26.9c0.1-8.9,5-16.2,12.1-21.4l-6-6c0,0,0,0,0,0l6,6
		c-7.1,5.2-12,12.5-12.1,21.4C24.5,103.2,33.8,114.1,46.6,117.1l0,6.9h5.6v0h-5.6V117.1z"/>
	<path class="st1" d="M29.2,17.3c0.6,0,1.1-0.5,1.1-1.1c0-0.6-0.5-1.1-1.1-1.1s-1.1,0.5-1.1,1.1C28.1,16.9,28.7,17.3,29.2,17.3z"/>
	<path class="st1" d="M26,19.6c0.6,0,1.1-0.5,1.1-1.1c0-0.6-0.5-1.1-1.1-1.1s-1.1,0.5-1.1,1.1C24.9,19.1,25.4,19.6,26,19.6z"/>
	<path class="st1" d="M69.9,104.1L69.9,104.1c-2.3,2.4-5.3,4.5-8.6,6C64.6,108.7,67.6,106.5,69.9,104.1z"/>
	<rect x="52.2" y="100.3" class="st1" width="8.7" height="0"/>
	<path class="st1" d="M23.3,22.6c0.6,0,1.1-0.5,1.1-1.1c0-0.6-0.5-1.1-1.1-1.1c-0.6,0-1.1,0.5-1.1,1.1
		C22.2,22.2,22.7,22.6,23.3,22.6z"/>
	<path class="st1" d="M52.9,111.9c-0.2,0-0.4,0-0.7,0v0C52.5,111.9,52.7,111.9,52.9,111.9z"/>
	<path class="st1" d="M27.5,58.9c-10.1,7.5-16.7,19.3-16.7,32.5c0,10,3.7,18.6,10,25.7l0,0c-6.2-7-9.9-15.7-9.9-25.7
		C10.8,78.2,17.4,66.4,27.5,58.9z"/>
	<path class="st1" d="M21.7,26c0.6,0,1.1-0.5,1.1-1.1c0-0.6-0.5-1.1-1.1-1.1c-0.6,0-1.1,0.5-1.1,1.1C20.6,25.5,21,26,21.7,26z"/>
	<path class="st1" d="M46.3,70.3L46.3,70.3l6.7,6.6l6.3-6.4c0,0,0,0,0,0l-6.3,6.4L46.3,70.3z"/>
	<path class="st1" d="M46.6,90.7h14.5v0L46.6,90.7l0,20.3c0,0,0,0,0,0V90.7z"/>
	<path class="st1" d="M73.9,55.8l-9.8,9.9L73.9,55.8C73.9,55.8,73.9,55.8,73.9,55.8z"/>
	<path class="st1" d="M40.8,72.8L53,85l0,0L40.8,72.8C40.8,72.8,40.8,72.8,40.8,72.8z"/>
	<path class="st1" d="M64.9,73L64.9,73c3,2,5.3,4.1,7.1,7.2l0,0C70.2,77.1,67.9,74.9,64.9,73z"/>
	<path class="st1" d="M59.2,37.1C59.2,37.1,59.2,37.1,59.2,37.1C59.3,37.2,59.3,37.2,59.2,37.1c0.2,0.3,0.4,0.5,0.6,0.6
		c0.1,0.1,0.3,0.1,0.4,0.1c0.2,0,0.3,0,0.4-0.1c0.4-0.2,0.7-0.5,0.7-1c0-0.6-0.5-1.1-1.1-1.1c-0.3,0-0.6,0.1-0.8,0.3
		c-0.2,0.2-0.3,0.5-0.3,0.8C59.2,36.9,59.2,37,59.2,37.1z"/>
	<path class="st1" d="M32.1,92c0.3,7.2,4.8,13.9,13,16.9l0-4.1L32.1,92z"/>
	<path class="st1" d="M38.9,13.4c0.6,0,1.1-0.5,1.1-1.1c0-0.6-0.5-1.1-1.1-1.1c-0.3,0-0.6,0.1-0.8,0.3c-0.1,0.1-0.1,0.2-0.2,0.2
		c0,0-0.1,0.1-0.1,0.1c0,0.1,0,0.2,0,0.2c0,0.1,0,0.1,0,0.2C37.8,12.9,38.3,13.4,38.9,13.4z"/>
	<path class="st1" d="M42.4,11.2c0.6,0,1.1-0.5,1.1-1.1c0-0.6-0.5-1.1-1.1-1.1c-0.6,0-1.1,0.5-1.1,1.1
		C41.3,10.7,41.8,11.2,42.4,11.2z"/>
	<path class="st1" d="M53.1,26.9c1.1,0,2-0.9,2-1.9c0-0.5-0.2-1-0.6-1.4c-0.4-0.3-0.9-0.6-1.4-0.6c-0.6,0-1,0.2-1.4,0.6
		c-0.4,0.3-0.6,0.8-0.6,1.3c0,0,0,0,0,0s0,0,0,0c0,0.5,0.2,1,0.6,1.3C52.1,26.7,52.6,26.9,53.1,26.9z"/>
	<path class="st1" d="M69.9,14.2c-0.6,0-1.1,0.5-1.1,1.1c0,0.6,0.5,1.1,1.1,1.1c0.5,0,0.9-0.3,1-0.7c0.1-0.1,0.1-0.3,0.1-0.4
		C71,14.7,70.5,14.2,69.9,14.2z"/>
	<path class="st1" d="M68.4,12.3c0-0.6-0.5-1.1-1.1-1.1c-0.6,0-1.1,0.5-1.1,1.1c0,0.6,0.5,1.1,1.1,1.1c0.2,0,0.3,0,0.4-0.1
		C68.1,13.1,68.4,12.7,68.4,12.3z"/>
	<path class="st1" d="M63.9,9.1c-0.6,0-1.1,0.5-1.1,1.1c0,0.6,0.5,1.1,1.1,1.1c0.5,0,0.9-0.3,1-0.7c0.1-0.1,0.1-0.3,0.1-0.4
		C65,9.5,64.5,9.1,63.9,9.1z"/>
	<path class="st1" d="M71.7,19.7c0.6,0,1.1-0.5,1.1-1.1c0-0.3-0.1-0.6-0.3-0.8c-0.2-0.2-0.5-0.3-0.8-0.3c-0.6,0-1.1,0.5-1.1,1.1
		C70.6,19.2,71.1,19.7,71.7,19.7z"/>
	<path class="st1" d="M36.3,16.3c0.6,0,1.1-0.5,1.1-1.1c0-0.6-0.5-1.1-1.1-1.1s-1.1,0.5-1.1,1.1C35.2,15.8,35.7,16.3,36.3,16.3z"/>
	<path class="st1" d="M84.6,23.9c-0.6,0-1.1,0.5-1.1,1.1c0,0.6,0.5,1.1,1.1,1.1c0.3,0,0.6-0.1,0.8-0.3c0.2-0.2,0.3-0.5,0.3-0.8
		C85.7,24.4,85.2,23.9,84.6,23.9z"/>
	<path class="st1" d="M86.6,28.8c0-0.6-0.5-1.1-1.1-1.1c-0.6,0-1.1,0.5-1.1,1.1c0,0.6,0.5,1.1,1.1,1.1
		C86.1,29.9,86.6,29.4,86.6,28.8z"/>
	<path class="st1" d="M84,21.6c0-0.6-0.5-1.1-1.1-1.1c-0.6,0-1.1,0.5-1.1,1.1c0,0.6,0.5,1.1,1.1,1.1c0.1,0,0.3,0,0.4-0.1
		C83.7,22.4,84,22,84,21.6z"/>
	<path class="st1" d="M60.3,7.8c-0.6,0-1.1,0.5-1.1,1.1c0,0.6,0.5,1.1,1.1,1.1c0.5,0,0.9-0.3,1-0.7c0.1-0.1,0.1-0.3,0.1-0.4
		C61.4,8.3,60.9,7.8,60.3,7.8z"/>
	<path class="st1" d="M80.2,17.5c-0.6,0-1.1,0.5-1.1,1.1c0,0.6,0.5,1.1,1.1,1.1c0.3,0,0.6-0.1,0.8-0.3c0.2-0.2,0.3-0.5,0.3-0.8
		C81.3,18,80.9,17.5,80.2,17.5z"/>
	<path class="st1" d="M84.2,32.1c-0.4,0.2-0.7,0.4-0.9,0.8c-0.1,0.1-0.1,0.2-0.1,0.3c0,0,0,0.1,0,0.1c0,0.1,0,0.2-0.1,0.3
		c0,0,0,0.1,0,0.1c0,0.1,0,0.2,0,0.3c0,0,0,0.1,0,0.1c0,0.1,0,0.2,0.1,0.3c0,0,0,0,0,0c0.1,0.5,0.5,0.9,1,1.2
		c0.4,0.2,0.8,0.3,1.1,0.2c0.6-0.1,1.2-0.4,1.6-1c0.5-0.9,0.2-2.1-0.8-2.6C85.4,31.8,84.8,31.8,84.2,32.1z"/>
	<path class="st1" d="M69.7,28.9C69.7,28.9,69.8,29,69.7,28.9c0.4,0.1,0.9,0.1,1.2,0c0.6-0.2,1.1-0.7,1.3-1.3c0.3-1-0.3-2-1.4-2.3
		c0,0-0.1,0-0.1,0c-1.1-0.3-2.2,0.3-2.5,1.4c0,0.1-0.1,0.3-0.1,0.4c0,0.3,0,0.5,0.1,0.7C68.6,28.3,69.1,28.8,69.7,28.9z"/>
	<path class="st1" d="M77,15.2c-0.6,0-1.1,0.5-1.1,1.1c0,0.6,0.5,1.1,1.1,1.1c0.3,0,0.6-0.1,0.8-0.3c0.2-0.2,0.3-0.5,0.3-0.8
		C78.1,15.7,77.6,15.2,77,15.2z"/>
	<path class="st1" d="M72.6,23.6c0.6,0,1.1-0.5,1.1-1.1c0-0.6-0.5-1.1-1.1-1.1c0,0,0,0,0,0c-0.6,0-1.1,0.5-1.1,1.1
		C71.5,23.1,72,23.6,72.6,23.6z"/>
	<path class="st1" d="M73.5,13.9c0,0-0.1,0-0.1,0c-0.4,0-0.8,0.3-0.9,0.8c0,0.1-0.1,0.2-0.1,0.3c0,0.6,0.5,1.1,1.1,1.1
		c0.3,0,0.6-0.1,0.8-0.3c0.2-0.2,0.3-0.5,0.3-0.8C74.6,14.3,74.1,13.9,73.5,13.9z"/>
	<ellipse class="st1" cx="53.1" cy="11.6" rx="1.1" ry="1.1"/>
	<path class="st1" d="M32.8,16c0.6,0,1.1-0.5,1.1-1.1c0-0.6-0.5-1.1-1.1-1.1c-0.6,0-1.1,0.5-1.1,1.1C31.7,15.5,32.1,16,32.8,16z"/>
	<path class="st1" d="M35.5,25.2c-0.8,0.2-1.4,0.8-1.5,1.6c0,0.1,0,0.2,0,0.4c0,0.1,0,0.3,0.1,0.4c0.3,1,1.4,1.7,2.5,1.4
		c0.9-0.2,1.6-1.1,1.5-2c0-0.1,0-0.3-0.1-0.4C37.6,25.6,36.5,25,35.5,25.2z"/>
	<path class="st1" d="M49.6,9.3c0.2,0,0.3,0,0.4-0.1c0.1,0,0.1-0.1,0.2-0.1c0.1,0,0.1-0.1,0.2-0.1c0,0,0.1-0.1,0.1-0.1
		c0-0.1,0.1-0.1,0.1-0.2c0.1-0.1,0.1-0.3,0.1-0.4c0-0.6-0.5-1.1-1.1-1.1c-0.6,0-1.1,0.5-1.1,1.1C48.4,8.8,49,9.3,49.6,9.3z"/>
	<path class="st1" d="M45.9,9.9c0.6,0,1.1-0.5,1.1-1.1c0-0.6-0.5-1.1-1.1-1.1c-0.3,0-0.6,0.1-0.8,0.3C45.1,8.2,45,8.3,45,8.3
		c0,0-0.1,0.1-0.1,0.1c0,0.1,0,0.2,0,0.2c0,0.1,0,0.1,0,0.2C44.8,9.4,45.3,9.9,45.9,9.9z"/>
	<ellipse class="st1" cx="53.1" cy="19.4" rx="1.1" ry="1.1"/>
	<ellipse class="st1" cx="53.1" cy="15.5" rx="1.1" ry="1.1"/>
	<path class="st1" d="M56.7,7.2c-0.6,0-1.1,0.5-1.1,1.1c0,0.6,0.5,1.1,1.1,1.1c0.5,0,0.9-0.3,1-0.7c0.1-0.1,0.1-0.3,0.1-0.4
		C57.8,7.6,57.3,7.2,56.7,7.2z"/>
	<path class="st1" d="M34.6,19.7c0.6,0,1.1-0.5,1.1-1.1c0-0.6-0.5-1.1-1.1-1.1c-0.6,0-1.1,0.5-1.1,1.1C33.5,19.2,34,19.7,34.6,19.7z
		"/>
	<path class="st1" d="M33.7,23.6c0.6,0,1.1-0.5,1.1-1.1c0-0.6-0.5-1.1-1.1-1.1s-1.1,0.5-1.1,1.1C32.6,23.1,33,23.6,33.7,23.6z"/>
	<path class="st2" d="M38.1,32.1c-0.4-0.3-0.7-0.6-1-1c-0.1,0.7-0.4,1.4-0.8,2l2.6-0.6C38.6,32.4,38.3,32.2,38.1,32.1z"/>
	<path class="st2" d="M69.7,32.7c-0.3-0.5-0.5-1-0.6-1.6c-0.4,0.6-1.1,1.1-1.8,1.4l2.7,0.7C70,33,69.8,32.8,69.7,32.7z"/>
	<polygon class="st2" points="53.1,37.6 56.7,36.4 53.1,35.1 49.6,36.4 	"/>
	<path class="st2" d="M62.4,31.5c-0.2-0.2-0.3-0.3-0.4-0.5c-0.1-0.1-0.2-0.2-0.3-0.4c0-0.1-0.1-0.1-0.1-0.2
		c-0.1-0.1-0.1-0.2-0.2-0.3l0-0.1c0,0,0,0,0,0c-0.2,0-0.3,0-0.5-0.1c-0.4,0.5-0.9,0.9-1.5,1.2l0.3,0c0.8,0.1,1.6,0.2,2.4,0.3
		L62.4,31.5C62.5,31.6,62.5,31.5,62.4,31.5z"/>
	<path class="st2" d="M41,30.5c0.8-0.2,1.4-0.9,1.5-1.8c-0.2-0.3-0.3-0.7-0.3-1.1c0-1.3,1.1-2.4,2.5-2.4c0.5,0,1,0.2,1.4,0.4
		c0.7,0.4,1.2,1.2,1.2,2c0,0.2,0,0.4-0.1,0.6c0.2,0.6,0.7,1,1.2,1.2c0.2,0.1,0.4,0.1,0.6,0.1c0.9,0,1.6-0.5,1.9-1.3
		c-0.5,0-1-0.1-1.3-0.3c-1.1-0.4-1.4-1.4-1.4-2.5c0-1.2,0.4-2.3,1.9-2.6c0.2-1,0.8-1.5,1.6-1.8c-0.9-0.7-1.1-1.9-0.5-2.8V18
		c-4-0.6-9.3-0.2-13.3,1.9c-0.2,0.5-0.3,1-0.5,1.5c0,0,0,0,0,0c0,0,0,0,0,0c-0.1,0.5-0.2,1.1-0.3,1.6c0.4,0.2,0.8,0.5,1.1,1.1
		c0.6,0,1,0.1,1.4,0.3c0.6,0.4,1,1,1.2,1.8c0.4,1.4,0.1,2.7-1.9,3.3c0.2,0.3,0.5,0.6,0.9,0.8C40.2,30.6,40.6,30.6,41,30.5z"/>
	<path class="st2" d="M77.1,34.4l-0.1,0c-0.3-0.1-0.5-0.2-0.8-0.3c-0.4,0.3-0.9,0.5-1.3,0.6l2.8,1.1C77.4,35.3,77.2,34.8,77.1,34.4z
		"/>
	<path class="st2" d="M80,32.6c-0.1,0.3-0.3,0.7-0.5,0.9c0,0.1,0,0.2,0,0.2c0.1,0.7,0.4,1.2,1,1.5c0,0,0,0,0,0c0,0,0.1,0,0.1,0
		c0.2,0.1,0.4,0.2,0.7,0.2c0.1,0,0.2,0,0.2,0c-1.2-0.8-1.2-2-0.8-3.1c0.3-0.7,0.7-1.5,1.5-1.8c-0.2-2.1-0.5-3.8-1.1-5.3
		c-0.4-0.3-0.8-0.6-1.2-0.8c-0.4-0.2-0.8-0.4-1.2-0.6c-0.1-0.1-0.3-0.1-0.4-0.2c-1-0.3-2.2-0.6-3.2-0.9c-0.2,0.8-0.7,1.5-1.5,1.8
		c0,0,0,0.1,0,0.1c0.1,0.1,0.1,0.3,0.1,0.4c0,0.2,0,0.3,0.1,0.5c1.3,0.7,1.5,1.9,1.2,3c-0.3,1.4-1.2,2.4-3.4,2
		c0,0.7,0.4,1.2,0.9,1.5c0.8,0.5,1.9,0.4,2.6-0.4c0-0.1,0-0.3,0.1-0.4c0.3-1.3,1.7-2.1,3-1.7c0.2,0,0.3,0.1,0.5,0.2
		C79.7,30.3,80.3,31.4,80,32.6z"/>
	<path class="st2" d="M31.1,31.4c0,0.1,0.1,0.3,0.1,0.4c0.4,0.5,1,0.7,1.6,0.7c1,0,1.9-0.7,1.9-1.8c-0.5,0.1-1,0.1-1.3,0.1
		c-1.2-0.2-1.8-1-2-2.1c-0.3-1.1-0.2-2.3,1.2-3c0-0.3,0-0.7,0.1-1c-0.7-0.3-1.2-0.9-1.4-1.7c0,0,0,0,0-0.1c-1.2,0.3-2.6,0.6-3.7,1v0
		c-0.6,0.2-1.2,0.5-1.6,0.8c-0.3,0.2-0.6,0.4-0.8,0.6h0c-0.6,1.4-0.9,3-1.1,4.9c0,0.1,0,0.2,0,0.4c0.1,0,0.1,0.1,0.2,0.1
		c0.6,0.4,1,1,1.3,1.6c0.5,1.1,0.5,2.3-0.8,3.1c0.4,0,0.7-0.1,1.1-0.2c0.2-0.1,0.3-0.2,0.4-0.3c0.4-0.4,0.6-0.9,0.6-1.5
		c-0.2-0.3-0.4-0.6-0.5-1c-0.3-1.3,0.5-2.6,1.8-2.9c0.2,0,0.4-0.1,0.5-0.1C29.7,29.5,30.8,30.2,31.1,31.4z"/>
	<path class="st2" d="M31.4,34.6c-0.5-0.1-0.9-0.3-1.4-0.6c-0.2,0.1-0.5,0.3-0.7,0.3l-0.1,0c-0.2,0.5-0.3,0.9-0.6,1.4l0.2-0.1
		L31.4,34.6z"/>
	<polygon class="st2" points="73.6,24.7 73.6,24.7 73.6,24.7 	"/>
	<path class="st2" d="M56,22.8c0.4,0.1,0.8,0.3,1.1,0.5c0.4,0.3,0.6,0.7,0.8,1.2c0.1,0.3,0.1,0.6,0.1,0.9c0,0.9-0.2,1.7-0.9,2.2
		c-0.4,0.3-1,0.5-1.8,0.5c0,0.1,0.1,0.1,0.1,0.2c0.1,0.3,0.4,0.6,0.6,0.8c0.1,0.1,0.2,0.1,0.3,0.1c0.1,0,0.2,0.1,0.2,0.1
		c0.2,0.1,0.4,0.1,0.6,0.1c0.1,0,0.2,0,0.3,0c0.7-0.1,1.3-0.6,1.6-1.3c0,0,0,0,0,0C59,28,59,27.8,59,27.7c0,0,0,0,0,0
		c0-0.7,0.3-1.3,0.7-1.7c0.5-0.4,1.1-0.7,1.8-0.7c0.3,0,0.6,0.1,0.9,0.2c0.6,0.2,1.1,0.7,1.4,1.3c0,0,0,0,0,0c0,0,0,0.1,0,0.1
		c0.1,0.3,0.2,0.5,0.2,0.9c0,0.4-0.1,0.8-0.3,1.1c0,0.1,0,0.1,0,0.2c0.1,0.3,0.2,0.6,0.4,0.9c0.3,0.3,0.6,0.5,1,0.7
		c0.2,0.1,0.4,0.1,0.6,0.1c0.6-0.1,1.2-0.4,1.5-0.9c-2-0.6-2.3-1.9-1.9-3.3c0.2-1,0.8-1.9,2-2c0.2,0,0.3,0,0.5,0
		c0.1-0.1,0.1-0.3,0.2-0.4c0,0,0,0,0,0c0.1-0.1,0.1-0.2,0.2-0.3c0.2-0.2,0.4-0.3,0.6-0.4c-0.1-1.1-0.4-2.2-0.8-3.2
		c-0.7-0.4-1.5-0.7-2.4-1c-0.3-0.1-0.5-0.2-0.8-0.3c-3.3-1-7-1.1-10.1-0.6l0,0.3c0.1,0.2,0.2,0.3,0.2,0.5c0,0,0,0,0,0
		c0.2,0.8,0,1.7-0.7,2.3c0,0,0,0,0,0C55.3,21.3,55.8,21.9,56,22.8z"/>
	<polygon class="st2" points="78.3,41.9 78,40.7 77.9,40.5 76.4,41.1 76.5,41.1 76.8,42.2 76.9,42.6 76.9,42.7 77.1,42.5 	"/>
	<polygon class="st2" points="27.9,41.9 28.2,42.1 29.1,42.5 29.3,42.7 29.4,42.2 29.8,41.1 28.7,40.7 28.3,40.5 28.2,40.8 	"/>
	<path class="st2" d="M54.5,30.9c-0.3-0.2-0.6-0.5-0.8-0.8c-0.2-0.3-0.4-0.6-0.6-1v0c-0.3,0.7-0.8,1.3-1.4,1.8l1.4,0
		C53.6,30.9,54,30.9,54.5,30.9z"/>
	<path class="st2" d="M46.6,31.1c-0.4-0.3-0.8-0.6-1.1-1c-0.1-0.1-0.1-0.1-0.2-0.2C45.2,30,45,30,44.8,30v0
		c-0.2,0.6-0.6,1.1-1.1,1.5l3.1-0.4C46.7,31.2,46.7,31.1,46.6,31.1z"/>
	<path class="st3" d="M26,19.6c0.6,0,1.1-0.5,1.1-1.1c0,0,0,0,0,0C27.1,19.1,26.6,19.6,26,19.6c-0.6,0-1.1-0.5-1.1-1.1c0,0,0,0,0,0
		C24.9,19.1,25.4,19.6,26,19.6z"/>
	<path class="st3" d="M78.3,39.6c-7.4-3.4-15.6-5.3-24.3-5.4c-0.3,0-0.6,0-0.9,0c-9.1,0-17.6,1.9-25.3,5.4c-0.2,0.1-0.2,0.6,0.2,0.5
		c0.1,0,0.2,0,0.3-0.1l0,0c0,0,0,0,0,0l0.1,0.2l0,0l1.7,0.6l-0.5,1.8l0.1,0.3c-0.1,0-0.2,0.1-0.3,0.1c-0.1,0.1-0.2,0.2-0.1,0.5
		c0.1,0.1,0.1,0.2,0.2,0.2c0.1,0,0.2,0,0.2,0c7.1-3.2,14.9-5,23.2-5c0,0,0,0,0,0c0,0,0,0,0,0c8.3,0,16.1,1.8,23.2,5c0,0,0.1,0,0.1,0
		c0.4,0,0.7-0.5-0.1-0.9l0.1-0.3L76,40.8l1.7-0.6l0.1-0.2c0,0,0,0,0,0l0,0c0.1,0.1,0.2,0.1,0.3,0.1C78.6,40.1,78.5,39.7,78.3,39.6z
		 M32.9,41.5c-0.2,0.1-0.5,0.2-0.8,0.2c-0.8,0-1.5-0.6-1.5-1.4c0-0.2,0-0.4,0.1-0.5c0.2-0.5,0.7-0.8,1.3-0.8c0.8,0,1.5,0.6,1.5,1.4
		C33.6,40.8,33.3,41.2,32.9,41.5z M42.8,37.1l-3.5,2.4L35,39.1l0,0l0,0l3.5-2.4L42.8,37.1L42.8,37.1L42.8,37.1z M46.8,37.9
		c-0.2,0.2-0.5,0.3-0.8,0.3c-0.8,0-1.5-0.6-1.5-1.4c0-0.2,0-0.4,0.1-0.5c0.2-0.5,0.7-0.9,1.3-0.9c0.8,0,1.5,0.6,1.5,1.4
		C47.4,37.2,47.2,37.6,46.8,37.9z M57.6,36.4L53.1,38l-4.5-1.6l0,0l0,0l4.5-1.6L57.6,36.4L57.6,36.4L57.6,36.4z M60.3,38.1
		c-0.8,0-1.4-0.6-1.4-1.4c0,0,0,0,0,0c0-0.2,0-0.4,0.1-0.5c0.2-0.5,0.7-0.9,1.3-0.8c0.8,0,1.5,0.6,1.5,1.4c0,0.2,0,0.4-0.1,0.5
		C61.4,37.8,60.9,38.1,60.3,38.1z M71.2,39l-4.3,0.4l-3.5-2.4l0,0l0,0l4.3-0.4L71.2,39L71.2,39L71.2,39z M74.1,41.7
		c-0.8,0-1.5-0.6-1.5-1.4c0-0.2,0-0.4,0.1-0.5c0.2-0.5,0.7-0.9,1.3-0.9c0.8,0,1.5,0.6,1.5,1.4c0,0.1,0,0.2,0,0.3
		C75.4,41.2,74.8,41.7,74.1,41.7z"/>
	<polygon class="st3" points="78.7,38.9 78.8,38.9 78.7,38.9 78.7,38.9 	"/>
	<path class="st3" d="M20.8,26.8C20.8,26.8,20.8,26.8,20.8,26.8C20.8,26.8,20.8,26.8,20.8,26.8c-1.1,0.2-2.1,0.7-2.1,2c0,0,0,0,0,0
		c0,0.2,0,0.4,0.1,0.6c0,0,0,0,0,0c0.1,0.2,0.2,0.4,0.3,0.5c0,0,0,0,0,0c0,0,0,0,0,0c-1,0.6-1.2,1.5-0.9,2.3
		c0.1,0.3,0.3,0.6,0.5,0.9c0,0,0,0,0,0c0,0,0,0,0,0c-0.6,0.5-0.7,1.2-0.5,1.8c0.4,1.4,2.3,2.7,4.1,1.5c1.4,1,2.6,1,4.1,0.6
		c0,0,0,0,0,0c0,0,0,0,0,0c-0.2,0.4-0.5,0.8-0.2,1.3c0.2,0.5,0.8,0.7,1.3,0.5c7.8-3.5,16.5-5.5,25.6-5.5s17.9,2,25.6,5.5
		c0.9,0.3,1.7-0.6,1.3-1.3L79.8,37c0.1,0,0.1,0,0.1,0L79.9,37c1.6,0.5,2.8,0.5,4.1-0.6c1,0.6,1.9,0.6,2.8,0.1c0,0,0.1,0,0.1-0.1
		c0.1,0,0.1-0.1,0.2-0.2c1-0.8,1.6-2.2,0.4-3.1c0.9-1.1,0.9-2.4-0.4-3.2c0.2-0.4,0.4-0.7,0.4-1.2c0-1.3-1-1.8-2.1-2
		c0.7-0.5,1.2-0.9,1.2-1.8c0-1.3-1.1-1.9-2.2-2c0.3-0.5,0.6-0.8,0.6-1.4c0-1.1-0.9-1.9-2-1.9c-0.3,0-0.7,0.1-1,0.2
		c0.2-0.4,0.4-0.8,0.4-1.2c0-1.1-0.9-1.9-2-1.9c-0.6,0-0.9,0.2-1.3,0.4c0-0.2,0.1-0.5,0.1-0.8c0-1.1-0.9-2-2-2c-0.6,0-1,0.2-1.5,0.6
		c-0.2-1-0.8-1.9-2.1-1.9c-0.4,0-0.8,0.1-1.1,0.3c-0.3,0.2-0.5,0.4-0.7,0.8c0,0,0,0,0,0c0,0,0,0.1-0.1,0.1c-0.5-0.5-0.9-0.9-1.7-0.9
		c-0.3,0-0.6,0.1-0.9,0.1c0.2-0.4,0.3-0.7,0.3-1.1c0-1.1-0.9-1.9-2-1.9c-0.7,0-1,0.2-1.5,0.6c0-0.2,0.1-0.6,0.1-0.8
		c0-1.1-0.9-1.9-2-1.9c-0.7,0-1,0.2-1.5,0.6c-0.2-1-0.8-1.9-2-1.9c-0.4,0-0.7,0.1-0.9,0.2c-0.1,0-0.1,0.1-0.2,0.1
		c0,0-0.1,0.1-0.1,0.1c-0.1,0.1-0.2,0.2-0.4,0.3c0,0,0,0,0,0c0,0-0.1,0.1-0.1,0.1c-0.4-0.8-0.9-1.4-2-1.4c-0.3,0-0.5,0.1-0.8,0.2
		c-0.5-0.6-1.3-1.1-2.1-1.2V3.2h0.1V3.1h1.6V1.9h-1.6v0h-0.1V0.5h-1.3v1.5h-0.1v0h-1.6v1.2h1.6v0h0.1v2.1c-0.8,0.1-1.5,0.6-2.1,1.2
		c-0.3-0.1-0.5-0.2-0.8-0.2c-1,0-1.6,0.6-2,1.4c0,0,0,0-0.1-0.1c0,0,0,0,0,0c-0.3-0.3-0.7-0.6-1.1-0.7c-0.1,0-0.3-0.1-0.5-0.1
		c-1.2,0-1.8,0.8-2.1,1.9c0,0-0.1,0-0.1-0.1c0,0,0,0,0,0c-0.3-0.2-0.6-0.4-1-0.5c-0.1,0-0.3,0-0.4,0c-1.1,0-2,0.9-2,1.9
		c0,0.3,0.1,0.6,0.1,0.8c0,0-0.1,0-0.1-0.1c0,0,0,0,0,0c-0.4-0.2-0.7-0.4-1-0.5c-0.1,0-0.3,0-0.4,0c-1.1,0-2,0.9-2,1.9
		c0,0.4,0.1,0.8,0.3,1.1c-0.3-0.1-0.6-0.1-0.9-0.1c-0.8,0-1.2,0.3-1.7,0.9c0,0,0,0-0.1-0.1c0,0,0,0,0,0c-0.3-0.5-0.7-0.9-1.2-1
		C33.2,13,33,13,32.7,13c-1.2,0-1.8,0.8-2,1.9c0,0-0.1,0-0.1-0.1c0,0,0,0,0,0c-0.4-0.3-0.8-0.5-1.4-0.5c-0.1,0-0.2,0-0.3,0
		c-1,0.2-1.7,1-1.7,1.9c0,0.3,0.1,0.5,0.1,0.8c0,0,0,0-0.1,0c0,0,0,0,0,0c-0.2-0.1-0.4-0.2-0.6-0.3c0,0,0,0,0,0
		c-0.2-0.1-0.4-0.1-0.7-0.1c-0.3,0-0.5,0.1-0.8,0.1c-0.7,0.3-1.2,1-1.2,1.8c0,0.5,0.2,0.8,0.4,1.3c-0.1,0-0.2-0.1-0.4-0.1
		c-0.2,0-0.4-0.1-0.7-0.1c-0.3,0-0.5,0.1-0.8,0.1c-0.7,0.3-1.2,1-1.2,1.8c0,0.6,0.2,0.9,0.6,1.4c0,0,0,0,0,0c0,0,0,0,0,0
		c-0.1,0-0.3,0-0.4,0.1c-0.1,0-0.2,0-0.3,0.1c0,0-0.1,0-0.1,0c-0.4,0.1-0.7,0.3-1,0.6c0,0,0,0,0,0c0,0.1-0.1,0.1-0.1,0.2
		c-0.2,0.3-0.3,0.6-0.3,1c0,0.2,0,0.4,0.1,0.6C19.9,26.1,20.3,26.4,20.8,26.8z M20.7,27.4c0.8,0,1.4,0.6,1.4,1.4c0,0,0,0,0,0
		c0,0.8-0.6,1.4-1.4,1.4c-0.8,0-1.5-0.6-1.5-1.4C19.3,28.1,19.9,27.4,20.7,27.4z M22.4,35.7c0,0-0.1,0-0.1,0.1
		c-1.1,0.6-2.5,0.2-3.1-0.9c-0.6-1.1-0.2-2.4,0.8-3c0,0,0.1,0,0.1-0.1c1.1-0.6,2.6-0.2,3.1,0.9C23.8,33.8,23.4,35.1,22.4,35.7z
		 M27.9,36.5L27.9,36.5l-0.3-0.4c0.6-0.7,0.9-1.3,1.1-2.2c0.5,0,0.9-0.2,1.3-0.5c0.7,0.5,1.5,0.8,2.4,0.9l0.1,0.4
		C30.9,35.3,29.4,35.9,27.9,36.5z M39.8,32.8c-1.5,0.3-2.9,0.7-4.4,1.1l-0.2-0.4c0.9-0.8,1.5-2,1.3-3.2l0.4-0.1
		c0.5,1.2,1.6,2,2.8,2.2V32.8z M35.3,24.9C35.4,24.9,35.4,24.9,35.3,24.9c1.3-0.3,2.6,0.4,2.9,1.6c0.3,1.2-0.4,2.4-1.7,2.7
		c-1.2,0.3-2.5-0.4-2.8-1.6C33.4,26.4,34.1,25.2,35.3,24.9z M33.7,23.9c-0.8,0-1.4-0.6-1.4-1.4c0,0,0,0,0,0c0-0.8,0.7-1.4,1.4-1.4
		c0.8,0,1.5,0.6,1.5,1.4C35.1,23.3,34.4,23.9,33.7,23.9z M47.8,31.5c-1.6,0.2-3.3,0.4-4.9,0.6v0l-0.2-0.4c0.9-0.6,1.4-1.3,1.8-2.2
		h0.3c0.3,0,0.5-0.1,0.8-0.1c0.6,0.8,1.3,1.4,2.3,1.7L47.8,31.5z M55.4,31.4c-0.8,0-1.5,0-2.3,0s-1.5,0-2.3,0L50.7,31
		c1.1-0.6,2-1.6,2.1-2.8h0.5c0.2,1.2,1,2.3,2.1,2.8L55.4,31.4z M50.8,25C50.8,25,50.8,25,50.8,25c0-1.2,1-2.2,2.3-2.2
		c1.3,0,2.3,1,2.3,2.2c0,1.2-1,2.2-2.3,2.2C51.9,27.3,50.8,26.2,50.8,25z M63.3,32.2c-1.6-0.3-3.2-0.5-4.9-0.6v0l0-0.4
		c0.9-0.3,1.7-0.9,2.3-1.7c0.3,0.1,0.5,0.1,0.8,0.1h0.3c0.3,0.9,0.9,1.7,1.8,2.2L63.3,32.2z M70.8,33.8c-1.4-0.4-2.9-0.8-4.4-1.1
		v-0.4c1.2-0.2,2.3-1.1,2.8-2.2l0.4,0.1c-0.1,1.2,0.4,2.4,1.3,3.2L70.8,33.8z M72.5,27.6c-0.3,1.2-1.6,1.9-2.8,1.6
		c-1.2-0.3-2-1.5-1.7-2.7c0,0,0,0,0,0c0.3-1.2,1.6-1.9,2.8-1.6C72.1,25.2,72.8,26.4,72.5,27.6z M71.2,22.5c0-0.8,0.7-1.4,1.5-1.4
		c0.8,0,1.5,0.6,1.5,1.4c0,0.8-0.7,1.4-1.5,1.4C71.8,23.9,71.2,23.3,71.2,22.5z M78.3,36.5c-1.5-0.6-3-1.2-4.5-1.7l0.1-0.4
		c0.8-0.1,1.6-0.3,2.2-0.8v0l0.1-0.1c0.3,0.2,0.5,0.3,0.9,0.4c0.1,0,0.3,0,0.4,0.1c0.2,0.9,0.5,1.6,1.1,2.2L78.3,36.5z M87.1,34.9
		c-0.6,1.1-2.1,1.5-3.2,0.9c-1.1-0.5-1.5-1.9-1-2.9c0,0,0-0.1,0.1-0.1c0.6-1.1,2.1-1.5,3.2-0.9C87.3,32.4,87.7,33.8,87.1,34.9z
		 M85.5,27.4c0.8,0,1.5,0.6,1.5,1.4c0,0.8-0.7,1.4-1.5,1.4c-0.8,0-1.5-0.6-1.5-1.4C84,28,84.7,27.4,85.5,27.4z M84.6,23.6
		c0.8,0,1.5,0.6,1.5,1.4c0,0.8-0.7,1.4-1.5,1.4s-1.5-0.6-1.5-1.4C83.1,24.2,83.8,23.6,84.6,23.6z M82.9,20.2c0.8,0,1.5,0.6,1.5,1.4
		c0,0.8-0.7,1.4-1.5,1.4c-0.8,0-1.5-0.6-1.5-1.4C81.4,20.8,82.1,20.2,82.9,20.2z M80.2,17.2L80.2,17.2c0.8,0,1.5,0.6,1.5,1.4
		s-0.6,1.4-1.5,1.4c-0.8,0-1.5-0.6-1.5-1.4C78.8,17.8,79.4,17.2,80.2,17.2z M77,14.9c0.8,0,1.5,0.6,1.5,1.4c0,0.8-0.7,1.4-1.5,1.4
		c-0.8,0-1.5-0.6-1.5-1.4C75.5,15.5,76.2,14.9,77,14.9z M78.8,21.3c2.6,2.4,3.7,5.3,4.1,9.8c-0.9,0.2-1.2,0.8-1.5,1.6
		c-0.6,1.4-0.1,2.1,1,2.8c0.2,0.1,0.3,0.2,0.5,0.3c0,0,0,0,0,0c0,0,0.1,0,0.1,0.1c-0.6,0.1-1.1,0.3-1.6,0.3c-0.3,0-0.7-0.1-1.1-0.3
		l0,0c0,0,0,0,0,0c-0.2-0.1-0.4-0.2-0.5-0.4c0,0,0,0,0,0c-0.1-0.2-0.3-0.3-0.4-0.5c0,0,0-0.1,0-0.1c-0.1-0.1-0.1-0.3-0.2-0.4
		c-0.1-0.3-0.1-0.6-0.1-0.9c0.2-0.2,0.4-0.5,0.5-0.9c0.2-0.5,0.1-1-0.2-1.5c-0.3-0.4-0.7-0.7-1.2-0.9c0,0,0,0,0,0
		c-1.1-0.3-2.2,0.4-2.5,1.5c0,0.1-0.1,0.3-0.1,0.5c-1,1.3-2.7,1.3-3.7,0.4c-0.6-0.5-1-1.4-0.8-2.3c1.8,0.4,2.9,0.3,3.4-1.5
		c0.2-0.8,0.2-1.4-0.2-1.8c-0.2-0.3-0.5-0.5-1-0.7c0,0,0,0,0,0c0,0,0,0-0.1,0c0.1-0.7,0-0.9-0.3-1.5c1-0.3,1.7-0.9,1.7-1.9
		c0-0.6-0.2-1.1-0.6-1.4c-0.4-0.3-0.9-0.5-1.4-0.6c0,0,0,0,0,0c0,0-0.1,0-0.1,0c0.7-0.5,1.2-0.9,1.2-1.8c0-0.1,0-0.2,0-0.2l0.4-0.1
		C76.1,19.2,77.6,20.2,78.8,21.3z M73.5,13.5c0.8,0,1.5,0.6,1.5,1.4c0,0.8-0.7,1.4-1.5,1.4c-0.8,0-1.5-0.6-1.5-1.4
		C72,14.2,72.7,13.5,73.5,13.5z M71.7,17.2c0.8,0,1.5,0.6,1.5,1.4c0,0.8-0.7,1.4-1.5,1.4c-0.8,0-1.5-0.6-1.5-1.4
		C70.2,17.9,70.9,17.2,71.7,17.2z M69.9,13.9L69.9,13.9c0.8,0,1.5,0.6,1.5,1.4s-0.7,1.4-1.5,1.4c-0.8,0-1.5-0.6-1.5-1.4
		C68.5,14.5,69.1,13.9,69.9,13.9z M67.3,11c0.8,0,1.5,0.6,1.5,1.4s-0.7,1.4-1.5,1.4c-0.8,0-1.5-0.6-1.5-1.4
		C65.9,11.6,66.5,11,67.3,11z M63.9,8.7c0.8,0,1.5,0.6,1.5,1.4c0,0.8-0.7,1.4-1.5,1.4c-0.8,0-1.5-0.6-1.5-1.4
		C62.4,9.4,63.1,8.7,63.9,8.7z M60.3,7.5c0.8,0,1.5,0.6,1.5,1.4c0,0.8-0.7,1.4-1.5,1.4c-0.8,0-1.5-0.6-1.5-1.4
		C58.9,8.1,59.5,7.5,60.3,7.5z M56.7,6.8c0.8,0,1.5,0.6,1.5,1.4s-0.7,1.4-1.5,1.4c-0.8,0-1.4-0.6-1.4-1.4c0,0,0,0,0,0
		C55.2,7.5,55.9,6.8,56.7,6.8z M53.1,10.2c0.8,0,1.5,0.6,1.5,1.4c0,0.8-0.7,1.4-1.5,1.4c-0.8,0-1.5-0.6-1.5-1.4S52.3,10.2,53.1,10.2
		z M53.1,16.9c-0.8,0-1.5-0.6-1.5-1.4c0-0.8,0.7-1.4,1.5-1.4c0.8,0,1.5,0.6,1.5,1.4C54.6,16.3,53.9,16.9,53.1,16.9z M54.6,19.4
		c0,0.8-0.7,1.4-1.5,1.4c-0.8,0-1.5-0.6-1.5-1.4c0-0.8,0.7-1.4,1.5-1.4C53.9,18,54.6,18.7,54.6,19.4z M49.6,6.9
		c0.8,0,1.5,0.6,1.5,1.4c0,0.8-0.7,1.4-1.5,1.4c-0.8,0-1.5-0.6-1.5-1.4S48.8,6.9,49.6,6.9z M45.9,7.5c0.8,0,1.5,0.6,1.5,1.4
		s-0.7,1.4-1.5,1.4c-0.8,0-1.5-0.6-1.5-1.4S45.1,7.5,45.9,7.5z M42.4,8.8c0.8,0,1.5,0.6,1.5,1.4s-0.7,1.4-1.5,1.4
		c-0.8,0-1.5-0.6-1.5-1.4S41.6,8.8,42.4,8.8z M50,11.1c0.5,0,1,0,1.5,0c-0.1,0.1-0.1,0.3-0.1,0.4l0,0c0,0,0,0,0,0
		c0,0.4,0.1,0.7,0.3,1v1.9c-0.2,0.3-0.3,0.6-0.3,1c0,0.4,0.1,0.7,0.3,1v1.9c-0.2,0.3-0.3,0.6-0.3,1c0,0.9,0.5,1.2,1.1,1.5
		c0,0,0,0,0,0c0.2,0.1,0.4,0.2,0.5,0.2c0.9-0.4,1.7-0.7,1.7-1.8c0-0.3-0.1-0.7-0.3-0.9l0-2c0.2-0.3,0.3-0.6,0.3-1
		c0-0.4-0.1-0.7-0.3-1v-1.9c0.2-0.3,0.3-0.6,0.3-1c0-0.2,0-0.3,0-0.4c0.5,0,1,0,1.5,0c7.4,0.1,12.6,5.3,13.3,12.3
		c-0.7,0.3-1,0.6-1.3,1.3c-1.4-0.1-2,0.5-2.4,1.7c-0.5,1.8,0.4,2.5,2.2,2.9c-0.5,1-1.3,1.7-2.5,1.7c-0.2,0-0.4,0-0.6-0.1
		c-1.1-0.3-1.8-1.2-1.8-2.3c0.2-0.3,0.3-0.7,0.3-1c0-1.1-0.9-1.9-2-2c-1.1,0-2,0.9-2,2c0,0.2,0,0.4,0.1,0.6
		c-0.3,1.1-1.3,1.8-2.4,1.8c0,0,0,0,0,0c0,0,0,0,0,0c-1.4,0-2.2-1-2.5-2.2c1.8,0,2.8-0.4,2.8-2.3c0-1.3-0.5-2-1.9-2.2
		c-0.3-1.6-1.1-1.7-2.5-1.9c-1.4,0.2-2.2,0.3-2.5,1.9c-1.4,0.3-1.9,0.9-1.9,2.2c0,1.8,1,2.3,2.8,2.3c-0.2,1.2-1,2.2-2.5,2.2
		c0,0,0,0,0,0c0,0,0,0,0,0c-1.1,0-2.1-0.7-2.4-1.8c0.1-0.2,0.1-0.4,0.1-0.6c0-1.1-0.9-1.9-2-2c-1.1,0-2,0.9-2,2c0,0.4,0.1,0.7,0.3,1
		c0,1.1-0.7,2-1.8,2.3C41,31,40.8,31,40.7,31c-1.1,0.1-2-0.7-2.5-1.7c1.8-0.4,2.7-1.1,2.2-2.9c-0.3-1.2-1-1.8-2.4-1.7
		c-0.3-0.7-0.6-1-1.3-1.3C37.4,16.4,42.6,11.2,50,11.1z M38.9,11c0.8,0,1.5,0.6,1.5,1.4s-0.7,1.4-1.5,1.4c-0.8,0-1.5-0.6-1.5-1.4
		S38.2,11,38.9,11z M36.3,13.9c0.8,0,1.5,0.6,1.5,1.4c0,0.8-0.7,1.4-1.5,1.4l0,0c-0.8,0-1.5-0.6-1.5-1.4
		C34.9,14.5,35.5,13.9,36.3,13.9z M34.6,17.3c0.8,0,1.5,0.6,1.5,1.4c0,0.8-0.7,1.4-1.5,1.4c-0.8,0-1.5-0.6-1.5-1.4
		S33.8,17.3,34.6,17.3z M32.8,13.6c0.8,0,1.5,0.6,1.5,1.4c0,0.8-0.7,1.4-1.5,1.4c-0.8,0-1.5-0.6-1.5-1.4
		C31.3,14.2,32,13.6,32.8,13.6z M32,18.3c0.6,0.2,0.5,0.3,0.5,0.3c0,0.9,0.5,1.3,1.2,1.8c0,0-0.1,0-0.1,0c0,0,0,0,0.1,0
		c-0.6,0.1-1.1,0.3-1.5,0.6c-0.4,0.3-0.6,0.8-0.6,1.4c0,1.1,0.8,1.7,1.7,1.9C33,25,33,25.3,33,26c0,0,0,0,0,0c0,0,0,0,0,0
		c-0.3,0.1-0.6,0.3-0.8,0.5c-0.6,0.5-0.7,1.2-0.4,2.1c0.5,1.8,1.6,2,3.4,1.5c0.1,0.5,0,1-0.2,1.5c-0.6,1.4-2.4,1.8-3.7,0.9
		c0,0,0,0-0.1,0c-0.2-0.1-0.3-0.3-0.5-0.4c0-0.2,0-0.3-0.1-0.5c-0.1-0.4-0.3-0.8-0.6-1c-0.5-0.4-1.2-0.6-1.9-0.4
		c-0.2,0.1-0.4,0.1-0.6,0.2c-0.7,0.4-1.1,1.3-0.9,2.1c0,0,0,0,0,0c0.1,0.3,0.3,0.6,0.5,0.9c0,0,0,0,0,0c0,0,0,0,0,0
		c0.1,1-0.4,1.9-1.2,2.4c-0.9,0.5-1.7,0.3-2.6,0c0,0,0,0,0,0c0,0,0,0,0,0c1.5-0.7,2.2-1.3,1.6-3h0c-0.1-0.2-0.1-0.3-0.2-0.5
		c-0.3-0.5-0.7-0.9-1.3-1.1c0.2-2.5,0.6-4.5,1.3-6.2C26,22.1,28.1,20.2,32,18.3z M29.2,14.9c0.8,0,1.5,0.6,1.5,1.4
		c0,0.8-0.7,1.4-1.5,1.4c-0.8,0-1.5-0.6-1.5-1.4C27.8,15.5,28.4,14.9,29.2,14.9z M26,17.2c0.8,0,1.5,0.6,1.5,1.4
		c0,0.8-0.7,1.4-1.5,1.4l0,0c-0.8,0-1.5-0.6-1.5-1.4C24.5,17.8,25.2,17.2,26,17.2z M23.3,20.2c0.8,0,1.5,0.6,1.5,1.4
		c0,0.8-0.7,1.4-1.5,1.4c-0.8,0-1.5-0.6-1.5-1.4C21.9,20.8,22.5,20.2,23.3,20.2z M21.7,23.6c0.8,0,1.5,0.6,1.5,1.4
		c0,0.8-0.7,1.4-1.5,1.4c-0.8,0-1.5-0.6-1.5-1.4C20.2,24.2,20.9,23.6,21.7,23.6z"/>
	<path class="st3" d="M45.9,9.9c0.6,0,1.1-0.5,1.1-1.1c0,0,0,0,0,0C47,9.4,46.5,9.9,45.9,9.9c-0.6,0-1.1-0.5-1.1-1.1c0,0,0,0,0,0
		C44.8,9.4,45.3,9.9,45.9,9.9z"/>
	<path class="st3" d="M72.2,27.6c-0.2,0.6-0.7,1.1-1.3,1.3c-0.4,0.1-0.8,0.1-1.2,0c0,0,0,0,0,0c-0.6-0.2-1.1-0.6-1.3-1.2
		c-0.1-0.2-0.1-0.5-0.1-0.7c0,0.9,0.6,1.8,1.5,2C70.8,29.2,71.9,28.6,72.2,27.6c0-0.1,0.1-0.3,0.1-0.4
		C72.3,27.3,72.3,27.4,72.2,27.6z"/>
	<path class="st3" d="M36.3,16.3c0.6,0,1.1-0.5,1.1-1.1c0,0,0,0,0,0C37.4,15.8,36.9,16.3,36.3,16.3c-0.6,0-1.1-0.5-1.1-1.1
		c0,0,0,0,0,0C35.2,15.8,35.7,16.3,36.3,16.3z"/>
	<path class="st3" d="M32.8,16c0.6,0,1.1-0.5,1.1-1.1c0,0,0,0,0,0C33.9,15.5,33.4,16,32.8,16c-0.6,0-1.1-0.5-1.1-1.1c0,0,0,0,0,0
		C31.7,15.6,32.1,16,32.8,16z"/>
	<path class="st3" d="M38.9,13.4c0.6,0,1.1-0.5,1.1-1.1c0,0,0,0,0,0C40,12.9,39.6,13.4,38.9,13.4c-0.6,0-1.1-0.5-1.1-1.1
		c0,0,0,0,0,0C37.8,12.9,38.3,13.4,38.9,13.4z"/>
	<path class="st3" d="M42.4,11.2c0.6,0,1.1-0.5,1.1-1.1c0,0,0,0,0,0C43.5,10.7,43,11.2,42.4,11.2c-0.6,0-1.1-0.5-1.1-1.1
		c0,0,0,0,0,0C41.3,10.7,41.7,11.2,42.4,11.2z"/>
	<path class="st3" d="M71.7,19.7C71.7,19.7,71.7,19.7,71.7,19.7c-0.6,0-1.1-0.5-1.1-1.1c0,0,0,0,0,0C70.6,19.2,71.1,19.7,71.7,19.7
		c0.6,0,1.1-0.5,1.1-1.1c0,0,0,0,0,0C72.8,19.2,72.3,19.7,71.7,19.7z"/>
	<path class="st3" d="M34.6,19.7c-0.6,0-1.1-0.5-1.1-1.1c0,0,0,0,0,0C33.4,19.2,34,19.7,34.6,19.7c0.6,0,1.1-0.5,1.1-1.1
		c0,0,0,0,0,0C35.7,19.2,35.2,19.7,34.6,19.7z"/>
	<path class="st3" d="M34.8,22.5c0,0.6-0.5,1.1-1.1,1.1c-0.6,0-1.1-0.5-1.1-1.1c0,0,0,0,0,0c0,0.6,0.5,1.1,1.1,1.1
		C34.3,23.6,34.8,23.1,34.8,22.5C34.8,22.5,34.8,22.5,34.8,22.5z"/>
	<polygon class="st3" points="46.8,31.2 43.7,31.6 43.7,31.6 46.8,31.2 46.8,31.2 	"/>
	<path class="st3" d="M34,26.8c0.1-0.7,0.7-1.4,1.5-1.6c1.1-0.3,2.2,0.3,2.5,1.4c0,0.1,0.1,0.3,0.1,0.4c0-0.1,0-0.3-0.1-0.4
		c-0.3-1-1.4-1.7-2.5-1.4c-0.9,0.2-1.6,1.1-1.5,2C33.9,27.1,33.9,26.9,34,26.8z"/>
	<path class="st3" d="M53.1,30.9l-1.4,0c0,0,0,0,0,0C52.2,30.9,52.6,30.9,53.1,30.9c0.5,0,0.9,0,1.4,0c0,0,0,0,0,0
		C54,30.9,53.6,30.9,53.1,30.9z"/>
	<path class="st3" d="M59.4,31.2c0.1,0,0.1,0,0.2,0L59.4,31.2C59.4,31.2,59.4,31.2,59.4,31.2z"/>
	<path class="st3" d="M31.4,34.6l-2.6,1l-0.2,0.1c0,0,0,0,0,0C29.5,35.3,30.5,35,31.4,34.6C31.4,34.6,31.4,34.6,31.4,34.6L31.4,34.6
		z"/>
	<path class="st3" d="M72.6,23.6C72.6,23.6,72.6,23.6,72.6,23.6c-0.6,0-1.1-0.5-1.1-1.1c0,0,0,0,0,0C71.5,23.1,72,23.6,72.6,23.6
		c0.6,0,1.1-0.5,1.1-1.1c0,0,0,0,0,0C73.7,23.1,73.2,23.6,72.6,23.6z"/>
	<path class="st3" d="M74.8,34.6C74.8,34.6,74.8,34.6,74.8,34.6c1,0.3,1.9,0.7,2.9,1.1c0,0,0,0,0,0L74.8,34.6z"/>
	<path class="st3" d="M69.7,32.7c0.1,0.2,0.2,0.3,0.3,0.5l-2.7-0.7c0,0,0,0,0,0l2.7,0.7c-0.5-0.6-0.8-1.3-0.9-2.1c0,0,0,0,0,0
		C69.3,31.6,69.5,32.2,69.7,32.7z"/>
	<path class="st3" d="M53.1,41.7c-0.9,0-1.8,0-2.6,0.1C23.2,43.1,1.5,64.9,1.5,91.5c0,27.4,23.2,49.8,51.6,49.8
		c6.2,0,12.2-1.1,17.7-3c3.2-1.1,6.2-2.5,9-4.2c2.1-1.3,4.2-2.6,6.1-4.2c1.3-1,2.5-2.1,3.7-3.2c2.3-2.3,4.4-4.7,6.3-7.4
		c0.5-0.7,0.9-1.3,1.3-2c4.7-7.5,7.5-16.4,7.5-25.8C104.7,64.1,81.5,41.7,53.1,41.7z M53.1,136.4c-12.8,0-24.4-5.1-32.9-13.2
		c-8.4-8.1-13.7-19.4-13.7-31.7c0-24.8,20.9-44.9,46.5-44.9c25.6,0,46.5,20.1,46.5,44.9C99.7,116.2,78.7,136.4,53.1,136.4z"/>
	<path class="st3" d="M38.8,32.5l-2.7,0.7c0,0,0,0,0,0C37,32.9,37.9,32.7,38.8,32.5L38.8,32.5C38.8,32.5,38.8,32.5,38.8,32.5z"/>
	<path class="st3" d="M62.5,31.6C62.5,31.6,62.5,31.6,62.5,31.6l-0.2,0C62.4,31.6,62.5,31.6,62.5,31.6z"/>
	<path class="st3" d="M72.4,14.9C72.4,14.9,72.4,14.9,72.4,14.9c0-0.1,0-0.2,0.1-0.3c0.1-0.4,0.5-0.7,0.9-0.8c0,0,0.1,0,0.1,0
		c0,0,0,0,0,0c0.6,0,1.1,0.5,1.1,1.1c0,0,0,0,0,0c0-0.6-0.5-1.1-1.1-1.1S72.4,14.3,72.4,14.9z"/>
	<path class="st3" d="M68.8,15.2C68.8,15.2,68.8,15.2,68.8,15.2c0-0.6,0.5-1.1,1.1-1.1c0,0,0,0,0,0c0.6,0,1.1,0.5,1.1,1.1
		c0,0,0,0,0,0c0-0.6-0.5-1.1-1.1-1.1C69.3,14.2,68.8,14.6,68.8,15.2z"/>
	<path class="st3" d="M81.8,21.6C81.8,21.6,81.8,21.6,81.8,21.6c0-0.6,0.5-1.1,1.1-1.1c0,0,0,0,0,0c0.6,0,1.1,0.5,1.1,1.1
		c0,0,0,0,0,0c0-0.6-0.5-1.1-1.1-1.1C82.3,20.5,81.8,21,81.8,21.6z"/>
	<path class="st3" d="M62.8,10.1C62.8,10.1,62.8,10.1,62.8,10.1c0-0.6,0.5-1.1,1.1-1.1c0,0,0,0,0,0c0.6,0,1.1,0.5,1.1,1.1
		c0,0,0,0,0,0C65,9.5,64.5,9,63.9,9S62.8,9.5,62.8,10.1z"/>
	<path class="st3" d="M89.6,91c0,9.7-3.4,15.8-8.6,21.9l4.6,4.4c6.3-7.2,9.7-16.4,9.7-26c0-15.2-8.6-28.4-21.4-35.5l-9.9,9.8
		L63.7,66c-3.4-1.3-7-2-10.6-2c-3.8,0-7.5,0.7-11.1,2L32,55.9c-1.6,0.9-3.1,1.9-4.5,2.9c-10.1,7.5-16.7,19.3-16.7,32.5
		c0,9.9,3.7,18.6,9.9,25.7l4-4c-3.5-3.5-9-11.8-8.7-22.1c0.4-11.7,5.4-20.7,14.8-28l0,0c0,0,0,0,0,0l6,6c-7.1,5.2-12,12.5-12.1,21.4
		c-0.2,13,9.1,23.8,21.9,26.9v6.9h5.6v-6.3c8.4-0.1,16.4-3.2,22-9.4l-4.3-4.2c-2.3,2.4-5.3,4.5-8.6,6c-2.7,1.2-5.6,1.9-8.4,1.8
		c-0.2,0-0.4,0-0.7,0v0c0,0,0,0,0,0v-6.8H61v-4.8h-8.7v0h0v-5.4h8.9v-4.2H46.6V111c0,0,0,0,0,0v0c-9.5-3.1-16.3-10.1-16.1-20.2
		c0.2-7.6,3.9-13.7,10.3-18l0,0c0,0,0,0,0,0L53.1,85l11.8-12c0,0,0,0,0,0l0,0c3,2,5.3,4.1,7.1,7.1l4.5-3.8c-2-3.1-4.5-5.3-7.5-7.5
		l5.9-5.9c0,0,0,0,0,0l0,0C83.9,69,89.6,80.6,89.6,91z M59.4,70.5L53.1,77l-6.7-6.6l0,0l0,0c2.1-0.4,4.2-0.9,6.4-0.9
		C55,69.5,57.2,69.9,59.4,70.5L59.4,70.5C59.3,70.5,59.4,70.5,59.4,70.5z"/>
	<path class="st3" d="M59.2,8.8C59.2,8.8,59.2,8.8,59.2,8.8c0-0.6,0.5-1.1,1.1-1.1c0,0,0,0,0,0c0.6,0,1.1,0.5,1.1,1.1c0,0,0,0,0,0
		c0-0.6-0.5-1.1-1.1-1.1C59.7,7.8,59.2,8.3,59.2,8.8z"/>
	<path class="st3" d="M85.2,35.8c-0.4,0-0.8,0-1.1-0.2c-0.5-0.3-0.8-0.7-1-1.2c0,0,0,0,0,0c0-0.1-0.1-0.2-0.1-0.3c0,0,0-0.1,0-0.1
		c0-0.1,0-0.2,0-0.3c0,0,0-0.1,0-0.1c0-0.1,0-0.2,0.1-0.3c0,0,0-0.1,0-0.1c0-0.1,0.1-0.2,0.1-0.3c0.2-0.4,0.6-0.7,0.9-0.8
		c0.2-0.1,0.4-0.2,0.6-0.2c-0.6,0.1-1.2,0.4-1.6,1c-0.5,0.9-0.2,2.1,0.8,2.6C84.4,35.7,84.8,35.8,85.2,35.8z"/>
	<path class="st3" d="M55.6,8.2C55.6,8.2,55.6,8.2,55.6,8.2c0-0.6,0.5-1.1,1.1-1.1c0,0,0,0,0,0c0.6,0,1.1,0.5,1.1,1.1c0,0,0,0,0,0
		c0-0.6-0.5-1.1-1.1-1.1C56,7.1,55.6,7.6,55.6,8.2z"/>
	<path class="st3" d="M19.2,33.7c0.1-0.6,0.4-1.2,1-1.5c1-0.5,2.2-0.2,2.7,0.8c0.2,0.3,0.2,0.6,0.2,0.9c0-0.3-0.1-0.6-0.2-0.9
		c-0.6-0.9-1.8-1.3-2.7-0.8C19.6,32.5,19.2,33,19.2,33.7z"/>
	<path class="st3" d="M19.2,34c0-0.1,0-0.1,0-0.2C19.2,33.9,19.2,34,19.2,34z"/>
	<path class="st3" d="M29.2,17.4c0.6,0,1.1-0.5,1.1-1.1c0,0,0,0,0,0C30.3,16.9,29.9,17.3,29.2,17.4c-0.6,0-1.1-0.5-1.1-1.1
		c0,0,0,0,0,0C28.1,16.9,28.6,17.4,29.2,17.4z"/>
	<path class="st3" d="M79.1,18.6C79.1,18.6,79.1,18.6,79.1,18.6c0-0.6,0.5-1.1,1.1-1.1c0,0,0,0,0,0c0.6,0,1.1,0.5,1.1,1.1
		c0,0,0,0,0,0c0-0.6-0.5-1.1-1.1-1.1C79.6,17.5,79.1,18,79.1,18.6z"/>
	<path class="st3" d="M75.9,16.3C75.9,16.3,75.9,16.3,75.9,16.3c0-0.6,0.5-1.1,1.1-1.1c0,0,0,0,0,0c0.6,0,1.1,0.5,1.1,1.1
		c0,0,0,0,0,0c0-0.6-0.5-1.1-1.1-1.1C76.4,15.2,75.9,15.7,75.9,16.3z"/>
	<path class="st3" d="M66.2,12.3C66.2,12.3,66.2,12.3,66.2,12.3c0-0.6,0.5-1.1,1.1-1.1c0,0,0,0,0,0c0.6,0,1.1,0.5,1.1,1.1
		c0,0,0,0,0,0c0-0.6-0.5-1.1-1.1-1.1C66.7,11.2,66.2,11.7,66.2,12.3z"/>
	<path class="st3" d="M83.5,24.9C83.5,24.9,83.5,24.9,83.5,24.9c0-0.6,0.5-1.1,1.1-1.1c0,0,0,0,0,0c0.6,0,1.1,0.5,1.1,1.1
		c0,0,0,0,0,0c0-0.6-0.5-1.1-1.1-1.1S83.5,24.4,83.5,24.9z"/>
	<path class="st4" d="M74.1,39c-0.6,0-1.1,0.3-1.3,0.8c-0.1,0.2-0.1,0.3-0.1,0.5c0,0.8,0.7,1.4,1.5,1.4c0.7,0,1.3-0.5,1.4-1.1
		c0-0.1,0-0.2,0-0.3C75.5,39.6,74.9,39,74.1,39z M73.1,39.9c0.2-0.4,0.6-0.7,1-0.7c0.6,0,1.1,0.5,1.1,1.1c0,0.4-0.2,0.7-0.6,0.9
		c-0.2,0.1-0.3,0.2-0.5,0.2c-0.6,0-1.1-0.5-1.1-1.1C73,40.2,73,40,73.1,39.9z"/>
	<path class="st4" d="M73.7,18.5c0,0.1,0,0.2,0,0.2c0,0.9-0.5,1.3-1.2,1.8c0,0,0,0,0,0c0.5,0.1,1,0.3,1.4,0.6
		c0.4,0.3,0.7,0.8,0.7,1.5c0,1.1-0.8,1.7-1.7,1.9c0.3,0.4,0.4,1,0.3,1.5c0,0,0,0,0,0c0.4,0.2,0.8,0.5,1,0.7c0.4,0.5,0.4,1.1,0.2,1.9
		c-0.5,1.8-1.6,1.9-3.4,1.5c-0.1,1,0.2,1.7,0.8,2.2c1,0.9,2.6,0.9,3.7-0.4c0-0.2,0-0.3,0.1-0.5c0.3-1.1,1.4-1.7,2.5-1.5c0,0,0,0,0,0
		c0.5,0.1,0.9,0.4,1.2,0.9c0.3,0.4,0.4,1,0.2,1.5c-0.1,0.3-0.3,0.6-0.5,0.9c0,0.3,0,0.6,0.1,0.9c0,0.1,0.1,0.3,0.2,0.4
		c0,0,0,0.1,0,0.1c0.1,0.2,0.2,0.4,0.4,0.5c0,0,0,0,0,0c0.2,0.2,0.3,0.3,0.5,0.4c0,0,0,0,0,0c0.4,0.2,0.7,0.3,1.1,0.3
		c0.5,0,1-0.1,1.6-0.3c0,0-0.1,0-0.1-0.1c-0.2-0.1-0.3-0.2-0.5-0.3c-1.1-0.6-1.5-1.3-1-2.8c0.3-0.8,0.7-1.3,1.5-1.6
		c-0.4-4.6-1.4-7.5-4.1-9.8c-1.2-1.1-2.7-2-4.6-2.9L73.7,18.5z M73.5,20.2c0.4-0.4,0.6-0.9,0.7-1.5c3.5,1.8,5.5,3.6,6.7,6.1
		c-0.6-0.4-1.2-0.8-2.1-1.1c-1.2-0.4-2.5-0.8-3.7-1v-0.2C75.1,21.5,74.4,20.6,73.5,20.2z M79.4,33.5c0.2-0.2,0.4-0.6,0.5-0.9
		c0.3-1.1-0.3-2.3-1.3-2.8c-0.1-0.1-0.3-0.1-0.5-0.2c-1.3-0.3-2.7,0.4-3,1.7c0,0.1-0.1,0.3-0.1,0.4c-0.7,0.8-1.8,0.9-2.6,0.4
		c-0.5-0.3-0.9-0.8-0.9-1.5c2.1,0.4,3-0.6,3.4-2c0.3-1.1,0.2-2.3-1.2-3c0-0.1,0-0.3,0-0.4c0-0.2-0.1-0.3-0.1-0.4c0,0,0,0,0-0.1
		c0,0,0,0,0,0c0.8-0.3,1.3-1,1.5-1.8c1,0.2,2.2,0.5,3.2,0.9c0.1,0,0.3,0.1,0.4,0.1c0.4,0.2,0.9,0.4,1.3,0.6c0.4,0.2,0.8,0.5,1.2,0.8
		c0.6,1.5,1,3.2,1.1,5.3c-0.8,0.3-1.2,1-1.5,1.8c-0.5,1.1-0.5,2.3,0.8,3.1c-0.1,0-0.2,0-0.2,0c-0.2,0-0.5-0.1-0.7-0.2
		c0,0-0.1,0-0.1,0c0,0,0,0,0,0C79.8,35,79.4,34.3,79.4,33.5z"/>
	<polygon class="st4" points="63.4,37.1 63.4,37.1 66.9,39.5 71.2,39 71.2,39 67.7,36.7 	"/>
	<path class="st4" d="M36.7,23.4c0.7,0.3,1,0.6,1.3,1.3c1.4-0.1,2,0.5,2.4,1.7c0.4,1.8-0.4,2.5-2.2,2.9c0.4,1,1.3,1.7,2.4,1.7
		c0.2,0,0.4,0,0.6-0.1c1.1-0.3,1.8-1.2,1.8-2.3c-0.2-0.3-0.3-0.7-0.3-1c0-1.1,0.9-1.9,2-2c0,0,0,0,0,0c1.1,0,2,0.9,2,2
		c0,0.2,0,0.4-0.1,0.6c0.3,1,1.3,1.7,2.3,1.8c0,0,0,0,0,0c1.4,0,2.2-1,2.5-2.2c-1.8,0-2.8-0.4-2.8-2.3c0-1.3,0.5-2,1.9-2.2
		c0.3-1.6,1.1-1.7,2.5-1.9c0,0,0,0,0,0c1.4,0.2,2.2,0.3,2.6,1.9c1.4,0.3,1.9,0.9,1.9,2.2c0,1.8-1,2.3-2.8,2.3c0.2,1.2,1,2.2,2.4,2.2
		c0,0,0,0,0,0c1.1,0,2.1-0.7,2.4-1.8c-0.1-0.2-0.1-0.4-0.1-0.6c0-1.1,0.9-2,2-2c0,0,0,0,0,0c1.1,0,2,0.9,2,2c0,0.4-0.1,0.7-0.3,1
		c0,1.1,0.8,2.1,1.8,2.3c0.2,0,0.3,0.1,0.5,0.1c1.1,0.1,2-0.7,2.5-1.7c-1.8-0.4-2.7-1.1-2.2-2.9c0.3-1.2,1-1.8,2.4-1.7
		c0.3-0.7,0.6-1,1.3-1.3c-0.7-7.1-5.9-12.2-13.3-12.3c-0.5,0-1,0-1.4,0c0,0.2,0,0.3,0,0.4c0,0.4-0.1,0.7-0.3,1v1.9
		c0.2,0.3,0.3,0.6,0.3,1c0,0.4-0.1,0.7-0.3,1l0,2c0.2,0.2,0.3,0.6,0.3,0.9c0,1.1-0.9,1.5-1.7,1.8c0,0-0.1,0-0.1,0
		c-0.2-0.1-0.4-0.2-0.5-0.2c0,0,0,0,0,0c-0.6-0.3-1.1-0.7-1.1-1.5c0-0.4,0.1-0.7,0.3-1v-1.9c-0.2-0.3-0.3-0.6-0.3-1
		c0-0.4,0.1-0.7,0.3-1v-1.9c-0.2-0.3-0.3-0.6-0.3-1c0,0,0,0,0,0l0,0l0,0c0-0.2,0-0.3,0.1-0.4c-0.5,0-1,0-1.5,0
		C42.6,11.2,37.5,16.4,36.7,23.4z M55,16.6c0.2-0.3,0.3-0.7,0.3-1.1s-0.1-0.8-0.3-1.1v-1.6c0.2-0.3,0.3-0.7,0.3-1.1
		c6.2-0.3,10.8,3.1,12.7,7.9v0c-3.9-2-8.9-2.4-13.1-1.8V16.6z M54.5,21.1c0.7-0.5,1-1.4,0.7-2.3c0,0,0,0,0,0
		c-0.1-0.2-0.1-0.4-0.2-0.5l0-0.3l0,0c3-0.4,6.7-0.3,10.1,0.6c0.3,0.1,0.5,0.2,0.8,0.3c0.8,0.3,1.6,0.6,2.4,1c0.4,1,0.7,2.1,0.8,3.2
		c0,0,0,0,0,0c-0.2,0.1-0.4,0.3-0.6,0.4c-0.1,0.1-0.2,0.2-0.2,0.3c0,0,0,0,0,0c-0.1,0.1-0.2,0.2-0.2,0.4c0,0,0,0,0,0
		c-0.2,0-0.4,0-0.5,0c-1.1,0.2-1.7,1-2,2c-0.4,1.4-0.1,2.7,1.9,3.3c-0.3,0.5-0.9,0.9-1.5,0.9c-0.2,0-0.4,0-0.6-0.1
		c-0.4-0.1-0.8-0.4-1-0.7c-0.2-0.3-0.3-0.6-0.4-0.9c0-0.1,0-0.1,0-0.2c0.2-0.3,0.3-0.7,0.3-1.1c0-0.3-0.1-0.6-0.2-0.9
		c0,0,0-0.1,0-0.1c0,0,0,0,0,0c-0.3-0.6-0.8-1.1-1.4-1.3c-0.3-0.1-0.6-0.2-0.9-0.2c-0.7,0-1.3,0.3-1.8,0.7c-0.5,0.4-0.7,1-0.7,1.7
		c0,0,0,0,0,0c0,0.2,0,0.4,0.1,0.5c0,0,0,0,0,0c-0.2,0.7-0.8,1.2-1.6,1.3c-0.1,0-0.2,0-0.3,0c-0.2,0-0.4,0-0.6-0.1
		c-0.1,0-0.2-0.1-0.2-0.1c-0.1,0-0.2-0.1-0.3-0.1c-0.3-0.2-0.5-0.5-0.6-0.8c0-0.1-0.1-0.1-0.1-0.2c0,0,0,0,0,0
		c0.8,0,1.4-0.2,1.8-0.5c0.7-0.5,0.9-1.3,0.9-2.2c0-0.3,0-0.6-0.1-0.9c-0.1-0.5-0.4-0.9-0.8-1.2c-0.3-0.2-0.6-0.4-1.1-0.5
		C55.8,21.9,55.3,21.3,54.5,21.1L54.5,21.1C54.5,21.1,54.5,21.1,54.5,21.1z M44.8,25.2c-1.4,0-2.5,1.1-2.5,2.4
		c0,0.4,0.1,0.8,0.3,1.1c0,0.8-0.6,1.6-1.5,1.8c-0.4,0.1-0.9,0.1-1.3-0.1c-0.4-0.2-0.7-0.4-0.9-0.8c2-0.6,2.3-1.9,1.9-3.3
		c-0.2-0.7-0.6-1.4-1.2-1.8c-0.4-0.2-0.8-0.3-1.3-0.3c0,0,0,0,0,0c-0.3-0.5-0.6-0.9-1.1-1.1c0.1-0.6,0.1-1.1,0.3-1.6c0,0,0,0,0,0
		c0,0,0,0,0,0c0.1-0.5,0.3-1,0.5-1.5v0c4-2.1,9.2-2.5,13.3-2v0.3c-0.2,0.3-0.3,0.7-0.3,1.1c0,0.6,0.3,1.3,0.8,1.7
		c-0.8,0.3-1.4,0.9-1.6,1.8c-1.5,0.3-1.9,1.4-1.9,2.6c0,1,0.3,2,1.3,2.4c0.3,0.2,0.8,0.3,1.3,0.3c0,0,0.1,0,0.1,0
		c-0.3,0.8-1,1.3-1.9,1.3c-0.2,0-0.5,0-0.7-0.1c-0.5-0.2-1-0.6-1.2-1.2c0-0.2,0.1-0.4,0.1-0.6c0-0.9-0.5-1.6-1.2-2
		C45.7,25.4,45.3,25.2,44.8,25.2z M50.9,11.6c0,0.4,0.1,0.8,0.3,1.1v1.6c-0.2,0.3-0.3,0.7-0.3,1.1s0.1,0.8,0.3,1.1v1
		c-4.2-0.6-9.2-0.1-13.1,1.8C40.1,14.7,44.7,11.2,50.9,11.6z"/>
	<path class="st4" d="M60.3,35.4c-0.6,0-1.1,0.3-1.3,0.8c-0.1,0.2-0.1,0.3-0.1,0.5c0,0,0,0,0,0c0,0.8,0.6,1.4,1.4,1.4
		c0.6,0,1.1-0.4,1.3-0.8c0.1-0.2,0.1-0.3,0.1-0.5C61.7,36,61.1,35.4,60.3,35.4z M59.5,36c0.2-0.2,0.5-0.3,0.8-0.3
		c0.6,0,1.1,0.5,1.1,1.1c0,0.4-0.3,0.8-0.7,1c-0.1,0.1-0.3,0.1-0.4,0.1c-0.1,0-0.3,0-0.4-0.1c-0.2-0.1-0.4-0.3-0.6-0.5c0,0,0,0,0,0
		c0,0,0,0,0-0.1c0-0.1-0.1-0.2-0.1-0.4C59.2,36.4,59.3,36.2,59.5,36z"/>
	<path class="st4" d="M53.1,40.2C23.8,40.2,0,63.2,0,91.5c0,28.2,23.8,51.3,53.1,51.3c29.3,0,53.1-23,53.1-51.3
		C106.2,63.2,82.4,40.2,53.1,40.2z M95.9,119.3c-1.9,2.6-4,5.1-6.3,7.4c-1.2,1.1-2.4,2.2-3.7,3.2c-1.9,1.5-3.9,2.9-6.1,4.2
		c-2.8,1.7-5.9,3.1-9,4.2c-5.5,2-11.5,3-17.7,3c-28.4,0-51.6-22.4-51.6-49.8c0-26.6,21.7-48.4,48.9-49.8c0.9,0,1.8-0.1,2.6-0.1
		c28.4,0,51.6,22.4,51.6,49.8c0,9.4-2.7,18.2-7.5,25.8C96.8,118,96.3,118.6,95.9,119.3z"/>
	<path class="st4" d="M22.3,37.1c1,0.7,2.2,0.9,3.4,0.7c0,0.3,0,0.6,0.1,0.8c0.3,0.6,0.9,0.9,1.6,0.8c-0.3,0.4,0,1.1,0.6,1.2
		l-0.4,1.5l1.6,0.8l0,0c-0.2,0.2-0.2,0.6-0.3,1c0.2,0.4,0.7,0.7,1.1,0.4c7.2-3.3,15.1-5,23-4.9c8.3,0,16,1.8,23,4.9
		c0.5,0.2,0.9,0,1.1-0.4c0.1-0.3,0.1-0.7-0.1-0.9l1.6-0.8l-0.4-1.5c0.6-0.1,0.9-0.7,0.6-1.2c1,0.1,1.9-0.7,1.7-1.7
		c1.2,0.2,2.4,0,3.4-0.7c1.2,0.7,2.5,0.3,3.4-0.4c0.9-0.7,1.9-2.5,0.8-3.6c0.8-1.1,0.6-2.5-0.4-3.3c0.1-0.3,0.2-0.7,0.2-1
		c0-1-0.6-1.9-1.6-2.2c0.4-0.4,0.7-1,0.7-1.6c0-1.1-0.8-2.1-1.9-2.4c0.1-0.3,0.2-0.7,0.2-1c0-1.3-1.1-2.4-2.5-2.4h-0.2
		c0-0.2,0.1-0.4,0.1-0.6c0-1.3-1.1-2.4-2.5-2.4c-0.3,0-0.5,0-0.8,0.1c0-1.3-1.1-2.4-2.5-2.4c-0.4,0-0.8,0.1-1.1,0.3
		c-0.3-0.9-1.3-1.6-2.4-1.6c-0.8,0-1.5,0.3-1.9,0.9c-0.5-0.4-1.1-0.6-1.7-0.6h-0.2c0.1-0.2,0.1-0.3,0.1-0.5c0-1.3-1.1-2.4-2.5-2.4
		c-0.3,0-0.7,0.1-0.9,0.2c0-1.3-1.1-2.4-2.5-2.4c-0.4,0-0.9,0.1-1.2,0.3c-0.3-0.9-1.3-1.6-2.4-1.6c-0.6,0-1.1,0.2-1.5,0.5
		c-0.4-0.7-1.2-1.1-2.1-1.1c-0.2,0-0.5,0-0.7,0.1c-0.4-0.4-0.9-0.8-1.5-1l-0.2-0.1V3.6h1.7V1.5h-1.7V0h-2.3v1.5h-1.7v2.1h1.7v1.2
		L51.7,5c-0.6,0.2-1.1,0.6-1.5,1c-0.2-0.1-0.4-0.1-0.7-0.1c-0.9,0-1.7,0.4-2.1,1.1c-0.4-0.3-0.9-0.5-1.5-0.5c-1.1,0-2,0.7-2.4,1.6
		c-0.3-0.2-0.8-0.3-1.2-0.3c-1.3,0-2.5,1.1-2.5,2.4c-0.3-0.1-0.6-0.2-0.9-0.2c-1.4,0-2.5,1.1-2.5,2.4c0,0.2,0,0.3,0.1,0.5h-0.2
		c-0.6,0-1.2,0.2-1.7,0.6c-0.5-0.6-1.2-0.9-1.9-0.9c-1.1,0-2,0.7-2.4,1.6c-0.4-0.2-0.7-0.3-1.1-0.3c-1.3,0-2.5,1.1-2.5,2.4
		c-0.2-0.1-0.5-0.1-0.8-0.1c-0.2,0-0.4,0-0.6,0.1c-1.3,0.3-2.1,1.6-1.8,2.9h-0.2c-1.4,0-2.5,1.1-2.5,2.4c0,0.4,0.1,0.7,0.2,1
		c-1.1,0.3-1.9,1.2-1.9,2.4c0,0.6,0.2,1.2,0.6,1.6c-0.9,0.4-1.6,1.2-1.6,2.2c0,0.4,0.1,0.7,0.2,1c-1,0.8-1.2,2.1-0.4,3.3
		C16.3,34.9,19.5,38.7,22.3,37.1z M28.2,40.8l0.1-0.2l0,0l0.4,0.1l1.1,0.4l-0.3,1.2l-0.1,0.4l-0.2-0.1l-0.8-0.4l-0.3-0.2L28.2,40.8z
		 M78.3,41.9l-1.2,0.6l-0.2,0.1l0,0l0,0l-0.1-0.4l-0.3-1.1l0-0.1l1.5-0.6l0,0l0.1,0.2L78.3,41.9z M78.2,40.1
		C78.2,40.1,78.2,40.1,78.2,40.1c-0.1,0-0.2,0-0.3-0.1l0,0l-0.1,0.2L76,40.8l0.5,1.8L76.4,43c0.8,0.3,0.4,0.9,0,0.9c0,0-0.1,0-0.1,0
		c-7.1-3.2-14.9-5-23.2-5c0,0,0,0,0,0c-8.3,0-16.1,1.8-23.2,5c-0.1,0-0.2,0-0.3,0c-0.1,0-0.2-0.1-0.2-0.2c-0.1-0.2,0-0.4,0.1-0.5
		c0.1-0.1,0.2-0.1,0.3-0.1l-0.1-0.3l0.5-1.8l-1.7-0.6l0,0L28.4,40c0,0,0,0,0,0c-0.1,0.1-0.2,0.1-0.3,0.1c0,0,0,0,0,0
		c-0.4,0-0.4-0.4-0.2-0.5c7.7-3.5,16.2-5.4,25.3-5.4c0.3,0,0.6,0,0.9,0c8.4,0.1,16.7,1.9,24.4,5.4C78.6,39.7,78.6,40.1,78.2,40.1z
		 M19.8,25.5c-0.1-0.2-0.1-0.4-0.1-0.6c0-0.4,0.1-0.7,0.3-1c0-0.1,0.1-0.1,0.1-0.2c0,0,0,0,0,0c0.2-0.3,0.6-0.5,1-0.6
		c0,0,0.1,0,0.1,0c0.1,0,0.2-0.1,0.3-0.1c0.1,0,0.3,0,0.4-0.1c0,0,0,0,0,0c-0.3-0.5-0.6-0.8-0.6-1.4c0-0.8,0.5-1.5,1.3-1.8
		c0.2-0.1,0.5-0.1,0.8-0.1c0.2,0,0.5,0,0.7,0.1c0.1,0,0.2,0.1,0.3,0.1c-0.2-0.4-0.4-0.8-0.4-1.2c0-0.8,0.5-1.5,1.3-1.8
		c0.2-0.1,0.5-0.1,0.8-0.1c0.2,0,0.5,0,0.7,0.1c0,0,0,0,0,0c0.2,0.1,0.4,0.2,0.6,0.3c0,0,0,0,0,0c0-0.2-0.1-0.5-0.1-0.7
		c0-1,0.8-1.8,1.7-1.9c0.1,0,0.2,0,0.3,0c0.6,0,1,0.2,1.4,0.5c0,0,0,0,0,0c0.2-1,0.8-1.8,2-1.8c0.3,0,0.5,0,0.7,0.1
		c0.5,0.2,0.9,0.5,1.2,1c0,0,0,0,0,0c0.5-0.5,0.9-0.8,1.7-0.8c0.3,0,0.6,0.1,0.9,0.1c-0.2-0.4-0.3-0.7-0.3-1.1c0,0,0,0,0,0
		c0-1.1,0.9-2,2-1.9c0.2,0,0.3,0,0.5,0.1c0.4,0.1,0.7,0.3,1,0.5c0,0,0,0,0,0c-0.1-0.2-0.1-0.5-0.1-0.8c0-1.1,0.9-1.9,2-1.9
		c0.2,0,0.4,0,0.5,0.1c0.4,0.1,0.6,0.3,1,0.5c0,0,0,0,0,0c0.2-1,0.8-1.8,2.1-1.8c0.2,0,0.4,0,0.6,0.1c0.4,0.1,0.7,0.4,1.1,0.7
		c0,0,0,0,0,0c0.4-0.8,0.9-1.4,1.9-1.4c0.3,0,0.5,0.1,0.8,0.2c0.7-0.7,1.2-1,2.1-1.2v-2v0h-1.6h-0.1V1.9h0.1h1.6v0V0.5h0.1h1.3v1.5
		h0.1h1.6v0v1.2v0.1h-1.6h-0.1v2.1c0.8,0.1,1.5,0.6,2.1,1.2c0.3-0.1,0.5-0.2,0.8-0.2c1,0,1.6,0.6,2,1.4c0,0,0.1-0.1,0.1-0.1
		c0.1-0.1,0.2-0.2,0.4-0.3c0,0,0.1-0.1,0.1-0.1c0.1,0,0.1-0.1,0.2-0.1c0.3-0.1,0.5-0.2,0.9-0.2c1.2,0,1.8,0.8,2,1.9
		c0.5-0.3,0.9-0.6,1.5-0.6c1.1,0,2,0.9,2,1.9c0,0.3-0.1,0.6-0.1,0.8c0.5-0.3,0.9-0.6,1.5-0.6c1.1,0,2,0.9,2,1.9
		c0,0.4-0.1,0.7-0.3,1.1c0.3-0.1,0.6-0.1,0.9-0.1c0.8,0,1.2,0.3,1.7,0.9c0,0,0-0.1,0.1-0.1c0.2-0.3,0.4-0.5,0.7-0.7
		c0.3-0.2,0.6-0.3,1.1-0.3c1.2,0,1.8,0.8,2.1,1.9c0.5-0.3,0.8-0.6,1.5-0.6c1.1,0,2,0.9,2,2c0,0.2-0.1,0.5-0.1,0.8
		c0.5-0.2,0.8-0.4,1.3-0.4c1.1,0,2,0.9,2,1.9c0,0.5-0.2,0.8-0.4,1.2c0.3-0.1,0.7-0.2,1-0.2c1.1,0,2,0.9,2,1.9c0,0.6-0.2,0.9-0.6,1.4
		c1.2,0.1,2.2,0.7,2.2,2c0,0.9-0.5,1.3-1.2,1.8c1.1,0.2,2.1,0.7,2.1,2c0,0.5-0.1,0.8-0.4,1.2c1.3,0.8,1.3,2,0.4,3.2
		c1.2,0.9,0.6,2.4-0.4,3.1c0,0,0,0,0,0c-0.1,0.1-0.1,0.1-0.2,0.1c0,0-0.1,0-0.1,0.1c-0.9,0.6-1.8,0.6-2.9,0c-1.3,1-2.5,1-4,0.6
		c0,0-0.1,0-0.1,0l0.2,0.5c0.4,0.8-0.4,1.7-1.3,1.3l0,0l0,0c0,0,0,0,0,0c0,0,0,0,0,0c-7.8-3.5-16.4-5.5-25.6-5.5
		c-9.2,0-17.8,2-25.6,5.5c0,0,0,0,0,0c-0.5,0.2-1.1,0-1.3-0.5c0,0,0,0,0,0c-0.2-0.5,0-0.9,0.2-1.3c0,0,0,0,0,0
		c-1.6,0.5-2.8,0.5-4.1-0.6c-1.8,1.2-3.7-0.1-4.1-1.5c-0.2-0.6-0.1-1.3,0.5-1.8c0,0,0,0,0,0c-0.2-0.3-0.4-0.6-0.5-0.9
		c-0.3-0.9-0.1-1.7,0.9-2.3c0,0,0,0,0,0c-0.1-0.2-0.2-0.4-0.3-0.5c0,0,0,0,0,0c-0.1-0.2-0.1-0.3-0.1-0.6c0,0,0,0,0,0
		c0-1.3,1-1.8,2.1-2c0,0,0,0,0,0C20.3,26.4,19.9,26.1,19.8,25.5z"/>
	<path class="st4" d="M53.1,46.6c-25.6,0-46.5,20.1-46.5,44.9c0,12.4,5.2,23.6,13.7,31.7c8.4,8.1,20.1,13.2,32.9,13.2
		c25.6,0,46.5-20.2,46.5-44.9C99.7,66.7,78.7,46.6,53.1,46.6z M53.1,134.9c-24.7,0-45-19.6-45-43.4c0-0.8,0-1.7,0.1-2.5
		c0-0.8,0.1-1.6,0.2-2.4C11,64.9,30.1,48.1,53.1,48.1c24.7,0,45,19.5,45,43.4C98.1,115.4,77.9,134.9,53.1,134.9z"/>
	<path class="st4" d="M47.4,36.7c0-0.8-0.7-1.4-1.5-1.4c-0.6,0-1.1,0.3-1.3,0.8c-0.1,0.2-0.1,0.3-0.1,0.5c0,0.8,0.7,1.4,1.5,1.4
		c0.3,0,0.6-0.1,0.8-0.3C47.1,37.6,47.4,37.2,47.4,36.7z M45.5,35.7c0.1-0.1,0.3-0.1,0.4-0.1c0.6,0,1.1,0.5,1.1,1.1
		c0,0.1,0,0.3-0.1,0.4c-0.2,0.4-0.6,0.7-1,0.7c-0.6,0-1.1-0.5-1.1-1.1C44.8,36.3,45.1,35.9,45.5,35.7z"/>
	<path class="st4" d="M33.6,40.3c0-0.8-0.7-1.4-1.5-1.4c-0.6,0-1.1,0.3-1.3,0.8c-0.1,0.2-0.1,0.3-0.1,0.5c0,0.8,0.7,1.4,1.5,1.4
		c0.3,0,0.6-0.1,0.8-0.2C33.3,41.2,33.6,40.8,33.6,40.3z M31.7,39.3c0.1,0,0.3-0.1,0.4-0.1c0.6,0,1.1,0.5,1.1,1.1
		c0,0.3-0.1,0.6-0.3,0.8c-0.2,0.2-0.5,0.3-0.8,0.3c-0.6,0-1.1-0.5-1.1-1.1C31,39.9,31.3,39.5,31.7,39.3z"/>
	<polygon class="st4" points="35,39 35,39.1 39.3,39.5 42.8,37.1 42.8,37.1 38.6,36.7 	"/>
	<path class="st4" d="M48.6,36.4L48.6,36.4l4.5,1.6l4.5-1.6l0,0l-4.5-1.6L48.6,36.4z M53.1,35.1l3.6,1.3l0,0l-3.6,1.3l-3.6-1.3l0,0
		L53.1,35.1z"/>
	<path class="st4" d="M90.5,113.3c4.2-6.6,6.4-13.9,6.4-22c0-15.9-9-29.7-23.2-37.4L63.3,64.3c-3.1-1.1-6.5-1.7-10.3-1.8
		c-3.5,0-7.3,0.6-10.6,1.8L32.3,54.1C18.2,61.7,9.2,75.5,9.2,91.3c0,10.9,4,19.9,11.4,27.9l6.3-6.2c-6-5.5-9.6-14.1-9.3-22
		c0.1-4,0.9-7.7,2.1-11.2L24,84c-0.5,2-0.8,4.1-0.9,6.2c-0.1,12.8,8.9,24.6,21.9,28.1v7.3h8.7v-6.3c1.8,0,3.6-0.2,5.4-0.6l7.6,7.5
		l4.1,4C79,126.6,85.9,120.8,90.5,113.3L90.5,113.3z M78.5,76.6c-1.9-3.1-4.3-5.8-7.2-8l3.8-3.8C81.5,69.4,88,79.7,88,90.9
		c0,6.5-1.5,11.1-4.3,15.7L58.6,81.6l6.5-6.6c3,2.1,4.8,4.4,6.4,7.5L78.5,76.6z M81,112.9c5.2-6.1,8.6-12.2,8.6-21.9
		c0-10.4-5.6-22-14.6-28c0,0,0,0,0,0L69,68.8c3,2.2,5.5,4.4,7.5,7.5L72,80.1l0,0c-1.8-3-4.1-5.2-7.1-7.1c0,0,0,0,0,0L53.1,85l0,0
		L40.8,72.8l0,0c-6.4,4.3-10.1,10.4-10.3,18c-0.2,10.1,6.6,17.1,16.1,20.2v0V90.7h14.5v0v4.2h-8.9v5.4h0H61v0v4.8h-8.8v6.8
		c0,0,0,0,0,0c0.2,0,0.4,0,0.7,0c2.8,0,5.7-0.7,8.4-1.8c3.3-1.4,6.3-3.6,8.6-6l0,0l4.3,4.2c-5.5,6.2-13.5,9.4-22,9.4v6.3v0h-5.6
		v-6.9c-12.9-3.1-22.1-13.9-21.9-26.9c0.1-8.9,5-16.2,12.1-21.4l-6-6l0,0c-9.3,7.4-14.3,16.3-14.8,28c-0.3,10.3,5.2,18.6,8.7,22.1
		l-4,4l0,0c-6.3-7.1-10-15.7-10-25.7c0-13.2,6.6-25,16.7-32.5c1.4-1.1,3-2,4.5-2.9l10,10.1c3.6-1.3,7.3-2,11.1-2
		c3.6,0,7.2,0.7,10.6,2l0.3-0.3l9.8-9.9c0,0,0,0,0,0c12.8,7.1,21.4,20.3,21.4,35.5c0,9.6-3.5,18.8-9.7,26c0,0,0,0,0,0L81,112.9z
		 M32.1,92l13,12.8l0,4.1C36.9,105.9,32.4,99.2,32.1,92z"/>
	<path class="st4" d="M53.1,14.1c-0.8,0-1.5,0.6-1.5,1.4c0,0.8,0.7,1.4,1.5,1.4c0.8,0,1.5-0.6,1.5-1.4
		C54.6,14.8,53.9,14.1,53.1,14.1z M53.1,16.6c-0.6,0-1.1-0.5-1.1-1.1c0-0.6,0.5-1.1,1.1-1.1c0.6,0,1.1,0.5,1.1,1.1
		C54.2,16.1,53.7,16.6,53.1,16.6z"/>
	<path class="st4" d="M53.1,13c0.8,0,1.5-0.6,1.5-1.4c0-0.8-0.7-1.4-1.5-1.4c-0.8,0-1.5,0.6-1.5,1.4S52.3,13,53.1,13z M53.1,10.5
		c0.6,0,1.1,0.5,1.1,1.1c0,0.6-0.5,1.1-1.1,1.1c-0.6,0-1.1-0.5-1.1-1.1C52,11,52.5,10.5,53.1,10.5z"/>
	<path class="st4" d="M73.5,16.3c0.8,0,1.5-0.6,1.5-1.4c0-0.8-0.7-1.4-1.5-1.4c-0.8,0-1.4,0.6-1.5,1.4C72,15.7,72.7,16.3,73.5,16.3z
		 M73.5,13.9c0.6,0,1.1,0.5,1.1,1.1c0,0,0,0,0,0c0,0.3-0.1,0.6-0.3,0.8C74,15.9,73.8,16,73.5,16c-0.6,0-1.1-0.5-1.1-1.1c0,0,0,0,0,0
		C72.4,14.3,72.8,13.9,73.5,13.9z"/>
	<path class="st4" d="M51.7,19.4c0,0.8,0.7,1.4,1.5,1.4c0.8,0,1.5-0.6,1.5-1.4c0-0.8-0.7-1.4-1.5-1.4C52.3,18,51.7,18.7,51.7,19.4z
		 M54.2,19.4c0,0.6-0.5,1.1-1.1,1.1c-0.6,0-1.1-0.5-1.1-1.1c0-0.6,0.5-1.1,1.1-1.1C53.7,18.3,54.2,18.8,54.2,19.4z"/>
	<path class="st4" d="M70.2,18.6c0,0.8,0.7,1.4,1.5,1.4c0.8,0,1.5-0.6,1.5-1.4c0-0.8-0.7-1.4-1.5-1.4C70.9,17.2,70.2,17.9,70.2,18.6
		z M71.7,19.7c-0.6,0-1.1-0.5-1.1-1.1c0,0,0,0,0,0c0-0.6,0.5-1.1,1.1-1.1c0.3,0,0.6,0.1,0.8,0.3c0.2,0.2,0.3,0.5,0.3,0.8
		c0,0,0,0,0,0C72.8,19.2,72.3,19.7,71.7,19.7z"/>
	<path class="st4" d="M49.6,9.6C50.4,9.6,51,9,51,8.3c0-0.8-0.7-1.4-1.5-1.4c-0.8,0-1.5,0.6-1.5,1.4S48.8,9.6,49.6,9.6z M49.6,7.2
		c0.6,0,1.1,0.5,1.1,1.1c0,0.1,0,0.3-0.1,0.4c0,0.1-0.1,0.1-0.1,0.2c0,0-0.1,0.1-0.1,0.1c-0.1,0-0.1,0.1-0.2,0.1
		c-0.1,0-0.1,0.1-0.2,0.1c-0.1,0.1-0.3,0.1-0.4,0.1c-0.6,0-1.1-0.5-1.1-1.1C48.4,7.6,49,7.2,49.6,7.2z"/>
	<path class="st4" d="M67.3,13.7c0.8,0,1.5-0.6,1.5-1.4S68.1,11,67.3,11c-0.8,0-1.4,0.6-1.5,1.4C65.8,13.1,66.5,13.7,67.3,13.7z
		 M67.3,11.2c0.6,0,1.1,0.5,1.1,1.1c0,0,0,0,0,0c0,0.4-0.3,0.8-0.7,1c-0.1,0.1-0.3,0.1-0.4,0.1c-0.6,0-1.1-0.5-1.1-1.1c0,0,0,0,0,0
		C66.2,11.7,66.7,11.2,67.3,11.2z"/>
	<path class="st4" d="M69.9,16.6c0.8,0,1.5-0.6,1.5-1.4s-0.7-1.4-1.5-1.4l0,0c-0.8,0-1.5,0.6-1.5,1.4C68.5,16,69.1,16.6,69.9,16.6z
		 M69.9,14.2c0.6,0,1.1,0.5,1.1,1.1c0,0,0,0,0,0c0,0.1,0,0.3-0.1,0.4c-0.2,0.4-0.6,0.7-1,0.7c-0.6,0-1.1-0.5-1.1-1.1c0,0,0,0,0,0
		C68.8,14.6,69.3,14.2,69.9,14.2z"/>
	<path class="st4" d="M63.9,11.5c0.8,0,1.5-0.6,1.5-1.4c0-0.8-0.7-1.4-1.5-1.4c-0.8,0-1.4,0.6-1.5,1.4
		C62.4,10.9,63.1,11.5,63.9,11.5z M63.9,9c0.6,0,1.1,0.5,1.1,1.1c0,0,0,0,0,0c0,0.1,0,0.3-0.1,0.4c-0.2,0.4-0.6,0.7-1,0.7
		c-0.6,0-1.1-0.5-1.1-1.1c0,0,0,0,0,0C62.8,9.5,63.2,9,63.9,9z"/>
	<path class="st4" d="M60.3,10.2c0.8,0,1.5-0.6,1.5-1.4c0-0.8-0.7-1.4-1.5-1.4c-0.8,0-1.4,0.6-1.5,1.4C58.8,9.6,59.5,10.2,60.3,10.2
		z M60.3,7.8c0.6,0,1.1,0.5,1.1,1.1c0,0,0,0,0,0c0,0.1,0,0.3-0.1,0.4c-0.2,0.4-0.6,0.7-1,0.7c-0.6,0-1.1-0.5-1.1-1.1c0,0,0,0,0,0
		C59.2,8.3,59.7,7.8,60.3,7.8z"/>
	<path class="st4" d="M56.7,9.6c0.8,0,1.5-0.6,1.5-1.4s-0.7-1.4-1.5-1.4c-0.8,0-1.5,0.6-1.4,1.4c0,0,0,0,0,0
		C55.3,9,55.9,9.6,56.7,9.6z M57.8,8.2C57.8,8.2,57.8,8.2,57.8,8.2c0,0.2,0,0.3-0.1,0.4c-0.2,0.4-0.6,0.7-1,0.7
		c-0.6,0-1.1-0.5-1.1-1.1c0,0,0,0,0,0c0-0.6,0.5-1.1,1.1-1.1C57.3,7.1,57.8,7.6,57.8,8.2z"/>
	<path class="st4" d="M29.2,17.7c0.8,0,1.5-0.6,1.5-1.4c0-0.8-0.7-1.4-1.5-1.4c-0.8,0-1.5,0.6-1.5,1.4C27.8,17,28.4,17.7,29.2,17.7z
		 M28.1,16.3c0-0.6,0.5-1.1,1.1-1.1s1.1,0.5,1.1,1.1c0,0,0,0,0,0c0,0.6-0.5,1.1-1.1,1.1C28.6,17.4,28.1,16.9,28.1,16.3
		C28.1,16.3,28.1,16.3,28.1,16.3z"/>
	<path class="st4" d="M24.8,24.9c-0.7,1.7-1.1,3.7-1.3,6.1c0.7,0.2,1,0.6,1.3,1.1c0.1,0.1,0.1,0.3,0.2,0.5h0c0.7,1.7-0.1,2.4-1.6,3
		c0,0,0,0,0,0c0.9,0.3,1.6,0.5,2.5,0c0.9-0.5,1.3-1.4,1.2-2.4c0,0,0,0,0,0c-0.2-0.2-0.4-0.5-0.5-0.9c0,0,0,0,0,0
		c-0.2-0.8,0.2-1.7,0.9-2.1c0.2-0.1,0.4-0.2,0.6-0.2c0.7-0.2,1.4,0,1.9,0.4c0.3,0.2,0.5,0.6,0.6,1c0,0.2,0.1,0.3,0.1,0.5
		c0.1,0.2,0.3,0.3,0.5,0.5c0,0,0,0,0.1,0c0.5,0.4,1.2,0.6,1.9,0.5c0.8-0.1,1.4-0.7,1.8-1.3c0.2-0.4,0.3-1,0.2-1.5
		c-1.8,0.4-2.9,0.2-3.4-1.5c-0.2-0.9-0.1-1.6,0.4-2.1c0.2-0.2,0.4-0.3,0.8-0.5c0,0,0,0,0,0c-0.1-0.7,0-0.9,0.3-1.5
		c-1-0.3-1.7-0.9-1.7-1.9c0-0.6,0.2-1.1,0.6-1.4c0.4-0.3,0.9-0.5,1.4-0.6c0,0,0.1,0,0.1,0c-0.7-0.5-1.2-0.9-1.2-1.8
		c0-0.1,0-0.1-0.5-0.3C28.1,20.2,26,22.1,24.8,24.9z M31.2,31.8c0-0.1,0-0.3-0.1-0.4c-0.3-1.1-1.4-1.8-2.5-1.8c-0.2,0-0.4,0-0.5,0.1
		c-1.3,0.3-2.1,1.6-1.8,2.9c0.1,0.4,0.3,0.7,0.5,1c0,0.5-0.2,1.1-0.6,1.5c-0.1,0.1-0.3,0.2-0.5,0.3c-0.3,0.2-0.7,0.3-1.1,0.2
		c1.2-0.9,1.2-2,0.8-3.1c-0.2-0.6-0.7-1.3-1.3-1.6c-0.1,0-0.1-0.1-0.2-0.1c0,0,0,0,0,0c0-0.1,0-0.2,0-0.4c0.2-1.9,0.5-3.6,1.1-4.9h0
		c0.2-0.2,0.5-0.4,0.8-0.6c0.5-0.3,1-0.6,1.6-0.8c1.1-0.4,2.5-0.8,3.7-1c0,0,0,0,0,0.1c0.2,0.8,0.7,1.4,1.4,1.7
		c-0.1,0.3-0.2,0.6-0.1,1c-1.3,0.7-1.5,1.9-1.2,3c0.3,1,0.8,1.9,2,2.1c0.4,0.1,0.8,0,1.3-0.1c0,0,0,0,0,0c-0.1,1.1-1,1.8-1.9,1.8
		C32.2,32.5,31.6,32.3,31.2,31.8z M31.1,22.5v0.2c-1.2,0.2-2.6,0.6-3.7,1c-0.7,0.3-1.4,0.6-2.1,1.1c1.2-2.5,3.2-4.3,6.7-6v0
		c0,0.6,0.3,1.1,0.6,1.5C31.8,20.6,31.1,21.5,31.1,22.5z"/>
	<path class="st4" d="M45.9,10.2c0.8,0,1.5-0.6,1.5-1.4s-0.7-1.4-1.5-1.4c-0.8,0-1.5,0.6-1.5,1.4S45.1,10.2,45.9,10.2z M44.8,8.9
		c0-0.1,0-0.1,0-0.2c0-0.1,0-0.2,0-0.2c0,0,0-0.1,0.1-0.1c0.1-0.1,0.1-0.2,0.2-0.2c0.2-0.2,0.5-0.3,0.8-0.3c0.6,0,1.1,0.5,1.1,1.1
		c0,0,0,0,0,0c0,0.6-0.5,1.1-1.1,1.1C45.3,9.9,44.8,9.4,44.8,8.9C44.8,8.9,44.8,8.9,44.8,8.9z"/>
	<path class="st4" d="M23.3,22.9c0.8,0,1.5-0.6,1.5-1.4c0-0.8-0.7-1.4-1.5-1.4c-0.8,0-1.5,0.6-1.5,1.4
		C21.9,22.3,22.5,22.9,23.3,22.9z M23.3,20.5c0.6,0,1.1,0.5,1.1,1.1c0,0.6-0.5,1.1-1.1,1.1c-0.6,0-1.1-0.5-1.1-1.1
		C22.2,21,22.7,20.5,23.3,20.5z"/>
	<path class="st4" d="M21.7,26.3c0.8,0,1.5-0.6,1.5-1.4c0-0.8-0.7-1.4-1.5-1.4c-0.8,0-1.5,0.6-1.5,1.4
		C20.2,25.7,20.9,26.3,21.7,26.3z M21.7,23.9c0.6,0,1.1,0.5,1.1,1.1c0,0.6-0.5,1.1-1.1,1.1c-0.6,0-1.1-0.5-1.1-1.1
		C20.6,24.4,21,23.9,21.7,23.9z"/>
	<path class="st4" d="M26,19.9L26,19.9c0.8,0,1.5-0.6,1.5-1.4c0-0.8-0.7-1.4-1.5-1.4c-0.8,0-1.5,0.6-1.5,1.4
		C24.5,19.3,25.2,19.9,26,19.9z M24.9,18.6c0-0.6,0.5-1.1,1.1-1.1s1.1,0.5,1.1,1.1c0,0,0,0,0,0c0,0.6-0.5,1.1-1.1,1.1
		C25.4,19.6,24.9,19.1,24.9,18.6C24.9,18.6,24.9,18.6,24.9,18.6z"/>
	<path class="st4" d="M42.4,11.5c0.8,0,1.5-0.6,1.5-1.4s-0.7-1.4-1.5-1.4c-0.8,0-1.5,0.6-1.5,1.4S41.6,11.5,42.4,11.5z M41.3,10.1
		c0-0.6,0.5-1.1,1.1-1.1c0.6,0,1.1,0.5,1.1,1.1c0,0,0,0,0,0c0,0.6-0.5,1.1-1.1,1.1C41.7,11.2,41.3,10.7,41.3,10.1
		C41.3,10.1,41.3,10.1,41.3,10.1z"/>
	<path class="st4" d="M32.8,16.4c0.8,0,1.4-0.6,1.5-1.4c0-0.8-0.7-1.4-1.5-1.4c-0.8,0-1.5,0.6-1.5,1.4C31.3,15.7,32,16.4,32.8,16.4z
		 M31.7,15c0-0.6,0.5-1.1,1.1-1.1c0.6,0,1.1,0.5,1.1,1.1c0,0,0,0,0,0c0,0.6-0.5,1.1-1.1,1.1C32.1,16,31.7,15.6,31.7,15
		C31.7,15,31.7,15,31.7,15z"/>
	<path class="st4" d="M38.9,13.7c0.8,0,1.5-0.6,1.5-1.4S39.7,11,38.9,11c-0.8,0-1.5,0.6-1.5,1.4S38.2,13.7,38.9,13.7z M37.8,12.3
		c0-0.1,0-0.1,0-0.2c0-0.1,0-0.2,0-0.2c0,0,0-0.1,0.1-0.1c0.1-0.1,0.1-0.2,0.2-0.2c0.2-0.2,0.5-0.3,0.8-0.3c0.6,0,1.1,0.5,1.1,1.1
		c0,0,0,0,0,0c0,0.6-0.5,1.1-1.1,1.1C38.3,13.4,37.8,12.9,37.8,12.3C37.8,12.3,37.8,12.3,37.8,12.3z"/>
	<path class="st4" d="M33.1,18.6c0,0.8,0.7,1.4,1.5,1.4c0.8,0,1.4-0.6,1.5-1.4c0-0.8-0.7-1.4-1.5-1.4C33.8,17.3,33.1,17.9,33.1,18.6
		z M34.6,19.7c-0.6,0-1.1-0.5-1.1-1.1c0,0,0,0,0,0c0,0,0,0,0,0c0-0.6,0.5-1.1,1.1-1.1c0.6,0,1.1,0.5,1.1,1.1l0,0c0,0,0,0,0,0
		C35.7,19.2,35.2,19.7,34.6,19.7z"/>
	<path class="st4" d="M36.3,16.6L36.3,16.6c0.8,0,1.5-0.6,1.5-1.4c0-0.8-0.7-1.4-1.5-1.4c-0.8,0-1.5,0.6-1.5,1.4
		C34.9,16,35.5,16.6,36.3,16.6z M35.2,15.2c0-0.6,0.5-1.1,1.1-1.1s1.1,0.5,1.1,1.1c0,0,0,0,0,0c0,0.6-0.5,1.1-1.1,1.1
		S35.2,15.8,35.2,15.2C35.2,15.2,35.2,15.2,35.2,15.2z"/>
	<path class="st4" d="M77.1,33.9c-0.3-0.1-0.6-0.2-0.9-0.4l-0.1,0.1v0c-0.6,0.4-1.4,0.7-2.2,0.8l-0.1,0.4c1.5,0.5,3,1.1,4.5,1.7
		l0.3-0.4c-0.6-0.6-0.9-1.3-1.1-2.2C77.4,33.9,77.2,33.9,77.1,33.9z M74.8,34.6C74.8,34.6,74.8,34.6,74.8,34.6
		C74.8,34.6,74.8,34.6,74.8,34.6c0.5-0.1,1-0.4,1.4-0.6c0.2,0.1,0.5,0.3,0.8,0.3l0.1,0l0,0c0.1,0.5,0.3,0.9,0.6,1.3c0,0,0,0,0,0
		C76.7,35.3,75.8,35,74.8,34.6z"/>
	<path class="st4" d="M55.4,25c0-1.2-1-2.2-2.3-2.2c-1.3,0-2.3,1-2.3,2.2c0,0,0,0,0,0c0,1.3,1.1,2.3,2.3,2.2
		C54.4,27.2,55.5,26.2,55.4,25z M51.1,25C51.1,25,51.1,25,51.1,25C51.1,25,51.1,25,51.1,25C51.1,25,51.1,25,51.1,25
		c0-0.6,0.2-1.1,0.6-1.4c0.4-0.4,0.9-0.6,1.4-0.6c0,0,0,0,0,0c0.5,0,1,0.2,1.4,0.6c0.4,0.3,0.6,0.8,0.6,1.4c0,1.1-0.9,1.9-2,1.9
		c-0.6,0-1-0.2-1.4-0.6C51.3,26,51.1,25.5,51.1,25z"/>
	<path class="st4" d="M37,30.1l-0.4,0.1c0.2,1.2-0.4,2.5-1.3,3.2l0.2,0.4c1.4-0.4,2.9-0.8,4.4-1.1v-0.4C38.6,32.1,37.5,31.2,37,30.1
		z M36.2,33.1C36.2,33.1,36.2,33.1,36.2,33.1C36.2,33.1,36.2,33.1,36.2,33.1c0.5-0.6,0.8-1.3,0.9-2c0,0,0,0,0,0c0.3,0.4,0.6,0.7,1,1
		c0.2,0.2,0.5,0.3,0.8,0.4c0,0,0,0,0,0c0,0,0,0,0,0h0C37.9,32.7,37,32.9,36.2,33.1z"/>
	<path class="st4" d="M35.1,22.5c0-0.8-0.7-1.4-1.5-1.4c-0.8,0-1.4,0.6-1.4,1.4c0,0,0,0,0,0c0,0.8,0.6,1.4,1.4,1.4
		C34.4,23.9,35.1,23.3,35.1,22.5z M33.7,23.6c-0.6,0-1.1-0.5-1.1-1.1c0,0,0,0,0,0c0,0,0,0,0,0c0-0.6,0.5-1.1,1.1-1.1
		s1.1,0.5,1.1,1.1v0c0,0,0,0,0,0C34.8,23.1,34.3,23.6,33.7,23.6z"/>
	<path class="st4" d="M45.5,29.4c-0.3,0.1-0.5,0.1-0.8,0.1h-0.3c-0.3,0.9-0.9,1.7-1.8,2.2l0.2,0.4v0c1.6-0.2,3.2-0.5,4.9-0.6l0-0.4
		C46.8,30.8,46.1,30.2,45.5,29.4z M43.7,31.6C43.7,31.6,43.7,31.6,43.7,31.6c0.5-0.5,0.9-1,1.1-1.6v0c0.2,0,0.3,0,0.5-0.1
		c0,0,0,0,0,0c0,0.1,0.1,0.1,0.2,0.2c0.3,0.4,0.7,0.7,1.1,1c0.1,0,0.1,0.1,0.2,0.1c0,0,0,0,0,0L43.7,31.6z"/>
	<path class="st4" d="M53.4,28.2h-0.5c-0.2,1.2-1,2.3-2.1,2.8l0.1,0.4c0.8,0,1.5,0,2.3,0s1.5,0,2.3,0l0.1-0.4
		C54.4,30.5,53.5,29.4,53.4,28.2z M53.1,30.9c-0.5,0-0.9,0-1.4,0c0,0,0,0,0,0c0.7-0.5,1.1-1.1,1.4-1.8v0c0.1,0.4,0.3,0.7,0.6,1
		c0.2,0.3,0.5,0.6,0.8,0.8c0,0,0,0,0,0C54.1,30.9,53.6,30.9,53.1,30.9z"/>
	<path class="st4" d="M36.6,29.3c1.2-0.3,2-1.5,1.7-2.7c-0.3-1.2-1.6-1.9-2.8-1.6c0,0-0.1,0-0.1,0c-1.2,0.3-1.9,1.5-1.6,2.7
		C34.1,28.9,35.3,29.6,36.6,29.3z M35.5,25.2c1.1-0.3,2.2,0.3,2.5,1.4c0,0.1,0.1,0.3,0.1,0.4c0,0,0,0,0,0c0,0.9-0.6,1.7-1.5,2
		c-1.1,0.3-2.1-0.3-2.5-1.4c0-0.1-0.1-0.3-0.1-0.4c0,0,0,0,0,0C33.9,26.3,34.5,25.5,35.5,25.2z"/>
	<path class="st4" d="M20.7,30.2c0.8,0,1.5-0.6,1.4-1.4c0,0,0,0,0,0c0-0.8-0.6-1.4-1.4-1.4c-0.8,0-1.5,0.6-1.5,1.4
		C19.3,29.6,19.9,30.2,20.7,30.2z M20.7,27.7c0.6,0,1.1,0.5,1.1,1.1c0,0.6-0.5,1.1-1.1,1.1c-0.6,0-1.1-0.5-1.1-1.1
		C19.6,28.2,20.1,27.7,20.7,27.7z"/>
	<path class="st4" d="M77,17.7c0.8,0,1.5-0.6,1.5-1.4c0-0.8-0.7-1.4-1.5-1.4c-0.8,0-1.5,0.6-1.5,1.4C75.5,17,76.2,17.7,77,17.7z
		 M77,15.2c0.6,0,1.1,0.5,1.1,1.1c0,0,0,0,0,0c0,0.3-0.1,0.6-0.3,0.8c-0.2,0.2-0.5,0.3-0.8,0.3c-0.6,0-1.1-0.5-1.1-1.1c0,0,0,0,0,0
		C75.9,15.7,76.4,15.2,77,15.2z"/>
	<path class="st4" d="M23.2,32.7c-0.6-1.1-2-1.5-3.1-0.9c0,0-0.1,0-0.1,0.1c-1.1,0.6-1.4,1.9-0.8,3c0.6,1.1,2,1.5,3.1,0.9
		c0,0,0.1,0,0.1-0.1C23.4,35.1,23.8,33.8,23.2,32.7z M20.2,32.1c1-0.5,2.2-0.2,2.7,0.8c0.2,0.3,0.2,0.6,0.2,0.9c0,0.1,0,0.1,0,0.2
		c-0.1,0.6-0.4,1.2-1,1.5c-0.6,0.3-1.3,0.3-1.9,0c0,0,0,0,0,0c-0.1-0.1-0.2-0.1-0.3-0.2c-0.1-0.1-0.2-0.2-0.3-0.2c0,0,0,0,0,0
		c0,0-0.1-0.1-0.1-0.1c-0.1-0.1-0.1-0.1-0.2-0.2c-0.1-0.2-0.2-0.5-0.2-0.7c0-0.1,0-0.1,0-0.2c0,0,0-0.1,0-0.1
		C19.2,33,19.6,32.5,20.2,32.1z"/>
	<path class="st4" d="M30,33.4c-0.4,0.3-0.8,0.5-1.3,0.5c-0.2,0.9-0.5,1.5-1.1,2.2l0.3,0.4v0c1.5-0.6,3-1.2,4.5-1.7l-0.1-0.4
		C31.5,34.3,30.8,34,30,33.4z M28.6,35.7C28.6,35.7,28.6,35.7,28.6,35.7C28.6,35.7,28.6,35.7,28.6,35.7c0.3-0.4,0.4-0.9,0.6-1.4
		c0,0,0,0,0,0l0.1,0c0.2-0.1,0.5-0.2,0.7-0.3c0.4,0.3,0.9,0.5,1.4,0.6c0,0,0,0,0,0C30.5,35,29.5,35.3,28.6,35.7z"/>
	<path class="st4" d="M74.1,22.5c0-0.8-0.7-1.4-1.5-1.4c-0.8,0-1.5,0.6-1.5,1.4c0,0.8,0.7,1.4,1.5,1.4
		C73.4,23.9,74.1,23.3,74.1,22.5z M72.6,23.6c-0.6,0-1.1-0.5-1.1-1.1c0,0,0,0,0,0c0-0.6,0.5-1.1,1.1-1.1c0,0,0,0,0,0c0,0,0,0,0,0
		c0.6,0,1.1,0.5,1.1,1.1c0,0,0,0,0,0C73.7,23.1,73.2,23.6,72.6,23.6z"/>
	<path class="st4" d="M86.2,31.9c-1.1-0.6-2.5-0.2-3.2,0.9c0,0,0,0.1-0.1,0.1c-0.5,1.1-0.1,2.4,1,2.9c1.1,0.6,2.5,0.2,3.2-0.9
		C87.7,33.8,87.3,32.4,86.2,31.9z M83.3,32.9c0.4-0.6,1-0.9,1.6-1c0.4,0,0.8,0,1.1,0.2c0,0,0.1,0,0.1,0.1c0.9,0.5,1.2,1.7,0.6,2.5
		c-0.4,0.6-1,0.9-1.6,1c-0.4,0-0.8,0-1.1-0.2C83.1,35,82.8,33.8,83.3,32.9z"/>
	<path class="st4" d="M83.1,24.9c0,0.8,0.7,1.4,1.5,1.4s1.5-0.6,1.5-1.4c0-0.8-0.7-1.4-1.5-1.4S83.1,24.2,83.1,24.9z M84.6,23.9
		c0.6,0,1.1,0.5,1.1,1.1c0,0,0,0,0,0c0,0.3-0.1,0.6-0.3,0.8c-0.2,0.2-0.5,0.3-0.8,0.3c-0.6,0-1.1-0.5-1.1-1.1c0,0,0,0,0,0
		C83.5,24.4,83.9,23.9,84.6,23.9z"/>
	<path class="st4" d="M61.8,29.6h-0.3c-0.3,0-0.5-0.1-0.8-0.1c-0.5,0.8-1.4,1.4-2.3,1.7l0,0.4v0c1.7,0.1,3.3,0.3,4.9,0.6l0.2-0.4
		C62.7,31.2,62.1,30.5,61.8,29.6z M59.8,31.2c-0.1,0-0.1,0-0.2,0c-0.1,0-0.1,0-0.2,0c0,0,0,0,0,0c0,0,0,0,0,0
		c0.6-0.3,1.1-0.7,1.5-1.2c0.2,0,0.3,0.1,0.5,0.1c0,0,0,0,0,0l0,0l0,0.1c0,0.1,0.1,0.2,0.2,0.3c0,0.1,0.1,0.2,0.1,0.2
		c0.1,0.1,0.2,0.3,0.3,0.4c0.1,0.2,0.3,0.3,0.4,0.5c0,0,0,0,0.1,0.1c0,0,0,0,0,0c0,0,0,0,0,0c-0.1,0-0.1,0-0.2,0c-0.1,0-0.1,0-0.2,0
		C61.4,31.4,60.6,31.3,59.8,31.2z"/>
	<path class="st4" d="M80.2,19.9c0.8,0,1.5-0.6,1.5-1.4s-0.7-1.4-1.5-1.4l0,0c-0.8,0-1.4,0.6-1.5,1.4C78.8,19.3,79.4,19.9,80.2,19.9
		z M80.2,17.5c0.6,0,1.1,0.5,1.1,1.1c0,0,0,0,0,0c0,0.3-0.1,0.6-0.3,0.8c-0.2,0.2-0.5,0.3-0.8,0.3c-0.6,0-1.1-0.5-1.1-1.1
		c0,0,0,0,0,0C79.1,18,79.6,17.5,80.2,17.5z"/>
	<path class="st4" d="M82.9,22.9c0.8,0,1.5-0.6,1.5-1.4c0-0.8-0.7-1.4-1.5-1.4c-0.8,0-1.5,0.6-1.5,1.4
		C81.4,22.3,82.1,22.9,82.9,22.9z M84,21.6C84,21.6,84,21.6,84,21.6c0,0.5-0.3,0.8-0.7,1c-0.1,0-0.3,0.1-0.4,0.1
		c-0.6,0-1.1-0.5-1.1-1.1c0,0,0,0,0,0c0-0.6,0.5-1.1,1.1-1.1C83.5,20.5,84,21,84,21.6z"/>
	<path class="st4" d="M84,28.8c0,0.8,0.7,1.4,1.5,1.4c0.8,0,1.5-0.6,1.5-1.4c0-0.8-0.7-1.4-1.5-1.4C84.7,27.4,84,28,84,28.8z
		 M86.6,28.8c0,0.6-0.5,1.1-1.1,1.1c0,0,0,0,0,0c-0.6,0-1.1-0.5-1.1-1.1c0-0.6,0.5-1.1,1.1-1.1c0,0,0,0,0,0
		C86.1,27.7,86.6,28.2,86.6,28.8z"/>
	<path class="st4" d="M69.7,30.2l-0.4-0.1c-0.5,1.1-1.6,2-2.8,2.2v0.4c1.5,0.3,2.9,0.7,4.4,1.1l0.2-0.4C70,32.7,69.5,31.4,69.7,30.2
		z M70.1,33.1l-2.7-0.7c0,0,0,0,0,0c0.7-0.3,1.3-0.8,1.8-1.4c0,0,0,0,0,0c0,0,0,0,0,0C69.3,31.8,69.6,32.6,70.1,33.1z"/>
	<path class="st4" d="M68,26.5C68,26.5,68,26.6,68,26.5c-0.3,1.2,0.5,2.5,1.7,2.7c1.2,0.3,2.5-0.4,2.8-1.6c0.3-1.2-0.4-2.4-1.7-2.7
		C69.6,24.6,68.3,25.3,68,26.5z M72.2,27.6c-0.3,1-1.4,1.7-2.5,1.4c-0.9-0.2-1.6-1.1-1.5-2c0-0.1,0-0.3,0.1-0.4
		c0.3-1,1.4-1.7,2.5-1.4c0,0,0.1,0,0.1,0c0.9,0.2,1.5,1.1,1.4,1.9C72.3,27.3,72.3,27.4,72.2,27.6z"/>
	<path class="st4" d="M52.7,69.5c-2.1-0.1-4.3,0.4-6.4,0.9l0,0l6.7,6.6l6.3-6.4l0,0C57.2,69.9,55,69.5,52.7,69.5z M53,74.8l-3.6-3.6
		h0c1.2-0.2,2.5-0.3,3.2-0.2c1.3,0,2.6,0.1,3.8,0.4L53,74.8z"/>
</g>
</svg>
