<?xml version="1.0" encoding="utf-8"?>
<!-- Generator: Adobe Illustrator 26.2.1, SVG Export Plug-In . SVG Version: 6.00 Build 0)  -->
<svg version="1.1"
	 id="Capa_1" inkscape:version="0.48.2 r9819" xmlns:cc="http://creativecommons.org/ns#" xmlns:dc="http://purl.org/dc/elements/1.1/" xmlns:inkscape="http://www.inkscape.org/namespaces/inkscape" xmlns:rdf="http://www.w3.org/1999/02/22-rdf-syntax-ns#" xmlns:sodipodi="http://sodipodi.sourceforge.net/DTD/sodipodi-0.dtd" xmlns:svg="http://www.w3.org/2000/svg"
	 xmlns="http://www.w3.org/2000/svg" xmlns:xlink="http://www.w3.org/1999/xlink" x="0px" y="0px" viewBox="0 0 178.7 146.7"
	 style="enable-background:new 0 0 178.7 146.7;" xml:space="preserve">
<style type="text/css">
	.st0{fill:none;}
	.st1{fill:#DE9500;}
	.st2{fill:#FFFFFF;}
	.st3{fill:#00954C;}
	.st4{fill:#D7013E;}
</style>
<sodipodi:namedview  bordercolor="#666666" borderopacity="1" fit-margin-bottom="0" fit-margin-left="0" fit-margin-right="0" fit-margin-top="0" gridtolerance="10" guidetolerance="10" id="namedview49" inkscape:current-layer="Capa_1" inkscape:cx="89.330811" inkscape:cy="73.335701" inkscape:pageopacity="0" inkscape:pageshadow="2" inkscape:window-height="962" inkscape:window-maximized="1" inkscape:window-width="1280" inkscape:window-x="-8" inkscape:window-y="-8" inkscape:zoom="5.0657455" objecttolerance="10" pagecolor="#ffffff" showgrid="false">
	</sodipodi:namedview>
<g>
	<path class="st0" d="M109.9,43.1c0-0.1,0-0.2,0-0.4c0.7-0.1,1.2-0.6,1.2-1.3c0-0.7-0.6-1.3-1.3-1.3c0,0,0,0,0,0
		c0.7,0,1.3,0.6,1.3,1.3c0,0.7-0.5,1.2-1.2,1.3C109.9,42.8,109.9,42.9,109.9,43.1c0,1.7,1.3,3,3,3c0,0,0,0,0,0
		C111.3,46.1,109.9,44.7,109.9,43.1z"/>
	<path class="st0" d="M108.1,35.3c0,0.1,0,0.1,0,0.2c0,2.1-1.7,3.8-3.8,3.8c0,0,0,0,0,0c2.1,0,3.9-1.7,3.9-3.8
		C108.2,35.5,108.2,35.4,108.1,35.3c2.3-1.9,3.9-4,4.8-6.3c3.3,2.8,5.5,6.3,6.1,10c-0.3-0.1-0.7-0.2-1.1-0.2c0,0,0,0,0,0
		c0.4,0,0.7,0.1,1,0.2c0.2,0,0.3,0.1,0.5,0.2c2.6-2.1,4.1-4.7,4.1-7.4c0-2.5-1.1-5-3.2-7c-1.9-1.8-4.3-2.9-7.1-3.4
		c0.3,1,0.5,2.1,0.5,3.2c0,1.5-0.3,3-0.8,4.4C112,31.3,110.3,33.5,108.1,35.3z"/>
	<path class="st0" d="M103.6,39.9c0-0.2,0-0.4,0.1-0.6c0,0,0,0,0,0C103.6,39.5,103.6,39.7,103.6,39.9c0,1.7,1.3,3,3,3c0,0,0,0,0,0
		C105,42.9,103.6,41.6,103.6,39.9z"/>
	<path class="st0" d="M87.3,21.3V30c-1.1,0.7-1.9,1.9-1.9,3.3c0,1.9,1.4,3.5,3.3,3.8c0,0.2-0.1,0.4-0.1,0.6
		c-0.3,0.8-0.8,1.4-1.5,1.8c-0.4,0.2-0.7,0.3-1.1,0.3c0.4,0,0.8-0.1,1.2-0.3c0.7-0.4,1.3-1,1.5-1.8c0.1-0.2,0.1-0.4,0.1-0.6
		c-1.9-0.3-3.3-1.9-3.3-3.8c0-1.4,0.8-2.6,1.9-3.3v-18C77.2,12.6,69,18.1,69,24.6c0,0.6,0.1,1.2,0.2,1.9
		C74.1,23.5,80.4,21.6,87.3,21.3z"/>
	<path class="st0" d="M91.5,39.4c0.4,0.2,0.8,0.3,1.2,0.3C92.3,39.7,91.9,39.6,91.5,39.4c-0.7-0.4-1.2-1-1.5-1.8
		c-0.1-0.2-0.1-0.4-0.1-0.6c1.9-0.3,3.3-1.9,3.3-3.8c0-1.4-0.8-2.6-1.9-3.3v-8.6c7,0.3,13.3,2.2,18.1,5.1c0.1-0.6,0.2-1.2,0.2-1.9
		c0-6.5-8.2-12-18.4-12.7v18c1.1,0.7,1.9,1.9,1.9,3.3c0,1.9-1.4,3.5-3.3,3.8c0,0.2,0.1,0.4,0.1,0.6C90.3,38.5,90.8,39.1,91.5,39.4z"
		/>
	<path class="st0" d="M104.3,31.7c0.5,0,1.1,0.1,1.5,0.3c0,0,0,0,0,0C105.4,31.8,104.9,31.7,104.3,31.7
		C104.3,31.7,104.3,31.7,104.3,31.7z"/>
	<path class="st0" d="M97,38.6c0-0.1-0.1-0.2-0.1-0.3c0.6-0.3,0.9-0.9,0.7-1.6c-0.2-0.5-0.6-0.8-1.2-0.9c0.5,0,0.9,0.4,1.1,0.9
		c0.2,0.6-0.1,1.3-0.7,1.6C96.9,38.4,96.9,38.5,97,38.6c0.2,0.8,0.8,1.4,1.5,1.8c0.4,0.2,0.8,0.3,1.2,0.3c-0.4,0-0.8-0.1-1.1-0.3
		C97.8,40,97.3,39.4,97,38.6z"/>
	<path class="st0" d="M67.5,41.4c0,0.7,0.5,1.2,1.2,1.3c0,0.1,0,0.2,0,0.4c0,1.7-1.4,3-3,3c0,0,0,0,0,0c1.7,0,3-1.4,3-3
		c0-0.1,0-0.2,0-0.4C68.1,42.6,67.6,42.1,67.5,41.4c0-0.7,0.6-1.3,1.3-1.3c0,0,0,0,0,0C68.1,40.1,67.5,40.7,67.5,41.4z"/>
	<path class="st0" d="M81,36.7c-0.2,0.6,0.1,1.3,0.7,1.6c0,0.1-0.1,0.2-0.1,0.3c-0.3,0.8-0.8,1.4-1.5,1.8c-0.4,0.2-0.7,0.3-1.1,0.3
		c0.4,0,0.8-0.1,1.2-0.3c0.7-0.4,1.3-1,1.5-1.8c0-0.1,0.1-0.2,0.1-0.3C81.2,38,80.9,37.4,81,36.7c0.2-0.5,0.7-0.8,1.2-0.9
		C81.7,35.9,81.2,36.2,81,36.7z"/>
	<path class="st0" d="M72,43C72,43,72,43,72,43c1.7,0,3.1-1.4,3.1-3c0-0.2,0-0.4-0.1-0.6c0,0,0,0,0,0c0,0.2,0.1,0.4,0.1,0.6
		C75,41.6,73.7,42.9,72,43z"/>
	<path class="st0" d="M72.8,32C72.8,32,72.8,32,72.8,32c0.5-0.2,1-0.3,1.5-0.3c0,0,0,0,0,0C73.8,31.7,73.3,31.8,72.8,32z"/>
	<path class="st0" d="M59.2,39.1c0.2-0.1,0.3-0.1,0.5-0.2c0.3-0.1,0.7-0.2,1-0.2c0,0,0,0,0,0c-0.4,0-0.7,0.1-1.1,0.2
		c0.6-3.7,2.8-7.2,6.1-10c0.9,2.3,2.5,4.5,4.8,6.3c0,0.1,0,0.1,0,0.2c0,2.1,1.7,3.8,3.9,3.8c0,0,0,0,0,0c-2.1,0-3.8-1.7-3.8-3.8
		c0-0.1,0-0.1,0-0.2c-2.2-1.9-3.9-4-4.8-6.3c-0.5-1.4-0.8-2.9-0.8-4.4c0-1.1,0.2-2.2,0.5-3.2c-2.7,0.4-5.2,1.6-7.1,3.4
		c-2.1,1.9-3.2,4.4-3.2,7C55.1,34.4,56.6,37,59.2,39.1z"/>
	<path class="st1" d="M112,58.3c-5.9-5.7-13.9-9.2-22.7-9.2c-8.8,0-16.8,3.5-22.7,9.2H1.8l87.5,86.9l87.5-86.9H112z M89.3,52.1
		c16.3,0,29.6,13.3,29.6,29.6c0,16.3-13.3,29.6-29.6,29.6C73,111.3,59.8,98,59.8,81.7C59.8,65.4,73,52.1,89.3,52.1z M144.8,85.8
		l-12.3,12.2v0l-12.3,12.2v0l-12.3,12.2l-12.3,12.2v0l-6.2,6.1l-6.2-6.1v0l-12.3-12.2l-12.3-12.2L46.2,98.1L33.8,85.8L21.5,73.6
		L9.2,61.3h12.3h12.3h12.3h12.3h5.4c-2.3,2.9-4.1,6.2-5.4,9.7c-1.2,3.3-1.8,6.9-1.8,10.7c0,3.7,0.6,7.3,1.8,10.7
		c2.3,6.6,6.7,12.3,12.3,16.2c3.6,2.5,7.8,4.3,12.3,5.2v0c2,0.4,4.1,0.6,6.2,0.6c2.1,0,4.2-0.2,6.2-0.6c4.5-0.9,8.7-2.7,12.3-5.2
		c5.7-3.9,10-9.6,12.3-16.2v0c1.2-3.3,1.8-6.9,1.8-10.7c0-3.7-0.6-7.3-1.8-10.7c-1.2-3.6-3.1-6.8-5.4-9.7h5.4h12.3h12.3h12.3h12.3
		l-12.3,12.2L144.8,85.8z"/>
	<path class="st2" d="M88.7,78.4h2.4V80h3.1c1.2,0,1.5-1.9,1.5-1.9l0-0.6h0v-9.7H87V80h1.7V78.4z"/>
	<path class="st2" d="M103.8,80c1.3,0,2.8-4.1,2.8-4.1v0v0h-2.8v-3.4h2.8c0-3.6-3-4.7-3.1-4.7h-4v10.3c0,0.9-0.5,1.8-0.6,1.9
		L103.8,80L103.8,80z"/>
	<path class="st2" d="M95.7,86.1c0,0-0.1-1.7-1.1-1.7h-3.5v1.3h-2.4v-1.3H87v11.9h8.7V86.1z"/>
	<path class="st2" d="M106.6,89c0-3.5-2.8-4.6-3.2-4.6h-4.3c0,0.1,0.3,0.8,0.4,1.5h0v10.4h4.2c0,0,0.1,0,0.1,0
		c1.2,0,2.4-3.2,2.6-3.8h-2.6V89H106.6z"/>
	<polygon class="st2" points="82.8,67.8 75.7,67.8 75.7,72.3 78.1,72.3 78.1,76 75.7,76 75.7,80 82.8,80 	"/>
	<polygon class="st2" points="82.8,84.4 75.7,84.4 75.7,88.4 78.1,88.4 78.1,92.1 75.7,92.1 75.7,96.3 82.8,96.3 	"/>
	<path class="st2" d="M89.3,111.3c16.3,0,29.6-13.3,29.6-29.6c0-16.3-13.3-29.6-29.6-29.6c-16.3,0-29.6,13.3-29.6,29.6
		C59.8,98,73,111.3,89.3,111.3z M69.3,96.3h3v-4.2h-3v-3.7h3v-4h-3V80h3v-4h-3v-3.7h3v-4.5h-3v-4.1h13.5v-2.3c0-0.3-0.2-0.8-0.8-0.8
		h-1v-4.3l1.7,0c2.4,0,4.4,1.1,4.4,5.1v2.4h8.8v0c0,0,0.8-2.9-3.3-2.9c-3.7,0-3.8,1.4-3.8,1.4v-3.9c0,0,1.3-1.2,4.2-1.2
		c2.9,0,6.8,1.1,6.8,6.5v0.1h5.4c5,2.2,5.5,8.8,5.5,8.8h2.5v3.4h-2.9l0,0c0,4.4-2.8,6-2.8,6c2.9,1.5,3,6.9,3,7.2h2.6v3.4h-2.8
		c-0.6,5.8-4.8,7.6-4.8,7.6h-6c0,1.1-0.2,6.6-6.9,6.6c0,0-3.3-0.3-4.1-1.1v-3.9c0,0,0.8,1.3,3.5,1.3c2.7,0,3.7-0.9,3.7-2.9H87l0,0.5
		v1.5c0,2.8-2.5,4-3.6,4h-2.7v-4.3H82c0,0,0.6,0.1,0.6-0.6V100H69.3V96.3z"/>
	<path class="st3" d="M82.6,101c0,0.7-0.6,0.6-0.6,0.6h-1.3v4.3h2.7c1.1,0,3.6-1.1,3.6-4v-1.5l0-0.5h8.8c0,2-1,2.9-3.7,2.9
		c-2.7,0-3.5-1.3-3.5-1.3v3.9c0.8,0.9,4.1,1.1,4.1,1.1c6.7,0,6.9-5.6,6.9-6.6h6c0,0,4.2-1.8,4.8-7.6h2.8V89h-2.6
		c0-0.2-0.1-5.6-3-7.2c0,0,2.7-1.5,2.8-6l0,0h2.9v-3.4h-2.5c0,0-0.5-6.7-5.5-8.8h-5.4v-0.1c0-5.4-3.9-6.5-6.8-6.5
		c-2.9,0-4.2,1.2-4.2,1.2v3.9c0,0,0.1-1.4,3.8-1.4c4.1,0,3.3,2.9,3.3,2.9v0H87v-2.4c0-4-2-5.1-4.4-5.1l-1.7,0v4.3h1
		c0.7,0,0.8,0.5,0.8,0.8v2.3H69.3v4.1h3v4.5h-3V76h3v4h-3v4.4h3v4h-3v3.7h3v4.2h-3v3.7h13.3V101z M106.4,92.4
		c-0.2,0.6-1.4,3.8-2.6,3.8c-0.1,0-0.1,0-0.1,0h-4.2V85.9h0c-0.1-0.7-0.4-1.4-0.4-1.5h4.3c0.3,0,3.2,1.1,3.2,4.6h-2.8v3.4H106.4z
		 M99.5,78.1V67.8h4c0.1,0,3.1,1.1,3.1,4.7h-2.8v3.4h2.8v0v0c0,0-1.5,4.1-2.8,4.1l-0.1,0H99C99,79.9,99.5,78.9,99.5,78.1z M87,67.8
		h8.7v9.7h0l0,0.6c0,0-0.2,1.9-1.5,1.9h-3.1v-1.6h-2.4V80H87V67.8z M87,84.4h1.7v1.3h2.4v-1.3h3.5c1,0,1.1,1.7,1.1,1.7v10.2H87V84.4
		z M75.7,76h2.4v-3.7h-2.4v-4.5h7.2V80h-7.2V76z M75.7,96.3v-4.2h2.4v-3.7h-2.4v-4h7.2v11.9H75.7z"/>
	<polygon class="st3" points="21.5,61.3 21.5,73.6 33.8,85.8 33.8,61.3 	"/>
	<polygon class="st2" points="9.2,61.3 21.5,73.6 21.5,61.3 	"/>
	<path class="st3" d="M56.7,81.7c0-3.7,0.6-7.3,1.8-10.7v-9.7H46.2v36.7l12.3,12.2V92.4C57.3,89,56.7,85.4,56.7,81.7z"/>
	<polygon class="st2" points="33.8,61.3 33.8,85.8 46.2,98.1 46.2,61.3 	"/>
	<path class="st3" d="M83.2,113.7c-4.5-0.9-8.7-2.7-12.3-5.2v14l12.3,12.2V113.7L83.2,113.7z"/>
	<path class="st2" d="M58.5,92.4v17.9l12.3,12.2v-14C65.2,104.6,60.8,99,58.5,92.4z"/>
	<path class="st2" d="M63.9,61.3h-5.4V71C59.7,67.5,61.6,64.2,63.9,61.3z"/>
	<path class="st3" d="M95.5,113.7v21.1l12.3-12.2v-14C104.2,111.1,100,112.9,95.5,113.7z"/>
	<path class="st2" d="M89.3,114.3c-2.1,0-4.2-0.2-6.2-0.6v21.1v0l6.2,6.1l6.2-6.1v0v-21.1C93.5,114.1,91.4,114.3,89.3,114.3z"/>
	<path class="st3" d="M120.2,61.3V71c1.2,3.3,1.8,6.9,1.8,10.7c0,3.7-0.6,7.3-1.8,10.7v17.9v0l12.3-12.2v0V61.3H120.2z"/>
	<path class="st2" d="M120.2,92.4c-2.3,6.6-6.7,12.3-12.3,16.2v14l12.3-12.2V92.4L120.2,92.4z"/>
	<path class="st2" d="M114.8,61.3c2.3,2.9,4.1,6.2,5.4,9.7v-9.7H114.8z"/>
	<polygon class="st3" points="144.8,61.3 144.8,85.8 157.2,73.6 157.2,61.3 	"/>
	<polygon class="st2" points="132.5,61.3 132.5,98.1 144.8,85.8 144.8,61.3 	"/>
	<polygon class="st2" points="157.2,61.3 157.2,73.6 169.5,61.3 	"/>
	<path class="st4" d="M88.6,37.7c0.1-0.2,0.1-0.4,0.1-0.6c-1.9-0.3-3.3-1.9-3.3-3.8c0-1.4,0.8-2.6,1.9-3.3v-8.6
		c-7,0.3-13.3,2.2-18.1,5.1c0,0,0,0,0,0c0.5,2,1.7,3.9,3.6,5.5c0.5-0.2,1-0.3,1.5-0.3c0,0,0,0,0,0c0,0,0,0,0,0
		c2.1,0,3.8,1.7,3.8,3.9c0,1.5-0.9,2.8-2.2,3.5l0,0.1c0.4,0.7,1,1.3,1.8,1.5c0.4,0.1,0.8,0.2,1.1,0.2c0.4,0,0.8-0.1,1.1-0.3
		c0.7-0.4,1.3-1,1.5-1.8c0-0.1,0.1-0.2,0.1-0.3c-0.6-0.3-0.9-0.9-0.7-1.6c0.2-0.5,0.6-0.8,1.2-0.9c0.2,0,0.3,0,0.5,0.1
		c0.7,0.2,1,1,0.8,1.6c-0.1,0.2-0.2,0.4-0.4,0.6c0.4,0.7,1,1.2,1.7,1.5c0.4,0.1,0.8,0.2,1.1,0.2c0.4,0,0.8-0.1,1.1-0.3
		C87.8,39.1,88.4,38.5,88.6,37.7z"/>
	<path class="st4" d="M70.5,35.5c0-0.1,0-0.1,0-0.2c-2.2-1.9-3.9-4-4.8-6.3c-3.3,2.8-5.5,6.3-6.1,10c0.3-0.1,0.7-0.2,1.1-0.2
		c0,0,0,0,0,0c0,0,0,0,0,0c2.1,0,3.8,1.7,3.8,3.8c0,1-0.4,1.9-1,2.6c0.5,0.5,1.3,0.8,2.1,0.8c1.7,0,3-1.4,3-3c0-0.1,0-0.2,0-0.4
		c-0.7-0.1-1.2-0.6-1.2-1.3c0-0.7,0.6-1.3,1.3-1.3c0,0,0,0,0,0c0,0,0,0,0,0c0.7,0,1.3,0.6,1.3,1.3c0,0.3-0.1,0.5-0.2,0.7
		c0.6,0.5,1.3,0.8,2.1,0.8c1.7,0,3-1.4,3-3c0-0.2,0-0.4-0.1-0.6c-0.2,0-0.4,0.1-0.6,0.1c0,0,0,0,0,0c0,0,0,0,0,0
		C72.2,39.4,70.5,37.6,70.5,35.5z"/>
	<path class="st4" d="M91.3,30c1.1,0.7,1.9,1.9,1.9,3.3c0,1.9-1.4,3.5-3.3,3.8c0,0.2,0.1,0.4,0.1,0.6c0.3,0.8,0.8,1.4,1.5,1.8
		c0.4,0.2,0.7,0.3,1.1,0.3c0.4,0,0.8,0,1.1-0.2c0.7-0.2,1.3-0.8,1.7-1.5c-0.2-0.1-0.3-0.4-0.4-0.6c-0.2-0.7,0.1-1.4,0.8-1.6
		c0.2-0.1,0.4-0.1,0.5-0.1c0.5,0,1,0.4,1.2,0.9c0.2,0.6-0.1,1.3-0.7,1.6c0,0.1,0.1,0.2,0.1,0.3c0.3,0.8,0.8,1.4,1.5,1.8
		c0.4,0.2,0.7,0.3,1.1,0.3c0.4,0,0.8,0,1.1-0.2c0.8-0.3,1.4-0.8,1.8-1.5l0-0.1c-1.3-0.6-2.2-1.9-2.2-3.5c0-2.1,1.7-3.9,3.8-3.9
		c0,0,0,0,0,0c0,0,0,0,0,0c0.5,0,1.1,0.1,1.5,0.3c1.9-1.6,3.1-3.5,3.6-5.5c0,0,0,0,0,0c-4.8-3-11.1-4.8-18.1-5.1V30z"/>
	<path class="st4" d="M119,39c-0.6-3.7-2.8-7.2-6.1-10c-0.9,2.3-2.5,4.5-4.8,6.3c0,0.1,0,0.1,0,0.2c0,2.1-1.7,3.8-3.9,3.8
		c0,0,0,0,0,0c0,0,0,0,0,0c-0.2,0-0.4,0-0.6-0.1c0,0.2-0.1,0.4-0.1,0.6c0,1.7,1.3,3,3,3c0.8,0,1.5-0.3,2.1-0.8
		c-0.1-0.2-0.2-0.4-0.2-0.7c0-0.7,0.6-1.3,1.3-1.3c0,0,0,0,0,0c0,0,0,0,0,0c0.7,0,1.3,0.6,1.3,1.3c0,0.7-0.5,1.2-1.2,1.3
		c0,0.1,0,0.2,0,0.4c0,1.7,1.4,3,3,3c0.8,0,1.5-0.3,2.1-0.8c-0.6-0.7-1-1.6-1-2.6c0-2.1,1.7-3.8,3.8-3.8c0,0,0,0,0,0c0,0,0,0,0,0
		C118.3,38.8,118.7,38.9,119,39z"/>
	<path class="st1" d="M57,42.4c0,0.1,0,0.2,0,0.3c0,2.1,1.7,3.8,3.9,3.8c0.4,0,0.8-0.1,1.2-0.2c0.3,0.6,1.4,2.2,3.8,2.2
		c-0.2,0.1-0.3,0.2-0.5,0.3c-0.4,0.3-1,1.1-0.3,2.2c0.3,0.5,0.7,0.7,1.3,0.7c0.2,0,0.4,0,0.5-0.1l2,2.7l0.4-0.3
		c5.9-4.3,12.9-6.6,20.2-6.6c7.3,0,14.3,2.3,20.2,6.6l0.4,0.3l2-2.7c0.1,0,0.3,0.1,0.5,0.1c0.5,0,1-0.2,1.3-0.7
		c0.7-1,0.1-1.9-0.3-2.2c-0.2-0.1-0.3-0.2-0.5-0.3c2.4,0,3.5-1.6,3.8-2.2c0.4,0.1,0.8,0.2,1.2,0.2c2.1,0,3.9-1.7,3.9-3.8
		c0-0.1,0-0.2,0-0.3c3.7-2.9,5.8-6.7,5.8-10.7c0-3.6-1.6-7.2-4.5-9.9c-3.1-2.9-7.2-4.5-11.8-4.7c-3.5-4.9-10.5-8.5-18.8-9.2
		c0-1.4-0.9-2.6-2.2-3V4.4l1.5,0l0-1.8l-1.5,0l0-1.2l-0.9,0l-0.9,0l0,1.2l-1.5,0l0,1.8l1.5,0V5c-1.3,0.4-2.2,1.6-2.2,3
		C78,8.7,71,12.3,67.5,17.2c-4.6,0.1-8.8,1.7-11.8,4.7c-2.9,2.7-4.5,6.2-4.5,9.9C51.2,35.7,53.2,39.5,57,42.4z M112.9,29
		c0.5-1.4,0.8-2.9,0.8-4.4c0-1.1-0.2-2.2-0.5-3.2c2.7,0.4,5.2,1.6,7.1,3.4c2.1,1.9,3.2,4.4,3.2,7c0,2.7-1.5,5.3-4.1,7.4
		c-0.2-0.1-0.3-0.1-0.5-0.2c-0.3-0.1-0.7-0.2-1-0.2c0,0,0,0,0,0c-2.1,0-3.8,1.7-3.8,3.8c0,1,0.4,1.9,1,2.6c-0.5,0.5-1.3,0.8-2.1,0.8
		c0,0,0,0,0,0c-1.7,0-3-1.4-3-3c0-0.1,0-0.2,0-0.4c0.7-0.1,1.2-0.6,1.2-1.3c0-0.7-0.6-1.3-1.3-1.3c0,0,0,0,0,0
		c-0.7,0-1.3,0.6-1.3,1.3c0,0.3,0.1,0.5,0.2,0.7c-0.6,0.5-1.3,0.8-2.1,0.8c0,0,0,0,0,0c-1.7,0-3-1.4-3-3c0-0.2,0-0.4,0.1-0.6
		c0,0,0,0,0,0c0.2,0,0.4,0.1,0.6,0.1c0,0,0,0,0,0c2.1,0,3.8-1.7,3.8-3.8c0-0.1,0-0.1,0-0.2C110.3,33.5,112,31.3,112.9,29z
		 M93.2,33.3c0-1.4-0.8-2.6-1.9-3.3v-18c10.2,0.7,18.4,6.2,18.4,12.7c0,0.6-0.1,1.2-0.2,1.9c0,0,0,0,0,0c-0.5,2-1.7,3.9-3.6,5.5
		c0,0,0,0,0,0c-0.5-0.2-1-0.3-1.5-0.3c0,0,0,0,0,0c-2.1,0-3.8,1.7-3.8,3.9c0,1.5,0.9,2.8,2.2,3.5l0,0.1c-0.4,0.7-1,1.3-1.8,1.5
		c-0.4,0.1-0.8,0.2-1.1,0.2c-0.4,0-0.8-0.1-1.2-0.3c-0.7-0.4-1.3-1-1.5-1.8c0-0.1-0.1-0.2-0.1-0.3c0.6-0.3,0.9-0.9,0.7-1.6
		c-0.2-0.5-0.6-0.8-1.1-0.9c-0.2,0-0.3,0-0.5,0.1c-0.7,0.2-1,1-0.8,1.6c0.1,0.2,0.2,0.4,0.4,0.6c-0.4,0.7-1,1.2-1.7,1.5
		c-0.4,0.1-0.8,0.2-1.1,0.2c-0.4,0-0.8-0.1-1.2-0.3c-0.7-0.4-1.3-1-1.5-1.8c-0.1-0.2-0.1-0.4-0.1-0.6C91.7,36.8,93.2,35.2,93.2,33.3
		z M87.4,11.9v18c-1.1,0.7-1.9,1.9-1.9,3.3c0,1.9,1.4,3.5,3.3,3.8c0,0.2-0.1,0.4-0.1,0.6c-0.3,0.8-0.8,1.4-1.5,1.8
		c-0.4,0.2-0.8,0.3-1.2,0.3c-0.4,0-0.8,0-1.1-0.2c-0.7-0.2-1.3-0.8-1.7-1.5c0.2-0.1,0.3-0.4,0.4-0.6c0.2-0.7-0.1-1.4-0.8-1.6
		c-0.2-0.1-0.4-0.1-0.5-0.1c-0.5,0-0.9,0.4-1.1,0.9c-0.2,0.6,0.1,1.3,0.7,1.6c0,0.1-0.1,0.2-0.1,0.3c-0.3,0.8-0.8,1.4-1.5,1.8
		c-0.4,0.2-0.8,0.3-1.2,0.3c-0.4,0-0.8,0-1.1-0.2c-0.8-0.3-1.4-0.8-1.8-1.5l0-0.1c1.3-0.6,2.2-1.9,2.2-3.5c0-2.1-1.7-3.9-3.8-3.9
		c0,0,0,0,0,0c-0.5,0-1.1,0.1-1.5,0.3c0,0,0,0,0,0c-1.9-1.6-3.1-3.5-3.6-5.5c0,0,0,0,0,0c-0.1-0.6-0.2-1.2-0.2-1.9
		C69,18.1,77.2,12.6,87.4,11.9z M58.4,24.8c1.9-1.8,4.3-2.9,7.1-3.4c-0.3,1-0.5,2.1-0.5,3.2c0,1.5,0.3,3,0.8,4.4
		c0.9,2.3,2.5,4.5,4.8,6.3c0,0.1,0,0.1,0,0.2c0,2.1,1.7,3.8,3.8,3.8c0,0,0,0,0,0c0.2,0,0.4,0,0.6-0.1c0,0,0,0,0,0
		c0,0.2,0.1,0.4,0.1,0.6c0,1.7-1.4,3-3,3c0,0,0,0,0,0c-0.8,0-1.5-0.3-2.1-0.8c0.1-0.2,0.2-0.4,0.2-0.7c0-0.7-0.6-1.3-1.3-1.3
		c0,0,0,0,0,0c-0.7,0-1.3,0.6-1.3,1.3c0,0.7,0.5,1.2,1.2,1.3c0,0.1,0,0.2,0,0.4c0,1.7-1.4,3-3,3c0,0,0,0,0,0c-0.8,0-1.5-0.3-2.1-0.8
		c0.6-0.7,1-1.6,1-2.6c0-2.1-1.7-3.8-3.8-3.8c0,0,0,0,0,0c-0.4,0-0.7,0.1-1,0.2c-0.2,0-0.3,0.1-0.5,0.2c-2.6-2.1-4.1-4.7-4.1-7.4
		C55.1,29.2,56.3,26.7,58.4,24.8z"/>
</g>
</svg>
